<svg width="25" height="25" viewBox="0 0 25 25" fill="none" xmlns="http://www.w3.org/2000/svg">
<path d="M16.69 2.82129H8.31C4.67 2.82129 2.5 4.99129 2.5 8.63129V17.0013C2.5 20.6513 4.67 22.8213 8.31 22.8213H16.68C20.32 22.8213 22.49 20.6513 22.49 17.0113V8.63129C22.5 4.99129 20.33 2.82129 16.69 2.82129ZM10.41 17.0113C10.41 17.6513 9.89 18.1713 9.24 18.1713C8.6 18.1713 8.08 17.6513 8.08 17.0113V13.7513C8.08 13.1113 8.6 12.5913 9.24 12.5913C9.89 12.5913 10.41 13.1113 10.41 13.7513V17.0113ZM16.92 17.0113C16.92 17.6513 16.4 18.1713 15.76 18.1713C15.11 18.1713 14.59 17.6513 14.59 17.0113V8.63129C14.59 7.99129 15.11 7.47129 15.76 7.47129C16.4 7.47129 16.92 7.99129 16.92 8.63129V17.0113Z" fill="#0C95EF"/>
</svg>
