<svg width="25" height="25" viewBox="0 0 25 25" fill="none" xmlns="http://www.w3.org/2000/svg">
<path d="M22.5 13.8213V9.82129C22.5 4.82129 20.5 2.82129 15.5 2.82129H9.5C4.5 2.82129 2.5 4.82129 2.5 9.82129V15.8213C2.5 20.8213 4.5 22.8213 9.5 22.8213H13.5" stroke="#667085" stroke-width="1.5" stroke-linecap="round" stroke-linejoin="round"/>
<path d="M22.5 13.8213V9.82129C22.5 4.82129 20.5 2.82129 15.5 2.82129H9.5C4.5 2.82129 2.5 4.82129 2.5 9.82129V15.8213C2.5 20.8213 4.5 22.8213 9.5 22.8213H13.5" stroke="#667085" stroke-width="1.5" stroke-linecap="round" stroke-linejoin="round"/>
<path d="M22.5 13.8213V9.82129C22.5 4.82129 20.5 2.82129 15.5 2.82129H9.5C4.5 2.82129 2.5 4.82129 2.5 9.82129V15.8213C2.5 20.8213 4.5 22.8213 9.5 22.8213H13.5" stroke="#667085" stroke-width="1.5" stroke-linecap="round" stroke-linejoin="round"/>
<path d="M16.5 20.2513L18.08 21.8213L21.5 17.8213" stroke="#667085" stroke-width="1.5" stroke-linecap="round" stroke-linejoin="round"/>
<path d="M7.5 11.3213V14.3213" stroke="#667085" stroke-width="1.5" stroke-linecap="round" stroke-linejoin="round"/>
<path d="M12.5 11.3213V14.3213" stroke="#667085" stroke-width="1.5" stroke-linecap="round" stroke-linejoin="round"/>
<path d="M17.5 11.3213V14.3213" stroke="#667085" stroke-width="1.5" stroke-linecap="round" stroke-linejoin="round"/>
</svg>
