<svg width="25" height="25" viewBox="0 0 25 25" fill="none" xmlns="http://www.w3.org/2000/svg">
<path d="M9.5 22.8213H15.5C20.5 22.8213 22.5 20.8213 22.5 15.8213V9.82129C22.5 4.82129 20.5 2.82129 15.5 2.82129H9.5C4.5 2.82129 2.5 4.82129 2.5 9.82129V15.8213C2.5 20.8213 4.5 22.8213 9.5 22.8213Z" stroke="#667085" stroke-width="1.5" stroke-linecap="round" stroke-linejoin="round"/>
<path d="M16 19.3213C17.1 19.3213 18 18.4213 18 17.3213V8.32129C18 7.22129 17.1 6.32129 16 6.32129C14.9 6.32129 14 7.22129 14 8.32129V17.3213C14 18.4213 14.89 19.3213 16 19.3213Z" stroke="#667085" stroke-width="1.5" stroke-linecap="round" stroke-linejoin="round"/>
<path d="M9 19.3213C10.1 19.3213 11 18.4213 11 17.3213V13.8213C11 12.7213 10.1 11.8213 9 11.8213C7.9 11.8213 7 12.7213 7 13.8213V17.3213C7 18.4213 7.89 19.3213 9 19.3213Z" stroke="#667085" stroke-width="1.5" stroke-linecap="round" stroke-linejoin="round"/>
</svg>
