<svg width="17" height="16" viewBox="0 0 17 16" fill="none" xmlns="http://www.w3.org/2000/svg">
<path d="M15.1667 7.39967V4.59967C15.1667 2.26634 14.2333 1.33301 11.9 1.33301H9.10001C6.76668 1.33301 5.83334 2.26634 5.83334 4.59967V5.33301H7.90001C10.2333 5.33301 11.1667 6.26634 11.1667 8.59967V10.6663H11.9C14.2333 10.6663 15.1667 9.73301 15.1667 7.39967Z" stroke="#FAFDFF" stroke-linecap="round" stroke-linejoin="round"/>
<path d="M11.1667 11.3997V8.59967C11.1667 6.26634 10.2333 5.33301 7.90001 5.33301H5.10001C2.76668 5.33301 1.83334 6.26634 1.83334 8.59967V11.3997C1.83334 13.733 2.76668 14.6663 5.10001 14.6663H7.90001C10.2333 14.6663 11.1667 13.733 11.1667 11.3997Z" stroke="#FAFDFF" stroke-linecap="round" stroke-linejoin="round"/>
<path d="M4.55338 10.0002L5.85338 11.3002L8.44671 8.7002" stroke="#FAFDFF" stroke-linecap="round" stroke-linejoin="round"/>
</svg>
