<svg fill="none" height="9" viewBox="0 0 8 9" width="8" xmlns="http://www.w3.org/2000/svg"><g fill="#d0d5dd"><path d="m5.66667 7.83301h-3.33334c-.13666 0-.25-.11334-.25-.25 0-.13667.11334-.25.25-.25h3.33334c.13666 0 .25.11333.25.25 0 .13666-.11334.25-.25.25z"/><path d="m6.78333 2.33969-1.33333.95333c-.17667.12667-.43.05-.50667-.15333l-.63-1.68c-.10666-.29-.51666-.29-.62333 0l-.63333 1.67666c-.07667.20667-.32667.28334-.50334.15334l-1.33333-.95334c-.266667-.18666-.62.07667-.51.38667l1.38667 3.88333c.04666.13334.17333.22.31333.22h3.17667c.14 0 .26666-.09.31333-.22l1.38667-3.88333c.11333-.31-.24-.57333-.50334-.38333zm-1.95 3.07666h-1.66666c-.13667 0-.25-.11333-.25-.25 0-.13666.11333-.25.25-.25h1.66666c.13667 0 .25.11334.25.25 0 .13667-.11333.25-.25.25z"/></g></svg>