<svg width="17" height="16" viewBox="0 0 17 16" fill="none" xmlns="http://www.w3.org/2000/svg">
<path d="M8.6 11V12.4" stroke="#8ACDF9" stroke-linecap="round" stroke-linejoin="round"/>
<path d="M5.26667 14.667H11.9333V14.0003C11.9333 13.267 11.3333 12.667 10.6 12.667H6.6C5.86667 12.667 5.26667 13.267 5.26667 14.0003V14.667V14.667Z" stroke="#8ACDF9" stroke-miterlimit="10"/>
<path d="M4.6 14.667H12.6" stroke="#8ACDF9" stroke-linecap="round" stroke-linejoin="round"/>
<path d="M8.5 10.6663C5.92 10.6663 3.83333 8.57967 3.83333 5.99967V3.99967C3.83333 2.52634 5.02667 1.33301 6.5 1.33301H10.5C11.9733 1.33301 13.1667 2.52634 13.1667 3.99967V5.99967C13.1667 8.57967 11.08 10.6663 8.5 10.6663Z" stroke="#8ACDF9" stroke-linecap="round" stroke-linejoin="round"/>
<path d="M4.14667 7.76706C3.64667 7.60706 3.20667 7.31372 2.86 6.96706C2.26 6.30039 1.86 5.50039 1.86 4.56706C1.86 3.63372 2.59333 2.90039 3.52667 2.90039H3.96C3.82667 3.20706 3.76 3.54706 3.76 3.90039V5.90039C3.76 6.56706 3.9 7.19372 4.14667 7.76706Z" stroke="#8ACDF9" stroke-linecap="round" stroke-linejoin="round"/>
<path d="M12.8533 7.76706C13.3533 7.60706 13.7933 7.31372 14.14 6.96706C14.74 6.30039 15.14 5.50039 15.14 4.56706C15.14 3.63372 14.4067 2.90039 13.4733 2.90039H13.04C13.1733 3.20706 13.24 3.54706 13.24 3.90039V5.90039C13.24 6.56706 13.1 7.19372 12.8533 7.76706Z" stroke="#8ACDF9" stroke-width="1.5" stroke-linecap="round" stroke-linejoin="round"/>
</svg>
