<svg width="20" height="21" viewBox="0 0 20 21" fill="none" xmlns="http://www.w3.org/2000/svg">
<path d="M14.1751 11.1075C14.6676 11.1075 15.0668 10.7083 15.0668 10.2158C15.0668 9.72339 14.6676 9.32422 14.1751 9.32422C13.6827 9.32422 13.2834 9.72339 13.2834 10.2158C13.2834 10.7083 13.6827 11.1075 14.1751 11.1075Z" stroke="#20A0F3" stroke-width="1.2" stroke-linecap="round" stroke-linejoin="round"/>
<path d="M16.6667 5.49935V6.991C16.4584 6.966 16.2167 6.94934 15.9584 6.94934H12.3917C10.6084 6.94934 10.0167 7.54104 10.0167 9.32437V13.5827H5.00008C2.33341 13.5827 1.66675 12.916 1.66675 10.2494V5.49935C1.66675 2.83268 2.33341 2.16602 5.00008 2.16602H13.3334C16.0001 2.16602 16.6667 2.83268 16.6667 5.49935Z" stroke="#20A0F3" stroke-width="1.2" stroke-linecap="round" stroke-linejoin="round"/>
<path d="M7.5 13.584V17.1673" stroke="#20A0F3" stroke-width="1.2" stroke-linecap="round" stroke-linejoin="round"/>
<path d="M1.66675 10.416H10.0001" stroke="#20A0F3" stroke-width="1.2" stroke-linecap="round" stroke-linejoin="round"/>
<path d="M4.95825 17.166H9.99991" stroke="#20A0F3" stroke-width="1.2" stroke-linecap="round" stroke-linejoin="round"/>
<path d="M14.1749 11.1075C14.6673 11.1075 15.0665 10.7083 15.0665 10.2158C15.0665 9.72339 14.6673 9.32422 14.1749 9.32422C13.6824 9.32422 13.2832 9.72339 13.2832 10.2158C13.2832 10.7083 13.6824 11.1075 14.1749 11.1075Z" stroke="#20A0F3" stroke-width="1.2" stroke-miterlimit="10" stroke-linecap="round" stroke-linejoin="round"/>
<path d="M16.6666 6.99088C16.4583 6.96588 16.2166 6.94922 15.9583 6.94922H12.3916C10.6083 6.94922 10.0166 7.54092 10.0166 9.32425V16.4576C10.0166 18.2409 10.6083 18.8326 12.3916 18.8326H15.9583C17.7416 18.8326 18.3333 18.2409 18.3333 16.4576V9.32425C18.3333 7.79925 17.8999 7.14921 16.6666 6.99088ZM14.175 9.32425C14.6666 9.32425 15.0666 9.7242 15.0666 10.2159C15.0666 10.7075 14.6666 11.1075 14.175 11.1075C13.6833 11.1075 13.2833 10.7075 13.2833 10.2159C13.2833 9.7242 13.6833 9.32425 14.175 9.32425ZM14.175 16.4576C13.1916 16.4576 12.3916 15.6576 12.3916 14.6742C12.3916 14.2659 12.5333 13.8826 12.7666 13.5826C13.0916 13.1659 13.6 12.8909 14.175 12.8909C14.625 12.8909 15.0333 13.0576 15.3416 13.3242C15.7166 13.6576 15.9583 14.1409 15.9583 14.6742C15.9583 15.6576 15.1583 16.4576 14.175 16.4576Z" stroke="#20A0F3" stroke-width="1.2" stroke-miterlimit="10" stroke-linecap="round" stroke-linejoin="round"/>
<path d="M15.9583 14.674C15.9583 15.6573 15.1583 16.4573 14.1749 16.4573C13.1916 16.4573 12.3916 15.6573 12.3916 14.674C12.3916 14.2656 12.5333 13.8823 12.7666 13.5823C13.0916 13.1656 13.5999 12.8906 14.1749 12.8906C14.6249 12.8906 15.0333 13.0573 15.3416 13.324C15.7166 13.6573 15.9583 14.1406 15.9583 14.674Z" stroke="#20A0F3" stroke-width="1.2" stroke-miterlimit="10" stroke-linecap="round" stroke-linejoin="round"/>
<path d="M14.1749 11.1075C14.6673 11.1075 15.0665 10.7083 15.0665 10.2158C15.0665 9.72339 14.6673 9.32422 14.1749 9.32422C13.6824 9.32422 13.2832 9.72339 13.2832 10.2158C13.2832 10.7083 13.6824 11.1075 14.1749 11.1075Z" stroke="#20A0F3" stroke-width="1.2" stroke-miterlimit="10" stroke-linecap="round" stroke-linejoin="round"/>
</svg>
