<svg width="52" height="52" viewBox="0 0 52 52" fill="none" xmlns="http://www.w3.org/2000/svg">
<path d="M4.33301 32.9327V19.4993C4.33301 11.916 8.66634 8.66602 15.1663 8.66602H36.833C43.333 8.66602 47.6663 11.916 47.6663 19.4993V32.4993C47.6663 40.0827 43.333 43.3327 36.833 43.3327H18.4163" stroke="#94D1F9" stroke-width="1.5" stroke-miterlimit="10" stroke-linecap="round" stroke-linejoin="round"/>
<path d="M25.9997 31.4173C28.9912 31.4173 31.4163 28.9922 31.4163 26.0007C31.4163 23.0091 28.9912 20.584 25.9997 20.584C23.0081 20.584 20.583 23.0091 20.583 26.0007C20.583 28.9922 23.0081 31.4173 25.9997 31.4173Z" stroke="#94D1F9" stroke-width="1.5" stroke-miterlimit="10" stroke-linecap="round" stroke-linejoin="round"/>
<path d="M40.083 20.584V31.4173" stroke="#94D1F9" stroke-width="1.5" stroke-miterlimit="10" stroke-linecap="round" stroke-linejoin="round"/>
<path d="M19.5003 39.0007C19.5003 40.6257 19.0453 42.164 18.2436 43.464C16.7486 45.9773 13.997 47.6673 10.8337 47.6673C7.67033 47.6673 4.9187 45.9773 3.4237 43.464C2.62203 42.164 2.16699 40.6257 2.16699 39.0007C2.16699 34.2123 6.04533 30.334 10.8337 30.334C15.622 30.334 19.5003 34.2123 19.5003 39.0007Z" stroke="#94D1F9" stroke-width="1.5" stroke-miterlimit="10" stroke-linecap="round" stroke-linejoin="round"/>
<path d="M16.7917 33.041L4.875 44.9577" stroke="#94D1F9" stroke-width="1.5" stroke-miterlimit="10" stroke-linecap="round" stroke-linejoin="round"/>
</svg>
