<svg width="16" height="16" viewBox="0 0 16 16" fill="none" xmlns="http://www.w3.org/2000/svg">
<path d="M14 4.66683V11.3335C14 13.3335 13 14.6668 10.6667 14.6668H5.33333C3 14.6668 2 13.3335 2 11.3335V4.66683C2 2.66683 3 1.3335 5.33333 1.3335H10.6667C13 1.3335 14 2.66683 14 4.66683Z" stroke="#20A0F3" stroke-miterlimit="10" stroke-linecap="round" stroke-linejoin="round"/>
<path d="M10.3334 1.3335V6.57349C10.3334 6.86682 9.98667 7.01348 9.77334 6.82015L8.2267 5.39351C8.10004 5.27351 7.9 5.27351 7.77334 5.39351L6.2267 6.82015C6.01337 7.01348 5.66669 6.86682 5.66669 6.57349V1.3335H10.3334Z" stroke="#20A0F3" stroke-miterlimit="10" stroke-linecap="round" stroke-linejoin="round"/>
<path d="M8.83331 9.3335H11.6666" stroke="#20A0F3" stroke-miterlimit="10" stroke-linecap="round" stroke-linejoin="round"/>
<path d="M6 12H11.6667" stroke="#20A0F3" stroke-miterlimit="10" stroke-linecap="round" stroke-linejoin="round"/>
</svg>
