<svg width="24" height="24" viewBox="0 0 24 24" fill="none" xmlns="http://www.w3.org/2000/svg">
<path d="M20 12V18C20 20.21 18.21 22 16 22H8C5.79 22 4 20.21 4 18V12C4 11.45 4.45 11 5 11H6.97C7.52 11 7.97 11.45 7.97 12V15.14C7.97 15.88 8.38 16.56 9.03 16.91C9.32 17.07 9.64 17.15 9.97 17.15C10.35 17.15 10.73 17.04 11.06 16.82L12.01 16.2L12.89 16.79C13.5 17.2 14.28 17.25 14.93 16.9C15.59 16.55 16 15.88 16 15.13V12C16 11.45 16.45 11 17 11H19C19.55 11 20 11.45 20 12Z" fill="#ECF7FE"/>
<path d="M21.5 7V8C21.5 9.1 20.97 10 19.5 10H4.5C2.97 10 2.5 9.1 2.5 8V7C2.5 5.9 2.97 5 4.5 5H19.5C20.97 5 21.5 5.9 21.5 7Z" fill="#ECF7FE"/>
<path d="M11.64 4.99994H6.12C5.78 4.62994 5.79 4.05994 6.15 3.69994L7.57 2.27994C7.94 1.90994 8.55 1.90994 8.92 2.27994L11.64 4.99994Z" fill="#ECF7FE"/>
<path d="M17.8696 4.99994H12.3496L15.0696 2.27994C15.4396 1.90994 16.0496 1.90994 16.4196 2.27994L17.8396 3.69994C18.1996 4.05994 18.2096 4.62994 17.8696 4.99994Z" fill="#ECF7FE"/>
<path d="M13.9704 11C14.5204 11 14.9704 11.45 14.9704 12V15.13C14.9704 15.93 14.0804 16.41 13.4204 15.96L12.5204 15.36C12.1904 15.14 11.7604 15.14 11.4204 15.36L10.4804 15.98C9.82043 16.42 8.94043 15.94 8.94043 15.15V12C8.94043 11.45 9.39043 11 9.94043 11H13.9704Z" fill="#ECF7FE"/>
</svg>
