<svg width="24" height="25" viewBox="0 0 24 25" fill="none" xmlns="http://www.w3.org/2000/svg">
<path d="M20.83 8.83131L14.28 3.59131C13 2.57131 11 2.56131 9.73002 3.58131L3.18002 8.83131C2.24002 9.58131 1.67002 11.0813 1.87002 12.2613L3.13002 19.8013C3.42002 21.4913 4.99002 22.8213 6.70002 22.8213H17.3C18.99 22.8213 20.59 21.4613 20.88 19.7913L22.14 12.2513C22.32 11.0813 21.75 9.58131 20.83 8.83131ZM12.75 18.8213C12.75 19.2313 12.41 19.5713 12 19.5713C11.59 19.5713 11.25 19.2313 11.25 18.8213V15.8213C11.25 15.4113 11.59 15.0713 12 15.0713C12.41 15.0713 12.75 15.4113 12.75 15.8213V18.8213Z" fill="#20A0F3"/>
</svg>
