<svg width="20" height="20" viewBox="0 0 20 20" fill="none" xmlns="http://www.w3.org/2000/svg">
<path d="M10.0001 1.66602C5.40841 1.66602 1.66675 5.40768 1.66675 9.99935C1.66675 14.591 5.40841 18.3327 10.0001 18.3327C14.5917 18.3327 18.3334 14.591 18.3334 9.99935C18.3334 5.40768 14.5917 1.66602 10.0001 1.66602ZM9.37508 6.66602C9.37508 6.32435 9.65842 6.04102 10.0001 6.04102C10.3417 6.04102 10.6251 6.32435 10.6251 6.66602V10.8327C10.6251 11.1743 10.3417 11.4577 10.0001 11.4577C9.65842 11.4577 9.37508 11.1743 9.37508 10.8327V6.66602ZM10.7667 13.6493C10.7251 13.7577 10.6667 13.841 10.5917 13.9243C10.5084 13.9993 10.4167 14.0577 10.3167 14.0993C10.2167 14.141 10.1084 14.166 10.0001 14.166C9.89175 14.166 9.78341 14.141 9.68342 14.0993C9.58342 14.0577 9.49175 13.9993 9.40841 13.9243C9.33342 13.841 9.27508 13.7577 9.23342 13.6493C9.19175 13.5493 9.16675 13.441 9.16675 13.3327C9.16675 13.2243 9.19175 13.116 9.23342 13.016C9.27508 12.916 9.33342 12.8243 9.40841 12.741C9.49175 12.666 9.58342 12.6077 9.68342 12.566C9.88342 12.4827 10.1167 12.4827 10.3167 12.566C10.4167 12.6077 10.5084 12.666 10.5917 12.741C10.6667 12.8243 10.7251 12.916 10.7667 13.016C10.8084 13.116 10.8334 13.2243 10.8334 13.3327C10.8334 13.441 10.8084 13.5493 10.7667 13.6493Z" fill="#F97066"/>
</svg>
