<svg width="32" height="32" viewBox="0 0 32 32" fill="none" xmlns="http://www.w3.org/2000/svg">
<path d="M21.3132 14.6665H10.6465V19.9998C10.6465 21.9998 11.3132 22.6665 13.3132 22.6665H18.6465C20.6465 22.6665 21.3132 21.9998 21.3132 19.9998V14.6665Z" stroke="#20A0F3" stroke-miterlimit="10" stroke-linecap="round" stroke-linejoin="round"/>
<path d="M22.3334 12.6668V13.3335C22.3334 14.0668 21.98 14.6668 21 14.6668H11C9.98002 14.6668 9.66669 14.0668 9.66669 13.3335V12.6668C9.66669 11.9335 9.98002 11.3335 11 11.3335H21C21.98 11.3335 22.3334 11.9335 22.3334 12.6668Z" stroke="#20A0F3" stroke-miterlimit="10" stroke-linecap="round" stroke-linejoin="round"/>
<path d="M15.76 11.3333H12.08C11.8533 11.0866 11.86 10.7066 12.1 10.4666L13.0467 9.51996C13.2933 9.27329 13.7 9.27329 13.9467 9.51996L15.76 11.3333Z" stroke="#20A0F3" stroke-miterlimit="10" stroke-linecap="round" stroke-linejoin="round"/>
<path d="M19.9131 11.3333H16.2331L18.0464 9.51996C18.2931 9.27329 18.6998 9.27329 18.9464 9.51996L19.8931 10.4666C20.1331 10.7066 20.1398 11.0866 19.9131 11.3333Z" stroke="#20A0F3" stroke-miterlimit="10" stroke-linecap="round" stroke-linejoin="round"/>
<path d="M13.9603 14.6665V18.0932C13.9603 18.6265 14.5469 18.9398 14.9936 18.6532L15.6203 18.2398C15.8469 18.0932 16.1336 18.0932 16.3536 18.2398L16.9469 18.6398C17.3869 18.9332 17.9803 18.6198 17.9803 18.0865V14.6665H13.9603Z" stroke="#20A0F3" stroke-miterlimit="10" stroke-linecap="round" stroke-linejoin="round"/>
<rect x="0.3" y="0.3" width="31.4" height="31.4" rx="15.7" stroke="#20A0F3" stroke-width="0.6"/>
</svg>
