<svg width="16" height="16" viewBox="0 0 16 16" fill="none" xmlns="http://www.w3.org/2000/svg">
<path d="M13.3132 6.6665H2.64648V11.9998C2.64648 13.9998 3.31315 14.6665 5.31315 14.6665H10.6465C12.6465 14.6665 13.3132 13.9998 13.3132 11.9998V6.6665Z" stroke="#20A0F3" stroke-miterlimit="10" stroke-linecap="round" stroke-linejoin="round"/>
<path d="M14.3334 4.66683V5.3335C14.3334 6.06683 13.98 6.66683 13 6.66683H3.00002C1.98002 6.66683 1.66669 6.06683 1.66669 5.3335V4.66683C1.66669 3.9335 1.98002 3.3335 3.00002 3.3335H13C13.98 3.3335 14.3334 3.9335 14.3334 4.66683Z" stroke="#20A0F3" stroke-miterlimit="10" stroke-linecap="round" stroke-linejoin="round"/>
<path d="M7.76 3.33329H4.08C3.85333 3.08663 3.86 2.70663 4.1 2.46663L5.04667 1.51996C5.29333 1.27329 5.7 1.27329 5.94667 1.51996L7.76 3.33329Z" stroke="#20A0F3" stroke-miterlimit="10" stroke-linecap="round" stroke-linejoin="round"/>
<path d="M11.9131 3.33329H8.23309L10.0464 1.51996C10.2931 1.27329 10.6998 1.27329 10.9464 1.51996L11.8931 2.46663C12.1331 2.70663 12.1398 3.08663 11.9131 3.33329Z" stroke="#20A0F3" stroke-miterlimit="10" stroke-linecap="round" stroke-linejoin="round"/>
<path d="M5.96027 6.6665V10.0932C5.96027 10.6265 6.54693 10.9398 6.9936 10.6532L7.62027 10.2398C7.84693 10.0932 8.1336 10.0932 8.3536 10.2398L8.94693 10.6398C9.38693 10.9332 9.98027 10.6198 9.98027 10.0865V6.6665H5.96027Z" stroke="#20A0F3" stroke-miterlimit="10" stroke-linecap="round" stroke-linejoin="round"/>
</svg>
