<svg width="20" height="16" viewBox="0 0 20 16" fill="none" xmlns="http://www.w3.org/2000/svg">
<path d="M16.0834 4.60023V8.89192C16.0834 11.4586 14.6167 12.5586 12.4167 12.5586H5.09171C4.71671 12.5586 4.35838 12.5253 4.02504 12.4503C3.81671 12.4169 3.61672 12.3586 3.43339 12.2919C2.18339 11.8253 1.42505 10.7419 1.42505 8.89192V4.60023C1.42505 2.03356 2.89171 0.933594 5.09171 0.933594H12.4167C14.2834 0.933594 15.625 1.72526 15.9834 3.53359C16.0417 3.86692 16.0834 4.20856 16.0834 4.60023Z" stroke="#20A0F3" stroke-width="1.5" stroke-miterlimit="10" stroke-linecap="round" stroke-linejoin="round"/>
<path d="M18.5842 7.09984V11.3915C18.5842 13.9582 17.1176 15.0582 14.9176 15.0582H7.59254C6.97588 15.0582 6.41755 14.9749 5.93422 14.7915C4.94255 14.4249 4.26755 13.6665 4.02588 12.4499C4.35921 12.5249 4.71754 12.5582 5.09254 12.5582H12.4176C14.6176 12.5582 16.0842 11.4582 16.0842 8.89153V4.59984C16.0842 4.20818 16.0509 3.8582 15.9842 3.5332C17.5676 3.86654 18.5842 4.98318 18.5842 7.09984Z" stroke="#20A0F3" stroke-width="1.5" stroke-miterlimit="10" stroke-linecap="round" stroke-linejoin="round"/>
<path d="M8.74884 8.95081C9.96387 8.95081 10.9489 7.96582 10.9489 6.75079C10.9489 5.53577 9.96387 4.55078 8.74884 4.55078C7.53381 4.55078 6.54883 5.53577 6.54883 6.75079C6.54883 7.96582 7.53381 8.95081 8.74884 8.95081Z" stroke="#20A0F3" stroke-width="1.5" stroke-miterlimit="10" stroke-linecap="round" stroke-linejoin="round"/>
<path d="M3.9834 4.91602V8.5827" stroke="#20A0F3" stroke-width="1.5" stroke-miterlimit="10" stroke-linecap="round" stroke-linejoin="round"/>
<path d="M13.5181 4.91797V8.58466" stroke="#20A0F3" stroke-width="1.5" stroke-miterlimit="10" stroke-linecap="round" stroke-linejoin="round"/>
</svg>
