<svg width="17" height="16" viewBox="0 0 17 16" fill="none" xmlns="http://www.w3.org/2000/svg">
<path d="M8.51306 1.94043C6.3064 1.94043 4.51306 3.73376 4.51306 5.94043V7.8671C4.51306 8.27376 4.33973 8.89376 4.13306 9.24043L3.3664 10.5138C2.89306 11.3004 3.21973 12.1738 4.0864 12.4671C6.95973 13.4271 10.0597 13.4271 12.9331 12.4671C13.7397 12.2004 14.0931 11.2471 13.6531 10.5138L12.8864 9.24043C12.6864 8.89376 12.5131 8.27376 12.5131 7.8671V5.94043C12.5131 3.74043 10.7131 1.94043 8.51306 1.94043Z" stroke="#8ACDF9" stroke-miterlimit="10" stroke-linecap="round"/>
<path d="M9.74667 2.13297C9.54 2.07297 9.32667 2.0263 9.10667 1.99964C8.46667 1.91964 7.85333 1.9663 7.28 2.13297C7.47333 1.63964 7.95333 1.29297 8.51333 1.29297C9.07333 1.29297 9.55333 1.63964 9.74667 2.13297Z" stroke="#8ACDF9" stroke-miterlimit="10" stroke-linecap="round" stroke-linejoin="round"/>
<path d="M10.513 12.707C10.513 13.807 9.61302 14.707 8.51302 14.707C7.96636 14.707 7.45969 14.4804 7.09969 14.1204C6.73969 13.7604 6.51302 13.2537 6.51302 12.707" stroke="#8ACDF9" stroke-miterlimit="10"/>
</svg>
