<svg width="375" height="513" viewBox="0 0 375 513" fill="none" xmlns="http://www.w3.org/2000/svg">
<path d="M283.434 378.999C255.581 402.459 210.649 406.207 170.309 399.478C129.952 392.988 93.914 376.482 73.7643 349.346C53.8535 322.228 49.8142 284.719 55.1259 250.761C60.4205 217.042 75.3221 186.652 99.8828 152.15C124.205 117.632 158.442 78.7801 191.035 79.6719C223.628 80.5636 255.056 121.233 278.515 159.171C301.974 197.109 317.685 232.571 319.898 272.11C322.367 311.428 311.304 355.3 283.434 378.999Z" fill="#D3ECFD"/>
<path d="M190 356.246C254.678 356.246 307.109 353.185 307.109 349.409C307.109 345.633 254.678 342.572 190 342.572C125.322 342.572 72.8905 345.633 72.8905 349.409C72.8905 353.185 125.322 356.246 190 356.246Z" fill="#F5F5F5"/>
<path d="M154.569 336.253H95.2626V347.415H154.569V336.253Z" fill="#0C95EF"/>
<path opacity="0.2" d="M154.569 336.253H95.2626V337.522H154.569V336.253Z" fill="black"/>
<path opacity="0.2" d="M101.943 336.253H99.6054V347.415H101.943V336.253Z" fill="black"/>
<path opacity="0.2" d="M107.306 336.253H104.969V347.415H107.306V336.253Z" fill="black"/>
<path opacity="0.2" d="M112.676 336.253H110.338V347.415H112.676V336.253Z" fill="black"/>
<path opacity="0.2" d="M118.039 336.253H115.702V347.415H118.039V336.253Z" fill="black"/>
<path opacity="0.2" d="M123.403 336.253H121.065V347.415H123.403V336.253Z" fill="black"/>
<path opacity="0.2" d="M128.773 336.253H126.435V347.415H128.773V336.253Z" fill="black"/>
<path opacity="0.2" d="M134.136 336.253H131.799V347.415H134.136V336.253Z" fill="black"/>
<path opacity="0.2" d="M139.5 336.253H137.162V347.415H139.5V336.253Z" fill="black"/>
<path opacity="0.2" d="M144.869 336.253H142.532V347.415H144.869V336.253Z" fill="black"/>
<path opacity="0.2" d="M150.233 336.253H147.895V347.415H150.233V336.253Z" fill="black"/>
<path d="M152.159 325.092H92.8526V336.254H152.159V325.092Z" fill="#0C95EF"/>
<path opacity="0.2" d="M152.159 325.092H92.8526V326.36H152.159V325.092Z" fill="black"/>
<path opacity="0.2" d="M99.5268 325.092H97.1894V336.254H99.5268V325.092Z" fill="black"/>
<path opacity="0.2" d="M104.896 325.092H102.559V336.254H104.896V325.092Z" fill="black"/>
<path opacity="0.2" d="M110.26 325.092H107.922V336.254H110.26V325.092Z" fill="black"/>
<path opacity="0.2" d="M115.623 325.092H113.286V336.254H115.623V325.092Z" fill="black"/>
<path opacity="0.2" d="M120.993 325.092H118.656V336.254H120.993V325.092Z" fill="black"/>
<path opacity="0.2" d="M126.357 325.092H124.019V336.254H126.357V325.092Z" fill="black"/>
<path opacity="0.2" d="M131.72 325.092H129.383V336.254H131.72V325.092Z" fill="black"/>
<path opacity="0.2" d="M137.09 325.092H134.752V336.254H137.09V325.092Z" fill="black"/>
<path opacity="0.2" d="M142.453 325.092H140.116V336.254H142.453V325.092Z" fill="black"/>
<path opacity="0.2" d="M147.817 325.092H145.479V336.254H147.817V325.092Z" fill="black"/>
<path d="M150.45 313.93H91.1433V325.092H150.45V313.93Z" fill="#0C95EF"/>
<path opacity="0.2" d="M150.45 313.93H91.1433V315.198H150.45V313.93Z" fill="black"/>
<path opacity="0.2" d="M97.8236 313.93H95.4861V325.092H97.8236V313.93Z" fill="black"/>
<path opacity="0.2" d="M103.187 313.93H100.85V325.092H103.187V313.93Z" fill="black"/>
<path opacity="0.2" d="M108.557 313.93H106.219V325.092H108.557V313.93Z" fill="black"/>
<path opacity="0.2" d="M113.92 313.93H111.583V325.092H113.92V313.93Z" fill="black"/>
<path opacity="0.2" d="M119.284 313.93H116.946V325.092H119.284V313.93Z" fill="black"/>
<path opacity="0.2" d="M124.653 313.93H122.316V325.092H124.653V313.93Z" fill="black"/>
<path opacity="0.2" d="M130.017 313.93H127.679V325.092H130.017V313.93Z" fill="black"/>
<path opacity="0.2" d="M135.38 313.93H133.043V325.092H135.38V313.93Z" fill="black"/>
<path opacity="0.2" d="M140.75 313.93H138.412V325.092H140.75V313.93Z" fill="black"/>
<path opacity="0.2" d="M146.113 313.93H143.776V325.092H146.113V313.93Z" fill="black"/>
<path d="M153.138 302.774H93.8311V313.936H153.138V302.774Z" fill="#0C95EF"/>
<path opacity="0.2" d="M153.138 302.774H93.8311V304.042H153.138V302.774Z" fill="black"/>
<path opacity="0.2" d="M100.505 302.774H98.1678V313.936H100.505V302.774Z" fill="black"/>
<path opacity="0.2" d="M105.875 302.774H103.537V313.936H105.875V302.774Z" fill="black"/>
<path opacity="0.2" d="M111.238 302.774H108.901V313.936H111.238V302.774Z" fill="black"/>
<path opacity="0.2" d="M116.602 302.774H114.264V313.936H116.602V302.774Z" fill="black"/>
<path opacity="0.2" d="M121.971 302.774H119.634V313.936H121.971V302.774Z" fill="black"/>
<path opacity="0.2" d="M127.335 302.774H124.998V313.936H127.335V302.774Z" fill="black"/>
<path opacity="0.2" d="M132.699 302.774H130.361V313.936H132.699V302.774Z" fill="black"/>
<path opacity="0.2" d="M138.068 302.774H135.731V313.936H138.068V302.774Z" fill="black"/>
<path opacity="0.2" d="M143.432 302.774H141.094V313.936H143.432V302.774Z" fill="black"/>
<path opacity="0.2" d="M148.795 302.774H146.458V313.936H148.795V302.774Z" fill="black"/>
<path d="M91.2279 302.768H150.535V291.606H91.2279V302.768Z" fill="#0C95EF"/>
<path opacity="0.2" d="M91.2279 292.875H150.535V291.606H91.2279V292.875Z" fill="black"/>
<path opacity="0.2" d="M143.854 302.768H146.192V291.606H143.854V302.768Z" fill="black"/>
<path opacity="0.2" d="M138.485 302.768H140.822V291.606H138.485V302.768Z" fill="black"/>
<path opacity="0.2" d="M133.121 302.768H135.459V291.606H133.121V302.768Z" fill="black"/>
<path opacity="0.2" d="M127.758 302.768H130.095V291.606H127.758V302.768Z" fill="black"/>
<path opacity="0.2" d="M122.388 302.768H124.726V291.606H122.388V302.768Z" fill="black"/>
<path opacity="0.2" d="M117.025 302.768H119.362V291.606H117.025V302.768Z" fill="black"/>
<path opacity="0.2" d="M111.661 302.768H113.999V291.606H111.661V302.768Z" fill="black"/>
<path opacity="0.2" d="M106.292 302.768H108.629V291.606H106.292V302.768Z" fill="black"/>
<path opacity="0.2" d="M100.928 302.768H103.266V291.606H100.928V302.768Z" fill="black"/>
<path opacity="0.2" d="M95.5646 302.768H97.9021V291.606H95.5646V302.768Z" fill="black"/>
<path d="M93.6378 291.612H152.945V280.45H93.6378V291.612Z" fill="#0C95EF"/>
<path opacity="0.2" d="M93.6378 281.718H152.945V280.45H93.6378V281.718Z" fill="black"/>
<path opacity="0.2" d="M146.264 291.612H148.602V280.45H146.264V291.612Z" fill="black"/>
<path opacity="0.2" d="M140.907 291.612H143.244V280.45H140.907V291.612Z" fill="black"/>
<path opacity="0.2" d="M135.537 291.612H137.875V280.45H135.537V291.612Z" fill="black"/>
<path opacity="0.2" d="M130.168 291.612H132.505V280.45H130.168V291.612Z" fill="black"/>
<path opacity="0.2" d="M124.81 291.612H127.148V280.45H124.81V291.612Z" fill="black"/>
<path opacity="0.2" d="M119.441 291.612H121.778V280.45H119.441V291.612Z" fill="black"/>
<path opacity="0.2" d="M114.071 291.612H116.409V280.45H114.071V291.612Z" fill="black"/>
<path opacity="0.2" d="M108.714 291.612H111.051V280.45H108.714V291.612Z" fill="black"/>
<path opacity="0.2" d="M103.344 291.612H105.682V280.45H103.344V291.612Z" fill="black"/>
<path opacity="0.2" d="M97.9746 291.612H100.312V280.45H97.9746V291.612Z" fill="black"/>
<path d="M95.3472 280.45H154.654V269.288H95.3472V280.45Z" fill="#0C95EF"/>
<path opacity="0.2" d="M95.3472 270.557H154.654V269.288H95.3472V270.557Z" fill="black"/>
<path opacity="0.2" d="M147.974 280.45H150.311V269.288H147.974V280.45Z" fill="black"/>
<path opacity="0.2" d="M142.604 280.45H144.942V269.288H142.604V280.45Z" fill="black"/>
<path opacity="0.2" d="M137.241 280.45H139.578V269.288H137.241V280.45Z" fill="black"/>
<path opacity="0.2" d="M131.877 280.45H134.215V269.288H131.877V280.45Z" fill="black"/>
<path opacity="0.2" d="M126.508 280.45H128.845V269.288H126.508V280.45Z" fill="black"/>
<path opacity="0.2" d="M121.144 280.45H123.481V269.288H121.144V280.45Z" fill="black"/>
<path opacity="0.2" d="M115.78 280.45H118.118V269.288H115.78V280.45Z" fill="black"/>
<path opacity="0.2" d="M110.411 280.45H112.748V269.288H110.411V280.45Z" fill="black"/>
<path opacity="0.2" d="M105.047 280.45H107.385V269.288H105.047V280.45Z" fill="black"/>
<path opacity="0.2" d="M99.6839 280.45H102.021V269.288H99.6839V280.45Z" fill="black"/>
<path d="M92.6594 269.288H151.966V258.126H92.6594V269.288Z" fill="#0C95EF"/>
<path opacity="0.2" d="M92.6594 259.395H151.966V258.126H92.6594V259.395Z" fill="black"/>
<path opacity="0.2" d="M145.286 269.288H147.623V258.126H145.286V269.288Z" fill="black"/>
<path opacity="0.2" d="M139.928 269.288H142.266V258.126H139.928V269.288Z" fill="black"/>
<path opacity="0.2" d="M134.559 269.288H136.896V258.126H134.559V269.288Z" fill="black"/>
<path opacity="0.2" d="M129.189 269.288H131.527V258.126H129.189V269.288Z" fill="black"/>
<path opacity="0.2" d="M123.832 269.288H126.169V258.126H123.832V269.288Z" fill="black"/>
<path opacity="0.2" d="M118.462 269.288H120.8V258.126H118.462V269.288Z" fill="black"/>
<path opacity="0.2" d="M113.093 269.288H115.43V258.126H113.093V269.288Z" fill="black"/>
<path opacity="0.2" d="M107.735 269.288H110.073V258.126H107.735V269.288Z" fill="black"/>
<path opacity="0.2" d="M102.366 269.288H104.703V258.126H102.366V269.288Z" fill="black"/>
<path opacity="0.2" d="M96.9961 269.288H99.3336V258.126H96.9961V269.288Z" fill="black"/>
<path d="M280.999 213.968L257.346 218.021C256.891 218.097 256.469 218.308 256.134 218.625C255.799 218.942 255.565 219.352 255.464 219.802C255.362 220.252 255.396 220.722 255.563 221.152C255.729 221.583 256.02 221.954 256.398 222.219L260.759 225.305L234.02 263.103C233.846 263.349 233.625 263.558 233.37 263.719C233.115 263.879 232.831 263.988 232.535 264.038C232.238 264.089 231.934 264.08 231.641 264.013C231.347 263.946 231.07 263.821 230.824 263.647L191.522 235.863C191.024 235.513 190.408 235.374 189.808 235.477C189.208 235.58 188.673 235.916 188.321 236.413L109.094 348.394H137.567L193.878 268.793C194.052 268.547 194.272 268.338 194.527 268.178C194.782 268.018 195.066 267.909 195.362 267.859C195.659 267.808 195.963 267.817 196.257 267.884C196.55 267.951 196.827 268.075 197.073 268.25L236.375 296.034C236.621 296.208 236.899 296.332 237.194 296.399C237.488 296.465 237.792 296.473 238.09 296.422C238.387 296.371 238.671 296.262 238.926 296.101C239.181 295.94 239.402 295.73 239.576 295.484L279.736 238.708L284.103 241.794C284.48 242.054 284.924 242.197 285.381 242.206C285.838 242.215 286.287 242.089 286.674 241.844C287.06 241.6 287.366 241.247 287.553 240.83C287.74 240.413 287.801 239.95 287.727 239.499L283.668 215.847C283.559 215.246 283.218 214.712 282.718 214.36C282.219 214.009 281.601 213.868 280.999 213.968Z" fill="#0C95EF"/>
<path opacity="0.2" d="M280.999 213.968L257.346 218.021C256.891 218.097 256.469 218.308 256.134 218.625C255.799 218.942 255.565 219.352 255.464 219.802C255.362 220.252 255.396 220.722 255.563 221.152C255.729 221.583 256.02 221.954 256.398 222.219L260.759 225.305L234.02 263.103C233.846 263.349 233.625 263.558 233.37 263.719C233.115 263.879 232.831 263.988 232.535 264.038C232.238 264.089 231.934 264.08 231.641 264.013C231.347 263.946 231.07 263.821 230.824 263.647L191.522 235.863C191.024 235.513 190.408 235.374 189.808 235.477C189.208 235.58 188.673 235.916 188.321 236.413L109.094 348.394H137.567L193.878 268.793C194.052 268.547 194.272 268.338 194.527 268.178C194.782 268.018 195.066 267.909 195.362 267.859C195.659 267.808 195.963 267.817 196.257 267.884C196.55 267.951 196.827 268.075 197.073 268.25L236.375 296.034C236.621 296.208 236.899 296.332 237.194 296.399C237.488 296.465 237.792 296.473 238.09 296.422C238.387 296.371 238.671 296.262 238.926 296.101C239.181 295.94 239.402 295.73 239.576 295.484L279.736 238.708L284.103 241.794C284.48 242.054 284.924 242.197 285.381 242.206C285.838 242.215 286.287 242.089 286.674 241.844C287.06 241.6 287.366 241.247 287.553 240.83C287.74 240.413 287.801 239.95 287.727 239.499L283.668 215.847C283.559 215.246 283.218 214.712 282.718 214.36C282.219 214.009 281.601 213.868 280.999 213.968Z" fill="black"/>
<path opacity="0.2" d="M135.785 345.103H115.744C115.717 345.102 115.69 345.093 115.666 345.078C115.643 345.063 115.624 345.043 115.611 345.018C115.597 344.994 115.589 344.967 115.589 344.94C115.589 344.912 115.597 344.885 115.611 344.861L189.009 241.094C189.193 240.83 189.428 240.604 189.699 240.431C189.97 240.258 190.273 240.139 190.59 240.083C190.907 240.027 191.232 240.034 191.547 240.104C191.861 240.174 192.158 240.305 192.422 240.49L231.718 268.274C231.949 268.441 232.211 268.561 232.489 268.626C232.767 268.691 233.055 268.7 233.336 268.652C233.617 268.604 233.886 268.5 234.127 268.347C234.368 268.194 234.576 267.995 234.738 267.76L265.367 224.466L260.535 221.029C260.509 221.013 260.489 220.989 260.478 220.961C260.467 220.932 260.466 220.901 260.475 220.872C260.481 220.843 260.496 220.817 260.518 220.796C260.539 220.776 260.566 220.762 260.595 220.757L280.527 217.345C280.546 217.341 280.566 217.342 280.585 217.346C280.604 217.35 280.622 217.358 280.637 217.369C280.653 217.381 280.667 217.395 280.677 217.411C280.687 217.428 280.694 217.446 280.697 217.465L284.109 237.397C284.114 237.427 284.11 237.458 284.098 237.485C284.086 237.513 284.067 237.537 284.043 237.554C284.017 237.571 283.988 237.579 283.958 237.579C283.928 237.579 283.899 237.571 283.874 237.554L279.042 234.118L238.966 290.773C238.782 291.036 238.548 291.261 238.277 291.434C238.007 291.607 237.704 291.724 237.388 291.78C237.072 291.837 236.747 291.83 236.434 291.761C236.12 291.691 235.823 291.561 235.56 291.377L196.257 263.593C196.027 263.43 195.768 263.314 195.493 263.252C195.218 263.19 194.934 263.182 194.656 263.23C194.378 263.278 194.113 263.38 193.875 263.53C193.636 263.68 193.43 263.876 193.268 264.106L135.912 345.036C135.897 345.057 135.878 345.073 135.856 345.085C135.834 345.096 135.81 345.102 135.785 345.103ZM116.034 344.801H135.706L192.929 263.907C193.302 263.375 193.871 263.012 194.511 262.899C195.151 262.786 195.809 262.931 196.342 263.303L235.644 291.087C235.874 291.25 236.134 291.365 236.409 291.428C236.683 291.49 236.968 291.498 237.245 291.45C237.523 291.402 237.789 291.3 238.027 291.15C238.265 291 238.471 290.804 238.634 290.574L278.794 233.798C278.804 233.781 278.818 233.766 278.835 233.756C278.852 233.745 278.871 233.739 278.891 233.737C278.908 233.729 278.928 233.724 278.948 233.724C278.968 233.724 278.987 233.729 279.005 233.737L283.686 237.047L280.358 217.713L260.964 221.035L265.645 224.345C265.676 224.369 265.697 224.403 265.705 224.442C265.72 224.478 265.72 224.52 265.705 224.556L234.992 267.978C234.808 268.241 234.573 268.464 234.301 268.636C234.029 268.807 233.726 268.922 233.409 268.975C232.775 269.08 232.124 268.933 231.597 268.564L192.301 240.78C192.07 240.612 191.808 240.493 191.53 240.428C191.253 240.363 190.965 240.354 190.683 240.402C190.402 240.45 190.133 240.553 189.892 240.706C189.652 240.859 189.444 241.059 189.281 241.293L116.034 344.801Z" fill="white"/>
<path d="M249.222 310.481H246.74V347.416H249.222V310.481Z" fill="#263238"/>
<path d="M270.942 290.356H268.46V347.416H270.942V290.356Z" fill="#263238"/>
<path d="M293.061 304.042H290.578V347.416H293.061V304.042Z" fill="#263238"/>
<path d="M246.746 310.481H229.339V347.416H246.746V310.481Z" fill="#0C95EF"/>
<path opacity="0.2" d="M229.339 310.481V332.382L238.036 310.481H229.339Z" fill="white"/>
<path d="M268.46 290.356H251.052V347.416H268.46V290.356Z" fill="#0C95EF"/>
<path opacity="0.2" d="M251.052 290.356V312.257L259.756 290.356H251.052Z" fill="white"/>
<path d="M290.584 304.042H273.177V347.416H290.584V304.042Z" fill="#0C95EF"/>
<path opacity="0.2" d="M273.177 304.042V323.534L281.88 304.042H273.177Z" fill="white"/>
<path d="M188.84 344.396L184.171 343.52L184.963 332.473L189.632 333.354L188.84 344.396Z" fill="#D2918E"/>
<path d="M220.26 344.268H215.507L214.329 333.27H219.077L220.26 344.268Z" fill="#D2918E"/>
<path d="M215.12 343.719H220.907C221.001 343.72 221.093 343.752 221.166 343.811C221.24 343.871 221.291 343.953 221.311 344.045L222.254 348.273C222.275 348.376 222.274 348.483 222.249 348.585C222.224 348.687 222.176 348.782 222.109 348.863C222.043 348.944 221.959 349.009 221.863 349.054C221.768 349.098 221.664 349.12 221.559 349.119C219.693 349.089 218.334 348.974 215.99 348.974C214.547 348.974 210.192 349.125 208.198 349.125C206.205 349.125 205.946 347.156 206.761 346.975C210.421 346.178 213.175 345.072 214.347 344.021C214.558 343.828 214.834 343.72 215.12 343.719Z" fill="#263238"/>
<path d="M184.268 342.493L189.384 343.375C189.476 343.391 189.561 343.438 189.623 343.508C189.686 343.578 189.723 343.668 189.728 343.761L189.934 348.08C189.939 348.184 189.92 348.289 189.88 348.385C189.839 348.481 189.778 348.567 189.699 348.636C189.621 348.705 189.528 348.756 189.427 348.784C189.327 348.812 189.221 348.817 189.118 348.799C187.306 348.448 184.63 347.881 182.317 347.482C179.605 347.017 178.282 346.679 175.105 346.129C173.185 345.797 173.601 343.713 174.441 343.659C178.24 343.49 179.581 344.069 183.078 342.662C183.451 342.496 183.863 342.437 184.268 342.493Z" fill="#263238"/>
<path d="M200.534 198.922C200.371 199.405 200.244 199.755 200.093 200.13C199.942 200.504 199.791 200.903 199.634 201.284C199.32 202.051 198.987 202.8 198.637 203.549C197.938 205.052 197.153 206.514 196.288 207.928C194.517 210.952 192.21 213.629 189.481 215.828C188.721 216.407 187.912 216.921 187.065 217.362C186.847 217.483 186.624 217.586 186.394 217.688C186.165 217.791 185.959 217.888 185.687 217.99C185.152 218.187 184.6 218.337 184.038 218.437C183.126 218.591 182.203 218.67 181.278 218.673C180.408 218.673 179.575 218.673 178.753 218.594C175.549 218.339 172.379 217.764 169.289 216.879L169.766 213.345C172.786 213.231 175.848 213.134 178.723 212.88C179.442 212.814 180.149 212.729 180.819 212.627C181.433 212.543 182.039 212.41 182.631 212.228C182.824 212.173 183.011 212.096 183.187 211.999C183.386 211.878 183.658 211.763 183.881 211.606C184.374 211.296 184.84 210.946 185.277 210.561C186.24 209.706 187.109 208.751 187.868 207.71C188.695 206.607 189.449 205.45 190.127 204.249C190.833 203.041 191.468 201.755 192.09 200.462C192.392 199.816 192.694 199.158 192.96 198.499L193.364 197.515L193.733 196.584L200.534 198.922Z" fill="#D2918E"/>
<path d="M198.245 193.353C206.912 193.353 197.387 212.077 197.387 212.077L186.328 207.601C186.328 207.601 189.348 201.09 191.335 197.364C191.978 196.101 192.973 195.051 194.198 194.34C195.424 193.628 196.829 193.286 198.245 193.353Z" fill="#0C95EF"/>
<g opacity="0.3">
<path d="M198.245 193.353C206.912 193.353 197.387 212.077 197.387 212.077L186.328 207.601C186.328 207.601 189.348 201.09 191.335 197.364C191.978 196.101 192.973 195.051 194.198 194.34C195.424 193.628 196.829 193.286 198.245 193.353Z" fill="white"/>
</g>
<path opacity="0.2" d="M196.125 199.405C192.954 201.634 190.749 205.771 190.121 209.13L196.439 211.691C197.586 209.975 198.704 207.952 199.936 206.176C200.274 205.252 200.606 204.28 200.896 203.295L196.125 199.405Z" fill="black"/>
<path d="M172.484 213.798L168.685 211.654L165.774 217.09C167.455 217.375 169.176 217.332 170.841 216.963L172.484 213.798Z" fill="#D2918E"/>
<path d="M165.049 211.654L162.935 216.45L165.749 217.108L168.661 211.654H165.049Z" fill="#D2918E"/>
<path opacity="0.2" d="M184.963 332.479L184.558 338.168L189.227 339.044L189.632 333.354L184.963 332.479Z" fill="black"/>
<path opacity="0.2" d="M219.077 333.276H214.323L214.939 338.947H219.687L219.077 333.276Z" fill="black"/>
<path d="M221.879 195.425C220.486 200.551 219.477 205.774 218.859 211.05C218.406 214.729 218.14 218.238 217.971 221.427C217.573 228.892 217.742 234.582 217.518 236.527C213.804 236.273 199.809 235.319 192.15 234.763C188.701 207.746 195.291 193.83 195.291 193.83C197.287 193.455 199.304 193.203 201.331 193.075C201.76 193.075 202.201 193.033 202.642 193.027C206.245 193.069 209.843 193.319 213.417 193.776C214.094 193.854 214.782 193.957 215.446 194.066C218.895 194.597 221.879 195.425 221.879 195.425Z" fill="#0C95EF"/>
<g opacity="0.3">
<path d="M221.879 195.425C220.486 200.551 219.477 205.774 218.859 211.05C218.406 214.729 218.14 218.238 217.971 221.427C217.573 228.892 217.742 234.582 217.518 236.527C213.804 236.273 199.809 235.319 192.15 234.763C188.701 207.746 195.291 193.83 195.291 193.83C197.287 193.455 199.304 193.203 201.331 193.075C201.76 193.075 202.201 193.033 202.642 193.027C206.245 193.069 209.843 193.319 213.417 193.776C214.094 193.854 214.782 193.957 215.446 194.066C218.895 194.597 221.879 195.425 221.879 195.425Z" fill="white"/>
</g>
<path opacity="0.2" d="M215.483 202.262C215.434 206.15 216.524 209.967 218.617 213.243C218.69 212.518 218.775 211.787 218.865 211.05C219.203 208.284 219.638 205.421 220.212 202.528L215.483 202.262Z" fill="black"/>
<path d="M213.248 181.551C212.33 184.976 211.206 191.276 213.471 193.758C212.326 194.797 210.971 195.578 209.497 196.048C208.024 196.518 206.466 196.666 204.931 196.482C201.953 196.21 201.953 194.114 202.696 193.009C206.628 192.357 206.725 189.482 206.242 186.74L213.248 181.551Z" fill="#D2918E"/>
<path d="M202.75 197.611C202.82 198.144 202.946 198.668 203.125 199.175C203.176 199.337 203.278 199.478 203.414 199.578C203.551 199.677 203.716 199.731 203.886 199.731C204.382 199.724 204.878 199.766 205.365 199.858C205.468 199.882 205.575 199.885 205.678 199.866C205.782 199.847 205.881 199.807 205.969 199.749C206.573 199.369 207.346 198.807 207.147 198.106C206.911 197.285 205.498 196.542 205.498 196.542C205.498 196.542 203.071 197.14 202.75 197.611Z" fill="#263238"/>
<path d="M204.025 199.176C203.052 201.302 200.806 214.916 200.528 216.976C200.25 219.035 201.198 222.357 202.515 224.997C204.028 222.921 204.89 220.442 204.991 217.876C205.166 215.061 205.336 199.514 205.336 199.514L204.025 199.176Z" fill="#263238"/>
<path d="M205.48 196.542C206.38 197.292 207.122 198.212 207.667 199.248C209.195 199.127 215.942 196.168 214.981 193.885C214.142 193.649 213.405 193.166 213.169 193.413C212.849 193.903 209.986 195.63 205.48 196.542Z" fill="white"/>
<path d="M205.48 196.542C205.48 196.542 202.889 197.418 202.285 198.892C200.721 198.197 199.869 195.063 201.252 193.003C202.116 192.93 202.944 192.502 203.101 192.785C203.342 193.323 202.684 194.767 205.48 196.542Z" fill="white"/>
<path opacity="0.2" d="M210.391 183.671L206.242 186.733C206.367 187.372 206.433 188.021 206.441 188.672C207.933 188.563 210.065 187.083 210.343 185.549C210.474 184.931 210.491 184.295 210.391 183.671Z" fill="black"/>
<path d="M203.185 170.552C201.373 171.265 200.703 178.278 204.393 177.589C208.084 176.9 206.833 169.121 203.185 170.552Z" fill="#263238"/>
<path d="M215.151 177.565C213.671 182.04 213.037 184.734 210.125 186.468C205.74 189.071 200.673 185.507 200.781 180.681C200.878 176.339 203.276 169.743 208.211 169.109C209.297 168.962 210.403 169.095 211.423 169.496C212.444 169.897 213.345 170.553 214.04 171.4C214.736 172.248 215.203 173.259 215.397 174.338C215.592 175.417 215.507 176.528 215.151 177.565Z" fill="#D2918E"/>
<path d="M213.471 180.645C211.593 180.681 210.053 174.992 213.84 173.397C210.856 173.053 201.693 173.554 200.051 169.459C198.408 165.364 204.78 164.73 206.948 166.276C206.26 164.023 209.062 160.701 214.1 163.721C219.137 166.741 219.077 170.468 218.605 171.573C220.852 172.177 221.293 177.178 218.811 177.849C220.266 179.866 219.01 184.106 215.084 183.2C214.951 185.67 212.197 184.589 212.366 182.693C212.535 180.796 213.471 180.645 213.471 180.645Z" fill="#263238"/>
<path d="M205.1 181.738C205.631 181.894 206.191 181.92 206.734 181.815C207.277 181.71 207.787 181.476 208.222 181.134C208.245 181.111 208.257 181.079 208.257 181.047C208.257 181.014 208.245 180.983 208.222 180.959C208.199 180.937 208.169 180.925 208.137 180.925C208.106 180.925 208.075 180.937 208.053 180.959C207.651 181.281 207.18 181.504 206.676 181.608C206.172 181.713 205.651 181.698 205.154 181.563C205.139 181.559 205.123 181.557 205.108 181.559C205.092 181.561 205.077 181.566 205.064 181.574C205.05 181.582 205.038 181.593 205.029 181.605C205.019 181.618 205.013 181.632 205.009 181.648C205.014 181.67 205.025 181.691 205.041 181.707C205.057 181.723 205.078 181.734 205.1 181.738Z" fill="#263238"/>
<path d="M216.087 182.312C215.219 183.122 214.066 183.556 212.88 183.52C211.309 183.454 211.007 181.932 211.847 180.706C212.608 179.6 214.335 178.29 215.712 178.96C216.012 179.11 216.269 179.333 216.461 179.608C216.652 179.883 216.772 180.201 216.809 180.534C216.846 180.867 216.8 181.205 216.674 181.515C216.548 181.825 216.346 182.099 216.087 182.312Z" fill="#D2918E"/>
<path d="M182.982 336.326L190.834 338.181C190.834 338.181 193.612 307.588 195.998 290.779C196.632 286.321 197.61 280.052 199.102 273.371C200.981 264.958 203.33 255.855 205.275 248.728C207.311 241.22 208.863 235.911 208.863 235.911L192.205 234.746C192.205 234.746 183.187 274.066 182.233 288.502C181.212 303.565 182.982 336.326 182.982 336.326Z" fill="#263238"/>
<path opacity="0.2" d="M199.06 273.371C200.938 264.958 203.288 255.855 205.233 248.728L203.499 245.001C199.386 249.912 198.275 265.115 199.06 273.371Z" fill="black"/>
<path d="M201.168 235.374C201.168 235.374 202.98 276.035 204.973 289.806C207.166 304.906 212.741 337.848 212.741 337.848H221.444C221.444 337.848 219.028 306.519 217.391 291.751C215.525 274.929 217.518 236.515 217.518 236.515L201.168 235.374Z" fill="#263238"/>
<path d="M211.702 338.036H221.946L222.399 334.973L211.092 334.774L211.702 338.036Z" fill="#0C95EF"/>
<path d="M182.48 336.851L191.401 338.531L192.41 335.42L182.239 333.493L182.48 336.851Z" fill="#0C95EF"/>
<path d="M208.271 177.208C208.168 177.577 207.896 177.812 207.667 177.764C207.437 177.716 207.305 177.347 207.401 176.979C207.498 176.61 207.776 176.375 208.005 176.423C208.235 176.472 208.367 176.84 208.271 177.208Z" fill="#263238"/>
<path d="M204.079 176.109C203.982 176.477 203.705 176.713 203.475 176.658C203.246 176.604 203.119 176.248 203.216 175.873C203.312 175.499 203.59 175.27 203.819 175.318C204.049 175.366 204.176 175.735 204.079 176.109Z" fill="#263238"/>
<path d="M205.009 176.453C204.268 177.469 203.392 178.379 202.406 179.158C202.895 179.937 204.157 179.871 204.157 179.871L205.009 176.453Z" fill="#630F0F"/>
<path d="M209.569 176.006C209.527 176.003 209.487 175.989 209.453 175.964C209.418 175.94 209.392 175.906 209.376 175.867C209.274 175.603 209.112 175.367 208.902 175.177C208.692 174.987 208.441 174.849 208.168 174.774C208.139 174.768 208.112 174.757 208.087 174.741C208.063 174.725 208.041 174.704 208.025 174.679C208.008 174.655 207.997 174.628 207.991 174.599C207.985 174.57 207.985 174.54 207.99 174.511C207.996 174.482 208.007 174.455 208.023 174.43C208.039 174.406 208.06 174.384 208.085 174.368C208.109 174.351 208.136 174.34 208.165 174.334C208.194 174.328 208.224 174.328 208.253 174.333C208.599 174.421 208.919 174.591 209.186 174.829C209.453 175.066 209.659 175.364 209.787 175.698C209.798 175.725 209.805 175.755 209.805 175.784C209.805 175.814 209.8 175.844 209.788 175.871C209.777 175.899 209.761 175.924 209.74 175.945C209.718 175.966 209.693 175.983 209.666 175.994C209.635 176.005 209.602 176.009 209.569 176.006Z" fill="#263238"/>
<path d="M202.309 174.007C202.263 174.002 202.219 173.983 202.183 173.953C202.161 173.932 202.144 173.907 202.133 173.879C202.121 173.852 202.115 173.822 202.115 173.793C202.115 173.763 202.121 173.733 202.133 173.706C202.144 173.678 202.161 173.653 202.183 173.633C202.409 173.356 202.698 173.138 203.025 172.996C203.353 172.854 203.71 172.793 204.067 172.817C204.125 172.828 204.177 172.859 204.213 172.906C204.249 172.953 204.265 173.012 204.26 173.071C204.251 173.13 204.219 173.183 204.172 173.219C204.125 173.255 204.065 173.271 204.006 173.264C203.724 173.251 203.443 173.305 203.185 173.42C202.927 173.535 202.699 173.71 202.521 173.928C202.495 173.959 202.462 173.982 202.425 173.995C202.388 174.009 202.348 174.013 202.309 174.007Z" fill="#263238"/>
<path d="M213.556 344.552C213.231 344.577 212.908 344.492 212.638 344.311C212.552 344.237 212.486 344.143 212.446 344.038C212.406 343.932 212.393 343.819 212.408 343.707C212.407 343.641 212.424 343.577 212.458 343.521C212.493 343.465 212.543 343.421 212.602 343.393C213.127 343.121 214.655 344.063 214.83 344.172C214.848 344.183 214.863 344.199 214.871 344.218C214.88 344.238 214.882 344.26 214.878 344.28C214.876 344.303 214.867 344.325 214.852 344.343C214.837 344.36 214.816 344.372 214.794 344.377C214.389 344.481 213.974 344.54 213.556 344.552ZM212.849 343.568C212.799 343.564 212.749 343.574 212.704 343.598C212.674 343.598 212.638 343.64 212.632 343.731C212.621 343.806 212.63 343.882 212.656 343.952C212.682 344.023 212.726 344.086 212.783 344.136C213.313 344.377 213.916 344.407 214.468 344.22C213.974 343.899 213.422 343.678 212.843 343.568H212.849Z" fill="#0C95EF"/>
<path d="M214.764 344.383H214.709C214.22 344.117 213.266 343.072 213.369 342.571C213.385 342.489 213.43 342.414 213.495 342.36C213.559 342.306 213.641 342.277 213.725 342.275C213.811 342.263 213.899 342.27 213.982 342.295C214.066 342.32 214.143 342.363 214.208 342.42C214.758 342.867 214.872 344.232 214.878 344.298C214.879 344.319 214.874 344.339 214.864 344.357C214.855 344.375 214.841 344.39 214.824 344.401C214.803 344.401 214.781 344.395 214.764 344.383ZM213.804 342.457H213.755C213.61 342.457 213.598 342.541 213.592 342.571C213.532 342.879 214.136 343.67 214.625 344.039C214.593 343.498 214.397 342.98 214.063 342.553C213.991 342.49 213.899 342.456 213.804 342.457Z" fill="#0C95EF"/>
<path d="M183.7 343.06C182.921 343.06 181.55 343.03 181.115 342.493C181.046 342.41 181 342.311 180.98 342.206C180.96 342.1 180.967 341.991 181 341.889C181.013 341.83 181.041 341.775 181.081 341.729C181.122 341.684 181.173 341.649 181.23 341.629C181.834 341.418 183.573 342.686 183.766 342.837C183.785 342.85 183.798 342.869 183.805 342.891C183.812 342.913 183.811 342.936 183.802 342.958C183.8 342.984 183.788 343.009 183.769 343.027C183.751 343.046 183.726 343.058 183.7 343.06ZM181.32 341.853C181.297 341.86 181.276 341.875 181.259 341.894C181.243 341.913 181.233 341.936 181.23 341.961C181.21 342.025 181.207 342.092 181.219 342.158C181.232 342.223 181.26 342.284 181.302 342.336C181.544 342.644 182.305 342.819 183.368 342.825C182.649 342.354 181.683 341.78 181.32 341.859V341.853Z" fill="#0C95EF"/>
<path d="M183.7 343.06C183.673 343.071 183.643 343.071 183.615 343.06C183.096 342.71 182.154 341.502 182.329 340.989C182.371 340.868 182.486 340.729 182.794 340.747C182.91 340.752 183.023 340.781 183.127 340.832C183.231 340.883 183.323 340.955 183.398 341.043C183.911 341.647 183.821 342.921 183.815 342.975C183.813 342.995 183.807 343.013 183.797 343.029C183.786 343.045 183.771 343.058 183.754 343.066L183.7 343.06ZM182.649 340.965C182.565 340.965 182.547 341.025 182.541 341.043C182.438 341.351 183.06 342.281 183.573 342.722C183.615 342.181 183.487 341.64 183.205 341.176C183.153 341.113 183.088 341.061 183.016 341.024C182.943 340.987 182.864 340.964 182.782 340.959C182.738 340.95 182.693 340.953 182.649 340.965Z" fill="#0C95EF"/>
<path d="M200.334 216.637L198.408 215.26L166.818 259.479L168.745 260.856C174.616 264.834 181.809 266.359 188.79 265.107C195.77 263.855 201.984 259.924 206.106 254.153C210.229 248.383 211.932 241.23 210.854 234.221C209.776 227.212 206.001 220.902 200.334 216.637Z" fill="#0C95EF"/>
<path opacity="0.1" d="M200.334 216.637L198.408 215.26L166.818 259.479L168.745 260.856C174.616 264.834 181.809 266.359 188.79 265.107C195.77 263.855 201.984 259.924 206.106 254.153C210.229 248.383 211.932 241.23 210.854 234.221C209.776 227.212 206.001 220.902 200.334 216.637Z" fill="black"/>
<path d="M153.549 240.828C153.099 237.091 153.376 233.303 154.364 229.672L154.968 229.829C153.997 233.387 153.726 237.1 154.171 240.761L153.549 240.828Z" fill="#0C95EF"/>
<path d="M155.378 248.117C154.84 246.742 154.406 245.329 154.08 243.89L154.684 243.757C155.006 245.163 155.432 246.544 155.958 247.887L155.378 248.117Z" fill="#0C95EF"/>
<path d="M188.105 263.971C202.8 260.944 212.26 246.576 209.232 231.88C206.205 217.184 191.838 207.725 177.142 210.752C162.446 213.78 152.987 228.147 156.014 242.843C159.041 257.539 173.409 266.998 188.105 263.971Z" fill="#0C95EF"/>
<path d="M176.199 244.24L180.463 238.279C178.981 236.419 178.19 234.639 178.089 232.94C178.013 231.203 178.544 229.494 179.593 228.108C180.59 226.63 182.124 225.6 183.869 225.239C185.673 224.895 187.54 225.242 189.1 226.211L190.127 224.773L192.192 226.247L191.16 227.685C192.423 228.746 193.302 230.193 193.66 231.804C193.93 233.386 193.676 235.013 192.935 236.437L188.997 234.335C189.284 233.792 189.428 233.186 189.413 232.572C189.398 231.959 189.226 231.359 188.913 230.832L184.938 236.4C186.775 238.647 187.755 240.556 187.88 242.126C187.971 243.806 187.452 245.462 186.418 246.789C185.327 248.415 183.661 249.569 181.755 250.021C179.746 250.434 177.656 250.104 175.872 249.09L174.846 250.528L172.78 249.054L173.758 247.683C172.35 246.474 171.401 244.817 171.071 242.99C170.818 241.001 171.217 238.984 172.206 237.24L176.211 239.499C175.833 240.303 175.645 241.184 175.661 242.072C175.668 242.827 175.852 243.569 176.199 244.24ZM186.877 229.291C186.218 229.077 185.507 229.077 184.848 229.291C184.211 229.494 183.657 229.899 183.271 230.445C182.915 230.95 182.724 231.554 182.728 232.172C182.735 232.894 182.944 233.599 183.332 234.208L186.877 229.291ZM178.119 245.919C178.871 246.283 179.726 246.371 180.535 246.167C181.348 245.968 182.059 245.478 182.535 244.79C182.971 244.2 183.185 243.475 183.139 242.742C183.023 241.858 182.644 241.029 182.051 240.363L178.119 245.919Z" fill="white"/>
<path opacity="0.1" d="M204.623 235.108C203.358 229.618 200.048 224.817 195.366 221.684C190.684 218.55 184.983 217.32 179.426 218.245C173.869 219.169 168.873 222.178 165.458 226.658C162.042 231.138 160.464 236.752 161.044 242.356C160.366 239.412 160.298 236.36 160.844 233.389C161.39 230.418 162.538 227.59 164.218 225.08C165.899 222.569 168.075 220.429 170.614 218.791C173.152 217.154 175.999 216.053 178.979 215.558C181.959 215.062 185.009 215.182 187.941 215.91C190.873 216.637 193.625 217.958 196.027 219.789C198.43 221.621 200.432 223.925 201.91 226.559C203.388 229.194 204.312 232.103 204.623 235.108Z" fill="black"/>
<path d="M222.489 198.022C223.093 198.789 223.594 199.478 224.102 200.227C224.609 200.976 225.104 201.694 225.588 202.443C226.548 203.941 227.46 205.463 228.306 207.052C229.151 208.64 229.936 210.265 230.649 211.944L231.169 213.219L231.64 214.529C231.797 214.958 231.93 215.417 232.069 215.864L232.268 216.541L232.322 216.71L232.413 217.078C232.47 217.329 232.511 217.583 232.534 217.839C232.591 218.691 232.478 219.545 232.201 220.352C231.993 220.959 231.719 221.542 231.386 222.091C230.835 222.99 230.195 223.832 229.477 224.604C228.203 225.958 226.82 227.205 225.34 228.331C222.527 230.478 219.532 232.376 216.389 234.002L214.432 231.018C216.963 228.862 219.493 226.591 221.782 224.29C222.895 223.188 223.928 222.01 224.875 220.763C225.277 220.242 225.625 219.681 225.914 219.089C226.003 218.896 226.072 218.693 226.119 218.485C226.119 218.328 226.119 218.353 226.119 218.485C226.11 218.529 226.11 218.575 226.119 218.618C226.118 218.636 226.118 218.655 226.119 218.673L226.065 218.54L225.853 218.008C225.708 217.646 225.582 217.29 225.412 216.933L224.929 215.864L224.416 214.795C223.697 213.376 222.93 211.962 222.097 210.567C221.263 209.172 220.399 207.783 219.499 206.418C219.058 205.729 218.599 205.046 218.14 204.376L216.763 202.413L222.489 198.022Z" fill="#D2918E"/>
<path d="M221.879 195.425C226.331 196.325 230.238 207.209 230.238 207.209L220.949 214.777C220.949 214.777 217.929 209.245 215.465 203.905C212.813 198.089 216.485 194.338 221.879 195.425Z" fill="#0C95EF"/>
<g opacity="0.3">
<path d="M221.879 195.425C226.331 196.325 230.238 207.209 230.238 207.209L220.949 214.777C220.949 214.777 217.929 209.245 215.465 203.905C212.813 198.089 216.485 194.338 221.879 195.425Z" fill="white"/>
</g>
<path d="M215.531 230.602L210.735 231.128L213.846 236.334C213.846 236.334 217.832 234.981 217.349 232.795L215.531 230.602Z" fill="#D2918E"/>
<path d="M207.878 233.876L210.651 238.061L213.846 236.334L210.735 231.127L207.878 233.876Z" fill="#D2918E"/>
</svg>
