<svg width="375" height="513" viewBox="0 0 375 513" fill="none" xmlns="http://www.w3.org/2000/svg">
<path d="M285.501 378.999C257.648 402.459 212.717 406.207 172.377 399.478C132.02 392.988 95.9813 376.482 75.8316 349.346C55.9208 322.228 51.8816 284.719 57.1932 250.761C62.4878 217.042 77.3894 186.652 101.95 152.15C126.272 117.632 160.509 78.7801 193.102 79.6719C225.696 80.5636 257.123 121.233 280.582 159.171C304.041 197.109 319.753 232.571 321.966 272.11C324.435 311.428 313.371 355.3 285.501 378.999Z" fill="#D3ECFD"/>
<g clip-path="url(#clip0_1793_31658)">
<path d="M188.172 350.051C252.93 350.051 305.427 346.986 305.427 343.205C305.427 339.424 252.93 336.359 188.172 336.359C123.415 336.359 70.918 339.424 70.918 343.205C70.918 346.986 123.415 350.051 188.172 350.051Z" fill="#F5F5F5"/>
<path d="M223.774 168.79H120.411C119.562 168.79 118.875 169.478 118.875 170.326V252.427C118.875 253.275 119.562 253.963 120.411 253.963H223.774C224.622 253.963 225.31 253.275 225.31 252.427V170.326C225.31 169.478 224.622 168.79 223.774 168.79Z" fill="#263238"/>
<g opacity="0.2">
<path d="M215.991 242.672H132.536V243.277H215.991V242.672Z" fill="white"/>
<path d="M215.991 239.648H132.536V240.253H215.991V239.648Z" fill="white"/>
<path d="M215.991 236.625H132.536V237.23H215.991V236.625Z" fill="white"/>
<path d="M215.991 233.601H132.536V234.206H215.991V233.601Z" fill="white"/>
<path d="M215.991 230.577H132.536V231.182H215.991V230.577Z" fill="white"/>
<path d="M215.991 227.554H132.536V228.158H215.991V227.554Z" fill="white"/>
<path d="M215.991 224.53H132.536V225.135H215.991V224.53Z" fill="white"/>
<path d="M215.991 221.506H132.536V222.111H215.991V221.506Z" fill="white"/>
<path d="M215.991 218.482H132.536V219.087H215.991V218.482Z" fill="white"/>
<path d="M215.991 215.458H132.536V216.063H215.991V215.458Z" fill="white"/>
<path d="M215.991 212.435H132.536V213.04H215.991V212.435Z" fill="white"/>
<path d="M215.991 209.411H132.536V210.016H215.991V209.411Z" fill="white"/>
<path d="M215.991 206.387H132.536V206.992H215.991V206.387Z" fill="white"/>
<path d="M215.991 203.364H132.536V203.969H215.991V203.364Z" fill="white"/>
<path d="M215.991 200.34H132.536V200.945H215.991V200.34Z" fill="white"/>
<path d="M215.991 197.316H132.536V197.921H215.991V197.316Z" fill="white"/>
<path d="M215.991 194.292H132.536V194.897H215.991V194.292Z" fill="white"/>
<path d="M215.991 191.269H132.536V191.873H215.991V191.269Z" fill="white"/>
<path d="M215.991 188.245H132.536V188.85H215.991V188.245Z" fill="white"/>
<path d="M215.991 185.221H132.536V185.826H215.991V185.221Z" fill="white"/>
</g>
<path d="M140.397 237.241H135.36V243.277H140.397V237.241Z" fill="#0C95EF"/>
<path d="M149.469 219.087H144.431V243.277H149.469V219.087Z" fill="#0C95EF"/>
<path d="M158.54 206.986H153.502V243.277H158.54V206.986Z" fill="#0C95EF"/>
<path d="M167.611 210.614H162.574V243.277H167.611V210.614Z" fill="#0C95EF"/>
<path d="M176.682 219.087H171.645V243.277H176.682V219.087Z" fill="#0C95EF"/>
<path d="M185.753 206.986H180.716V243.277H185.753V206.986Z" fill="#0C95EF"/>
<path d="M194.825 194.879H189.787V243.277H194.825V194.879Z" fill="#0C95EF"/>
<path d="M203.896 191.855H198.858V243.277H203.896V191.855Z" fill="#0C95EF"/>
<path d="M212.967 219.087H207.93V243.277H212.967V219.087Z" fill="#0C95EF"/>
<g opacity="0.6">
<path d="M140.397 239.442H135.36V243.276H140.397V239.442Z" fill="white"/>
<path d="M149.469 227.91H144.431V243.277H149.469V227.91Z" fill="white"/>
<path d="M158.54 220.224H153.502V243.277H158.54V220.224Z" fill="white"/>
<path d="M167.611 222.528H162.573V243.277H167.611V222.528Z" fill="white"/>
<path d="M176.682 227.91H171.645V243.277H176.682V227.91Z" fill="white"/>
<path d="M185.753 220.224H180.716V243.277H185.753V220.224Z" fill="white"/>
<path d="M194.825 212.537H189.787V243.276H194.825V212.537Z" fill="white"/>
<path d="M203.896 210.614H198.858V243.277H203.896V210.614Z" fill="white"/>
<path d="M212.967 227.91H207.93V243.277H212.967V227.91Z" fill="white"/>
</g>
<g opacity="0.2">
<path d="M128.95 241.729H130.425C130.63 241.729 130.827 241.811 130.973 241.956C131.118 242.101 131.199 242.298 131.199 242.503C131.199 242.708 131.118 242.905 130.973 243.05C130.827 243.196 130.63 243.277 130.425 243.277H128.95C128.744 243.277 128.547 243.196 128.402 243.05C128.257 242.905 128.176 242.708 128.176 242.503C128.176 242.298 128.257 242.101 128.402 241.956C128.547 241.811 128.744 241.729 128.95 241.729Z" fill="white"/>
<path d="M128.95 238.705H130.425C130.63 238.705 130.827 238.787 130.973 238.932C131.118 239.077 131.199 239.274 131.199 239.479C131.199 239.684 131.118 239.881 130.973 240.027C130.827 240.172 130.63 240.253 130.425 240.253H128.95C128.744 240.253 128.547 240.172 128.402 240.027C128.257 239.881 128.176 239.684 128.176 239.479C128.176 239.274 128.257 239.077 128.402 238.932C128.547 238.787 128.744 238.705 128.95 238.705Z" fill="white"/>
<path d="M128.95 235.682H130.425C130.63 235.682 130.827 235.763 130.973 235.908C131.118 236.054 131.199 236.25 131.199 236.456C131.199 236.661 131.118 236.858 130.973 237.003C130.827 237.148 130.63 237.23 130.425 237.23H128.95C128.744 237.23 128.547 237.148 128.402 237.003C128.257 236.858 128.176 236.661 128.176 236.456C128.176 236.25 128.257 236.054 128.402 235.908C128.547 235.763 128.744 235.682 128.95 235.682Z" fill="white"/>
<path d="M128.95 232.658H130.425C130.63 232.658 130.827 232.739 130.973 232.884C131.118 233.03 131.199 233.226 131.199 233.432C131.199 233.637 131.118 233.834 130.973 233.979C130.827 234.124 130.63 234.206 130.425 234.206H128.95C128.744 234.206 128.547 234.124 128.402 233.979C128.257 233.834 128.176 233.637 128.176 233.432C128.176 233.226 128.257 233.03 128.402 232.884C128.547 232.739 128.744 232.658 128.95 232.658Z" fill="white"/>
<path d="M128.95 229.634H130.425C130.63 229.634 130.827 229.715 130.973 229.861C131.118 230.006 131.199 230.203 131.199 230.408C131.199 230.613 131.118 230.81 130.973 230.955C130.827 231.1 130.63 231.182 130.425 231.182H128.95C128.744 231.182 128.547 231.1 128.402 230.955C128.257 230.81 128.176 230.613 128.176 230.408C128.176 230.203 128.257 230.006 128.402 229.861C128.547 229.715 128.744 229.634 128.95 229.634Z" fill="white"/>
<path d="M128.95 226.61H130.425C130.63 226.61 130.827 226.692 130.973 226.837C131.118 226.982 131.199 227.179 131.199 227.384C131.199 227.59 131.118 227.787 130.973 227.932C130.827 228.077 130.63 228.159 130.425 228.159H128.95C128.744 228.159 128.547 228.077 128.402 227.932C128.257 227.787 128.176 227.59 128.176 227.384C128.176 227.179 128.257 226.982 128.402 226.837C128.547 226.692 128.744 226.61 128.95 226.61Z" fill="white"/>
<path d="M128.95 223.586H130.425C130.63 223.586 130.827 223.668 130.973 223.813C131.118 223.958 131.199 224.155 131.199 224.361C131.199 224.566 131.118 224.763 130.973 224.908C130.827 225.053 130.63 225.135 130.425 225.135H128.95C128.744 225.135 128.547 225.053 128.402 224.908C128.257 224.763 128.176 224.566 128.176 224.361C128.176 224.155 128.257 223.958 128.402 223.813C128.547 223.668 128.744 223.586 128.95 223.586Z" fill="white"/>
<path d="M128.95 220.562H130.425C130.63 220.562 130.827 220.644 130.973 220.789C131.118 220.934 131.199 221.131 131.199 221.337C131.199 221.542 131.118 221.739 130.973 221.884C130.827 222.029 130.63 222.111 130.425 222.111H128.95C128.744 222.111 128.547 222.029 128.402 221.884C128.257 221.739 128.176 221.542 128.176 221.337C128.176 221.131 128.257 220.934 128.402 220.789C128.547 220.644 128.744 220.562 128.95 220.562Z" fill="white"/>
<path d="M128.95 217.539H130.425C130.63 217.539 130.827 217.621 130.973 217.766C131.118 217.911 131.199 218.108 131.199 218.313C131.199 218.518 131.118 218.715 130.973 218.86C130.827 219.006 130.63 219.087 130.425 219.087H128.95C128.744 219.087 128.547 219.006 128.402 218.86C128.257 218.715 128.176 218.518 128.176 218.313C128.176 218.108 128.257 217.911 128.402 217.766C128.547 217.621 128.744 217.539 128.95 217.539Z" fill="white"/>
<path d="M128.95 214.515H130.425C130.63 214.515 130.827 214.597 130.973 214.742C131.118 214.887 131.199 215.084 131.199 215.289C131.199 215.495 131.118 215.691 130.973 215.837C130.827 215.982 130.63 216.063 130.425 216.063H128.95C128.744 216.063 128.547 215.982 128.402 215.837C128.257 215.691 128.176 215.495 128.176 215.289C128.176 215.084 128.257 214.887 128.402 214.742C128.547 214.597 128.744 214.515 128.95 214.515Z" fill="white"/>
<path d="M128.95 211.491H130.425C130.63 211.491 130.827 211.573 130.973 211.718C131.118 211.863 131.199 212.06 131.199 212.265C131.199 212.471 131.118 212.667 130.973 212.813C130.827 212.958 130.63 213.039 130.425 213.039H128.95C128.744 213.039 128.547 212.958 128.402 212.813C128.257 212.667 128.176 212.471 128.176 212.265C128.176 212.06 128.257 211.863 128.402 211.718C128.547 211.573 128.744 211.491 128.95 211.491Z" fill="white"/>
<path d="M128.95 208.468H130.425C130.63 208.468 130.827 208.549 130.973 208.694C131.118 208.84 131.199 209.037 131.199 209.242C131.199 209.447 131.118 209.644 130.973 209.789C130.827 209.934 130.63 210.016 130.425 210.016H128.95C128.744 210.016 128.547 209.934 128.402 209.789C128.257 209.644 128.176 209.447 128.176 209.242C128.176 209.037 128.257 208.84 128.402 208.694C128.547 208.549 128.744 208.468 128.95 208.468Z" fill="white"/>
<path d="M128.95 205.444H130.425C130.63 205.444 130.827 205.525 130.973 205.671C131.118 205.816 131.199 206.013 131.199 206.218C131.199 206.423 131.118 206.62 130.973 206.765C130.827 206.91 130.63 206.992 130.425 206.992H128.95C128.744 206.992 128.547 206.91 128.402 206.765C128.257 206.62 128.176 206.423 128.176 206.218C128.176 206.013 128.257 205.816 128.402 205.671C128.547 205.525 128.744 205.444 128.95 205.444Z" fill="white"/>
<path d="M128.95 202.42H130.425C130.63 202.42 130.827 202.502 130.973 202.647C131.118 202.792 131.199 202.989 131.199 203.194C131.199 203.4 131.118 203.597 130.973 203.742C130.827 203.887 130.63 203.969 130.425 203.969H128.95C128.744 203.969 128.547 203.887 128.402 203.742C128.257 203.597 128.176 203.4 128.176 203.194C128.176 202.989 128.257 202.792 128.402 202.647C128.547 202.502 128.744 202.42 128.95 202.42Z" fill="white"/>
<path d="M128.95 199.396H130.425C130.63 199.396 130.827 199.478 130.973 199.623C131.118 199.768 131.199 199.965 131.199 200.171C131.199 200.376 131.118 200.573 130.973 200.718C130.827 200.863 130.63 200.945 130.425 200.945H128.95C128.744 200.945 128.547 200.863 128.402 200.718C128.257 200.573 128.176 200.376 128.176 200.171C128.176 199.965 128.257 199.768 128.402 199.623C128.547 199.478 128.744 199.396 128.95 199.396Z" fill="white"/>
<path d="M128.95 196.373H130.425C130.63 196.373 130.827 196.454 130.973 196.599C131.118 196.744 131.199 196.941 131.199 197.147C131.199 197.352 131.118 197.549 130.973 197.694C130.827 197.839 130.63 197.921 130.425 197.921H128.95C128.744 197.921 128.547 197.839 128.402 197.694C128.257 197.549 128.176 197.352 128.176 197.147C128.176 196.941 128.257 196.744 128.402 196.599C128.547 196.454 128.744 196.373 128.95 196.373Z" fill="white"/>
<path d="M128.95 193.349H130.425C130.63 193.349 130.827 193.431 130.973 193.576C131.118 193.721 131.199 193.918 131.199 194.123C131.199 194.328 131.118 194.525 130.973 194.671C130.827 194.816 130.63 194.897 130.425 194.897H128.95C128.744 194.897 128.547 194.816 128.402 194.671C128.257 194.525 128.176 194.328 128.176 194.123C128.176 193.918 128.257 193.721 128.402 193.576C128.547 193.431 128.744 193.349 128.95 193.349Z" fill="white"/>
<path d="M128.95 190.325H130.425C130.63 190.325 130.827 190.407 130.973 190.552C131.118 190.697 131.199 190.894 131.199 191.099C131.199 191.305 131.118 191.501 130.973 191.647C130.827 191.792 130.63 191.873 130.425 191.873H128.95C128.744 191.873 128.547 191.792 128.402 191.647C128.257 191.501 128.176 191.305 128.176 191.099C128.176 190.894 128.257 190.697 128.402 190.552C128.547 190.407 128.744 190.325 128.95 190.325Z" fill="white"/>
<path d="M128.95 187.302H130.425C130.63 187.302 130.827 187.383 130.973 187.528C131.118 187.674 131.199 187.871 131.199 188.076C131.199 188.281 131.118 188.478 130.973 188.623C130.827 188.768 130.63 188.85 130.425 188.85H128.95C128.744 188.85 128.547 188.768 128.402 188.623C128.257 188.478 128.176 188.281 128.176 188.076C128.176 187.871 128.257 187.674 128.402 187.528C128.547 187.383 128.744 187.302 128.95 187.302Z" fill="white"/>
<path d="M128.95 184.278H130.425C130.63 184.278 130.827 184.359 130.973 184.505C131.118 184.65 131.199 184.847 131.199 185.052C131.199 185.257 131.118 185.454 130.973 185.599C130.827 185.744 130.63 185.826 130.425 185.826H128.95C128.744 185.826 128.547 185.744 128.402 185.599C128.257 185.454 128.176 185.257 128.176 185.052C128.176 184.847 128.257 184.65 128.402 184.505C128.547 184.359 128.744 184.278 128.95 184.278Z" fill="white"/>
</g>
<path d="M137.144 244.789H138.62C138.825 244.789 139.022 244.87 139.167 245.015C139.312 245.16 139.394 245.357 139.394 245.563C139.394 245.768 139.312 245.965 139.167 246.11C139.022 246.255 138.825 246.337 138.62 246.337H137.144C136.939 246.337 136.742 246.255 136.597 246.11C136.451 245.965 136.37 245.768 136.37 245.563C136.37 245.357 136.451 245.16 136.597 245.015C136.742 244.87 136.939 244.789 137.144 244.789Z" fill="white"/>
<path d="M146.215 244.789H147.691C147.896 244.789 148.093 244.87 148.238 245.015C148.383 245.16 148.465 245.357 148.465 245.563C148.465 245.768 148.383 245.965 148.238 246.11C148.093 246.255 147.896 246.337 147.691 246.337H146.215C146.01 246.337 145.813 246.255 145.668 246.11C145.523 245.965 145.441 245.768 145.441 245.563C145.441 245.357 145.523 245.16 145.668 245.015C145.813 244.87 146.01 244.789 146.215 244.789Z" fill="white"/>
<path d="M155.286 244.789H156.762C156.967 244.789 157.164 244.87 157.309 245.015C157.455 245.16 157.536 245.357 157.536 245.563C157.536 245.768 157.455 245.965 157.309 246.11C157.164 246.255 156.967 246.337 156.762 246.337H155.286C155.081 246.337 154.884 246.255 154.739 246.11C154.594 245.965 154.512 245.768 154.512 245.563C154.512 245.357 154.594 245.16 154.739 245.015C154.884 244.87 155.081 244.789 155.286 244.789Z" fill="white"/>
<path d="M164.358 244.789H165.833C166.038 244.789 166.235 244.87 166.381 245.015C166.526 245.16 166.607 245.357 166.607 245.563C166.607 245.768 166.526 245.965 166.381 246.11C166.235 246.255 166.038 246.337 165.833 246.337H164.358C164.152 246.337 163.955 246.255 163.81 246.11C163.665 245.965 163.583 245.768 163.583 245.563C163.583 245.357 163.665 245.16 163.81 245.015C163.955 244.87 164.152 244.789 164.358 244.789Z" fill="white"/>
<path d="M173.429 244.789H174.904C175.11 244.789 175.306 244.87 175.452 245.015C175.597 245.16 175.678 245.357 175.678 245.563C175.678 245.768 175.597 245.965 175.452 246.11C175.306 246.255 175.11 246.337 174.904 246.337H173.429C173.223 246.337 173.026 246.255 172.881 246.11C172.736 245.965 172.655 245.768 172.655 245.563C172.655 245.357 172.736 245.16 172.881 245.015C173.026 244.87 173.223 244.789 173.429 244.789Z" fill="white"/>
<path d="M182.5 244.789H183.975C184.181 244.789 184.378 244.87 184.523 245.015C184.668 245.16 184.75 245.357 184.75 245.563C184.75 245.768 184.668 245.965 184.523 246.11C184.378 246.255 184.181 246.337 183.975 246.337H182.5C182.295 246.337 182.098 246.255 181.953 246.11C181.807 245.965 181.726 245.768 181.726 245.563C181.726 245.357 181.807 245.16 181.953 245.015C182.098 244.87 182.295 244.789 182.5 244.789Z" fill="white"/>
<path d="M191.571 244.789H193.047C193.252 244.789 193.449 244.87 193.594 245.015C193.739 245.16 193.821 245.357 193.821 245.563C193.821 245.768 193.739 245.965 193.594 246.11C193.449 246.255 193.252 246.337 193.047 246.337H191.571C191.366 246.337 191.169 246.255 191.024 246.11C190.879 245.965 190.797 245.768 190.797 245.563C190.797 245.357 190.879 245.16 191.024 245.015C191.169 244.87 191.366 244.789 191.571 244.789Z" fill="white"/>
<path d="M200.642 244.789H202.118C202.323 244.789 202.52 244.87 202.665 245.015C202.81 245.16 202.892 245.357 202.892 245.563C202.892 245.768 202.81 245.965 202.665 246.11C202.52 246.255 202.323 246.337 202.118 246.337H200.642C200.437 246.337 200.24 246.255 200.095 246.11C199.95 245.965 199.868 245.768 199.868 245.563C199.868 245.357 199.95 245.16 200.095 245.015C200.24 244.87 200.437 244.789 200.642 244.789Z" fill="white"/>
<path d="M209.714 244.789H211.189C211.394 244.789 211.591 244.87 211.736 245.015C211.882 245.16 211.963 245.357 211.963 245.563C211.963 245.768 211.882 245.965 211.736 246.11C211.591 246.255 211.394 246.337 211.189 246.337H209.714C209.508 246.337 209.311 246.255 209.166 246.11C209.021 245.965 208.939 245.768 208.939 245.563C208.939 245.357 209.021 245.16 209.166 245.015C209.311 244.87 209.508 244.789 209.714 244.789Z" fill="white"/>
<path opacity="0.2" d="M196.034 177.396H148.132C147.962 177.396 147.793 177.362 147.636 177.297C147.478 177.231 147.335 177.135 147.215 177.014C147.095 176.894 146.999 176.75 146.935 176.593C146.87 176.435 146.837 176.266 146.838 176.095C146.838 175.752 146.974 175.423 147.217 175.18C147.46 174.938 147.789 174.801 148.132 174.801H196.034C196.205 174.8 196.374 174.833 196.531 174.898C196.689 174.963 196.832 175.058 196.953 175.178C197.074 175.298 197.17 175.441 197.235 175.599C197.301 175.756 197.334 175.925 197.334 176.095C197.334 176.44 197.197 176.771 196.954 177.015C196.71 177.259 196.379 177.396 196.034 177.396Z" fill="white"/>
<g opacity="0.2">
<path d="M193.966 184.012H225.062V170.326C225.088 170.144 225.073 169.959 225.02 169.783C224.966 169.608 224.875 169.446 224.752 169.309C224.629 169.173 224.478 169.064 224.309 168.993C224.14 168.921 223.958 168.887 223.774 168.893H192.406V182.197C192.406 183.056 193.119 184.012 193.966 184.012Z" fill="black"/>
<path d="M225.062 252.421V243.277H188.112C187.677 243.28 187.259 243.442 186.936 243.733C186.613 244.024 186.407 244.423 186.358 244.855V254.162H223.774C224.621 254.162 225.062 253.273 225.062 252.421Z" fill="black"/>
</g>
<path d="M140.397 240.181H135.36V243.277H140.397V240.181Z" fill="white"/>
<path d="M149.469 230.874H144.431V243.271H149.469V230.874Z" fill="white"/>
<path d="M158.54 224.675H153.502V243.277H158.54V224.675Z" fill="white"/>
<path d="M167.611 226.531H162.574V243.271H167.611V226.531Z" fill="white"/>
<path d="M176.682 230.874H171.645V243.271H176.682V230.874Z" fill="white"/>
<path d="M185.753 224.675H180.716V243.277H185.753V224.675Z" fill="white"/>
<path d="M194.825 218.47H189.787V243.277H194.825V218.47Z" fill="white"/>
<path d="M203.896 216.916H198.858V243.277H203.896V216.916Z" fill="white"/>
<path d="M212.967 230.874H207.93V243.271H212.967V230.874Z" fill="white"/>
<path d="M249.421 249.56H195.073C194.224 249.56 193.536 250.248 193.536 251.096V302.941C193.536 303.789 194.224 304.477 195.073 304.477H249.421C250.27 304.477 250.957 303.789 250.957 302.941V251.096C250.957 250.248 250.27 249.56 249.421 249.56Z" fill="#263238"/>
<path d="M217.261 298.151C225.975 298.151 233.039 291.087 233.039 282.374C233.039 273.66 225.975 266.596 217.261 266.596C208.547 266.596 201.483 273.66 201.483 282.374C201.483 291.087 208.547 298.151 217.261 298.151Z" fill="#0C95EF"/>
<path opacity="0.2" d="M217.261 282.373L229.852 272.867C231.856 275.525 232.968 278.75 233.029 282.079C233.089 285.408 232.095 288.671 230.188 291.4C228.281 294.13 225.56 296.186 222.413 297.275C219.267 298.364 215.857 298.43 212.671 297.463C209.485 296.496 206.686 294.545 204.676 291.891C202.665 289.237 201.546 286.015 201.479 282.686C201.411 279.357 202.398 276.092 204.299 273.358C206.199 270.625 208.916 268.562 212.06 267.466L217.261 282.373Z" fill="white"/>
<path d="M217.261 282.374L229.483 272.401C231.345 274.685 232.53 277.444 232.904 280.366C233.278 283.288 232.826 286.257 231.599 288.935C230.372 291.614 228.42 293.895 225.963 295.521C223.506 297.147 220.643 298.052 217.698 298.134C214.753 298.216 211.844 297.472 209.301 295.985C206.757 294.498 204.681 292.329 203.307 289.723C201.934 287.117 201.317 284.178 201.528 281.239C201.739 278.301 202.769 275.48 204.501 273.097L217.261 282.374Z" fill="white"/>
<path d="M242.188 269.565H238.772C238.321 269.565 237.955 269.93 237.955 270.381V273.798C237.955 274.249 238.321 274.615 238.772 274.615H242.188C242.639 274.615 243.005 274.249 243.005 273.798V270.381C243.005 269.93 242.639 269.565 242.188 269.565Z" fill="#0C95EF"/>
<path d="M242.188 279.356H238.772C238.321 279.356 237.955 279.721 237.955 280.172V283.589C237.955 284.04 238.321 284.406 238.772 284.406H242.188C242.639 284.406 243.005 284.04 243.005 283.589V280.172C243.005 279.721 242.639 279.356 242.188 279.356Z" fill="#0C95EF"/>
<path d="M242.188 289.147H238.772C238.321 289.147 237.955 289.512 237.955 289.963V293.38C237.955 293.831 238.321 294.197 238.772 294.197H242.188C242.639 294.197 243.005 293.831 243.005 293.38V289.963C243.005 289.512 242.639 289.147 242.188 289.147Z" fill="white"/>
<path opacity="0.2" d="M242.188 279.356H238.772C238.321 279.356 237.955 279.721 237.955 280.172V283.589C237.955 284.04 238.321 284.406 238.772 284.406H242.188C242.639 284.406 243.005 284.04 243.005 283.589V280.172C243.005 279.721 242.639 279.356 242.188 279.356Z" fill="white"/>
<path opacity="0.2" d="M241.058 258.583H203.43C203.26 258.583 203.091 258.549 202.934 258.484C202.776 258.418 202.633 258.322 202.513 258.201C202.393 258.081 202.297 257.937 202.233 257.78C202.168 257.622 202.135 257.453 202.136 257.282C202.136 256.939 202.272 256.61 202.515 256.367C202.758 256.125 203.087 255.988 203.43 255.988H241.058C241.401 255.988 241.73 256.125 241.973 256.367C242.215 256.61 242.352 256.939 242.352 257.282C242.352 257.453 242.32 257.622 242.255 257.78C242.19 257.937 242.095 258.081 241.975 258.201C241.855 258.322 241.712 258.418 241.554 258.484C241.397 258.549 241.228 258.583 241.058 258.583Z" fill="white"/>
<path d="M241.251 143.687H203.243C202.394 143.687 201.707 144.375 201.707 145.223V175.279C201.707 176.127 202.394 176.815 203.243 176.815H241.251C242.099 176.815 242.787 176.127 242.787 175.279V145.223C242.787 144.375 242.099 143.687 241.251 143.687Z" fill="#263238"/>
<g opacity="0.2">
<path d="M238.971 172.521H205.71V173.126H238.971V172.521Z" fill="white"/>
<path d="M238.971 169.498H205.71V170.102H238.971V169.498Z" fill="white"/>
<path d="M238.971 166.474H205.71V167.078H238.971V166.474Z" fill="white"/>
<path d="M238.971 163.45H205.71V164.055H238.971V163.45Z" fill="white"/>
<path d="M238.971 160.426H205.71V161.031H238.971V160.426Z" fill="white"/>
<path d="M238.971 157.403H205.71V158.008H238.971V157.403Z" fill="white"/>
<path d="M238.971 154.379H205.71V154.984H238.971V154.379Z" fill="white"/>
</g>
<path d="M205.625 173.126V167.079L208.014 164.696C208.177 164.532 208.371 164.402 208.584 164.314C208.797 164.225 209.026 164.179 209.257 164.179C209.488 164.179 209.717 164.225 209.93 164.314C210.143 164.402 210.337 164.532 210.5 164.696C210.818 165.015 211.247 165.199 211.697 165.21C212.148 165.221 212.585 165.059 212.919 164.756C213.685 164.069 214.661 163.661 215.688 163.597C216.715 163.534 217.734 163.818 218.579 164.406L219.311 164.914C220.438 165.695 221.809 166.044 223.172 165.895C224.536 165.746 225.8 165.11 226.731 164.103L228.376 162.325C228.878 161.782 229.567 161.449 230.304 161.394C231.042 161.339 231.773 161.566 232.349 162.029C232.885 162.456 233.553 162.681 234.238 162.667C234.923 162.653 235.581 162.399 236.099 161.95L238.893 159.531V173.126H205.625Z" fill="#0C95EF"/>
<path opacity="0.2" d="M205.625 173.126V167.079L208.014 164.696C208.177 164.532 208.371 164.402 208.584 164.314C208.797 164.225 209.026 164.179 209.257 164.179C209.488 164.179 209.717 164.225 209.93 164.314C210.143 164.402 210.337 164.532 210.5 164.696C210.818 165.015 211.247 165.199 211.697 165.21C212.148 165.221 212.585 165.059 212.919 164.756C213.685 164.069 214.661 163.661 215.688 163.597C216.715 163.534 217.734 163.818 218.579 164.406L219.311 164.914C220.438 165.695 221.809 166.044 223.172 165.895C224.536 165.746 225.8 165.11 226.731 164.103L228.376 162.325C228.878 161.782 229.567 161.449 230.304 161.394C231.042 161.339 231.773 161.566 232.349 162.029C232.885 162.456 233.553 162.681 234.238 162.667C234.923 162.653 235.581 162.399 236.099 161.95L238.893 159.531V173.126H205.625Z" fill="white"/>
<path d="M205.625 173.126L211.673 167.399C211.856 167.222 212.073 167.084 212.311 166.994C212.549 166.903 212.802 166.863 213.057 166.874C213.311 166.885 213.56 166.948 213.789 167.06C214.018 167.171 214.222 167.327 214.388 167.52C214.553 167.711 214.755 167.866 214.981 167.977C215.208 168.088 215.454 168.153 215.706 168.166C215.958 168.18 216.21 168.142 216.447 168.056C216.684 167.97 216.901 167.837 217.085 167.665L219.928 164.998C220.539 164.424 221.334 164.086 222.172 164.044C223.009 164.002 223.834 164.259 224.5 164.768C225.179 165.286 226.022 165.541 226.874 165.487C227.726 165.432 228.53 165.072 229.138 164.472L229.277 164.333C229.627 163.993 230.096 163.803 230.583 163.803C231.071 163.803 231.54 163.993 231.89 164.333C232.279 164.707 232.791 164.927 233.331 164.952C233.871 164.976 234.401 164.804 234.823 164.466L238.881 161.321V173.126H205.625Z" fill="#0C95EF"/>
<path opacity="0.2" d="M231.678 150.261H212.81C212.638 150.26 212.467 150.225 212.309 150.158C212.15 150.09 212.006 149.992 211.886 149.869C211.765 149.746 211.671 149.6 211.607 149.44C211.544 149.28 211.513 149.109 211.516 148.936C211.516 148.593 211.652 148.264 211.895 148.021C212.137 147.778 212.467 147.642 212.81 147.642H231.678C231.848 147.641 232.017 147.674 232.175 147.739C232.333 147.804 232.476 147.899 232.597 148.019C232.718 148.139 232.814 148.282 232.879 148.44C232.945 148.597 232.978 148.766 232.978 148.936C232.981 149.109 232.95 149.281 232.886 149.441C232.822 149.602 232.727 149.748 232.606 149.871C232.485 149.995 232.341 150.093 232.181 150.159C232.022 150.226 231.851 150.261 231.678 150.261Z" fill="white"/>
<path d="M221.234 199.027L215.283 194.897C215.283 194.897 214.376 191.637 213.977 191.299C213.578 190.96 208.129 188.952 207.422 189.255C206.714 189.557 206.817 195.78 207.422 195.943C208.026 196.106 212.967 197.618 212.967 197.618L219.317 202.759L221.234 199.027Z" fill="#E4897B"/>
<path d="M258.172 200.339C258.172 200.339 257.906 200.587 257.464 201.029C256.424 202.045 254.09 204.095 251.671 206.29C246.833 210.257 240.864 214.69 237.157 214.351C230.505 213.747 215.991 201.96 215.991 201.96L218.724 196.941C218.724 196.941 229.295 203.968 235.645 205.443C241.995 206.919 252.276 187.942 257.21 186.618L258.172 200.339Z" fill="#0C95EF"/>
<path opacity="0.6" d="M258.172 200.339C258.172 200.339 257.906 200.587 257.464 201.029C256.424 202.045 254.09 204.095 251.671 206.29C246.833 210.257 240.864 214.69 237.157 214.351C230.505 213.747 215.991 201.96 215.991 201.96L218.724 196.941C218.724 196.941 229.295 203.968 235.645 205.443C241.995 206.919 252.276 187.942 257.21 186.618L258.172 200.339Z" fill="white"/>
<path d="M219.819 196.735L216.493 203.363L215.283 201.549L218.108 195.943L219.819 196.735Z" fill="#0C95EF"/>
<path opacity="0.7" d="M219.819 196.735L216.493 203.363L215.283 201.549L218.108 195.943L219.819 196.735Z" fill="white"/>
<path opacity="0.2" d="M257.483 201.029C256.442 202.045 254.296 204.095 251.707 206.29C252.88 200.932 256.612 196.511 256.612 196.511L257.483 201.029Z" fill="black"/>
<path d="M258.009 338.24L253.104 338.754L252.185 328.177L257.089 327.657L258.009 338.24Z" fill="#E4897B"/>
<path d="M282.489 337.883H277.735L277.342 326.871H282.102L282.489 337.883Z" fill="#E4897B"/>
<path d="M277.07 337.333H282.846C282.941 337.332 283.033 337.364 283.107 337.424C283.181 337.483 283.231 337.567 283.251 337.659L284.188 341.893C284.208 341.995 284.205 342.101 284.179 342.202C284.153 342.303 284.105 342.398 284.039 342.479C283.972 342.559 283.889 342.625 283.795 342.67C283.7 342.715 283.597 342.738 283.493 342.739C281.624 342.709 280.264 342.594 277.917 342.594C276.472 342.594 272.112 342.745 270.116 342.745C268.12 342.745 267.86 340.774 268.677 340.592C272.341 339.794 275.099 338.687 276.272 337.635C276.489 337.435 276.775 337.327 277.07 337.333Z" fill="#2E353A"/>
<path d="M275.504 338.168C275.181 338.192 274.859 338.107 274.591 337.926C274.504 337.853 274.437 337.759 274.396 337.654C274.355 337.548 274.341 337.434 274.355 337.321C274.353 337.255 274.37 337.19 274.404 337.135C274.439 337.079 274.489 337.034 274.549 337.007C275.075 336.734 276.611 337.678 276.78 337.787C276.8 337.796 276.817 337.812 276.827 337.832C276.837 337.851 276.839 337.874 276.835 337.896C276.832 337.918 276.822 337.94 276.807 337.957C276.792 337.974 276.772 337.986 276.75 337.992C276.342 338.096 275.925 338.155 275.504 338.168ZM274.797 337.182C274.746 337.177 274.695 337.187 274.651 337.212C274.621 337.212 274.585 337.255 274.579 337.345C274.569 337.42 274.578 337.496 274.605 337.566C274.631 337.637 274.674 337.7 274.73 337.75C275.263 337.992 275.869 338.022 276.423 337.835C275.929 337.514 275.376 337.292 274.797 337.182Z" fill="#0C95EF"/>
<path d="M276.72 337.998H276.665C276.175 337.732 275.226 336.686 275.323 336.184C275.339 336.1 275.385 336.025 275.451 335.971C275.517 335.917 275.6 335.887 275.686 335.887C275.771 335.876 275.858 335.883 275.94 335.908C276.022 335.933 276.099 335.976 276.163 336.033C276.714 336.48 276.828 337.847 276.835 337.913C276.835 337.934 276.83 337.954 276.821 337.972C276.811 337.99 276.797 338.005 276.78 338.016C276.759 338.017 276.737 338.01 276.72 337.998ZM275.764 336.069H275.71C275.565 336.069 275.552 336.154 275.546 336.184C275.486 336.492 276.091 337.284 276.581 337.653C276.55 337.112 276.354 336.592 276.018 336.166C275.949 336.102 275.858 336.068 275.764 336.069Z" fill="#0C95EF"/>
<path d="M252.584 337.182H258.36C258.454 337.181 258.546 337.213 258.62 337.273C258.694 337.332 258.745 337.416 258.765 337.508L259.702 341.742C259.722 341.844 259.718 341.95 259.692 342.051C259.667 342.153 259.619 342.247 259.552 342.328C259.486 342.408 259.403 342.474 259.308 342.519C259.214 342.564 259.111 342.588 259.007 342.588C257.138 342.558 255.777 342.443 253.431 342.443C251.985 342.443 247.625 342.594 245.63 342.594C243.634 342.594 243.374 340.623 244.19 340.441C247.855 339.643 250.613 338.537 251.786 337.484C252.003 337.284 252.289 337.176 252.584 337.182Z" fill="#2E353A"/>
<path d="M251.012 338.016C250.689 338.041 250.367 337.956 250.099 337.774C250.012 337.701 249.945 337.608 249.904 337.502C249.862 337.397 249.848 337.282 249.863 337.17C249.86 337.104 249.877 337.039 249.912 336.983C249.946 336.927 249.997 336.883 250.056 336.855C250.582 336.583 252.119 337.527 252.288 337.635C252.308 337.645 252.324 337.66 252.334 337.68C252.344 337.7 252.347 337.723 252.342 337.744C252.339 337.767 252.33 337.788 252.315 337.806C252.3 337.823 252.28 337.835 252.258 337.841C251.85 337.945 251.432 338.004 251.012 338.016ZM250.304 337.012C250.254 337.007 250.203 337.018 250.159 337.043C250.129 337.043 250.093 337.085 250.087 337.176C250.077 337.25 250.086 337.326 250.112 337.397C250.139 337.468 250.182 337.531 250.238 337.581C250.771 337.823 251.376 337.853 251.931 337.666C251.436 337.344 250.884 337.122 250.304 337.012Z" fill="#0C95EF"/>
<path d="M252.227 337.847H252.173C251.683 337.581 250.734 336.534 250.83 336.032C250.847 335.949 250.893 335.873 250.959 335.819C251.025 335.765 251.108 335.736 251.193 335.736C251.279 335.725 251.365 335.732 251.448 335.757C251.53 335.782 251.606 335.824 251.671 335.881C252.221 336.329 252.336 337.695 252.342 337.762C252.343 337.782 252.338 337.802 252.328 337.82C252.319 337.838 252.305 337.854 252.288 337.865C252.266 337.865 252.245 337.859 252.227 337.847ZM251.272 335.918H251.218C251.072 335.918 251.06 336.002 251.054 336.032C250.994 336.341 251.599 337.133 252.088 337.502C252.058 336.96 251.861 336.441 251.526 336.014C251.457 335.951 251.366 335.916 251.272 335.918Z" fill="#0C95EF"/>
<path opacity="0.2" d="M257.089 327.657L252.185 328.177L252.663 333.632L257.567 333.118L257.089 327.657Z" fill="black"/>
<path opacity="0.2" d="M282.102 326.877H277.342L277.548 332.556H282.307L282.102 326.877Z" fill="black"/>
<path d="M280.136 230.274H254.906C252.487 243.373 245.001 289.733 250.389 331.043L258.928 329.985C258.928 329.985 258.136 275.147 265.677 254.876C266.548 265.725 267.576 277.251 268.471 283.408C270.666 298.526 275.365 331.57 275.365 331.57H284.061C284.061 331.57 282.283 299.941 281.461 285.083C280.56 268.954 280.173 233.601 280.136 230.274Z" fill="#0C95EF"/>
<path opacity="0.2" d="M265.677 254.876C264.435 258.429 263.493 262.081 262.859 265.791C262.151 256.115 264.975 245.895 264.975 245.895L265.677 254.876Z" fill="black"/>
<path d="M249.409 333.033L259.98 331.461L259.66 328.534L248.659 329.973L249.409 333.033Z" fill="#0C95EF"/>
<path opacity="0.6" d="M249.409 333.033L259.98 331.461L259.66 328.534L248.659 329.973L249.409 333.033Z" fill="white"/>
<path d="M274.319 331.642H284.575V328.576L273.932 328.376L274.319 331.642Z" fill="#0C95EF"/>
<path opacity="0.6" d="M274.319 331.642H284.575V328.576L273.932 328.376L274.319 331.642Z" fill="white"/>
<path d="M254.695 230.577H280.094V233.6L254.368 233.286L254.695 230.577Z" fill="#263238"/>
<path d="M271.93 229.216H271.023V234.586H271.93V229.216Z" fill="#0C95EF"/>
<path d="M259.079 229.216H258.172V234.586H259.079V229.216Z" fill="#0C95EF"/>
<path d="M266.276 230.051H261.577V233.437H266.276V230.051Z" fill="white"/>
<path d="M257.211 186.618C257.211 186.618 273.261 185.862 285.216 188.88C285.216 188.88 279.937 215.458 280.137 230.577H254.695C254.695 230.577 253.044 202.22 257.211 186.618Z" fill="#0C95EF"/>
<path opacity="0.6" d="M285.216 188.88C285.216 188.88 284.164 194.177 283.015 201.386C282.592 204.065 282.15 207.01 281.745 210.046C280.808 217.133 280.058 224.717 280.137 230.577H254.695C254.695 230.577 253.044 202.22 257.211 186.618C257.211 186.618 273.261 185.862 285.216 188.88Z" fill="white"/>
<path d="M265.58 188.656L266.251 191.976C266.251 191.976 262.387 208.098 261.558 216.468L262.98 217.877L265.199 216.468C265.199 216.468 265.399 199.432 267.352 192.278L270.859 189.406L268.102 188.511L265.58 188.656Z" fill="#0C95EF"/>
<path d="M262.139 164.962C262.139 164.962 261.147 171.511 264.625 174.033C268.102 176.555 268.102 164.357 268.102 164.357L262.139 164.962Z" fill="#2E353A"/>
<path d="M276.091 187.186C273.774 189.291 268.102 188.51 268.102 188.51C268.102 188.51 264.558 187.543 265.302 186.436C267.388 186.091 268.398 185.118 268.815 183.872C269.044 183.1 269.116 182.29 269.027 181.489C268.992 181.043 268.934 180.599 268.852 180.159L275.861 174.94C274.948 178.393 273.823 184.701 276.091 187.186Z" fill="#E4897B"/>
<path opacity="0.2" d="M274.246 178.266C273.968 182.499 270.509 183.636 268.803 183.872C269.032 183.1 269.104 182.29 269.015 181.489L274.246 178.266Z" fill="black"/>
<path d="M274.718 179.24C273.989 180.319 272.926 181.128 271.693 181.544C270.46 181.961 269.124 181.96 267.89 181.544C266.286 181.033 264.936 179.933 264.111 178.466C263.996 178.27 263.891 178.068 263.796 177.861C262.085 173.858 261.54 166.855 265.774 164.23C266.705 163.645 267.769 163.309 268.867 163.251C269.965 163.194 271.059 163.419 272.046 163.903C273.032 164.388 273.878 165.117 274.504 166.021C275.129 166.925 275.513 167.974 275.619 169.068C276.139 173.731 276.665 176.47 274.718 179.24Z" fill="#E4897B"/>
<path d="M268.797 171.566C268.888 171.935 268.713 172.279 268.465 172.322C268.217 172.364 267.963 172.092 267.896 171.717C267.83 171.342 267.987 171.003 268.229 170.961C268.471 170.919 268.725 171.179 268.797 171.566Z" fill="#2E353A"/>
<path d="M264.522 172.291C264.613 172.66 264.437 173.011 264.189 173.053C263.941 173.096 263.693 172.817 263.627 172.448C263.56 172.08 263.712 171.729 263.96 171.686C264.207 171.644 264.461 171.916 264.522 172.291Z" fill="#2E353A"/>
<path d="M265.913 172.249C265.658 173.48 265.237 174.67 264.661 175.787C264.954 175.924 265.274 175.996 265.598 175.996C265.922 175.996 266.242 175.924 266.536 175.787L265.913 172.249Z" fill="#DE5753"/>
<path d="M269.886 169.951C269.847 169.964 269.805 169.967 269.764 169.958C269.724 169.95 269.687 169.93 269.656 169.902C269.455 169.704 269.21 169.555 268.942 169.468C268.673 169.381 268.387 169.358 268.108 169.4C268.05 169.415 267.989 169.406 267.938 169.375C267.887 169.344 267.85 169.295 267.836 169.237C267.821 169.179 267.831 169.118 267.861 169.067C267.892 169.016 267.941 168.979 267.999 168.965C268.35 168.902 268.712 168.924 269.052 169.029C269.393 169.134 269.704 169.32 269.959 169.57C269.98 169.59 269.997 169.614 270.008 169.641C270.02 169.668 270.026 169.698 270.026 169.727C270.026 169.756 270.02 169.785 270.008 169.812C269.997 169.839 269.98 169.864 269.959 169.884C269.939 169.911 269.914 169.933 269.886 169.951Z" fill="#2E353A"/>
<path d="M267.479 177.668C268.034 177.659 268.579 177.516 269.067 177.251C269.555 176.985 269.971 176.605 270.279 176.144C270.288 176.13 270.293 176.115 270.296 176.1C270.298 176.084 270.297 176.068 270.293 176.053C270.29 176.037 270.282 176.023 270.273 176.011C270.263 175.998 270.251 175.988 270.237 175.98C270.211 175.965 270.18 175.96 270.151 175.966C270.121 175.973 270.096 175.991 270.079 176.017C269.784 176.438 269.395 176.784 268.943 177.027C268.49 177.271 267.987 177.405 267.473 177.42C267.443 177.421 267.415 177.434 267.393 177.455C267.372 177.476 267.359 177.505 267.358 177.535C267.358 177.565 267.37 177.594 267.392 177.616C267.413 177.637 267.442 177.65 267.473 177.65L267.479 177.668Z" fill="#2E353A"/>
<path d="M262.435 171.13C262.397 171.154 262.353 171.167 262.308 171.166C262.28 171.159 262.253 171.145 262.229 171.127C262.206 171.109 262.186 171.086 262.171 171.06C262.157 171.034 262.147 171.006 262.144 170.976C262.141 170.947 262.143 170.917 262.151 170.888C262.244 170.543 262.418 170.224 262.659 169.96C262.9 169.696 263.201 169.494 263.536 169.37C263.564 169.361 263.594 169.358 263.624 169.36C263.653 169.363 263.682 169.372 263.708 169.386C263.734 169.4 263.757 169.419 263.775 169.443C263.793 169.466 263.807 169.493 263.814 169.521C263.823 169.55 263.825 169.579 263.822 169.608C263.819 169.638 263.81 169.666 263.796 169.692C263.782 169.718 263.763 169.74 263.74 169.759C263.718 169.777 263.691 169.791 263.663 169.8C263.402 169.904 263.169 170.068 262.982 170.278C262.796 170.487 262.66 170.738 262.587 171.009C262.573 171.04 262.552 171.067 262.526 171.088C262.499 171.109 262.468 171.123 262.435 171.13Z" fill="#2E353A"/>
<path d="M271.223 163.855V165.941C271.585 166.066 271.889 166.32 272.075 166.655C272.261 166.99 272.317 167.382 272.232 167.756C271.779 169.57 273.091 172.134 274.549 173.047C274.549 173.047 274.5 172.291 275.153 172.388C275.807 172.485 276.115 176.422 275.105 178.435C275.105 178.435 276.768 176.524 277.324 172.291C277.832 168.372 277.572 165.197 276.611 163.825L271.223 163.855Z" fill="#2E353A"/>
<path d="M276.611 164.46C276.611 164.46 278.177 160.928 272.335 160.124C266.493 159.319 260.337 161.636 260.337 161.636C260.337 161.636 260.035 167.236 264.987 167.181C269.813 167.127 276.611 164.46 276.611 164.46Z" fill="#2E353A"/>
<path d="M278.28 172.521C277.941 173.659 277.168 174.617 276.127 175.188C274.742 175.932 273.708 174.771 273.805 173.289C273.901 171.965 274.718 169.945 276.254 169.83C277.79 169.715 278.691 171.118 278.28 172.521Z" fill="#E4897B"/>
<path d="M275.056 184.513L268.35 187.537L267.957 185.118L265.495 185.983C265.064 186.132 264.697 186.423 264.453 186.809C264.209 187.195 264.103 187.652 264.153 188.105L264.425 190.766L267.83 188.904L269.523 191.323L277.578 187.446L275.056 184.513Z" fill="#0C95EF"/>
<path opacity="0.7" d="M275.056 184.513L268.35 187.537L267.957 185.118L265.495 185.983C265.064 186.132 264.697 186.423 264.453 186.809C264.209 187.195 264.103 187.652 264.153 188.105L264.425 190.766L267.83 188.904L269.523 191.323L277.578 187.446L275.056 184.513Z" fill="white"/>
<path opacity="0.2" d="M283.015 201.386C282.592 204.065 282.15 207.01 281.745 210.046C280.939 208.444 280.478 206.691 280.392 204.9C280.307 203.11 280.599 201.321 281.249 199.65L283.015 201.386Z" fill="black"/>
<path d="M285.216 188.879C288.107 190.21 297.499 209.048 296.876 219.685C296.271 230.051 280.094 242.974 280.094 242.974C280.094 242.974 276.593 240.132 276.103 237.689C276.103 237.689 287.502 225.878 287.805 219.685C288.101 213.601 281.455 202.752 281.455 202.752C281.455 202.752 280.699 198.217 282.06 194.286C283.42 190.355 285.216 188.879 285.216 188.879Z" fill="#0C95EF"/>
<path opacity="0.6" d="M285.216 188.879C288.107 190.21 297.499 209.048 296.876 219.685C296.271 230.051 280.094 242.974 280.094 242.974C280.094 242.974 276.593 240.132 276.103 237.689C276.103 237.689 287.502 225.878 287.805 219.685C288.101 213.601 281.455 202.752 281.455 202.752C281.455 202.752 280.699 198.217 282.06 194.286C283.42 190.355 285.216 188.879 285.216 188.879Z" fill="white"/>
<path d="M276.103 235.173C276.103 235.173 278.739 241.087 280.941 242.285C280.941 242.285 281.418 244.286 279.501 247.008C277.584 249.729 270.194 240.374 276.103 235.173Z" fill="#0C95EF"/>
<path d="M118.01 338.24L122.92 338.754L123.839 328.177L118.935 327.657L118.01 338.24Z" fill="#E4897B"/>
<path d="M93.5295 337.883H98.2829L98.682 326.871H93.9166L93.5295 337.883Z" fill="#E4897B"/>
<path d="M98.9419 337.333H93.1666C93.0717 337.332 92.9796 337.364 92.9058 337.424C92.8319 337.483 92.7809 337.567 92.7614 337.66L91.824 341.893C91.7865 342.075 91.8227 342.264 91.9248 342.42C92.0268 342.575 92.1863 342.683 92.3683 342.721C92.4185 342.727 92.4693 342.727 92.5195 342.721C94.3882 342.691 95.7488 342.576 98.0953 342.576C99.5406 342.576 103.901 342.727 105.896 342.727C107.892 342.727 108.152 340.756 107.336 340.574C103.671 339.776 100.913 338.669 99.7402 337.617C99.5206 337.423 99.2347 337.321 98.9419 337.333Z" fill="#2E353A"/>
<path d="M123.464 337.182H117.659C117.564 337.181 117.472 337.213 117.398 337.273C117.324 337.332 117.273 337.416 117.254 337.508L116.316 341.742C116.279 341.924 116.315 342.113 116.417 342.268C116.519 342.424 116.679 342.532 116.861 342.57C116.911 342.576 116.962 342.576 117.012 342.57C118.88 342.54 120.241 342.425 122.588 342.425C124.033 342.425 128.393 342.576 130.389 342.576C132.384 342.576 132.645 340.605 131.828 340.423C128.163 339.625 125.406 338.518 124.232 337.466C124.021 337.279 123.747 337.178 123.464 337.182Z" fill="#2E353A"/>
<path d="M124.287 335.198H117.314C117.314 335.198 117.883 275.177 110.341 254.906C109.809 261.606 109.211 268.555 108.624 274.348C108.255 277.934 107.892 281.001 107.547 283.365C105.352 298.484 99.8128 335.803 99.8128 335.803H92.9247C92.9247 335.803 93.7411 300.038 94.5575 285.185C95.4586 269.057 95.8456 233.6 95.8819 230.577H121.112C123.513 243.276 129.669 294.075 124.287 335.198Z" fill="#263238"/>
<path opacity="0.1" d="M124.287 335.198H117.314C117.314 335.198 117.883 275.177 110.341 254.906C109.809 261.606 109.211 268.555 108.624 274.348C108.255 277.934 107.892 281.001 107.547 283.365C105.352 298.484 99.8128 335.803 99.8128 335.803H92.9247C92.9247 335.803 93.7411 300.038 94.5575 285.185C95.4586 269.057 95.8456 233.6 95.8819 230.577H121.112C123.513 243.276 129.669 294.075 124.287 335.198Z" fill="white"/>
<path d="M117.798 193.028L112.107 183.763C111.171 183.557 110.338 183.023 109.761 182.258C108.884 181.048 108.334 176.21 108.751 176.005C109.168 175.799 113.589 176.307 113.885 176.9C114.182 177.492 115.095 182.403 115.095 182.403L121.65 190.089L117.798 193.028Z" fill="#E4897B"/>
<path opacity="0.2" d="M117.798 193.028L112.107 183.763C111.171 183.557 110.338 183.023 109.761 182.258C108.884 181.048 108.334 176.21 108.751 176.005C109.168 175.799 113.589 176.307 113.885 176.9C114.182 177.492 115.095 182.403 115.095 182.403L121.65 190.089L117.798 193.028Z" fill="black"/>
<path d="M119.389 185.408L117.925 183.938L113.039 187.567L113.498 189.454L119.389 185.408Z" fill="#0C95EF"/>
<path opacity="0.6" d="M119.389 185.408L117.925 183.938L113.039 187.567L113.498 189.454L119.389 185.408Z" fill="white"/>
<path d="M115.554 187.331L119.389 184.967C119.389 184.967 130.274 199.686 131.586 206.992C132.899 214.297 118.221 198.477 118.221 198.477L115.554 187.331Z" fill="#0C95EF"/>
<path d="M91.5882 188.904C91.5882 188.904 89.3023 190.204 88.9757 196.56C88.6733 202.293 90.5239 214.491 94.1161 217.158C99.8551 221.391 120.725 215.543 120.725 215.543L119.921 209.411C119.921 209.411 104.125 211.503 100.363 209.411C96.6016 207.318 95.4768 196.584 95.4768 196.584C95.4768 196.584 93.8984 189.563 91.5882 188.904Z" fill="#0C95EF"/>
<path opacity="0.2" d="M91.5882 188.904C91.5882 188.904 89.3023 190.204 88.9757 196.56C88.6733 202.293 90.5239 214.491 94.1161 217.158C99.8551 221.391 120.725 215.543 120.725 215.543L119.921 209.411C119.921 209.411 104.125 211.503 100.363 209.411C96.6016 207.318 95.4768 196.584 95.4768 196.584C95.4768 196.584 93.8984 189.563 91.5882 188.904Z" fill="black"/>
<path d="M112.228 177.837C112.134 178.044 112.029 178.245 111.914 178.442C111.086 179.907 109.736 181.006 108.134 181.52C106.901 181.934 105.565 181.933 104.332 181.517C103.099 181.101 102.037 180.293 101.306 179.216C99.3592 176.446 99.8853 173.719 100.405 169.038C100.511 167.944 100.895 166.895 101.521 165.991C102.146 165.087 102.992 164.358 103.979 163.873C104.965 163.388 106.059 163.164 107.157 163.221C108.255 163.278 109.32 163.615 110.251 164.2C114.484 166.83 113.94 173.833 112.228 177.837Z" fill="#E4897B"/>
<path opacity="0.2" d="M109.071 181.163C108.769 181.314 108.456 181.441 108.134 181.544C107.29 181.83 106.393 181.924 105.508 181.819C104.623 181.715 103.772 181.414 103.018 180.939C103.317 180.406 103.685 179.914 104.113 179.476C105.893 179.55 107.615 180.136 109.071 181.163Z" fill="black"/>
<path d="M99.9337 187.186C102.25 189.291 107.922 188.51 107.922 188.51C107.922 188.51 111.46 187.543 110.722 186.436C108.636 186.091 107.62 185.118 107.203 183.872C106.976 183.099 106.906 182.289 106.997 181.489C106.997 181.048 107.094 180.6 107.167 180.159L100.157 174.94C101.089 178.393 102.202 184.701 99.9337 187.186Z" fill="#E4897B"/>
<path d="M111.569 167.58C111.569 167.58 112.881 172.007 108.346 175.188C108.346 175.188 106.441 179.276 105.376 179.778C104.312 180.28 101.911 179.978 101.095 179.778C100.278 179.579 96.0996 176.101 97.3091 167.937C98.5186 159.773 105.376 162.355 105.376 162.355C105.376 162.355 107.717 160.323 112.077 162.845C115.706 164.95 114.998 168.893 111.569 167.58Z" fill="#2E353A"/>
<path d="M107.741 173.077C107.757 173.529 107.873 173.972 108.083 174.373C108.292 174.774 108.589 175.123 108.95 175.394C109.827 175.956 110.668 174.728 110.765 173.313C110.843 172.055 110.499 170.211 109.446 170.29C108.394 170.368 107.614 171.771 107.741 173.077Z" fill="#E4897B"/>
<path d="M99.9337 185.674L100.635 182.953C100.635 182.953 107.572 182.028 110.759 185.1L109.936 188.323L99.9337 185.674Z" fill="#0C95EF"/>
<path opacity="0.6" d="M99.9337 185.674L100.635 182.953C100.635 182.953 107.572 182.028 110.759 185.1L109.936 188.323L99.9337 185.674Z" fill="white"/>
<path d="M97.9078 187.507L99.9337 184.314C99.9337 184.314 108.606 182.179 112.712 187.338C116.818 192.496 97.9078 187.507 97.9078 187.507Z" fill="#0C95EF"/>
<path opacity="0.2" d="M97.9078 187.507L99.9337 184.314C99.9337 184.314 108.606 182.179 112.712 187.338C116.818 192.496 97.9078 187.507 97.9078 187.507Z" fill="black"/>
<path d="M112.712 211.007L123.555 210.251C124.172 209.519 125.03 209.03 125.974 208.872C127.48 208.667 131.985 210.402 131.985 210.868C131.985 211.334 129.482 215.011 128.816 215.011C128.151 215.011 123.374 213.505 123.374 213.505L113.522 215.76L112.712 211.007Z" fill="#E4897B"/>
<path d="M91.5156 188.849C92.9128 193.981 93.9235 199.211 94.5394 204.494C94.7389 206.115 94.9022 207.705 95.0353 209.247C95.2106 211.207 95.3316 213.094 95.4283 214.884C95.5493 217.151 95.5856 219.83 95.5795 222.467C95.5795 228.515 93.5294 240.815 93.5294 240.815C98.3674 242.025 113.94 241.97 123.61 239.944C124.601 232.185 122.86 218.857 122.485 212.18C122.227 207.33 121.692 202.498 120.882 197.709C120.473 195.151 119.902 192.622 119.171 190.137C118.89 189.257 118.364 188.475 117.653 187.885C116.943 187.294 116.078 186.92 115.161 186.805C114.236 186.69 113.166 186.575 112.041 186.509C111.605 186.509 111.17 186.466 110.728 186.46C107.119 186.502 103.514 186.752 99.9337 187.21C99.2624 187.289 98.573 187.392 97.9078 187.501C95.7548 187.837 93.6212 188.288 91.5156 188.849Z" fill="#0C95EF"/>
<path d="M116.812 187.332C122.533 187.791 133.781 206.496 131.665 210.56C129.548 214.624 125.998 216.517 119.878 205.026C113.758 193.536 116.812 187.332 116.812 187.332Z" fill="#0C95EF"/>
<path opacity="0.2" d="M116.812 187.332C122.533 187.791 133.781 206.496 131.665 210.56C129.548 214.624 125.998 216.517 119.878 205.026C113.758 193.536 116.812 187.332 116.812 187.332Z" fill="black"/>
<path opacity="0.2" d="M110.341 254.876C109.809 261.576 109.211 268.543 108.624 274.337C107.765 265.973 106.713 260.01 106.713 260.01C106.713 260.01 105.727 259.2 103.018 254.876C100.309 250.552 103.018 242.479 103.018 242.479C102.933 249.977 110.341 254.876 110.341 254.876Z" fill="black"/>
<path opacity="0.2" d="M102.298 187.332C102.039 187.932 101.837 188.556 101.694 189.194C101.528 189.924 101.407 190.663 101.331 191.408C101.231 192.37 101.185 193.337 101.192 194.304C101.204 195.449 101.281 196.591 101.421 197.727C101.482 198.332 101.609 198.937 101.7 199.584C101.79 200.231 101.948 200.854 102.075 201.507C102.202 202.16 102.335 202.831 102.45 203.515C102.564 204.198 102.655 204.893 102.758 205.589C102.861 206.284 102.933 206.992 103.018 207.699C103.103 208.407 103.169 209.121 103.242 209.834C103.49 212.683 103.659 215.531 103.792 218.204C103.925 220.877 103.955 223.381 104.004 225.521C104.052 227.662 104.004 229.446 104.004 230.692C104.004 231.938 104.004 232.657 104.004 232.657C104.004 232.657 103.871 229.809 103.677 225.533C103.58 223.393 103.429 220.901 103.278 218.234C103.127 215.567 102.921 212.725 102.673 209.889C102.607 209.181 102.54 208.467 102.48 207.766C102.419 207.064 102.317 206.357 102.238 205.661L101.948 203.611C101.845 202.934 101.712 202.263 101.597 201.604C101.482 200.944 101.343 200.297 101.246 199.662C101.149 199.027 101.065 198.392 101.022 197.776C100.911 196.62 100.867 195.459 100.889 194.298C100.908 193.32 100.992 192.344 101.143 191.377C101.255 190.63 101.415 189.891 101.621 189.164C101.783 188.531 102.01 187.917 102.298 187.332Z" fill="black"/>
</g>
<defs>
<clipPath id="clip0_1793_31658">
<rect width="234.029" height="234.029" fill="white" transform="translate(71.158 122.551)"/>
</clipPath>
</defs>
</svg>
