<svg width="20" height="20" viewBox="0 0 20 20" fill="none" xmlns="http://www.w3.org/2000/svg">
<path d="M9.18325 16.25H6.24992C5.73325 16.25 5.27492 16.2333 4.86659 16.175C2.67492 15.9333 2.08325 14.9 2.08325 12.0833V7.91667C2.08325 5.1 2.67492 4.06667 4.86659 3.825C5.27492 3.76667 5.73325 3.75 6.24992 3.75H9.13325" stroke="#667085" stroke-width="1.5" stroke-linecap="round" stroke-linejoin="round"/>
<path d="M12.5164 3.75H13.7497C14.2664 3.75 14.7247 3.76667 15.133 3.825C17.3247 4.06667 17.9164 5.1 17.9164 7.91667V12.0833C17.9164 14.9 17.3247 15.9333 15.133 16.175C14.7247 16.2333 14.2664 16.25 13.7497 16.25H12.5164" stroke="#667085" stroke-width="1.5" stroke-linecap="round" stroke-linejoin="round"/>
<path d="M12.5 1.66602V18.3327" stroke="#667085" stroke-width="1.5" stroke-linecap="round" stroke-linejoin="round"/>
<path d="M9.2451 10.0007H9.25258" stroke="#667085" stroke-width="1.5" stroke-linecap="round" stroke-linejoin="round"/>
<path d="M5.91185 10.0007H5.91933" stroke="#667085" stroke-width="1.5" stroke-linecap="round" stroke-linejoin="round"/>
</svg>
