<svg width="86" height="86" viewBox="0 0 86 86" fill="none" xmlns="http://www.w3.org/2000/svg">
<path d="M39.4883 69.875H26.8749C24.6533 69.875 22.6824 69.8033 20.9266 69.5525C11.5024 68.5133 8.95825 64.07 8.95825 51.9583V34.0417C8.95825 21.93 11.5024 17.4867 20.9266 16.4475C22.6824 16.1967 24.6533 16.125 26.8749 16.125H39.2733" stroke="#94D1F9" stroke-width="1.5" stroke-linecap="round" stroke-linejoin="round"/>
<path d="M53.8201 16.125H59.1234C61.3451 16.125 63.3159 16.1967 65.0717 16.4475C74.4959 17.4867 77.0401 21.93 77.0401 34.0417V51.9583C77.0401 64.07 74.4959 68.5133 65.0717 69.5525C63.3159 69.8033 61.3451 69.875 59.1234 69.875H53.8201" stroke="#94D1F9" stroke-width="1.5" stroke-linecap="round" stroke-linejoin="round"/>
<path d="M53.75 7.16602V78.8327" stroke="#94D1F9" stroke-width="1.5" stroke-linecap="round" stroke-linejoin="round"/>
<path d="M39.7539 43.0007H39.7861" stroke="#94D1F9" stroke-width="1.5" stroke-linecap="round" stroke-linejoin="round"/>
<path d="M25.4207 43.0007H25.4529" stroke="#94D1F9" stroke-width="1.5" stroke-linecap="round" stroke-linejoin="round"/>
</svg>
