<svg width="17" height="16" viewBox="0 0 17 16" fill="none" xmlns="http://www.w3.org/2000/svg">
<path d="M12.5 4.77301C12.46 4.76634 12.4133 4.76634 12.3733 4.77301C11.4533 4.73968 10.72 3.98634 10.72 3.05301C10.72 2.09968 11.4867 1.33301 12.44 1.33301C13.3933 1.33301 14.16 2.10634 14.16 3.05301C14.1533 3.98634 13.42 4.73968 12.5 4.77301Z" stroke="#8ACDF9" stroke-linecap="round" stroke-linejoin="round"/>
<path d="M11.8136 9.62645C12.7269 9.77978 13.7336 9.61978 14.4402 9.14645C15.3802 8.51978 15.3802 7.49312 14.4402 6.86645C13.7269 6.39312 12.7069 6.23311 11.7936 6.39311" stroke="#8ACDF9" stroke-linecap="round" stroke-linejoin="round"/>
<path d="M4.48029 4.77301C4.52029 4.76634 4.56696 4.76634 4.60696 4.77301C5.52696 4.73968 6.26029 3.98634 6.26029 3.05301C6.26029 2.09968 5.49362 1.33301 4.54029 1.33301C3.58696 1.33301 2.82029 2.10634 2.82029 3.05301C2.82696 3.98634 3.56029 4.73968 4.48029 4.77301Z" stroke="#8ACDF9" stroke-linecap="round" stroke-linejoin="round"/>
<path d="M5.16695 9.62645C4.25362 9.77978 3.24696 9.61978 2.54029 9.14645C1.60029 8.51978 1.60029 7.49312 2.54029 6.86645C3.25362 6.39312 4.27362 6.23311 5.18695 6.39311" stroke="#8ACDF9" stroke-linecap="round" stroke-linejoin="round"/>
<path d="M8.50005 9.75348C8.46005 9.74681 8.41339 9.74681 8.37339 9.75348C7.45339 9.72015 6.72005 8.96681 6.72005 8.03348C6.72005 7.08014 7.48672 6.31348 8.44005 6.31348C9.39339 6.31348 10.1601 7.08681 10.1601 8.03348C10.1534 8.96681 9.42005 9.72681 8.50005 9.75348Z" stroke="#8ACDF9" stroke-linecap="round" stroke-linejoin="round"/>
<path d="M6.55982 11.8532C5.61982 12.4799 5.61982 13.5066 6.55982 14.1332C7.62649 14.8466 9.37315 14.8466 10.4398 14.1332C11.3798 13.5066 11.3798 12.4799 10.4398 11.8532C9.37982 11.1466 7.62649 11.1466 6.55982 11.8532Z" stroke="#8ACDF9" stroke-linecap="round" stroke-linejoin="round"/>
</svg>
