<svg width="375" height="513" viewBox="0 0 375 513" fill="none" xmlns="http://www.w3.org/2000/svg">
<path d="M284.433 378.998C256.581 402.458 211.649 406.207 171.309 399.478C130.952 392.988 94.9135 376.481 74.7638 349.346C54.8529 322.227 50.8137 284.718 56.1254 250.761C61.42 217.041 76.3215 186.651 100.882 152.15C125.204 117.631 159.441 78.7796 192.034 79.6714C224.628 80.5631 256.055 121.232 279.514 159.17C302.973 197.108 318.685 232.571 320.898 272.11C323.367 311.427 312.303 355.299 284.433 378.998Z" fill="#D3ECFD"/>
<path d="M145.507 322.853H120.868V356.486H145.507V322.853Z" fill="#0C95EF"/>
<path opacity="0.4" d="M145.507 322.853H120.868V356.486H145.507V322.853Z" fill="black"/>
<path d="M188.351 276.139H163.712V356.486H188.351V276.139Z" fill="#0C95EF"/>
<path opacity="0.3" d="M188.351 276.139H163.712V356.486H188.351V276.139Z" fill="black"/>
<path d="M232.252 257.491H207.613V356.486H232.252V257.491Z" fill="#0C95EF"/>
<path opacity="0.2" d="M232.252 257.491H207.613V356.486H232.252V257.491Z" fill="black"/>
<path d="M276.154 224.885H251.515V356.486H276.154V224.885Z" fill="#0C95EF"/>
<path opacity="0.1" d="M276.154 224.885H251.515V356.486H276.154V224.885Z" fill="black"/>
<path d="M292.835 185.535L283.599 164.028L262.092 173.259L265.219 180.54L274.301 176.644L258.733 215.638L235.611 244.488L200.42 255.783L200.085 255.892L167.716 273.095L145.724 281.449L139.129 315.459H122.452L108.598 348.034H65.5479V355.959H113.835L127.695 323.384H145.662L152.659 287.285L170.992 280.324L203.175 263.219L240.302 251.304L265.653 219.674L281.659 179.58L285.555 188.657L292.835 185.535Z" fill="#0C95EF"/>
<path d="M64.8564 356.486H283.527" stroke="#263238" stroke-linecap="round" stroke-linejoin="round"/>
<path d="M169.743 267.218L169.599 269.602C169.599 269.602 167.535 271.021 165.92 272.016C164.888 272.651 163.949 272.811 164.073 273.312C164.382 274.591 168.83 273.147 171.054 272.61C173.278 272.073 176.214 272.094 174.062 270.066C173.831 269.818 173.616 269.556 173.417 269.282L173.484 266.851L169.743 267.218Z" fill="#263238" stroke="#263238" stroke-linecap="round" stroke-linejoin="round"/>
<path d="M198.319 249.008C198.319 249.008 198.944 251.505 198.835 252.347C198.696 253.204 198.722 254.079 198.913 254.927C199.341 256.366 200.249 255.793 202.231 255.308C204.336 254.792 206.054 254.648 205.889 253.673C205.724 252.697 203.087 252.507 202.54 251.743C201.993 250.979 201.673 248.172 201.673 248.172L198.319 249.008Z" fill="#263238" stroke="#263238" stroke-linecap="round" stroke-linejoin="round"/>
<path d="M177.328 230.313C177.328 230.313 170.682 244.338 169.702 250.737C168.722 257.135 169.31 268.229 169.31 268.229C169.31 268.229 171.033 269.261 173.954 268.27C173.954 268.27 175.213 252.202 176.162 250.345C177.112 248.487 184.248 238.322 185.553 237.734C186.859 237.145 193.918 241.949 194.929 243.693C195.941 245.437 198.335 251.562 198.335 251.562C198.335 251.562 200.187 252.47 202.571 250.35C202.571 250.35 202.112 242.491 199.909 239.405C197.705 236.32 190.801 228.755 190.801 228.755L177.328 230.313Z" fill="#FFC2BC" stroke="#263238" stroke-linecap="round" stroke-linejoin="round"/>
<path opacity="0.3" d="M199.527 244.122C197.045 244.906 194.78 241.923 193.464 240.613C192.149 239.302 189.656 235.381 188.155 236.268C186.653 237.156 185.575 236.913 182.995 236.335C180.415 235.757 176.694 247.687 174.806 249.235C172.917 250.783 173.738 249.684 172.711 258.91C171.988 265.401 170.234 267.017 169.259 267.404C169.259 267.92 169.3 268.25 169.3 268.25C169.3 268.25 171.024 269.282 173.944 268.291C173.944 268.291 175.203 252.223 176.153 250.365C177.102 248.508 184.238 238.342 185.544 237.754C186.849 237.166 193.908 241.97 194.919 243.714C195.931 245.458 198.325 251.583 198.325 251.583C198.325 251.583 200.178 252.491 202.561 250.37C202.387 247.729 201.956 245.111 201.277 242.553C201.138 242.939 200.905 243.284 200.6 243.558C200.295 243.832 199.926 244.025 199.527 244.122Z" fill="black"/>
<path d="M170.776 250.02C170.615 250.972 170.696 251.95 171.013 252.863" stroke="#263238" stroke-width="0.75" stroke-linecap="round" stroke-linejoin="round"/>
<path d="M195.961 241.547C195.961 241.547 194.367 241.929 195.394 244.643" stroke="#263238" stroke-width="0.75" stroke-linecap="round" stroke-linejoin="round"/>
<path d="M180.239 234.498C180.239 234.498 185.038 236.32 184.563 236.98C184.089 237.641 181.689 237.223 181.689 237.223" stroke="#263238" stroke-width="0.75" stroke-linecap="round" stroke-linejoin="round"/>
<path d="M186.875 236.057C187.895 235.531 188.83 234.856 189.651 234.054" stroke="#263238" stroke-width="0.75" stroke-linecap="round" stroke-linejoin="round"/>
<path d="M200.306 242.481C200.306 242.481 199.233 243.647 198.165 243.363" stroke="#263238" stroke-width="0.75" stroke-linecap="round" stroke-linejoin="round"/>
<path d="M174.769 250.799C174.769 250.799 173.02 251.155 172.809 251.681" stroke="#263238" stroke-width="0.75" stroke-linecap="round" stroke-linejoin="round"/>
<path d="M166.462 215.437L163.701 217.868C162.188 218.338 160.773 219.081 159.527 220.061C157.143 221.815 150.946 226.505 150.946 226.505C150.208 226.746 149.45 226.919 148.681 227.021C147.649 227.135 146.539 227.909 146.761 228.26C146.983 228.611 147.938 227.883 148.17 227.919C148.402 227.955 147.953 230.19 148.257 230.706C148.562 231.222 149.031 230.515 149.031 230.515C149.113 230.581 149.208 230.629 149.31 230.654C149.412 230.679 149.519 230.682 149.622 230.661C149.725 230.64 149.822 230.597 149.907 230.534C149.991 230.472 150.06 230.391 150.11 230.298C150.11 230.298 150.822 230.443 150.946 229.823C150.946 229.823 151.462 230.061 151.622 229.436C151.715 229.064 151.838 228.7 151.988 228.348C151.988 228.348 163.371 223.188 165.038 221.098C165.038 221.098 166.493 220.582 166.741 219.916L168.908 218.208L166.462 215.437Z" fill="#E4E7EC" stroke="#263238" stroke-linecap="round" stroke-linejoin="round"/>
<path d="M148.525 229.699C148.525 229.699 148.964 229.637 149.041 229.844C149.119 230.05 149.557 229.493 149.8 229.612C150.042 229.73 150.373 228.977 150.693 229.168" fill="#E4E7EC"/>
<path d="M148.525 229.699C148.525 229.699 148.964 229.637 149.041 229.844C149.119 230.05 149.557 229.493 149.8 229.612C150.042 229.73 150.373 228.977 150.693 229.168" stroke="#263238" stroke-width="0.75" stroke-linecap="round" stroke-linejoin="round"/>
<path d="M207.159 204.72C206.312 205.545 201.818 216.289 198.665 215.246C196.51 214.496 194.413 213.589 192.391 212.532L194.001 208.358L198.846 210.938C198.846 210.938 198.939 209.632 205.187 204.039C205.187 204.039 204.45 201.975 204.548 201.134C204.646 200.293 204.434 199.4 204.914 199.415C205.394 199.431 205.27 200.891 205.27 200.891L205.378 201.34C205.378 201.34 206.493 201.438 206.926 200.788C207.252 200.356 207.468 199.851 207.556 199.317C207.628 198.92 208.036 198.213 208.232 198.879C208.232 198.879 208.748 198.652 208.748 199.395C208.757 199.794 208.742 200.194 208.701 200.592C208.701 200.592 209.181 199.627 209.362 199.823C209.542 200.019 209.001 201.134 209.001 201.134C209.001 201.134 209.702 200.52 209.764 200.778C209.826 201.036 209.047 201.732 208.882 202.181C208.482 203.133 207.896 203.996 207.159 204.72Z" fill="#E4E7EC" stroke="#263238" stroke-linecap="round" stroke-linejoin="round"/>
<path d="M180.884 206.087C178.748 206.495 171.994 207.888 172.659 210.262C173.284 212.475 176.736 223.079 176.018 229.354C175.998 229.521 176.013 229.69 176.062 229.851C176.11 230.012 176.192 230.161 176.301 230.289C176.41 230.417 176.544 230.521 176.695 230.595C176.847 230.668 177.011 230.709 177.179 230.716C181.798 230.892 186.418 230.409 190.9 229.281C191.552 229.118 192.12 228.718 192.493 228.159C192.866 227.6 193.017 226.922 192.917 226.258C192.432 223.079 191.725 217.29 192.18 212.754C192.861 206.165 192.494 203.879 180.884 206.087Z" fill="#0C95EF" stroke="#263238" stroke-linecap="round" stroke-linejoin="round"/>
<path d="M188.186 207.656C187.6 208.112 187.208 208.773 187.088 209.506C186.969 210.239 187.13 210.99 187.541 211.609" stroke="#263238" stroke-width="0.75" stroke-linecap="round" stroke-linejoin="round"/>
<path d="M174.903 217.444C177.94 221.94 182.47 225.215 187.69 226.691" stroke="#263238" stroke-width="0.75" stroke-linecap="round" stroke-linejoin="round"/>
<path d="M177.809 228.497C180.01 228.682 182.227 228.57 184.398 228.162" stroke="#263238" stroke-width="0.75" stroke-linecap="round" stroke-linejoin="round"/>
<path d="M173.134 209.519L165.301 215.122C165.301 215.122 167.066 219.405 168.944 219.673L174.847 215.829" fill="#0C95EF"/>
<path d="M173.134 209.519L165.301 215.122C165.301 215.122 167.066 219.405 168.944 219.673L174.847 215.829" stroke="#263238" stroke-linecap="round" stroke-linejoin="round"/>
<path d="M188.613 206.361C188.613 206.361 192.741 207.088 198.103 210.133C198.103 210.133 198.103 213.399 196.039 215.535L190.708 213.033" fill="#0C95EF"/>
<path d="M188.613 206.361C188.613 206.361 192.741 207.088 198.103 210.133C198.103 210.133 198.103 213.399 196.039 215.535L190.708 213.033" stroke="#263238" stroke-linecap="round" stroke-linejoin="round"/>
<path d="M177.896 209.751L178.97 211.887L178.67 217.759C178.67 217.759 178.624 222.795 180.678 230.313L182.226 230.984L183.392 230.066C183.392 230.066 181.25 219.581 181.039 217.594L179.873 211.717L180.719 209.56L178.959 209.777L177.896 209.751Z" fill="#263238" stroke="#263238" stroke-linecap="round" stroke-linejoin="round"/>
<path d="M180.466 207.083C179.651 207.243 178.165 207.542 176.674 207.981C176.366 209.076 176.329 210.228 176.565 211.34C176.868 210.853 177.335 210.49 177.882 210.317C178.429 210.144 179.02 210.172 179.548 210.396C181.834 208.801 183.506 209.983 183.506 209.983C183.367 208.87 183.172 207.764 182.923 206.67C182.164 206.784 181.354 206.918 180.466 207.083Z" fill="#0C95EF" stroke="#263238" stroke-width="0.75" stroke-linecap="round" stroke-linejoin="round"/>
<path d="M181.199 204.869C181.199 204.869 181.756 206.613 182.365 206.748C182.365 206.748 181.581 209.818 178.655 209.224C175.729 208.631 179.47 205.865 179.47 205.865L181.199 204.869Z" fill="#E4E7EC" stroke="#263238" stroke-linecap="round" stroke-linejoin="round"/>
<path d="M180.647 204.72C180.647 204.72 181.261 206.113 182.164 205.912C182.164 205.912 181.478 203.487 181.798 202.016C182.117 200.545 181.07 196.825 177.582 197.847C176.01 197.802 174.466 198.271 173.186 199.183C171.178 200.695 170.838 199.586 170.838 199.586C170.838 199.586 170.425 201.386 172.36 200.948C172.36 200.948 171.844 201.98 170.951 201.732C170.951 201.732 171.622 202.656 172.499 202.207C172.499 202.207 171.916 203.012 172.422 203.559C172.422 203.559 174.811 201.644 176.214 201.98C177.618 202.315 180.647 204.72 180.647 204.72Z" fill="#263238" stroke="#263238" stroke-linecap="round" stroke-linejoin="round"/>
<path d="M173.655 204.204C173.655 204.204 174.578 208.59 177.432 210.081C179.341 211.077 181.302 206.149 181.271 205.478C181.544 205.344 181.775 205.138 181.94 204.883C182.105 204.627 182.199 204.332 182.21 204.028C182.256 202.965 181.482 202.707 180.853 203.203C180.853 203.203 180.595 203.946 180.265 203.992C179.934 204.039 180.012 202.114 179.63 201.928C179.248 201.742 178.345 201.66 178.051 200.896C177.757 200.133 176.503 201.206 174.878 201.412C173.252 201.619 173.355 203.115 173.655 204.204Z" fill="#E4E7EC" stroke="#263238" stroke-linecap="round" stroke-linejoin="round"/>
<path d="M175.419 205.004C175.446 205.342 175.404 205.683 175.296 206.005C175.188 206.327 175.016 206.623 174.79 206.877C174.361 207.346 176.007 207.037 176.131 207.367" stroke="#263238" stroke-width="0.75" stroke-linecap="round" stroke-linejoin="round"/>
<path d="M174.594 204.983C174.651 205.205 174.594 205.406 174.522 205.427C174.449 205.447 174.305 205.287 174.253 205.065C174.202 204.844 174.253 204.637 174.326 204.617C174.398 204.596 174.542 204.756 174.594 204.983Z" fill="#263238"/>
<path d="M176.793 204.446C176.844 204.673 176.793 204.87 176.72 204.895C176.648 204.921 176.504 204.756 176.447 204.529C176.39 204.302 176.447 204.106 176.519 204.08C176.591 204.054 176.736 204.204 176.793 204.446Z" fill="#263238"/>
<path d="M178.237 206.856C178.299 207.475 176.818 207.888 176.818 207.888" stroke="#263238" stroke-width="0.75" stroke-linecap="round" stroke-linejoin="round"/>
<path d="M173.655 204.204C173.881 204.118 174.125 204.093 174.363 204.131C174.601 204.169 174.825 204.269 175.012 204.421" stroke="#263238" stroke-width="0.75" stroke-linecap="round" stroke-linejoin="round"/>
<path d="M175.858 204.044C175.858 204.044 176.204 202.713 176.968 203.229" stroke="#263238" stroke-width="0.75" stroke-linecap="round" stroke-linejoin="round"/>
<path d="M205.915 202.14C206.066 202.297 206.173 202.492 206.225 202.704C206.276 202.916 206.271 203.138 206.209 203.347" fill="#E4E7EC"/>
<path d="M205.915 202.14C206.066 202.297 206.173 202.492 206.225 202.704C206.276 202.916 206.271 203.138 206.209 203.347" stroke="#263238" stroke-linecap="round" stroke-linejoin="round"/>
<path d="M256.04 212.383C255.126 210.344 254.108 208.353 252.991 206.418C251.819 204.591 244.632 205.386 241.788 206.232C238.945 207.078 237.273 217.439 236.721 220.814C236.169 224.189 239.946 238.678 239.946 238.678C238.61 240.52 234.761 240.014 234.761 240.014C234.761 240.014 230.751 228.477 229.915 222.47C229.079 216.464 232.702 201.567 232.702 201.567L243.94 198.688C243.94 198.688 252.103 198.533 255.751 198.729C261.154 199.013 259.539 211.289 259.539 211.289C259.539 211.289 259.219 212.383 256.04 212.383Z" fill="#263238" stroke="#263238" stroke-linecap="round" stroke-linejoin="round"/>
<path d="M235.188 238.513C235.188 238.513 236.442 241.02 234.559 242.022C232.675 243.023 231.896 244.488 232.918 244.488H239.327C240.457 244.488 241.587 243.905 240.581 242.001C240.379 241.624 239.203 237.63 239.203 237.63L235.188 238.513Z" fill="#263238" stroke="#263238" stroke-linecap="round" stroke-linejoin="round"/>
<path d="M255.751 210.246C255.751 210.246 256.169 213.007 256.267 214.596C256.365 216.185 257.438 217.104 258.692 216.521C259.946 215.938 266.05 211.67 265.715 210.747C265.38 209.823 264.043 210.917 262.454 211.263C261.606 211.452 260.742 211.563 259.874 211.593L259.456 209.338L255.751 210.246Z" fill="#263238" stroke="#263238" stroke-linecap="round" stroke-linejoin="round"/>
<path d="M230.307 221.619C230.307 221.619 230.756 223.373 231.757 223.962" stroke="#705960" stroke-width="0.75" stroke-linecap="round" stroke-linejoin="round"/>
<path d="M236.721 205.649C236.721 205.649 240.983 204.617 240.967 205.231C240.952 205.845 238.387 206.82 238.196 207.295" stroke="#705960" stroke-width="0.75" stroke-linecap="round" stroke-linejoin="round"/>
<path d="M241.793 205.045C241.793 205.045 244.471 203.91 244.471 203.275" stroke="#705960" stroke-width="0.75" stroke-linecap="round" stroke-linejoin="round"/>
<path d="M259.528 211.273C258.451 211.881 257.26 212.258 256.029 212.382" stroke="#705960" stroke-width="0.75" stroke-linecap="round" stroke-linejoin="round"/>
<path d="M239.786 239.122C238.687 240.03 236.814 240.107 235.771 240.071" stroke="#705960" stroke-width="0.75" stroke-linecap="round" stroke-linejoin="round"/>
<path d="M240.199 175.824C240.199 175.824 241.618 170.555 238.692 169.214C238.692 169.214 236.726 167.207 233.016 169.214C229.306 171.221 230.72 172.547 231.509 172.073C231.509 172.073 229.714 173.688 230.173 174.193C230.632 174.699 231.509 173.817 231.509 173.817C231.476 174.724 231.709 175.621 232.18 176.397C232.933 177.429 236.525 177.026 236.525 177.026L239.291 176.51L240.199 175.824Z" fill="#263238" stroke="#263238" stroke-linecap="round" stroke-linejoin="round"/>
<path d="M233.011 203.249C232.515 203.222 232.042 203.03 231.668 202.702C231.294 202.375 231.04 201.932 230.947 201.443C230.514 199.219 229.668 195.05 228.744 191.35C227.402 185.999 222.356 180.86 235.602 178.641C248.569 176.464 245.633 182.32 245.467 185.829C245.328 188.703 244.632 194.085 245.756 196.815C245.964 197.29 246.001 197.823 245.859 198.323C245.718 198.823 245.408 199.258 244.982 199.555C242.619 201.159 238.182 203.538 233.011 203.249Z" fill="#FFC2BC" stroke="#263238" stroke-linecap="round" stroke-linejoin="round"/>
<path d="M229.734 187.305C231.167 189.264 233.041 190.859 235.204 191.961C237.367 193.062 239.758 193.64 242.185 193.647" stroke="#263238" stroke-width="0.75" stroke-linecap="round" stroke-linejoin="round"/>
<path d="M231.834 197.429L242.969 197.527C239.602 199.112 235.933 199.955 232.211 199.998" stroke="#263238" stroke-width="0.75" stroke-linecap="round" stroke-linejoin="round"/>
<path d="M234.12 181.314C234.12 181.314 234.636 183.78 235.152 184.033C235.152 184.033 233.898 191.639 234.904 198.12L235.333 200.587L237.247 201.551L238.831 199.709C238.831 199.709 238.46 197.986 238.315 197.413C237.588 194.095 236.179 187.754 236.251 183.997C236.251 183.997 238 182.614 237.877 181.417L234.12 181.314Z" fill="#0C95EF" stroke="#263238" stroke-linecap="round" stroke-linejoin="round"/>
<path d="M250.101 181.923L253.46 179.204C254.813 178.822 256.137 178.344 257.423 177.774C260.003 176.68 266.391 173.394 266.391 173.394C267.129 173.326 267.871 173.326 268.61 173.394C269.569 173.512 270.782 173.048 270.674 172.671C270.565 172.294 269.502 172.759 269.296 172.671C269.089 172.583 269.998 170.607 269.812 170.091C269.626 169.575 269.064 170.091 269.064 170.091C269.002 170.015 268.925 169.952 268.838 169.908C268.75 169.864 268.654 169.84 268.556 169.836C268.458 169.833 268.36 169.851 268.27 169.888C268.179 169.926 268.098 169.983 268.032 170.055C268.032 170.055 267.402 169.761 267.154 170.308C267.098 170.261 267.03 170.23 266.959 170.215C266.887 170.201 266.813 170.204 266.742 170.225C266.672 170.246 266.608 170.284 266.556 170.335C266.503 170.386 266.464 170.45 266.442 170.519C266.272 170.841 266.079 171.149 265.864 171.443C265.864 171.443 254.585 174.023 252.583 175.571L247.392 178.528L250.101 181.923Z" fill="#E4E7EC" stroke="#263238" stroke-linecap="round" stroke-linejoin="round"/>
<path d="M225.374 190.612L221.638 192.676C220.613 193.639 219.518 194.524 218.362 195.323C216.081 196.969 209.961 200.716 209.961 200.716C209.521 201.312 209.138 201.948 208.816 202.615C208.418 203.497 207.397 204.292 207.139 203.992C206.881 203.693 207.82 203.038 207.861 202.816C207.902 202.594 205.74 202.351 205.364 201.923C204.987 201.495 205.756 201.283 205.756 201.283C205.72 201.19 205.705 201.089 205.713 200.989C205.72 200.89 205.75 200.793 205.799 200.705C205.848 200.618 205.916 200.543 205.998 200.485C206.08 200.427 206.173 200.388 206.272 200.37C206.272 200.37 206.349 199.678 206.943 199.751C206.943 199.751 206.876 199.235 207.495 199.235C207.857 199.261 208.221 199.261 208.583 199.235C208.583 199.235 216.643 190.937 219.012 190.029L223.754 186.98L225.374 190.612Z" fill="#E4E7EC" stroke="#263238" stroke-linecap="round" stroke-linejoin="round"/>
<path d="M232.505 178.553C232.505 178.553 231.932 182.779 232.701 183.657C232.701 183.657 233.506 181.149 235.642 182.738C235.642 182.738 238.738 180.855 239.192 183.363C239.192 183.363 240.281 180.339 240.224 178.068L233.289 177.986L232.505 178.553Z" fill="#FFC2BC" stroke="#263238" stroke-width="0.75" stroke-linecap="round" stroke-linejoin="round"/>
<path d="M228.419 181.072L220.715 188.11C220.715 188.11 222.985 191.624 224.569 192.377C226.153 193.13 228.909 188.027 228.909 188.027" fill="#FFC2BC"/>
<path d="M228.419 181.072L220.715 188.11C220.715 188.11 222.985 191.624 224.569 192.377C226.153 193.13 228.909 188.027 228.909 188.027" stroke="#263238" stroke-linecap="round" stroke-linejoin="round"/>
<path d="M242.428 178.332L251.071 175.7C251.071 175.7 252.572 179.059 251.907 181.149C251.241 183.239 244.796 183.657 244.796 183.657" fill="#FFC2BC"/>
<path d="M242.428 178.332L251.071 175.7C251.071 175.7 252.572 179.059 251.907 181.149C251.241 183.239 244.796 183.657 244.796 183.657" stroke="#263238" stroke-linecap="round" stroke-linejoin="round"/>
<path d="M232.18 176.381C232.18 176.381 233.016 182.057 235.358 182.057C237.701 182.057 239.455 179.162 239.62 178.476C239.711 178.136 239.781 177.792 239.832 177.444C239.832 177.444 240.038 177.692 240.456 177.485C240.874 177.279 241.003 174.642 240.709 174.601C240.39 174.576 240.069 174.576 239.749 174.601C239.749 174.601 239.749 175.896 239.414 175.855C239.079 175.813 239.161 174.054 238.955 173.847C238.748 173.641 237.949 173.889 237.365 173.471C236.782 173.053 236.235 173.987 234.785 174.054C233.336 174.121 233.129 173.177 232.721 173.636C232.314 174.095 232.629 176.169 232.18 176.381Z" fill="#E4E7EC" stroke="#263238" stroke-linecap="round" stroke-linejoin="round"/>
<path d="M234.425 177.078C234.249 177.634 234.151 178.212 234.136 178.796C234.218 179.224 235.281 178.724 235.317 179.059" stroke="#263238" stroke-width="0.75" stroke-linecap="round" stroke-linejoin="round"/>
<path d="M235.317 179.978C235.58 179.984 235.84 179.935 236.082 179.834C236.324 179.732 236.542 179.581 236.721 179.389" stroke="#263238" stroke-width="0.75" stroke-linecap="round" stroke-linejoin="round"/>
<path d="M233.506 177.325C233.506 177.537 233.413 177.707 233.299 177.707C233.186 177.707 233.088 177.537 233.088 177.325C233.088 177.114 233.186 176.944 233.299 176.944C233.413 176.944 233.506 177.114 233.506 177.325Z" fill="#263238"/>
<path d="M236.034 177.207C236.034 177.418 235.941 177.589 235.828 177.589C235.714 177.589 235.616 177.418 235.616 177.207C235.616 176.995 235.709 176.825 235.828 176.825C235.946 176.825 236.034 176.995 236.034 177.207Z" fill="#263238"/>
<path d="M232.696 175.922C232.696 175.922 233.212 175.292 233.919 176.438" stroke="#263238" stroke-width="0.75" stroke-linecap="round" stroke-linejoin="round"/>
<path d="M235.137 176.464C235.137 176.464 236.05 175.545 236.514 175.948" stroke="#263238" stroke-width="0.75" stroke-linecap="round" stroke-linejoin="round"/>
<path d="M251.345 205.654L254.859 205.793" stroke="#705960" stroke-width="0.75" stroke-linecap="round" stroke-linejoin="round"/>
<path d="M257.186 199.204C257.805 199.803 258.262 200.549 258.513 201.374C258.764 202.198 258.801 203.072 258.62 203.915" stroke="#705960" stroke-width="0.75" stroke-linecap="round" stroke-linejoin="round"/>
<path d="M132.38 247.264L135.595 244.24C136.395 242.995 137.284 241.811 138.257 240.695C140.161 238.43 145.445 233.033 145.445 233.033C145.739 232.31 145.967 231.562 146.126 230.798C146.302 229.792 147.158 228.734 147.483 228.962C147.808 229.189 147.034 230.112 147.05 230.35C147.065 230.587 149.336 230.277 149.826 230.618C150.316 230.958 149.594 231.371 149.594 231.371C149.655 231.457 149.696 231.555 149.715 231.659C149.733 231.763 149.728 231.869 149.701 231.971C149.673 232.073 149.623 232.167 149.555 232.247C149.486 232.327 149.401 232.391 149.305 232.434C149.305 232.434 149.403 233.157 148.789 233.239C148.789 233.239 148.995 233.755 148.355 233.889C147.98 233.962 147.611 234.062 147.251 234.189C147.251 234.189 141.157 244.73 138.995 246.263L134.981 251.062L132.38 247.264Z" fill="#FFC2BC" stroke="#263238" stroke-linecap="round" stroke-linejoin="round"/>
<path d="M126.792 252.089C126.792 252.089 131.255 247.574 133.448 245.897C133.448 245.897 136.065 248.926 135.972 251.573C135.972 251.573 132.504 255.582 130.781 255.964" fill="#E4E7EC"/>
<path d="M126.792 252.089C126.792 252.089 131.255 247.574 133.448 245.897C133.448 245.897 136.065 248.926 135.972 251.573C135.972 251.573 132.504 255.582 130.781 255.964" stroke="#263238" stroke-linecap="round" stroke-linejoin="round"/>
<path d="M136.622 277.564C137.728 278.289 138.618 279.298 139.202 280.484C139.899 282.032 139.202 282.682 140.234 283.637C141.416 284.726 148.49 279.06 148.155 278.095C147.819 277.13 146.395 278.27 144.723 278.611C143.826 278.813 142.912 278.93 141.994 278.962L139.966 275.531L136.622 277.564Z" fill="#263238" stroke="#263238" stroke-linecap="round" stroke-linejoin="round"/>
<path d="M124.749 273.09C124.749 273.09 129.078 271.263 130.662 266.949C130.662 266.949 129.429 271.17 137.886 279.447C137.886 279.447 140.466 279.096 141.421 276.805C141.421 276.805 133.98 259.467 131.354 259.555C128.727 259.643 118.97 267.945 118.97 267.945C118.97 267.945 119.888 273.864 124.749 273.09Z" fill="#0C95EF" stroke="#263238" stroke-linecap="round" stroke-linejoin="round"/>
<path opacity="0.2" d="M132.381 269.829C131.56 267.718 131.973 261.108 130.647 264.736C129.321 268.363 126.173 267.987 126.173 267.987L125.11 269.499L126.39 272.156C128.322 270.908 129.816 269.088 130.663 266.95C130.663 266.95 129.429 271.17 137.887 279.447C138.923 279.261 139.877 278.762 140.621 278.018C137.814 278.823 133.206 271.934 132.381 269.829Z" fill="black"/>
<path d="M131.353 263.601C131.353 263.601 130.78 263.915 130.94 265.871" stroke="#263238" stroke-width="0.75" stroke-linecap="round" stroke-linejoin="round"/>
<path d="M135.687 309.153L136.018 311.269C138.458 313.776 141.296 312.915 141.431 314.04C141.565 315.164 137.602 314.963 136.085 314.963C134.568 314.963 131.926 315.479 131.394 314.566C131.131 314.107 131.874 312.92 132.153 311.847C132.323 311.186 132.358 310.498 132.256 309.824L135.687 309.153Z" fill="#263238" stroke="#263238" stroke-linecap="round" stroke-linejoin="round"/>
<path d="M126.173 240.365C126.173 240.365 128.376 238.518 127.582 237.785C126.787 237.052 125.807 238.378 125.807 238.378C125.807 238.378 126.591 236.005 125.471 235.675C124.351 235.344 124.217 237.739 124.217 237.739C124.217 237.739 124.15 235.633 123.025 235.675C121.9 235.716 123.025 237.15 121.111 238.409C119.197 239.668 116.823 241.185 118.67 243.296C118.67 243.296 117.551 244.617 119.795 246.067C122.04 247.517 122.597 248.002 122.891 249.643L125.471 247.192L125.807 242.238L126.173 240.365Z" fill="#263238" stroke="#263238" stroke-linecap="round" stroke-linejoin="round"/>
<path d="M130.94 244.968L134.377 242.207C135.273 241.027 136.254 239.915 137.313 238.879C139.377 236.769 145.053 231.794 145.053 231.794C145.402 231.097 145.687 230.37 145.904 229.622C146.157 228.636 147.081 227.63 147.401 227.899C147.721 228.167 146.885 229.013 146.885 229.245C146.885 229.477 149.166 229.354 149.63 229.73C150.094 230.107 149.336 230.463 149.336 230.463C149.389 230.553 149.422 230.653 149.432 230.757C149.443 230.861 149.43 230.966 149.395 231.065C149.36 231.163 149.303 231.253 149.23 231.327C149.157 231.402 149.068 231.459 148.969 231.495C148.969 231.495 149.011 232.223 148.381 232.259C148.381 232.259 148.546 232.775 147.896 232.873C147.516 232.914 147.14 232.985 146.771 233.084C146.771 233.084 139.878 243.105 137.581 244.452L133.206 248.92L130.94 244.968Z" fill="#FFC2BC" stroke="#263238" stroke-linecap="round" stroke-linejoin="round"/>
<path d="M113.5 270.381C113.5 270.381 111.652 274.163 115.966 277.951C120.28 281.738 128.2 290.448 128.727 293.265C129.253 296.083 131.72 310.608 131.72 310.608C131.72 310.608 134.537 311.398 136.364 309.989C136.364 309.989 136.539 296.016 135.043 290.505C133.546 284.994 128.082 278.229 126.508 273.812C126.309 272.885 126.19 271.942 126.152 270.995L113.5 270.381Z" fill="#0C95EF" stroke="#263238" stroke-linecap="round" stroke-linejoin="round"/>
<path opacity="0.2" d="M130.915 292.032C131.173 290.567 122.906 278.977 120.28 278.977C119.217 278.977 117.447 278.461 115.977 277.945C120.29 281.733 128.201 290.438 128.727 293.25C129.253 296.062 131.72 310.593 131.72 310.593C132.404 310.762 133.11 310.833 133.815 310.804C131.632 310.288 130.652 293.498 130.915 292.032Z" fill="black"/>
<path d="M131.353 291.243C130.964 291.149 130.556 291.175 130.182 291.316C129.808 291.456 129.484 291.706 129.253 292.032" stroke="#263238" stroke-width="0.75" stroke-linecap="round" stroke-linejoin="round"/>
<path d="M127.055 240.561L128.242 242.481C128.242 242.481 129.95 242.744 130.187 243.27C130.425 243.796 129.233 244.127 129.233 244.127C129.233 244.127 130.884 246.041 130.621 246.707C130.358 247.372 128.041 248.621 128.041 248.621L122.958 248.936C122.958 248.936 123.815 247.501 123.417 246.511C123.417 246.511 121.503 246.629 121.704 244.751C121.906 242.873 123.221 244.333 123.221 244.333C123.398 244.235 123.535 244.078 123.607 243.889C123.68 243.701 123.684 243.492 123.619 243.301C123.417 242.512 124.078 242.181 124.135 241.521C124.191 240.86 125.884 238.647 127.055 240.561Z" fill="#FFC2BC" stroke="#263238" stroke-linecap="round" stroke-linejoin="round"/>
<path d="M127.648 242.491C127.788 242.728 127.788 243.007 127.648 243.059C127.509 243.11 127.298 243.007 127.158 242.77C127.019 242.532 127.019 242.254 127.158 242.202C127.298 242.15 127.514 242.259 127.648 242.491Z" fill="#263238"/>
<path d="M126.792 241.49C126.792 241.49 125.141 240.762 125.074 241.49" stroke="#263238" stroke-width="0.75" stroke-linecap="round" stroke-linejoin="round"/>
<path d="M121.709 250.644V248.58C121.709 248.58 130.997 246.516 129.795 249.834L128.835 250.644H121.709Z" fill="#E4E7EC" stroke="#263238" stroke-linecap="round" stroke-linejoin="round"/>
<path d="M112.793 272.032C113.514 266.043 115.21 260.213 117.814 254.772C122.04 246.191 130.987 248.972 131.281 251.495C131.797 255.974 129.217 260.025 127.917 265.458C127.055 269.029 127.545 271.913 126.395 272.068C123.49 272.45 112.793 272.032 112.793 272.032Z" fill="#E4E7EC" stroke="#263238" stroke-linecap="round" stroke-linejoin="round"/>
<path d="M125.471 249.54C125.471 249.54 129.893 244.968 132.076 243.27C132.076 243.27 134.717 246.279 134.656 248.946C134.656 248.946 131.224 252.992 129.496 253.384" fill="#E4E7EC"/>
<path d="M125.471 249.54C125.471 249.54 129.893 244.968 132.076 243.27C132.076 243.27 134.717 246.279 134.656 248.946C134.656 248.946 131.224 252.992 129.496 253.384" stroke="#263238" stroke-linecap="round" stroke-linejoin="round"/>
<path d="M129.233 255.613C126.593 259.379 123.338 262.674 119.604 265.36" stroke="#263238" stroke-width="0.75" stroke-linecap="round" stroke-linejoin="round"/>
<path d="M125.415 262.357C123.345 265.612 120.457 268.266 117.04 270.056C117.092 269.952 117.138 269.849 117.19 269.741" stroke="#263238" stroke-width="0.75" stroke-linecap="round" stroke-linejoin="round"/>
<path d="M111.132 273.033C111.447 272.63 111.656 272.155 111.741 271.65C111.787 270.99 111.596 267.151 112.066 267.264C112.535 267.378 112.51 269.07 112.51 269.07C112.51 269.07 113.8 265.587 114.058 265.716C114.316 265.845 113.996 266.872 113.996 266.872C113.996 266.872 114.635 265.716 114.873 265.84C115.11 265.964 114.568 267.522 114.568 267.522C114.568 267.522 115.255 266.676 115.492 266.774C115.729 266.872 114.888 268.838 114.888 268.838C114.888 268.838 115.771 267.806 116.018 268.012C116.266 268.219 115.105 269.473 114.899 270.211C114.576 271.162 114.048 272.031 113.351 272.754L112.969 274.695L111.132 273.033Z" fill="#E4E7EC" stroke="#263238" stroke-linecap="round" stroke-linejoin="round"/>
<path d="M91.9365 289.174C91.9365 289.174 93.6703 287.651 99.3979 286.717C100.211 286.591 100.964 286.212 101.55 285.634C102.834 284.359 104.646 282.672 105.647 281.604C107.035 280.082 107.442 279.199 110.807 272.011C111.528 272.12 112.195 272.461 112.705 272.982C113.215 273.504 113.541 274.177 113.634 274.901C113.634 274.901 110.667 282.027 109.026 284.318C107.386 286.609 100.254 291.852 100.254 291.852" fill="#0C95EF"/>
<path d="M91.9365 289.174C91.9365 289.174 93.6703 287.651 99.3979 286.717C100.211 286.591 100.964 286.212 101.55 285.634C102.834 284.359 104.646 282.672 105.647 281.604C107.035 280.082 107.442 279.199 110.807 272.011C111.528 272.12 112.195 272.461 112.705 272.982C113.215 273.504 113.541 274.177 113.634 274.901C113.634 274.901 110.667 282.027 109.026 284.318C107.386 286.609 100.254 291.852 100.254 291.852" stroke="#263238" stroke-linecap="round" stroke-linejoin="round"/>
<path d="M91.3066 283.59L92.4728 279.081L96.6163 280.799L96.2086 284.55L91.3066 283.59Z" fill="#E4E7EC" stroke="#263238" stroke-linecap="round" stroke-linejoin="round"/>
<path d="M91.7091 282.45C91.7091 282.45 93.2571 279.617 93.2571 278.936C93.2571 278.936 95.1199 277.987 94.8051 276.485C94.4904 274.984 94.2427 274.05 94.2427 274.05L94.7587 273.188C94.7587 273.188 96.5544 272.796 96.0074 271.64C95.4604 270.484 92.8288 272.094 91.0435 272.409C89.2581 272.723 86.8329 273.497 87.6172 275.303L87.4418 275.773C87.4418 275.773 85.7338 279.622 91.7091 282.45Z" fill="#263238" stroke="#263238" stroke-linecap="round" stroke-linejoin="round"/>
<path d="M90.3271 285.18L90.9515 282.78C90.9515 282.78 94.9763 282.889 96.8907 284.648V286.547L90.3271 285.18Z" fill="#0C95EF" stroke="#263238" stroke-linecap="round" stroke-linejoin="round"/>
<path d="M93.5772 280.262C93.5772 280.262 95.2645 282.78 97.7413 281.857C99.4906 281.196 97.9838 278.761 97.9838 278.761C97.9838 278.761 98.8249 278.374 98.7888 277.894C98.7527 277.414 97.375 276.382 97.375 276.382C97.375 276.382 97.1273 274.782 96.6577 274.463L94.7692 273.198C94.7692 273.198 92.7052 273.126 92.6329 273.508C92.5607 273.89 93.892 275.206 93.892 275.206C93.892 275.206 94.0261 278.013 93.6701 278.193C93.314 278.374 92.3698 278.1 92.3698 278.1C92.3698 278.1 90.5431 277.373 90.8527 278.952C91.1623 280.531 92.86 281.031 93.5772 280.262Z" fill="#E4E7EC" stroke="#263238" stroke-linecap="round" stroke-linejoin="round"/>
<path d="M96.8442 276.64C96.9319 276.877 96.9216 277.104 96.8442 277.156C96.7668 277.208 96.5862 277.032 96.4984 276.795C96.4107 276.557 96.4159 276.33 96.4984 276.279C96.581 276.227 96.7513 276.403 96.8442 276.64Z" fill="#263238"/>
<path d="M95.4766 275.634C95.5865 275.496 95.7449 275.405 95.9195 275.38C96.0941 275.355 96.2716 275.398 96.4157 275.5" stroke="#263238" stroke-width="0.75" stroke-linecap="round" stroke-linejoin="round"/>
<path d="M96.9883 279.628C96.9883 279.628 97.6436 279.87 97.9584 279.576" stroke="#263238" stroke-width="0.75" stroke-linecap="round" stroke-linejoin="round"/>
<path d="M104.548 342.007L104.878 344.122C107.319 346.63 110.157 345.774 110.291 346.893C110.425 348.013 106.462 347.817 104.94 347.817C103.418 347.817 100.781 348.333 100.255 347.425C99.9916 346.96 100.735 345.774 101.013 344.706C101.183 344.043 101.217 343.353 101.111 342.678L104.548 342.007Z" fill="#263238" stroke="#263238" stroke-linecap="round" stroke-linejoin="round"/>
<path d="M79.4442 342.007L78.1903 344.122C80.631 346.63 83.469 345.774 83.6032 346.893C83.7373 348.013 79.7745 347.817 78.2574 347.817C76.7404 347.817 74.0985 348.333 73.567 347.425C73.3038 346.96 75.4813 342.678 75.4813 342.678L79.4442 342.007Z" fill="#263238" stroke="#263238" stroke-linecap="round" stroke-linejoin="round"/>
<path d="M101.633 304.875C101.633 304.875 101.984 307.667 101.633 308.735C101.633 308.735 106.829 320.19 107.004 325.299C107.035 326.233 105.152 343.152 105.152 343.152C105.152 343.152 103.655 344.37 100.75 343.152C100.75 343.152 100.234 331.016 100.931 326.176C100.931 326.176 97.3189 317.404 96.2869 314.695C95.2549 311.986 94.8369 306.289 94.8369 306.289L101.633 304.875Z" fill="#FFC2BC" stroke="#263238" stroke-linecap="round" stroke-linejoin="round"/>
<path opacity="0.3" d="M96.2558 314.695C97.2878 317.383 100.9 326.176 100.9 326.176C100.193 331.016 100.719 343.152 100.719 343.152C103.624 344.37 105.121 343.152 105.121 343.152C105.121 343.152 105.172 342.724 105.25 342.007C105.25 342.007 101.751 344.35 101.39 340.562C101.029 336.775 102.634 328.694 102.819 326.336C103.005 323.978 98.9802 319.53 100.177 316.253C101.374 312.977 101.602 304.901 101.602 304.901L94.7852 306.315C94.7852 306.315 95.198 312.007 96.2558 314.695Z" fill="black"/>
<path d="M103.814 325.49C103.814 325.49 104.511 327.089 105.641 327.182" stroke="#263238" stroke-width="0.75" stroke-linecap="round" stroke-linejoin="round"/>
<path d="M100.92 312.425C100.151 313.877 99.1205 315.174 97.8809 316.253" stroke="#263238" stroke-width="0.75" stroke-linecap="round" stroke-linejoin="round"/>
<path d="M100.921 305.887C100.921 305.887 100.26 311.831 97.2209 315.923C94.1816 320.015 91.4107 327.935 89.0371 329.788C86.6635 331.64 79.5272 343.121 79.5272 343.121C79.5272 343.121 76.4312 345.335 74.5117 342.858C74.5117 342.858 80.456 330.84 84.1506 326.222C84.1506 326.222 87.8452 317.295 89.0371 314.695C89.0371 314.695 88.2425 311.171 90.8844 306.547L100.921 305.887Z" fill="#FFC2BC" stroke="#263238" stroke-linecap="round" stroke-linejoin="round"/>
<path opacity="0.3" d="M76.6891 342.765C76.5137 339.509 81.7923 332.992 85.4611 325.49C89.1299 317.987 93.9235 316.8 91.3693 316.253C90.8351 316.117 90.3393 315.86 89.9199 315.502C89.5004 315.144 89.1684 314.695 88.9493 314.189C88.9631 314.362 88.9872 314.535 89.0215 314.705C87.8295 317.285 84.135 326.233 84.135 326.233C80.4404 330.851 74.4961 342.868 74.4961 342.868C74.7154 343.168 74.9921 343.422 75.31 343.614C75.628 343.806 75.981 343.933 76.3485 343.988C76.4903 343.821 76.5941 343.625 76.6529 343.414C76.7117 343.203 76.724 342.982 76.6891 342.765Z" fill="black"/>
<path d="M85.0735 326.682C85.0735 326.682 84.6761 328.596 85.93 329.458" stroke="#263238" stroke-width="0.75" stroke-linecap="round" stroke-linejoin="round"/>
<path d="M91.663 308.214C91.4206 308.193 91.1854 308.12 90.9728 308.002C90.7601 307.884 90.5747 307.722 90.4287 307.527C90.2827 307.333 90.1793 307.109 90.1253 306.872C90.0712 306.635 90.0677 306.389 90.115 306.15C90.2454 305.541 90.2454 304.912 90.115 304.303C89.0521 298.983 85.9096 289.303 87.984 286.48C90.889 282.517 96.8282 284.499 98.82 287.404C100.621 290.046 102.86 300.66 102.855 305.438C102.852 305.807 102.732 306.165 102.512 306.46C102.292 306.756 101.984 306.975 101.632 307.084C98.4127 308.098 95.0278 308.482 91.663 308.214Z" fill="#0C95EF" stroke="#263238" stroke-linecap="round" stroke-linejoin="round"/>
<path d="M111.215 272.316C111.582 271.958 111.856 271.515 112.009 271.026C112.144 270.381 112.479 266.552 112.928 266.728C113.377 266.903 113.124 268.575 113.124 268.575C113.124 268.575 114.868 265.298 115.09 265.479C115.312 265.659 114.868 266.614 114.868 266.614C114.868 266.614 115.663 265.582 115.9 265.69C116.137 265.799 115.384 267.316 115.384 267.316C115.384 267.316 116.179 266.568 116.416 266.702C116.653 266.836 115.539 268.683 115.539 268.683C115.539 268.683 116.571 267.801 116.772 268.023C116.973 268.245 115.668 269.339 115.363 270.045C114.921 270.943 114.287 271.732 113.506 272.357L112.861 274.225L111.215 272.316Z" fill="#E4E7EC" stroke="#263238" stroke-linecap="round" stroke-linejoin="round"/>
<path d="M90.002 285.685C90.002 285.685 91.9318 284.416 97.742 284.272C98.5653 284.254 99.3627 283.98 100.023 283.487C101.467 282.399 103.516 280.98 104.625 280.056C106.21 278.735 106.736 277.914 111.05 271.253C111.751 271.457 112.366 271.885 112.801 272.471C113.237 273.056 113.47 273.768 113.464 274.499C113.464 274.499 109.553 281.155 107.618 283.198C105.683 285.242 97.8916 289.473 97.8916 289.473" fill="#0C95EF"/>
<path d="M90.002 285.685C90.002 285.685 91.9318 284.416 97.742 284.272C98.5653 284.254 99.3627 283.98 100.023 283.487C101.467 282.399 103.516 280.98 104.625 280.056C106.21 278.735 106.736 277.914 111.05 271.253C111.751 271.457 112.366 271.885 112.801 272.471C113.237 273.056 113.47 273.768 113.464 274.499C113.464 274.499 109.553 281.155 107.618 283.198C105.683 285.242 97.8916 289.473 97.8916 289.473" stroke="#263238" stroke-linecap="round" stroke-linejoin="round"/>
<path d="M98.4899 290.226C97.671 292.314 96.209 294.087 94.3154 295.288" stroke="#263238" stroke-width="0.75" stroke-linecap="round" stroke-linejoin="round"/>
<path d="M91.1984 299.664L90.0684 305.5" stroke="#263238" stroke-width="0.75" stroke-linecap="round" stroke-linejoin="round"/>
<path d="M101.023 326.96C101.171 327.787 101.495 328.573 101.974 329.263C102.453 329.954 103.076 330.532 103.8 330.959" stroke="#263238" stroke-width="0.75" stroke-linecap="round" stroke-linejoin="round"/>
<path d="M135.26 291.196C135.069 292.326 134.883 293.456 134.692 294.581" stroke="#263238" stroke-width="0.75" stroke-linecap="round" stroke-linejoin="round"/>
</svg>
