<svg width="25" height="25" viewBox="0 0 25 25" fill="none" xmlns="http://www.w3.org/2000/svg">
<path d="M21.47 16.8213H18.53C17.26 16.8213 16.5 17.5813 16.5 18.8513V21.7913C16.5 23.0613 17.26 23.8213 18.53 23.8213H21.47C22.74 23.8213 23.5 23.0613 23.5 21.7913V18.8513C23.5 17.5813 22.74 16.8213 21.47 16.8213ZM22.13 19.2713L19.76 22.0413C19.66 22.1513 19.53 22.2213 19.38 22.2213C19.38 22.2213 19.37 22.2213 19.36 22.2213C19.23 22.2213 19.09 22.1713 19 22.0713L17.9 20.9913C17.7 20.7913 17.7 20.4613 17.9 20.2513C18.1 20.0513 18.43 20.0513 18.64 20.2513L19.33 20.9413L21.34 18.6013C21.52 18.3813 21.85 18.3513 22.07 18.5413C22.29 18.7313 22.31 19.0613 22.13 19.2713Z" fill="#20A0F3"/>
<path d="M21.47 16.8213H18.53C17.26 16.8213 16.5 17.5813 16.5 18.8513V21.7913C16.5 23.0613 17.26 23.8213 18.53 23.8213H21.47C22.74 23.8213 23.5 23.0613 23.5 21.7913V18.8513C23.5 17.5813 22.74 16.8213 21.47 16.8213ZM22.13 19.2713L19.76 22.0413C19.66 22.1513 19.53 22.2213 19.38 22.2213C19.38 22.2213 19.37 22.2213 19.36 22.2213C19.23 22.2213 19.09 22.1713 19 22.0713L17.9 20.9913C17.7 20.7913 17.7 20.4613 17.9 20.2513C18.1 20.0513 18.43 20.0513 18.64 20.2513L19.33 20.9413L21.34 18.6013C21.52 18.3813 21.85 18.3513 22.07 18.5413C22.29 18.7313 22.31 19.0613 22.13 19.2713Z" fill="#20A0F3"/>
<path d="M22.47 8.03129C22.19 5.30129 20.02 3.13129 17.29 2.85129C17.09 2.83129 16.89 2.82129 16.69 2.82129H8.31C8.11 2.82129 7.91 2.83129 7.71 2.85129C4.98 3.13129 2.81 5.30129 2.53 8.03129C2.51 8.23129 2.5 8.43129 2.5 8.63129V17.0113C2.5 17.2113 2.51 17.4113 2.53 17.6113C2.81 20.3413 4.98 22.5113 7.71 22.7913C7.91 22.8113 8.11 22.8213 8.31 22.8213H14.5C15.05 22.8213 15.5 22.3713 15.5 21.8213V18.8513C15.5 17.1813 16.86 15.8213 18.53 15.8213H21.5C22.05 15.8213 22.5 15.3713 22.5 14.8213V8.63129C22.5 8.43129 22.49 8.23129 22.47 8.03129ZM8.25 14.3213C8.25 14.7313 7.91 15.0713 7.5 15.0713C7.09 15.0713 6.75 14.7313 6.75 14.3213V11.3213C6.75 10.9113 7.09 10.5713 7.5 10.5713C7.91 10.5713 8.25 10.9113 8.25 11.3213V14.3213ZM13.25 14.3213C13.25 14.7313 12.91 15.0713 12.5 15.0713C12.09 15.0713 11.75 14.7313 11.75 14.3213V11.3213C11.75 10.9113 12.09 10.5713 12.5 10.5713C12.91 10.5713 13.25 10.9113 13.25 11.3213V14.3213Z" fill="#20A0F3"/>
</svg>
