<svg width="375" height="513" viewBox="0 0 375 513" fill="none" xmlns="http://www.w3.org/2000/svg">
<path d="M284.434 378.997C256.581 402.457 211.649 406.205 171.309 399.476C130.952 392.986 94.914 376.48 74.7643 349.344C54.8535 322.226 50.8142 284.717 56.1259 250.759C61.4205 217.04 76.3221 186.65 100.883 152.148C125.205 117.63 159.442 78.7782 192.035 79.6699C224.628 80.5617 256.056 121.231 279.515 159.169C302.974 197.107 318.685 232.569 320.898 272.109C323.367 311.426 312.304 355.298 284.434 378.997Z" fill="#052844"/>
<path d="M195 347.535C259.25 347.535 311.334 344.494 311.334 340.743C311.334 336.992 259.25 333.951 195 333.951C130.751 333.951 78.6661 336.992 78.6661 340.743C78.6661 344.494 130.751 347.535 195 347.535Z" fill="#F5F5F5"/>
<path d="M288.732 299.687C288.84 300.461 286.74 300.971 285.024 301.259C285.168 302.663 286.104 304.085 287.394 305.417C289.02 304.499 291.342 303.287 291.768 303.581C292.194 303.875 289.86 305.447 288.372 306.347C289.433 307.275 290.558 308.127 291.738 308.897C292.47 308.219 293.322 307.619 293.832 307.943C294.342 308.267 294.216 309.335 293.958 310.271C295.722 311.303 297.048 311.933 297.048 311.933C297.569 310.291 297.97 308.612 298.248 306.911C298.158 306.731 298.074 306.557 297.99 306.365C297.702 305.705 297.99 305.429 298.452 305.333C298.584 304.137 298.594 302.931 298.482 301.733C296.478 301.313 294.048 300.533 294.96 299.333C295.506 298.613 296.514 298.529 297.564 298.733C297.419 298.495 297.252 298.27 297.066 298.061C293.424 294.047 290.88 298.061 290.88 298.061C288.762 296.297 285.786 296.771 285.144 299.531C286.32 299.201 288.6 298.733 288.732 299.687Z" fill="#0C95EF"/>
<path opacity="0.3" d="M288.732 299.687C288.84 300.461 286.74 300.971 285.024 301.259C285.168 302.663 286.104 304.085 287.394 305.417C289.02 304.499 291.342 303.287 291.768 303.581C292.194 303.875 289.86 305.447 288.372 306.347C289.433 307.275 290.558 308.127 291.738 308.897C292.47 308.219 293.322 307.619 293.832 307.943C294.342 308.267 294.216 309.335 293.958 310.271C295.722 311.303 297.048 311.933 297.048 311.933C297.569 310.291 297.97 308.612 298.248 306.911C298.158 306.731 298.074 306.557 297.99 306.365C297.702 305.705 297.99 305.429 298.452 305.333C298.584 304.137 298.594 302.931 298.482 301.733C296.478 301.313 294.048 300.533 294.96 299.333C295.506 298.613 296.514 298.529 297.564 298.733C297.419 298.495 297.252 298.27 297.066 298.061C293.424 294.047 290.88 298.061 290.88 298.061C288.762 296.297 285.786 296.771 285.144 299.531C286.32 299.201 288.6 298.733 288.732 299.687Z" fill="white"/>
<path d="M293.274 329.2L292.752 329.158C292.752 328.888 294.906 302.002 288.876 299.464C288.592 299.335 288.282 299.272 287.971 299.28C287.659 299.289 287.353 299.368 287.076 299.512C284.898 300.646 283.854 305.356 283.842 305.404L283.326 305.29C283.368 305.086 284.436 300.292 286.83 299.044C287.18 298.86 287.567 298.759 287.962 298.747C288.358 298.736 288.75 298.815 289.11 298.978C295.464 301.654 293.4 328.072 293.274 329.2Z" fill="#0C95EF"/>
<path d="M294.036 328.601C293.928 327.401 291.468 298.943 296.07 295.925C297.174 295.205 298.158 295.049 298.998 295.469C301.176 296.567 301.458 301.223 301.47 301.421H300.942C300.942 301.379 300.666 296.879 298.758 295.919C298.104 295.589 297.294 295.727 296.358 296.345C292.014 299.189 294.528 328.235 294.558 328.529L294.036 328.601Z" fill="#0C95EF"/>
<path d="M294.732 330.911C294.696 329.987 293.934 308.213 298.128 306.311C298.518 306.127 298.945 306.031 299.376 306.031C299.808 306.031 300.234 306.127 300.624 306.311C303.504 307.577 305.28 312.941 305.352 313.169L304.854 313.331C304.854 313.277 303.054 307.961 300.414 306.791C300.092 306.637 299.739 306.557 299.382 306.557C299.025 306.557 298.672 306.637 298.35 306.791C295.134 308.255 295.026 324.689 295.254 330.899L294.732 330.911Z" fill="#0C95EF"/>
<path d="M293.664 329.914L293.136 329.854C293.88 323.374 295.29 306.106 292.98 304.054C292.868 303.92 292.719 303.821 292.552 303.769C292.385 303.717 292.207 303.714 292.038 303.76C290.49 304.36 289.548 309.97 289.314 312.088L288.792 312.028C288.882 311.218 289.728 304.084 291.846 303.268C292.105 303.181 292.384 303.172 292.648 303.241C292.913 303.31 293.151 303.455 293.334 303.658C296.316 306.316 293.772 328.954 293.664 329.914Z" fill="#0C95EF"/>
<path d="M284.868 317.633H303.804L302.22 338.843H286.446L284.868 317.633Z" fill="#0C95EF"/>
<path opacity="0.2" d="M290.616 317.633L291.144 338.843H302.22L303.804 317.633H290.616Z" fill="white"/>
<path d="M287.448 309.844C287.25 310.36 285.78 309.958 284.622 309.544C284.264 310.643 284.277 311.83 284.658 312.922C285.978 312.922 287.82 312.964 287.988 313.294C288.156 313.624 286.188 313.786 284.946 313.834C285.282 314.769 285.683 315.679 286.146 316.558C286.83 316.39 287.562 316.312 287.76 316.684C287.958 317.056 287.526 317.674 287.04 318.166C287.778 319.408 288.378 320.248 288.378 320.248C289.259 319.411 290.079 318.513 290.832 317.56C290.832 317.416 290.832 317.278 290.832 317.134C290.88 316.63 291.15 316.534 291.474 316.654C291.968 315.959 292.389 315.215 292.728 314.434C291.642 313.486 290.406 312.172 291.378 311.746C291.978 311.488 292.614 311.782 293.178 312.256C293.171 312.054 293.145 311.853 293.1 311.656C292.23 307.93 289.284 309.538 289.284 309.538C288.588 307.738 286.59 306.994 285.246 308.476C286.134 308.71 287.688 309.208 287.448 309.844Z" fill="#0C95EF"/>
<path opacity="0.3" d="M287.448 309.844C287.25 310.36 285.78 309.958 284.622 309.544C284.264 310.643 284.277 311.83 284.658 312.922C285.978 312.922 287.82 312.964 287.988 313.294C288.156 313.624 286.188 313.786 284.946 313.834C285.282 314.769 285.683 315.679 286.146 316.558C286.83 316.39 287.562 316.312 287.76 316.684C287.958 317.056 287.526 317.674 287.04 318.166C287.778 319.408 288.378 320.248 288.378 320.248C289.259 319.411 290.079 318.513 290.832 317.56C290.832 317.416 290.832 317.278 290.832 317.134C290.88 316.63 291.15 316.534 291.474 316.654C291.968 315.959 292.389 315.215 292.728 314.434C291.642 313.486 290.406 312.172 291.378 311.746C291.978 311.488 292.614 311.782 293.178 312.256C293.171 312.054 293.145 311.853 293.1 311.656C292.23 307.93 289.284 309.538 289.284 309.538C288.588 307.738 286.59 306.994 285.246 308.476C286.134 308.71 287.688 309.208 287.448 309.844Z" fill="white"/>
<path d="M301.506 312.364C300.917 312.415 300.337 312.538 299.778 312.73C299.623 312.329 299.536 311.905 299.52 311.476C299.4 307.66 302.136 309.268 303.576 308.146C303.902 307.86 304.284 307.646 304.697 307.516C305.11 307.385 305.545 307.343 305.976 307.39C305.853 307.6 305.744 307.818 305.652 308.044C305.619 308.127 305.604 308.217 305.61 308.307C305.616 308.397 305.642 308.484 305.687 308.563C305.731 308.641 305.793 308.709 305.867 308.76C305.941 308.811 306.025 308.845 306.114 308.86C306.476 308.933 306.853 308.889 307.188 308.734C307.282 308.675 307.372 308.611 307.458 308.542C307.691 308.942 307.869 309.372 307.986 309.82C308.128 310.353 308.211 310.9 308.232 311.452C308.016 311.497 307.804 311.557 307.596 311.632C307.514 311.668 307.441 311.722 307.382 311.791C307.324 311.859 307.281 311.94 307.258 312.027C307.235 312.114 307.232 312.205 307.249 312.293C307.266 312.382 307.303 312.465 307.356 312.538C307.583 312.767 307.849 312.954 308.142 313.09C308.044 313.705 307.883 314.308 307.662 314.89L307.47 314.92C307.33 314.944 307.192 314.979 307.056 315.022C306.977 315.041 306.901 315.069 306.828 315.106C306.734 315.146 306.651 315.209 306.588 315.29C306.525 315.371 306.484 315.466 306.468 315.568C306.455 315.672 306.469 315.777 306.509 315.874C306.549 315.971 306.613 316.056 306.696 316.12C306.786 316.183 306.881 316.241 306.978 316.294C306.617 316.926 306.096 317.452 305.466 317.818C304.914 317.564 304.378 317.28 303.858 316.966C303.972 316.816 304.086 316.66 304.194 316.504C304.315 316.328 304.372 316.116 304.356 315.904C304.327 315.69 304.215 315.496 304.044 315.364C303.96 315.298 303.863 315.25 303.76 315.222C303.657 315.195 303.549 315.187 303.443 315.201C303.337 315.215 303.235 315.25 303.142 315.304C303.05 315.357 302.969 315.429 302.904 315.514C302.778 315.7 302.64 315.88 302.502 316.06C301.787 315.528 301.148 314.902 300.6 314.2H300.654C301.008 314.109 301.37 314.05 301.734 314.026C301.936 313.984 302.115 313.868 302.234 313.7C302.354 313.532 302.405 313.325 302.379 313.121C302.352 312.917 302.249 312.73 302.091 312.598C301.932 312.467 301.73 312.4 301.524 312.412L301.506 312.364Z" fill="#0C95EF"/>
<path opacity="0.5" d="M301.506 312.364C300.917 312.415 300.337 312.538 299.778 312.73C299.623 312.329 299.536 311.905 299.52 311.476C299.4 307.66 302.136 309.268 303.576 308.146C303.902 307.86 304.284 307.646 304.697 307.516C305.11 307.385 305.545 307.343 305.976 307.39C305.853 307.6 305.744 307.818 305.652 308.044C305.619 308.127 305.604 308.217 305.61 308.307C305.616 308.397 305.642 308.484 305.687 308.563C305.731 308.641 305.793 308.709 305.867 308.76C305.941 308.811 306.025 308.845 306.114 308.86C306.476 308.933 306.853 308.889 307.188 308.734C307.282 308.675 307.372 308.611 307.458 308.542C307.691 308.942 307.869 309.372 307.986 309.82C308.128 310.353 308.211 310.9 308.232 311.452C308.016 311.497 307.804 311.557 307.596 311.632C307.514 311.668 307.441 311.722 307.382 311.791C307.324 311.859 307.281 311.94 307.258 312.027C307.235 312.114 307.232 312.205 307.249 312.293C307.266 312.382 307.303 312.465 307.356 312.538C307.583 312.767 307.849 312.954 308.142 313.09C308.044 313.705 307.883 314.308 307.662 314.89L307.47 314.92C307.33 314.944 307.192 314.979 307.056 315.022C306.977 315.041 306.901 315.069 306.828 315.106C306.734 315.146 306.651 315.209 306.588 315.29C306.525 315.371 306.484 315.466 306.468 315.568C306.455 315.672 306.469 315.777 306.509 315.874C306.549 315.971 306.613 316.056 306.696 316.12C306.786 316.183 306.881 316.241 306.978 316.294C306.617 316.926 306.096 317.452 305.466 317.818C304.914 317.564 304.378 317.28 303.858 316.966C303.972 316.816 304.086 316.66 304.194 316.504C304.315 316.328 304.372 316.116 304.356 315.904C304.327 315.69 304.215 315.496 304.044 315.364C303.96 315.298 303.863 315.25 303.76 315.222C303.657 315.195 303.549 315.187 303.443 315.201C303.337 315.215 303.235 315.25 303.142 315.304C303.05 315.357 302.969 315.429 302.904 315.514C302.778 315.7 302.64 315.88 302.502 316.06C301.787 315.528 301.148 314.902 300.6 314.2H300.654C301.008 314.109 301.37 314.05 301.734 314.026C301.936 313.984 302.115 313.868 302.234 313.7C302.354 313.532 302.405 313.325 302.379 313.121C302.352 312.917 302.249 312.73 302.091 312.598C301.932 312.467 301.73 312.4 301.524 312.412L301.506 312.364Z" fill="white"/>
<path d="M302.598 299.201C302.93 298.969 303.289 298.778 303.666 298.631C303.573 298.353 303.433 298.093 303.252 297.863C301.638 295.805 300.912 297.863 299.652 297.893C299.354 297.886 299.057 297.94 298.782 298.054C298.506 298.168 298.257 298.338 298.05 298.553C298.206 298.611 298.359 298.679 298.506 298.757C298.56 298.786 298.607 298.827 298.643 298.876C298.679 298.926 298.704 298.983 298.716 299.043C298.727 299.104 298.725 299.166 298.709 299.225C298.694 299.285 298.666 299.34 298.626 299.387C298.475 299.582 298.264 299.723 298.026 299.789C297.95 299.795 297.874 299.795 297.798 299.789C297.855 300.1 297.952 300.402 298.086 300.689C298.247 301.033 298.449 301.357 298.686 301.655C298.821 301.586 298.959 301.524 299.1 301.469C299.159 301.45 299.222 301.446 299.283 301.455C299.345 301.465 299.403 301.489 299.454 301.525C299.504 301.561 299.546 301.608 299.575 301.663C299.604 301.718 299.62 301.779 299.622 301.841C299.604 302.061 299.547 302.276 299.454 302.477C299.773 302.757 300.121 303.002 300.492 303.209L300.606 303.137C300.69 303.09 300.776 303.048 300.864 303.011L301.02 302.951C301.088 302.932 301.16 302.93 301.229 302.946C301.299 302.961 301.363 302.994 301.416 303.041C301.469 303.09 301.507 303.151 301.528 303.22C301.549 303.288 301.552 303.361 301.536 303.431C301.518 303.504 301.493 303.577 301.464 303.647C301.933 303.815 302.436 303.863 302.928 303.785C303.108 303.41 303.266 303.025 303.402 302.633L303.024 302.531C302.883 302.496 302.759 302.41 302.676 302.291C302.636 302.23 302.608 302.161 302.594 302.089C302.581 302.017 302.582 301.942 302.598 301.871C302.631 301.727 302.72 301.602 302.844 301.523C302.906 301.483 302.975 301.456 303.047 301.444C303.119 301.432 303.193 301.434 303.264 301.451L303.714 301.559C303.863 300.957 303.927 300.337 303.906 299.717H303.87C303.645 299.823 303.43 299.949 303.228 300.095C303.104 300.16 302.961 300.176 302.826 300.14C302.691 300.104 302.574 300.019 302.499 299.902C302.424 299.784 302.395 299.643 302.419 299.505C302.443 299.368 302.518 299.244 302.628 299.159L302.598 299.201Z" fill="#0C95EF"/>
<path opacity="0.3" d="M302.598 299.201C302.93 298.969 303.289 298.778 303.666 298.631C303.573 298.353 303.433 298.093 303.252 297.863C301.638 295.805 300.912 297.863 299.652 297.893C299.354 297.886 299.057 297.94 298.782 298.054C298.506 298.168 298.257 298.338 298.05 298.553C298.206 298.611 298.359 298.679 298.506 298.757C298.56 298.786 298.607 298.827 298.643 298.876C298.679 298.926 298.704 298.983 298.716 299.043C298.727 299.104 298.725 299.166 298.709 299.225C298.694 299.285 298.666 299.34 298.626 299.387C298.475 299.582 298.264 299.723 298.026 299.789C297.95 299.795 297.874 299.795 297.798 299.789C297.855 300.1 297.952 300.402 298.086 300.689C298.247 301.033 298.449 301.357 298.686 301.655C298.821 301.586 298.959 301.524 299.1 301.469C299.159 301.45 299.222 301.446 299.283 301.455C299.345 301.465 299.403 301.489 299.454 301.525C299.504 301.561 299.546 301.608 299.575 301.663C299.604 301.718 299.62 301.779 299.622 301.841C299.604 302.061 299.547 302.276 299.454 302.477C299.773 302.757 300.121 303.002 300.492 303.209L300.606 303.137C300.69 303.09 300.776 303.048 300.864 303.011L301.02 302.951C301.088 302.932 301.16 302.93 301.229 302.946C301.299 302.961 301.363 302.994 301.416 303.041C301.469 303.09 301.507 303.151 301.528 303.22C301.549 303.288 301.552 303.361 301.536 303.431C301.518 303.504 301.493 303.577 301.464 303.647C301.933 303.815 302.436 303.863 302.928 303.785C303.108 303.41 303.266 303.025 303.402 302.633L303.024 302.531C302.883 302.496 302.759 302.41 302.676 302.291C302.636 302.23 302.608 302.161 302.594 302.089C302.581 302.017 302.582 301.942 302.598 301.871C302.631 301.727 302.72 301.602 302.844 301.523C302.906 301.483 302.975 301.456 303.047 301.444C303.119 301.432 303.193 301.434 303.264 301.451L303.714 301.559C303.863 300.957 303.927 300.337 303.906 299.717H303.87C303.645 299.823 303.43 299.949 303.228 300.095C303.104 300.16 302.961 300.176 302.826 300.14C302.691 300.104 302.574 300.019 302.499 299.902C302.424 299.784 302.395 299.643 302.419 299.505C302.443 299.368 302.518 299.244 302.628 299.159L302.598 299.201Z" fill="white"/>
<path d="M287.172 303.022C287.058 303.796 289.158 304.306 290.874 304.594C290.736 305.998 289.8 307.42 288.474 308.746C286.848 307.834 284.526 306.622 284.1 306.916C283.674 307.21 286.008 308.776 287.496 309.682C286.433 310.607 285.308 311.459 284.13 312.232C283.404 311.548 282.546 310.954 282.042 311.278C281.538 311.602 281.652 312.664 281.916 313.606C280.116 314.638 278.82 315.262 278.82 315.262C278.299 313.619 277.898 311.941 277.62 310.24C277.71 310.066 277.8 309.886 277.878 309.7C278.166 309.04 277.878 308.758 277.416 308.668C277.285 307.472 277.275 306.266 277.386 305.068C279.39 304.648 281.826 303.868 280.914 302.668C280.362 301.942 279.354 301.864 278.31 302.068C278.451 301.828 278.616 301.603 278.802 301.396C282.45 297.376 284.988 301.396 284.988 301.396C287.106 299.626 290.082 300.106 290.724 302.866C289.584 302.518 287.31 302.062 287.172 303.022Z" fill="#0C95EF"/>
<path opacity="0.5" d="M287.172 303.022C287.058 303.796 289.158 304.306 290.874 304.594C290.736 305.998 289.8 307.42 288.474 308.746C286.848 307.834 284.526 306.622 284.1 306.916C283.674 307.21 286.008 308.776 287.496 309.682C286.433 310.607 285.308 311.459 284.13 312.232C283.404 311.548 282.546 310.954 282.042 311.278C281.538 311.602 281.652 312.664 281.916 313.606C280.116 314.638 278.82 315.262 278.82 315.262C278.299 313.619 277.898 311.941 277.62 310.24C277.71 310.066 277.8 309.886 277.878 309.7C278.166 309.04 277.878 308.758 277.416 308.668C277.285 307.472 277.275 306.266 277.386 305.068C279.39 304.648 281.826 303.868 280.914 302.668C280.362 301.942 279.354 301.864 278.31 302.068C278.451 301.828 278.616 301.603 278.802 301.396C282.45 297.376 284.988 301.396 284.988 301.396C287.106 299.626 290.082 300.106 290.724 302.866C289.584 302.518 287.31 302.062 287.172 303.022Z" fill="white"/>
<path d="M232.674 187.6C232.674 187.6 233.7 193.222 241.134 195.76C241.134 195.76 236.904 191.68 236.904 187.6H232.674Z" fill="#0C95EF"/>
<path opacity="0.8" d="M232.674 187.6C232.674 187.6 233.7 193.222 241.134 195.76C241.134 195.76 236.904 191.68 236.904 187.6H232.674Z" fill="white"/>
<path d="M243.282 174.916H226.656C225.732 174.916 224.982 175.665 224.982 176.59V187.684C224.982 188.609 225.732 189.358 226.656 189.358H243.282C244.207 189.358 244.956 188.609 244.956 187.684V176.59C244.956 175.665 244.207 174.916 243.282 174.916Z" fill="#0C95EF"/>
<path opacity="0.8" d="M243.282 174.916H226.656C225.732 174.916 224.982 175.665 224.982 176.59V187.684C224.982 188.609 225.732 189.358 226.656 189.358H243.282C244.207 189.358 244.956 188.609 244.956 187.684V176.59C244.956 175.665 244.207 174.916 243.282 174.916Z" fill="white"/>
<path d="M230.94 182.133C230.94 182.353 230.875 182.568 230.753 182.75C230.631 182.933 230.458 183.075 230.255 183.159C230.052 183.243 229.829 183.265 229.614 183.222C229.398 183.179 229.2 183.074 229.045 182.918C228.89 182.763 228.784 182.565 228.741 182.35C228.699 182.135 228.721 181.911 228.805 181.709C228.889 181.506 229.031 181.332 229.213 181.211C229.396 181.089 229.611 181.023 229.83 181.023C229.976 181.023 230.12 181.052 230.255 181.108C230.39 181.164 230.512 181.245 230.615 181.349C230.718 181.452 230.8 181.574 230.856 181.709C230.911 181.843 230.94 181.988 230.94 182.133Z" fill="#0C95EF"/>
<path d="M234.966 183.243C235.579 183.243 236.076 182.746 236.076 182.133C236.076 181.52 235.579 181.023 234.966 181.023C234.353 181.023 233.856 181.52 233.856 182.133C233.856 182.746 234.353 183.243 234.966 183.243Z" fill="#0C95EF"/>
<path d="M240.102 183.243C240.715 183.243 241.212 182.746 241.212 182.133C241.212 181.52 240.715 181.023 240.102 181.023C239.489 181.023 238.992 181.52 238.992 182.133C238.992 182.746 239.489 183.243 240.102 183.243Z" fill="#0C95EF"/>
<path d="M209.814 202.738C209.814 202.738 208.794 208.366 201.36 210.904C201.36 210.904 205.56 206.818 205.56 202.738H209.814Z" fill="#0C95EF"/>
<path opacity="0.8" d="M209.814 202.738C209.814 202.738 208.794 208.366 201.36 210.904C201.36 210.904 205.56 206.818 205.56 202.738H209.814Z" fill="white"/>
<path d="M199.212 204.514H215.838C216.763 204.514 217.512 203.764 217.512 202.84V191.746C217.512 190.821 216.763 190.072 215.838 190.072H199.212C198.288 190.072 197.538 190.821 197.538 191.746V202.84C197.538 203.764 198.288 204.514 199.212 204.514Z" fill="#0C95EF"/>
<path opacity="0.8" d="M199.212 204.514H215.838C216.763 204.514 217.512 203.764 217.512 202.84V191.746C217.512 190.821 216.763 190.072 215.838 190.072H199.212C198.288 190.072 197.538 190.821 197.538 191.746V202.84C197.538 203.764 198.288 204.514 199.212 204.514Z" fill="white"/>
<path d="M211.554 197.29C211.553 197.509 211.617 197.725 211.738 197.908C211.859 198.091 212.032 198.234 212.235 198.319C212.438 198.404 212.661 198.427 212.877 198.385C213.093 198.343 213.291 198.238 213.447 198.083C213.603 197.928 213.709 197.73 213.752 197.514C213.796 197.299 213.774 197.075 213.69 196.872C213.606 196.669 213.464 196.495 213.281 196.373C213.099 196.251 212.884 196.186 212.664 196.186C212.371 196.186 212.089 196.302 211.881 196.509C211.673 196.715 211.556 196.996 211.554 197.29Z" fill="#0C95EF"/>
<path d="M206.4 197.29C206.399 197.51 206.463 197.725 206.585 197.908C206.706 198.092 206.879 198.235 207.083 198.32C207.286 198.405 207.509 198.427 207.725 198.385C207.941 198.342 208.139 198.236 208.295 198.08C208.451 197.925 208.556 197.727 208.599 197.511C208.642 197.295 208.619 197.071 208.534 196.868C208.45 196.665 208.306 196.492 208.123 196.37C207.94 196.249 207.724 196.184 207.504 196.186C207.211 196.186 206.93 196.302 206.723 196.509C206.516 196.716 206.4 196.997 206.4 197.29Z" fill="#0C95EF"/>
<path d="M201.276 197.29C201.275 197.509 201.339 197.725 201.46 197.908C201.581 198.091 201.754 198.234 201.957 198.319C202.16 198.404 202.383 198.427 202.599 198.385C202.815 198.343 203.013 198.238 203.169 198.083C203.325 197.928 203.431 197.73 203.474 197.514C203.518 197.299 203.496 197.075 203.412 196.872C203.328 196.669 203.186 196.495 203.003 196.373C202.821 196.251 202.606 196.186 202.386 196.186C202.093 196.186 201.811 196.302 201.603 196.509C201.395 196.715 201.278 196.996 201.276 197.29Z" fill="#0C95EF"/>
<path d="M248.118 211.786C247.283 211.468 246.355 211.493 245.538 211.858C244.722 212.222 244.083 212.895 243.762 213.73V213.766C243.162 215.302 242.562 216.916 241.962 218.482C241.362 220.048 240.714 221.62 240.066 223.162C239.418 224.704 238.728 226.216 238.014 227.662C237.66 228.382 237.276 229.084 236.904 229.744C236.73 230.038 236.55 230.344 236.376 230.584C236.226 230.38 236.076 230.158 235.926 229.93C235.416 229.144 234.924 228.28 234.438 227.392C233.952 226.504 233.472 225.592 233.004 224.704L232.968 224.638C232.781 224.294 232.48 224.026 232.117 223.879C231.754 223.732 231.351 223.716 230.978 223.833C230.604 223.95 230.282 224.192 230.068 224.52C229.853 224.847 229.758 225.239 229.8 225.628C229.935 226.739 230.136 227.841 230.4 228.928C230.664 230.036 230.996 231.126 231.396 232.192C231.62 232.765 231.874 233.326 232.158 233.872C232.49 234.523 232.906 235.128 233.394 235.672C233.741 236.065 234.145 236.403 234.594 236.674C235.29 237.112 236.1 237.334 236.922 237.31C237.395 237.292 237.862 237.195 238.302 237.022C238.669 236.864 239.015 236.662 239.334 236.422C239.678 236.159 239.992 235.859 240.27 235.528C240.977 234.764 241.625 233.948 242.208 233.086L242.34 232.888C242.838 232.15 243.276 231.418 243.696 230.68C244.62 229.078 245.424 227.47 246.18 225.88C246.456 225.28 246.726 224.68 246.984 224.08C247.446 223.048 247.878 222.01 248.298 220.966C248.946 219.31 249.582 217.696 250.152 215.974C250.416 215.148 250.353 214.252 249.974 213.473C249.595 212.693 248.93 212.089 248.118 211.786Z" fill="#263238"/>
<path opacity="0.2" d="M246.942 224.104C246.684 224.704 246.414 225.304 246.138 225.904C245.382 227.524 244.578 229.132 243.654 230.704C243.234 231.442 242.796 232.174 242.298 232.912C241.416 228.01 244.488 222.16 244.488 222.16C245.328 222.316 246.168 223.036 246.942 224.104Z" fill="black"/>
<path d="M270.318 230.511C270.318 231.387 270.246 232.311 270.198 233.217C270.048 235.965 269.79 238.971 269.4 242.217C269.276 243.297 269.134 244.407 268.974 245.547L243.474 245.985C242.232 242.589 241.116 235.263 244.608 228.891C244.608 224.817 243.606 220.305 243.48 215.943C243.402 213.213 245.772 210.705 249.006 210.135C253.962 209.315 258.998 209.096 264.006 209.481C266.754 209.667 268.92 211.317 269.346 213.603C269.763 215.965 270.048 218.349 270.198 220.743C270.366 223.473 270.444 226.725 270.318 230.511Z" fill="#263238"/>
<path d="M251.616 209.278C251.018 209.554 250.545 210.045 250.291 210.652C250.037 211.26 250.019 211.94 250.242 212.56C250.483 213.458 250.948 214.281 251.593 214.95C252.239 215.62 253.043 216.114 253.932 216.388C254.958 216.604 261.042 213.388 261.804 210.538C262.566 207.688 251.616 209.278 251.616 209.278Z" fill="#0C95EF"/>
<path opacity="0.5" d="M251.616 209.278C251.018 209.554 250.545 210.045 250.291 210.652C250.037 211.26 250.019 211.94 250.242 212.56C250.483 213.458 250.948 214.281 251.593 214.95C252.239 215.62 253.043 216.114 253.932 216.388C254.958 216.604 261.042 213.388 261.804 210.538C262.566 207.688 251.616 209.278 251.616 209.278Z" fill="white"/>
<path opacity="0.2" d="M270.198 233.199C270.048 235.947 269.79 238.953 269.4 242.199C266.4 242.139 261.936 241.773 260.862 240.165C259.218 237.699 260.526 236.235 260.526 236.235C260.526 236.235 267.552 234.687 270.198 233.199Z" fill="black"/>
<path opacity="0.2" d="M270.318 230.511C267.09 227.259 266.262 217.311 266.262 217.311C266.262 217.311 268.128 218.763 270.186 220.749C270.366 223.473 270.444 226.725 270.318 230.511Z" fill="black"/>
<path d="M231.174 227.674L226.374 226.294L229.848 222.166C229.848 222.166 233.898 223.366 233.25 225.88L231.174 227.674Z" fill="#FF8B7B"/>
<path d="M224.826 223.257L226.026 221.355C226.125 221.193 226.256 221.052 226.41 220.942C226.565 220.832 226.74 220.754 226.926 220.713C227.111 220.672 227.303 220.669 227.49 220.704C227.676 220.739 227.854 220.811 228.012 220.917L229.878 222.165L226.404 226.293L225.078 225.009C224.841 224.79 224.687 224.497 224.641 224.178C224.595 223.859 224.661 223.533 224.826 223.257Z" fill="#FF8B7B"/>
<path d="M243.324 336.105L248.172 336.183C248.26 336.183 248.345 336.214 248.411 336.271C248.477 336.329 248.52 336.409 248.532 336.495L249.132 340.461C249.146 340.559 249.138 340.659 249.11 340.754C249.081 340.849 249.033 340.937 248.967 341.011C248.902 341.085 248.821 341.144 248.73 341.184C248.639 341.224 248.541 341.243 248.442 341.241C246.69 341.181 244.17 341.043 241.968 341.007C239.394 340.965 239.652 341.073 236.634 341.007C234.834 341.007 234.426 339.123 235.2 338.967C238.722 338.265 239.082 338.223 242.202 336.417C242.541 336.215 242.929 336.107 243.324 336.105Z" fill="#263238"/>
<path d="M250.62 289.599C256.02 266.895 261.192 257.043 259.146 245.799L243.468 245.985C243.468 245.985 237.288 276.867 238.602 290.181C239.97 304.029 241.968 336.255 241.968 336.255L249.126 336.357C249.126 336.357 253.296 305.085 250.62 289.599Z" fill="#0C95EF"/>
<path opacity="0.3" d="M250.62 289.599C256.02 266.895 261.192 257.043 259.146 245.799L243.468 245.985C243.468 245.985 237.288 276.867 238.602 290.181C239.97 304.029 241.968 336.255 241.968 336.255L249.126 336.357C249.126 336.357 253.296 305.085 250.62 289.599Z" fill="black"/>
<path opacity="0.2" d="M251.4 286.384C254.298 274.81 257.016 266.764 258.474 260.02C248.292 263.68 249.162 276.364 251.4 286.384Z" fill="black"/>
<path d="M267.762 336.105L272.61 336.183C272.695 336.184 272.777 336.216 272.84 336.274C272.904 336.331 272.943 336.41 272.952 336.495L273.378 340.461C273.386 340.561 273.372 340.662 273.339 340.757C273.305 340.852 273.252 340.938 273.183 341.012C273.115 341.085 273.031 341.143 272.939 341.183C272.846 341.222 272.747 341.242 272.646 341.241C270.9 341.181 270.354 341.043 268.152 341.007C265.584 340.965 266.766 341.073 263.754 341.007C261.954 341.007 261.642 339.135 262.422 338.967C264.888 338.451 265.536 337.467 266.652 336.417C266.97 336.178 267.366 336.067 267.762 336.105Z" fill="#263238"/>
<path d="M267.198 289.599C269.634 266.895 272.502 256.791 268.998 245.535L252.654 245.973C252.654 245.973 252.21 276.855 255.276 290.169C258.468 304.017 265.914 336.243 265.914 336.243L273.114 336.345C273.114 336.345 271.908 305.085 267.198 289.599Z" fill="#0C95EF"/>
<path opacity="0.3" d="M267.198 289.599C269.634 266.895 272.502 256.791 268.998 245.535L252.654 245.973C252.654 245.973 252.21 276.855 255.276 290.169C258.468 304.017 265.914 336.243 265.914 336.243L273.114 336.345C273.114 336.345 271.908 305.085 267.198 289.599Z" fill="black"/>
<path d="M258.63 203.234C258.63 205.844 258.786 208.898 260.922 210.734C259.722 212.336 257.424 214.79 254.094 214.364C250.428 213.896 251.136 210.566 251.946 209.522C253.746 208.484 253.248 206.924 253.044 205.838L258.63 203.234Z" fill="#FF8B7B"/>
<path opacity="0.2" d="M257.4 204.303C257.4 204.141 257.4 203.973 257.4 203.811L253.05 205.839C253.264 206.569 253.305 207.339 253.17 208.089C255.258 207.453 257.352 205.881 257.4 204.303Z" fill="black"/>
<path d="M260.808 196C260.25 200.374 260.148 202.96 257.778 205.054C254.22 208.198 248.922 205.78 248.178 201.316C247.494 197.302 248.52 190.822 252.936 189.394C253.913 189.08 254.954 189.02 255.961 189.217C256.969 189.415 257.909 189.864 258.696 190.524C259.482 191.184 260.088 192.032 260.457 192.99C260.827 193.948 260.947 194.983 260.808 196Z" fill="#FF8B7B"/>
<path d="M253.8 196.9C253.8 197.26 253.566 197.536 253.332 197.5C253.098 197.464 252.93 197.176 252.954 196.822C252.978 196.468 253.182 196.186 253.416 196.222C253.65 196.258 253.83 196.546 253.8 196.9Z" fill="#263238"/>
<path d="M249.33 196.706C249.33 197.066 249.102 197.342 248.868 197.306C248.634 197.27 248.46 196.982 248.484 196.628C248.508 196.274 248.718 195.992 248.952 196.028C249.186 196.064 249.354 196.346 249.33 196.706Z" fill="#263238"/>
<path d="M250.632 197.164C250.069 198.192 249.366 199.137 248.544 199.972C248.764 200.178 249.026 200.335 249.311 200.43C249.597 200.525 249.901 200.557 250.2 200.524L250.632 197.164Z" fill="#FF5652"/>
<path d="M254.616 194.523C254.652 194.517 254.686 194.504 254.718 194.487C254.764 194.456 254.796 194.407 254.807 194.352C254.819 194.297 254.808 194.24 254.778 194.193C254.601 193.908 254.358 193.67 254.07 193.497C253.782 193.325 253.457 193.224 253.122 193.203C253.094 193.202 253.067 193.207 253.041 193.218C253.015 193.228 252.991 193.243 252.972 193.263C252.952 193.283 252.937 193.306 252.926 193.332C252.916 193.358 252.911 193.385 252.912 193.413C252.912 193.441 252.917 193.468 252.928 193.494C252.939 193.519 252.954 193.542 252.974 193.562C252.993 193.581 253.016 193.597 253.042 193.607C253.067 193.618 253.094 193.623 253.122 193.623C253.387 193.644 253.644 193.728 253.87 193.868C254.097 194.008 254.287 194.199 254.424 194.427C254.446 194.458 254.475 194.482 254.508 194.499C254.542 194.516 254.579 194.524 254.616 194.523Z" fill="#263238"/>
<path d="M247.974 194.884C248.008 194.891 248.042 194.889 248.075 194.879C248.108 194.868 248.137 194.849 248.16 194.824C248.338 194.629 248.56 194.48 248.807 194.388C249.054 194.296 249.32 194.264 249.582 194.296C249.609 194.301 249.637 194.301 249.664 194.295C249.691 194.29 249.717 194.279 249.74 194.263C249.763 194.248 249.782 194.228 249.798 194.204C249.813 194.181 249.823 194.155 249.828 194.128C249.833 194.101 249.833 194.073 249.827 194.046C249.822 194.019 249.811 193.993 249.795 193.97C249.78 193.947 249.76 193.928 249.736 193.913C249.713 193.897 249.687 193.887 249.66 193.882C249.33 193.837 248.994 193.873 248.681 193.986C248.367 194.098 248.086 194.285 247.86 194.53C247.84 194.55 247.824 194.573 247.813 194.599C247.803 194.624 247.797 194.652 247.797 194.68C247.797 194.708 247.803 194.736 247.813 194.761C247.824 194.787 247.84 194.811 247.86 194.83C247.891 194.861 247.931 194.88 247.974 194.884Z" fill="#263238"/>
<path d="M250.524 201.399C250.953 201.953 251.342 202.536 251.688 203.145L252.036 203.013C253.602 202.413 254.13 201.621 254.244 200.919C254.306 200.379 254.179 199.834 253.884 199.377C253.242 200.187 251.826 200.859 251.052 201.177C250.734 201.339 250.524 201.399 250.524 201.399Z" fill="#263238"/>
<path d="M251.052 201.201L251.412 201.705C252.882 201.135 253.848 200.535 254.136 199.905C254.075 199.721 253.99 199.545 253.884 199.383C253.242 200.199 251.826 200.871 251.052 201.201Z" fill="white"/>
<path d="M252.036 203.026C253.602 202.426 254.13 201.634 254.244 200.932C253.652 201.172 253.108 201.515 252.636 201.946C252.327 202.233 252.117 202.611 252.036 203.026Z" fill="#DE5753"/>
<path d="M250.344 191.163C250.344 191.163 249.042 190.407 249.834 188.499C250.626 186.591 258.168 187.983 261.468 190.899C264.768 193.815 260.4 199.389 260.4 199.389L258.378 200.529C258.378 200.529 256.434 196.029 257.778 192.729C256.958 192.123 256.105 191.564 255.222 191.055C254.664 190.809 252.09 192.441 250.344 191.163Z" fill="#263238"/>
<path d="M262.014 200.583C261.416 201.515 260.473 202.173 259.392 202.413C257.958 202.713 257.322 201.405 257.79 200.097C258.21 198.897 259.47 197.343 260.88 197.625C261.187 197.693 261.472 197.835 261.71 198.04C261.948 198.245 262.132 198.505 262.244 198.799C262.357 199.092 262.395 199.409 262.354 199.72C262.314 200.032 262.197 200.328 262.014 200.583Z" fill="#FF8B7B"/>
<path d="M278.172 232.39C278.172 232.204 278.172 231.952 278.136 231.868L278.058 231.16C277.992 230.698 277.926 230.23 277.836 229.786C277.093 226.373 275.903 223.072 274.296 219.97C273.534 218.458 272.73 216.97 271.854 215.554C271.422 214.834 270.978 214.126 270.516 213.424C270.054 212.722 269.598 212.05 269.058 211.306C268.53 210.608 267.75 210.142 266.885 210.008C266.02 209.875 265.136 210.082 264.421 210.588C263.706 211.094 263.217 211.858 263.055 212.719C262.894 213.58 263.073 214.469 263.556 215.2L263.586 215.254C263.976 215.818 264.414 216.496 264.822 217.126C265.23 217.756 265.65 218.422 266.022 219.076C266.814 220.396 267.594 221.71 268.308 223.054C269.75 225.613 270.9 228.326 271.734 231.142C271.836 231.478 271.896 231.802 271.974 232.132L272.064 232.618C272.064 232.732 272.064 232.684 272.064 232.696C272.064 232.696 272.112 232.618 272.13 232.642C272.148 232.666 272.13 232.756 272.016 232.882C271.683 233.251 271.287 233.558 270.846 233.788C270.271 234.127 269.669 234.418 269.046 234.658C267.653 235.191 266.229 235.636 264.78 235.99C264.036 236.17 263.286 236.362 262.524 236.53C261.762 236.698 260.982 236.842 260.256 236.992H260.16C259.756 237.067 259.394 237.288 259.143 237.612C258.891 237.937 258.768 238.343 258.796 238.753C258.824 239.162 259.002 239.547 259.295 239.834C259.589 240.122 259.978 240.291 260.388 240.31C263.804 240.575 267.24 240.34 270.588 239.614C271.501 239.4 272.396 239.115 273.264 238.762C274.298 238.341 275.253 237.749 276.09 237.01C276.625 236.533 277.075 235.969 277.422 235.342C277.822 234.616 278.059 233.811 278.118 232.984C278.166 232.798 278.184 232.6 278.172 232.39Z" fill="#263238"/>
<path d="M259.446 208.215C259.554 209.229 258.342 212.823 254.094 214.365C255.732 214.365 256.446 216.453 256.446 216.453C256.446 216.453 262.08 213.453 261.408 209.853C261.324 209.394 261.082 208.978 260.723 208.679C260.365 208.38 259.913 208.216 259.446 208.215Z" fill="#0C95EF"/>
<path d="M252.774 208.492C252.882 209.482 251.73 211.57 254.094 214.366C252.45 214.366 251.472 216.01 251.472 216.01C250.839 215.022 250.464 213.89 250.383 212.719C250.301 211.548 250.515 210.375 251.004 209.308C251.497 208.862 252.115 208.578 252.774 208.492Z" fill="#0C95EF"/>
<path d="M243.15 245.007L243 248.445L269.58 247.725L269.142 244.293L243.15 245.007Z" fill="#0C95EF"/>
<path opacity="0.3" d="M243.15 245.007L243 248.445L269.58 247.725L269.142 244.293L243.15 245.007Z" fill="black"/>
<path d="M266.976 246.772L269.58 246.724L269.232 244.996L266.976 245.044V246.772Z" fill="#263238"/>
<path d="M266.268 245.055L256.86 245.259V246.963L266.268 246.783V245.055Z" fill="#263238"/>
<path d="M245.052 245.506L243 245.554V247.216L245.052 247.18V245.506Z" fill="#263238"/>
<path d="M245.658 245.493V247.167L255.936 246.975V245.277L245.658 245.493Z" fill="#263238"/>
<path d="M251.244 247.492H249.036C248.899 247.492 248.767 247.437 248.669 247.341C248.571 247.244 248.516 247.113 248.514 246.976V245.668C248.514 245.531 248.567 245.4 248.663 245.303C248.758 245.205 248.888 245.149 249.024 245.146L251.232 245.098C251.372 245.102 251.505 245.155 251.61 245.248C251.659 245.296 251.699 245.354 251.725 245.418C251.752 245.482 251.766 245.55 251.766 245.62V247C251.758 247.133 251.7 247.258 251.603 247.35C251.506 247.441 251.377 247.492 251.244 247.492ZM249.066 245.692V247L251.244 246.964L251.214 245.644L249.066 245.692Z" fill="white"/>
<path d="M251.01 246.574H250.368C250.295 246.572 250.226 246.542 250.175 246.491C250.123 246.44 250.094 246.37 250.092 246.298C250.092 246.224 250.121 246.154 250.173 246.102C250.225 246.051 250.295 246.022 250.368 246.022H251.01C251.047 246.021 251.083 246.027 251.117 246.041C251.151 246.054 251.181 246.075 251.207 246.101C251.233 246.126 251.253 246.157 251.267 246.191C251.28 246.225 251.287 246.261 251.286 246.298C251.286 246.371 251.257 246.441 251.205 246.493C251.153 246.544 251.083 246.574 251.01 246.574Z" fill="white"/>
<path d="M252.924 240.189H257.406L258.222 232.209H252.102L252.924 240.189Z" fill="#0C95EF"/>
<path d="M251.772 232.539H258.552V231.735H251.772V232.539Z" fill="white"/>
<path d="M253.14 235.965C253.192 236.278 253.332 236.57 253.544 236.806C253.756 237.042 254.031 237.212 254.337 237.297C254.642 237.382 254.966 237.377 255.269 237.284C255.572 237.19 255.843 237.012 256.048 236.77C256.253 236.528 256.384 236.232 256.427 235.918C256.47 235.604 256.421 235.284 256.288 234.996C256.154 234.708 255.941 234.464 255.674 234.294C255.406 234.123 255.095 234.033 254.778 234.033C254.306 234.074 253.868 234.301 253.562 234.662C253.255 235.024 253.103 235.492 253.14 235.965Z" fill="white"/>
<path d="M262.326 236.757L258.048 235.365L257.886 240.765C257.886 240.765 261.912 241.557 262.686 239.481L262.326 236.757Z" fill="#FF8B7B"/>
<path d="M253.866 237.453L254.124 239.355C254.175 239.722 254.355 240.058 254.63 240.304C254.906 240.55 255.261 240.69 255.63 240.699L257.886 240.759L258.048 235.359L255.228 235.689C255.022 235.713 254.822 235.778 254.641 235.88C254.46 235.982 254.301 236.119 254.174 236.284C254.047 236.448 253.955 236.636 253.902 236.837C253.849 237.038 253.837 237.248 253.866 237.453Z" fill="#FF8B7B"/>
<path opacity="0.7" d="M259.446 208.215C259.554 209.229 258.342 212.823 254.094 214.365C255.732 214.365 256.446 216.453 256.446 216.453C256.446 216.453 262.08 213.453 261.408 209.853C261.324 209.394 261.082 208.978 260.723 208.679C260.365 208.38 259.913 208.216 259.446 208.215Z" fill="white"/>
<path opacity="0.7" d="M252.774 208.492C252.882 209.482 251.73 211.57 254.094 214.366C252.45 214.366 251.472 216.01 251.472 216.01C250.839 215.022 250.464 213.89 250.383 212.719C250.301 211.548 250.515 210.375 251.004 209.308C251.497 208.862 252.115 208.578 252.774 208.492Z" fill="white"/>
<path d="M219.432 236.838L223.998 236.238L222.054 232.266C222.054 232.266 217.854 233.496 217.974 234.858L219.432 236.838Z" fill="#FFB573"/>
<path d="M226.32 232.859L224.25 230.447L222.054 232.289L223.998 236.261L226.32 232.859Z" fill="#FFB573"/>
<path d="M196.89 229.667C196.89 229.667 200.04 237.419 205.152 240.245C210.264 243.071 219.888 236.837 219.888 236.837L218.4 234.083C218.4 234.083 207.804 236.681 207.366 236.285C206.928 235.889 202.188 223.085 196.122 221.357L196.89 229.667Z" fill="#0C95EF"/>
<path opacity="0.7" d="M219.894 236.843C219.894 236.843 210.294 243.077 205.152 240.245C203.45 239.23 201.965 237.888 200.784 236.297C199.215 234.269 197.906 232.051 196.89 229.697L196.146 221.381C202.206 223.091 206.946 235.919 207.39 236.315C207.834 236.711 218.4 234.083 218.4 234.083L219.894 236.843Z" fill="white"/>
<path opacity="0.1" d="M200.784 236.296C199.782 235.015 198.892 233.65 198.126 232.216C198.193 231.139 198.52 230.095 199.08 229.174C199.08 229.174 201.198 231.7 200.784 236.296Z" fill="black"/>
<path d="M181.26 200.075C181.26 200.075 184.74 195.341 191.01 198.875C199.044 203.363 194.37 224.345 194.37 224.345L180.57 226.583C180.57 226.583 172.164 201.881 181.26 200.075Z" fill="#263238"/>
<path d="M198.84 248.668C198.84 248.668 201.882 272.32 201.612 287.344C202.668 301.432 203.556 331 205.152 334.192C205.098 334.912 202.488 335.056 201.81 334.624C201.81 334.624 191.382 310.216 192.81 287.344C183.132 263.488 183.708 248.668 183.708 248.668H198.84Z" fill="#FFB573"/>
<path d="M194.718 248.668C194.718 248.668 187.8 275.368 185.058 288.478C182.184 302.242 179.232 318.874 179.19 334.534C178.422 334.99 177.564 335.662 176.004 335.182C176.004 335.182 169.266 303.826 175.476 289.084C172.752 256.468 181.38 248.668 181.38 248.668H194.718Z" fill="#FFB573"/>
<path d="M181.26 248.056L198.606 250.456C198.816 246.778 200.514 228.616 200.46 227.014C200.358 224.014 197.844 221.41 194.658 221.014C193.776 220.9 192.858 220.792 191.964 220.72C189.233 220.534 186.493 220.534 183.762 220.72C182.982 220.756 182.226 220.816 181.512 220.882C178.836 221.14 176.988 223.594 177.912 226.03C179.076 229.084 180.888 245.608 181.26 248.056Z" fill="#0C95EF"/>
<path opacity="0.7" d="M200.46 227.002C200.508 228.61 198.816 246.766 198.606 250.45L181.26 248.05C181.218 247.78 181.164 247.354 181.092 246.802C180.876 245.104 180.528 242.206 180.126 239.074C179.952 237.778 179.778 236.434 179.586 235.126C179.25 232.726 178.902 230.452 178.572 228.712C178.418 227.789 178.195 226.878 177.906 225.988C176.988 223.54 178.83 221.086 181.506 220.834C182.22 220.768 182.976 220.714 183.756 220.672C186.485 220.492 189.223 220.492 191.952 220.672C192.846 220.75 193.752 220.858 194.652 220.972C197.844 221.398 200.364 224.008 200.46 227.002Z" fill="white"/>
<path d="M184.338 211.463C185.052 214.103 185.928 218.939 184.212 220.697C184.212 220.697 182.982 223.013 189.948 222.797C190.548 224.249 191.748 226.907 191.748 226.907C191.748 226.907 191.832 223.781 191.352 222.707C195.828 222.323 192.432 220.679 192.432 220.679C189.432 219.977 189.348 217.793 189.708 215.741L184.338 211.463Z" fill="#FFB573"/>
<path opacity="0.2" d="M186.522 213.215L189.69 215.759C189.595 216.239 189.547 216.727 189.546 217.217C188.406 217.055 186.774 215.819 186.546 214.643C186.45 214.172 186.442 213.688 186.522 213.215Z" fill="black"/>
<path d="M181.878 206.873C182.634 210.893 182.874 212.603 185.178 214.529C188.652 217.421 193.416 215.891 193.872 211.799C194.28 208.115 192.972 202.169 188.808 200.843C187.927 200.524 186.977 200.447 186.056 200.619C185.135 200.79 184.277 201.205 183.57 201.82C182.863 202.435 182.334 203.228 182.036 204.116C181.739 205.004 181.684 205.956 181.878 206.873Z" fill="#FFB573"/>
<path d="M185.352 203.976C183.12 206.838 187.704 210.126 183.12 209.934C178.536 209.742 180.402 203.334 183.12 201.858C185.838 200.382 185.352 203.976 185.352 203.976Z" fill="#263238"/>
<path d="M183.138 201.905C183.738 204.641 184.152 205.355 186.606 204.611C186.24 204.061 186.079 203.401 186.15 202.745C186.395 203.404 186.885 203.944 187.518 204.251C188.177 203.979 188.863 203.778 189.564 203.651C189.43 203.266 189.389 202.855 189.444 202.451C189.637 202.905 189.958 203.293 190.368 203.567C191.122 203.579 191.869 203.711 192.582 203.957C192.6 201.065 187.65 197.957 183.138 201.905Z" fill="#263238"/>
<path d="M188.28 207.544C188.328 207.886 188.55 208.144 188.766 208.144C188.982 208.144 189.126 207.838 189.072 207.496C189.018 207.154 188.808 206.896 188.586 206.896C188.364 206.896 188.232 207.202 188.28 207.544Z" fill="#263238"/>
<path d="M192.408 207.304C192.462 207.64 192.678 207.904 192.894 207.904C193.11 207.904 193.254 207.604 193.206 207.262C193.158 206.92 192.936 206.662 192.72 206.662C192.504 206.662 192.36 206.962 192.408 207.304Z" fill="#263238"/>
<path d="M192.6 206.687L193.368 206.393C193.368 206.393 193.074 207.059 192.6 206.687Z" fill="#263238"/>
<path d="M191.34 207.947C191.753 208.701 192.261 209.399 192.852 210.023C192.694 210.16 192.508 210.259 192.306 210.314C192.105 210.369 191.894 210.379 191.688 210.341L191.34 207.947Z" fill="#ED893E"/>
<path d="M181.482 210.749C181.651 211.103 181.89 211.419 182.187 211.676C182.483 211.933 182.83 212.126 183.204 212.243C184.146 212.489 184.554 211.421 184.242 210.347C183.954 209.387 183.126 208.097 182.208 208.331C181.29 208.565 181.008 209.801 181.482 210.749Z" fill="#FFB573"/>
<path d="M187.128 205.721C187.18 205.72 187.23 205.699 187.266 205.661C187.427 205.476 187.631 205.334 187.86 205.247C188.09 205.16 188.337 205.131 188.58 205.163C188.605 205.168 188.631 205.167 188.656 205.161C188.681 205.155 188.705 205.144 188.725 205.129C188.746 205.114 188.763 205.095 188.777 205.073C188.79 205.051 188.798 205.027 188.802 205.001C188.806 204.948 188.791 204.895 188.759 204.852C188.727 204.809 188.68 204.779 188.628 204.767C188.323 204.721 188.011 204.751 187.721 204.856C187.43 204.961 187.171 205.137 186.966 205.367C186.947 205.386 186.933 205.408 186.922 205.432C186.912 205.456 186.907 205.482 186.907 205.508C186.907 205.535 186.912 205.561 186.922 205.585C186.933 205.609 186.947 205.631 186.966 205.649C186.986 205.673 187.011 205.691 187.039 205.704C187.067 205.716 187.097 205.722 187.128 205.721Z" fill="#263238"/>
<path d="M193.338 205.355C193.389 205.358 193.438 205.341 193.476 205.307C193.495 205.289 193.51 205.267 193.52 205.243C193.53 205.218 193.535 205.192 193.535 205.166C193.535 205.14 193.53 205.114 193.52 205.09C193.51 205.066 193.495 205.044 193.476 205.025C193.268 204.777 193.005 204.58 192.709 204.449C192.412 204.318 192.09 204.256 191.766 204.269C191.74 204.272 191.716 204.28 191.693 204.293C191.671 204.306 191.651 204.324 191.636 204.344C191.621 204.365 191.61 204.389 191.605 204.414C191.599 204.44 191.599 204.466 191.604 204.491C191.615 204.544 191.645 204.59 191.688 204.622C191.732 204.654 191.785 204.669 191.838 204.665C192.094 204.659 192.347 204.709 192.581 204.813C192.814 204.917 193.022 205.071 193.188 205.265C193.205 205.29 193.228 205.311 193.254 205.326C193.279 205.342 193.308 205.352 193.338 205.355Z" fill="#263238"/>
<path d="M188.496 206.927L189.264 206.633C189.264 206.633 188.946 207.299 188.496 206.927Z" fill="#263238"/>
<path d="M191.43 211.967C191.09 212.407 190.781 212.87 190.506 213.353L190.23 213.251C188.982 212.771 188.568 212.141 188.478 211.589C188.439 211.317 188.468 211.038 188.562 210.779C188.609 210.63 188.678 210.489 188.766 210.359C189.401 210.996 190.166 211.488 191.01 211.799C191.262 211.907 191.43 211.967 191.43 211.967Z" fill="#263238"/>
<path d="M191.01 211.799L190.728 212.201C189.558 211.751 188.79 211.271 188.562 210.779C188.609 210.63 188.678 210.489 188.766 210.359C189.401 210.996 190.166 211.488 191.01 211.799Z" fill="white"/>
<path d="M190.23 213.25C188.982 212.77 188.568 212.14 188.478 211.588C188.948 211.775 189.381 212.046 189.756 212.386C190 212.618 190.165 212.92 190.23 213.25Z" fill="#DE5753"/>
<path d="M190.284 219.629C190.284 219.629 191.604 221.045 191.334 222.725L194.37 223.367C194.214 222.373 193.725 221.461 192.982 220.782C192.24 220.102 191.288 219.696 190.284 219.629Z" fill="#0C95EF"/>
<path d="M189.948 222.797C189.948 222.797 185.88 220.457 184.974 219.197L183.174 220.559C183.174 220.559 182.604 222.683 185.064 224.591L189.948 222.797Z" fill="#0C95EF"/>
<path opacity="0.6" d="M190.284 219.629C190.284 219.629 191.604 221.045 191.334 222.725L194.37 223.367C194.214 222.373 193.725 221.461 192.982 220.782C192.24 220.102 191.288 219.696 190.284 219.629Z" fill="white"/>
<path opacity="0.6" d="M189.948 222.797C189.948 222.797 185.88 220.457 184.974 219.197L183.174 220.559C183.174 220.559 182.604 222.683 185.064 224.591L189.948 222.797Z" fill="white"/>
<path d="M201.282 341.026H202.2L202.446 339.922L205.416 341.248H212.934C212.934 341.248 214.134 340.048 210.534 339.094C210.358 339.048 210.187 338.984 210.024 338.902C208.116 338.014 205.386 335.002 205.386 335.002H201.264C201.139 335.194 201.027 335.395 200.928 335.602C200.466 336.49 199.692 338.398 201.282 341.026Z" fill="#263238"/>
<path d="M200.916 335.585C201.456 334.985 203.946 337.631 205.764 338.531C207.384 339.335 209.208 339.683 210.012 338.861C208.104 337.973 205.086 334.061 205.086 334.061H201.768C201.768 334.061 201.108 335.201 200.916 335.585Z" fill="#EBB376"/>
<path d="M175.284 341.026H176.184L176.43 339.922L179.4 341.248H186.918C186.918 341.248 188.118 340.048 184.518 339.094C184.342 339.048 184.171 338.984 184.008 338.902C182.1 338.014 179.37 335.002 179.37 335.002H175.248C175.123 335.194 175.011 335.395 174.912 335.602C174.468 336.49 173.7 338.398 175.284 341.026Z" fill="#263238"/>
<path d="M174.918 335.585C175.458 334.985 177.948 337.631 179.766 338.531C181.392 339.335 183.21 339.683 184.014 338.861C182.106 337.973 179.088 334.061 179.088 334.061H175.77C175.77 334.061 175.11 335.201 174.918 335.585Z" fill="#EBB376"/>
<path d="M174.294 283.84C174.752 284.346 175.294 284.768 175.896 285.088C175.98 282.088 176.85 280.66 176.85 280.66C176.701 282.385 176.86 284.122 177.318 285.79C181.932 287.74 190.83 289.024 201.954 286.3C201.954 273.25 199.374 251.29 199.194 249.148C199.194 249.148 185.994 249.496 180.642 249.496C174.78 256.486 173.202 278.926 174.294 283.84Z" fill="#263238"/>
<path opacity="0.2" d="M174.294 283.84C174.752 284.346 175.294 284.768 175.896 285.088C175.98 282.088 176.85 280.66 176.85 280.66C176.701 282.385 176.86 284.122 177.318 285.79C181.932 287.74 190.83 289.024 201.954 286.3C201.954 273.25 199.374 251.29 199.194 249.148C199.194 249.148 185.994 249.496 180.642 249.496C174.78 256.486 173.202 278.926 174.294 283.84Z" fill="white"/>
<path d="M199.092 249.959C192.909 250.627 186.672 250.615 180.492 249.923C180.425 249.916 180.361 249.893 180.305 249.856C180.25 249.818 180.204 249.768 180.172 249.708C180.141 249.649 180.125 249.583 180.125 249.515C180.125 249.448 180.142 249.382 180.174 249.323L180.624 248.279C180.655 248.201 180.71 248.136 180.782 248.093C180.853 248.049 180.937 248.031 181.02 248.039C186.957 248.675 192.945 248.675 198.882 248.039C198.934 248.034 198.987 248.04 199.037 248.055C199.087 248.07 199.133 248.096 199.173 248.129C199.213 248.163 199.246 248.204 199.271 248.25C199.295 248.296 199.31 248.347 199.314 248.399L199.422 249.485C199.432 249.538 199.431 249.592 199.419 249.644C199.408 249.697 199.386 249.747 199.355 249.791C199.325 249.835 199.286 249.872 199.241 249.901C199.195 249.93 199.145 249.95 199.092 249.959Z" fill="#263238"/>
<path opacity="0.1" d="M181.416 228.646C181.416 228.646 181.194 232.876 179.586 235.138C179.25 232.738 178.902 230.464 178.572 228.724C179.481 228.361 180.489 228.333 181.416 228.646Z" fill="black"/>
<path opacity="0.1" d="M184.134 241.001V244.769C183.196 245.563 182.176 246.255 181.092 246.833C180.876 245.135 180.528 242.237 180.126 239.105C181.42 239.824 182.758 240.457 184.134 241.001Z" fill="black"/>
<path d="M190.692 245.212H186.21L185.394 237.232H191.514L190.692 245.212Z" fill="#0C95EF"/>
<path d="M191.844 236.758H185.064V237.562H191.844V236.758Z" fill="white"/>
<path d="M190.476 241C190.425 241.313 190.284 241.605 190.072 241.841C189.86 242.077 189.585 242.248 189.279 242.332C188.974 242.417 188.65 242.412 188.347 242.319C188.044 242.225 187.774 242.047 187.568 241.805C187.363 241.563 187.232 241.268 187.189 240.953C187.147 240.639 187.195 240.319 187.328 240.031C187.462 239.743 187.675 239.5 187.943 239.329C188.21 239.158 188.521 239.068 188.838 239.068C189.311 239.11 189.748 239.336 190.054 239.698C190.361 240.059 190.513 240.527 190.476 241Z" fill="white"/>
<path d="M188.304 240.904L187.14 240.22C186.924 240.096 186.681 240.024 186.432 240.01C186.183 239.997 185.934 240.042 185.706 240.142L183.546 241.114C183.12 241.305 182.747 241.594 182.455 241.958C182.164 242.323 181.964 242.751 181.872 243.208L181.758 243.808C183.612 245.068 186.558 245.068 186.558 245.068L187.392 245.158C187.563 245.183 187.737 245.173 187.904 245.13C188.071 245.086 188.227 245.01 188.365 244.906C188.502 244.802 188.617 244.671 188.704 244.522C188.79 244.372 188.846 244.207 188.868 244.036L189.072 242.38C189.105 242.086 189.049 241.788 188.913 241.525C188.776 241.263 188.564 241.046 188.304 240.904Z" fill="#FFB573"/>
<path d="M180.162 221.201C175.062 222.005 169.884 238.103 170.652 241.001C171.42 243.899 182.802 244.445 182.802 244.445L183.138 241.001C183.138 241.001 177.42 239.309 176.604 238.211C175.788 237.113 180.162 230.585 180.162 230.585C181.122 229.124 181.679 227.435 181.776 225.689C181.8 222.341 180.162 221.201 180.162 221.201Z" fill="#0C95EF"/>
<path opacity="0.7" d="M180.162 221.201C175.062 222.005 169.884 238.103 170.652 241.001C171.42 243.899 182.802 244.445 182.802 244.445L183.138 241.001C183.138 241.001 177.42 239.309 176.604 238.211C175.788 237.113 180.162 230.585 180.162 230.585C181.122 229.124 181.679 227.435 181.776 225.689C181.8 222.341 180.162 221.201 180.162 221.201Z" fill="white"/>
<path d="M152.592 197.038C151.992 197.038 151.506 196.27 151.464 195.268C151.434 194.832 151.514 194.394 151.698 193.996C151.758 193.836 151.861 193.696 151.995 193.59C152.13 193.484 152.29 193.417 152.46 193.396H152.49C153.09 193.396 153.576 194.164 153.624 195.196C153.653 195.634 153.57 196.072 153.384 196.468C153.324 196.629 153.221 196.769 153.087 196.875C152.953 196.981 152.792 197.048 152.622 197.068L152.592 197.038ZM152.49 193.672C152.292 193.672 152.106 193.84 151.962 194.122C151.8 194.477 151.729 194.867 151.758 195.256C151.794 196.09 152.178 196.786 152.628 196.762C152.748 196.741 152.861 196.689 152.953 196.609C153.046 196.53 153.116 196.428 153.156 196.312C153.321 195.96 153.393 195.572 153.366 195.184C153.312 194.356 152.922 193.672 152.49 193.672Z" fill="#263238"/>
<path d="M151.74 195.256C151.74 195.58 151.938 195.856 152.154 195.856C152.37 195.856 152.526 195.574 152.514 195.256C152.502 194.938 152.316 194.656 152.1 194.656C151.884 194.656 151.722 194.926 151.74 195.256Z" fill="#263238"/>
<path d="M151.908 195.838C152.344 196.822 152.913 197.74 153.6 198.568C153.383 198.737 153.131 198.857 152.863 198.921C152.595 198.984 152.316 198.988 152.046 198.934L151.908 195.838Z" fill="#ED847E"/>
<path d="M150.462 193.491C150.412 193.484 150.367 193.458 150.336 193.419C150.321 193.399 150.309 193.376 150.303 193.352C150.296 193.328 150.295 193.302 150.298 193.277C150.301 193.252 150.31 193.228 150.322 193.206C150.335 193.184 150.352 193.165 150.372 193.149C150.607 192.954 150.886 192.818 151.184 192.752C151.483 192.686 151.793 192.693 152.088 192.771C152.135 192.79 152.173 192.826 152.195 192.871C152.218 192.917 152.222 192.969 152.208 193.017C152.2 193.042 152.187 193.064 152.17 193.083C152.154 193.102 152.133 193.118 152.11 193.129C152.087 193.14 152.062 193.147 152.037 193.148C152.012 193.15 151.986 193.146 151.962 193.137C151.727 193.079 151.482 193.077 151.247 193.131C151.011 193.185 150.792 193.294 150.606 193.449C150.586 193.466 150.563 193.478 150.538 193.486C150.514 193.493 150.488 193.495 150.462 193.491Z" fill="#263238"/>
<path d="M152.286 199.959C152.286 200.055 152.256 200.145 152.244 200.241C152.004 201.536 151.313 202.703 150.294 203.536C149.274 204.369 147.992 204.813 146.676 204.789C145.448 204.744 144.28 204.248 143.394 203.397C141.27 201.423 141.222 199.059 140.796 195.051C140.685 194.121 140.814 193.178 141.171 192.311C141.528 191.444 142.1 190.683 142.833 190.1C143.567 189.517 144.437 189.131 145.362 188.979C146.286 188.827 147.234 188.914 148.116 189.231C152.028 190.599 152.892 196.293 152.286 199.959Z" fill="#FFC3BD"/>
<path d="M141.6 201.598C143.088 202.798 149.544 200.596 149.058 195.664C149.058 195.664 151.758 193.294 151.974 190.264C152.19 187.234 150.306 185.734 148.002 186.034C145.974 186.304 145.86 187.372 145.86 187.372C145.86 187.372 136.524 187.012 137.898 191.05C133.5 194.506 139.722 200.11 141.6 201.598Z" fill="#263238"/>
<path d="M153.474 195.03L149.025 195.523L149.056 195.798L153.504 195.304L153.474 195.03Z" fill="#263238"/>
<path d="M147.312 196.241C147.423 197.235 147.86 198.166 148.554 198.887C149.478 199.829 150.354 199.187 150.492 197.993C150.588 196.919 150.228 195.137 149.13 194.639C148.032 194.141 147.192 195.035 147.312 196.241Z" fill="#FFC3BD"/>
<path opacity="0.2" d="M152.286 199.959C152.286 200.055 152.256 200.145 152.244 200.241C152.004 201.536 151.313 202.703 150.294 203.536C149.274 204.369 147.992 204.813 146.676 204.789C147.786 204.081 149.292 202.851 149.754 201.129C150.516 198.285 149.358 194.769 149.358 194.769L149.958 193.947C149.958 193.947 151.026 198.507 150.9 199.707C150.834 200.529 151.71 200.229 152.286 199.959Z" fill="black"/>
<path d="M171.678 221.902H167.19L166.374 213.922H172.494L171.678 221.902Z" fill="#0C95EF"/>
<path d="M172.824 213.447H166.044V214.251H172.824V213.447Z" fill="#0C95EF"/>
<path d="M171.456 217.672C171.405 217.985 171.265 218.276 171.054 218.511C170.843 218.747 170.569 218.918 170.264 219.003C169.959 219.088 169.636 219.084 169.333 218.992C169.031 218.901 168.76 218.724 168.554 218.484C168.348 218.243 168.215 217.949 168.171 217.636C168.126 217.323 168.172 217.003 168.303 216.715C168.434 216.427 168.644 216.182 168.909 216.009C169.175 215.837 169.484 215.743 169.8 215.74C170.276 215.777 170.717 216.001 171.028 216.363C171.339 216.726 171.492 217.196 171.456 217.672Z" fill="white"/>
<path opacity="0.8" d="M172.824 213.447H166.044V214.251H172.824V213.447Z" fill="white"/>
<path d="M142.2 201.934C142.8 204.934 142.914 207.202 140.832 209.188C140.832 209.188 141.648 212.188 147.168 212.188C153.24 212.188 150.066 209.188 150.066 209.188C146.754 208.396 146.838 205.936 147.42 203.632L142.2 201.934Z" fill="#FFC3BD"/>
<path d="M139.656 209.741C139.212 208.913 138.72 207.941 139.734 207.671C140.844 207.347 147.99 206.741 150.09 207.353C149.442 208.505 150.534 209.909 150.534 209.909L139.656 209.741Z" fill="#0C95EF"/>
<path opacity="0.2" d="M139.656 209.741C139.212 208.913 138.72 207.941 139.734 207.671C140.844 207.347 147.99 206.741 150.09 207.353C149.442 208.505 150.534 209.909 150.534 209.909L139.656 209.741Z" fill="black"/>
<path d="M124.056 336.184C124.235 336.248 124.425 336.276 124.614 336.266C124.804 336.256 124.989 336.207 125.16 336.124C125.226 336.064 125.271 335.984 125.289 335.897C125.308 335.81 125.298 335.719 125.262 335.638C125.243 335.569 125.209 335.505 125.162 335.451C125.116 335.397 125.057 335.355 124.992 335.326C124.392 335.038 123.012 335.602 122.952 335.626C122.933 335.634 122.918 335.648 122.906 335.665C122.894 335.682 122.887 335.701 122.886 335.722C122.886 335.742 122.892 335.761 122.902 335.778C122.913 335.795 122.928 335.809 122.946 335.818C123.302 335.979 123.674 336.101 124.056 336.184ZM124.776 335.476C124.82 335.483 124.863 335.497 124.902 335.518C124.941 335.533 124.975 335.557 125.002 335.589C125.029 335.62 125.048 335.658 125.058 335.698C125.118 335.884 125.058 335.944 125.022 335.962C124.782 336.166 123.894 335.962 123.27 335.728C123.755 335.53 124.278 335.444 124.8 335.476H124.776Z" fill="#0C95EF"/>
<path d="M123 335.8C123.498 335.656 124.578 334.888 124.59 334.384C124.591 334.305 124.564 334.228 124.515 334.166C124.466 334.103 124.397 334.06 124.32 334.042C124.244 334.015 124.162 334.005 124.081 334.012C124.001 334.019 123.922 334.044 123.852 334.084C123.252 334.384 122.886 335.614 122.868 335.668C122.86 335.685 122.855 335.703 122.855 335.722C122.855 335.741 122.86 335.759 122.868 335.776C122.884 335.794 122.906 335.807 122.93 335.811C122.954 335.815 122.979 335.812 123 335.8ZM124.26 334.228H124.302C124.434 334.27 124.434 334.336 124.434 334.36C124.434 334.66 123.714 335.26 123.192 335.5C123.333 335.013 123.615 334.579 124.002 334.252C124.076 334.228 124.156 334.228 124.23 334.252L124.26 334.228Z" fill="#0C95EF"/>
<path d="M122.778 335.152L117.894 334.09C117.808 334.072 117.718 334.085 117.639 334.125C117.561 334.165 117.498 334.231 117.462 334.312L115.8 337.984C115.759 338.073 115.739 338.171 115.742 338.27C115.744 338.368 115.769 338.465 115.814 338.553C115.859 338.64 115.923 338.717 116.002 338.776C116.08 338.836 116.171 338.876 116.268 338.896C117.978 339.238 118.824 339.316 120.972 339.778C122.292 340.066 125.274 340.792 127.098 341.188C128.922 341.584 129.552 339.832 128.838 339.502C125.652 338.05 124.32 336.766 123.438 335.572C123.279 335.354 123.043 335.204 122.778 335.152Z" fill="#263238"/>
<path d="M148.866 245.416C148.866 245.416 144.258 274.162 141.732 284.938C138.96 296.728 124.104 335.752 124.104 335.752L116.832 334.294C116.832 334.294 127.224 302.494 129.546 286.006C131.346 273.34 134.85 245.416 134.85 245.416H148.866Z" fill="#0C95EF"/>
<path opacity="0.7" d="M148.866 245.416C148.866 245.416 144.258 274.162 141.732 284.938C138.96 296.728 124.104 335.752 124.104 335.752L116.832 334.294C116.832 334.294 127.224 302.494 129.546 286.006C131.346 273.34 134.85 245.416 134.85 245.416H148.866Z" fill="white"/>
<path d="M136.842 216.897C136.056 217.767 135.174 218.763 134.37 219.735C133.566 220.707 132.768 221.709 132.012 222.735C130.501 224.683 129.174 226.766 128.046 228.957C127.902 229.221 127.788 229.485 127.674 229.749L127.5 230.145L127.416 230.343L127.38 230.421C127.38 230.367 127.284 230.577 127.344 230.949C127.585 231.951 127.991 232.906 128.544 233.775C129.901 235.894 131.415 237.908 133.074 239.799L131.1 242.121C128.709 240.567 126.549 238.683 124.686 236.523C123.598 235.294 122.755 233.869 122.202 232.323C121.825 231.22 121.769 230.032 122.04 228.897L122.106 228.651L122.16 228.495L122.25 228.225L122.436 227.685C122.556 227.325 122.682 226.965 122.832 226.629C123.948 223.977 125.357 221.457 127.032 219.117C127.854 217.971 128.682 216.843 129.582 215.775C130.482 214.707 131.382 213.669 132.408 212.613L136.842 216.897Z" fill="#FFC3BD"/>
<path d="M131.88 238.6L134.88 238.822L133.53 243.316C133.53 243.316 131.268 242.908 130.398 241.144L131.88 238.6Z" fill="#FFC3BD"/>
<path d="M139.026 239.422L137.082 243.106L133.524 243.34L134.874 238.846L139.026 239.422Z" fill="#FFC3BD"/>
<path d="M151.896 336.934C152.496 336.934 153.018 336.85 153.204 336.598C153.252 336.53 153.278 336.45 153.278 336.367C153.278 336.284 153.252 336.203 153.204 336.136C153.169 336.075 153.121 336.021 153.064 335.979C153.008 335.937 152.943 335.906 152.874 335.89C152.136 335.686 150.582 336.574 150.516 336.61C150.497 336.62 150.481 336.636 150.471 336.655C150.462 336.674 150.458 336.696 150.462 336.718C150.465 336.74 150.475 336.76 150.49 336.776C150.505 336.792 150.525 336.803 150.546 336.808C150.992 336.888 151.443 336.93 151.896 336.934ZM152.604 336.07C152.672 336.06 152.74 336.06 152.808 336.07C152.85 336.078 152.89 336.095 152.925 336.12C152.961 336.145 152.99 336.177 153.012 336.214C153.084 336.346 153.06 336.412 153.012 336.448C152.808 336.736 151.686 336.742 150.858 336.628C151.398 336.329 151.991 336.139 152.604 336.07Z" fill="#0C95EF"/>
<path d="M150.552 336.808H150.6C151.134 336.562 152.196 335.608 152.118 335.098C152.118 334.984 152.01 334.834 151.722 334.804C151.615 334.792 151.507 334.802 151.404 334.832C151.301 334.863 151.205 334.915 151.122 334.984C150.558 335.452 150.438 336.646 150.432 336.7C150.43 336.718 150.432 336.737 150.44 336.754C150.447 336.771 150.459 336.785 150.474 336.796C150.498 336.809 150.525 336.813 150.552 336.808ZM151.638 335.008H151.704C151.89 335.008 151.902 335.104 151.908 335.128C151.956 335.428 151.236 336.184 150.708 336.514C150.762 336.007 150.972 335.529 151.308 335.146C151.399 335.064 151.516 335.015 151.638 335.008Z" fill="#0C95EF"/>
<path d="M150.084 336.189H145.23C145.142 336.188 145.055 336.218 144.985 336.272C144.916 336.327 144.867 336.403 144.846 336.489L144 340.443C143.978 340.539 143.978 340.639 144.001 340.734C144.023 340.83 144.067 340.919 144.128 340.996C144.19 341.072 144.269 341.133 144.358 341.175C144.447 341.216 144.544 341.237 144.642 341.235C146.394 341.205 148.92 341.103 151.122 341.103C153.696 341.103 155.922 341.241 158.922 341.241C160.722 341.241 161.25 339.399 160.488 339.231C157.008 338.469 154.17 338.385 151.164 336.531C150.843 336.319 150.469 336.201 150.084 336.189Z" fill="#263238"/>
<path d="M134.538 209.835C130.632 209.925 125.604 218.835 125.604 218.835L131.916 226.077C134.284 224.406 136.174 222.145 137.4 219.519C139.704 214.797 138.528 209.745 134.538 209.835Z" fill="#0C95EF"/>
<path opacity="0.2" d="M136.296 217.492C133.854 219.082 132.444 222.592 131.634 225.736L131.916 226.054C134.279 224.388 136.169 222.136 137.4 219.52C137.536 219.24 137.662 218.958 137.778 218.674L136.296 217.492Z" fill="black"/>
<path d="M158.298 224.2C158.232 226.534 158.07 229.234 157.758 232.372C157.488 235.15 157.098 238.264 156.558 241.756H134.958C134.802 238.756 136.8 224.14 133.584 210.022C135.99 209.609 138.418 209.334 140.856 209.2C143.93 209.038 147.01 209.038 150.084 209.2C152.187 209.39 154.274 209.727 156.33 210.208C156.33 210.208 158.616 212.5 158.298 224.2Z" fill="#0C95EF"/>
<path opacity="0.2" d="M158.298 224.199C158.232 226.533 158.07 229.233 157.758 232.371C155.958 230.523 153.642 227.637 153.87 225.171L158.298 224.199Z" fill="black"/>
<path opacity="0.2" d="M145.956 255.658C140.628 256.624 141.192 275.038 141.834 284.506C143.37 277.81 145.62 264.934 147.156 255.79C146.78 255.62 146.36 255.574 145.956 255.658Z" fill="black"/>
<path d="M156.6 245.416C156.6 245.416 157.164 273.79 156.72 285.358C156.264 297.394 151.764 336.808 151.764 336.808H144.852C144.852 336.808 144.6 298.102 144.294 286.276C143.958 273.388 142.296 245.416 142.296 245.416H156.6Z" fill="#0C95EF"/>
<path d="M158.232 214.402C158.58 215.506 158.988 216.742 159.432 217.9C159.876 219.058 160.308 220.24 160.788 221.38C161.688 223.627 162.782 225.792 164.058 227.848C164.37 228.34 164.7 228.808 165.036 229.252L165.294 229.576C165.178 229.478 165.051 229.393 164.916 229.324C164.609 229.168 164.264 229.099 163.92 229.126C163.683 229.139 163.452 229.209 163.248 229.33C163.056 229.474 163.17 229.444 163.248 229.33C163.398 229.189 163.534 229.034 163.656 228.868C163.988 228.428 164.295 227.97 164.574 227.494C165.774 225.436 166.878 223.054 167.964 220.75L170.904 221.572C170.557 224.314 169.899 227.007 168.942 229.6C168.676 230.313 168.357 231.005 167.988 231.67C167.765 232.061 167.514 232.436 167.238 232.792C166.842 233.314 166.349 233.754 165.786 234.088C165.296 234.369 164.748 234.535 164.184 234.574C163.512 234.616 162.841 234.471 162.246 234.154C161.825 233.926 161.444 233.63 161.118 233.278L160.734 232.858C160.23 232.298 159.762 231.728 159.33 231.148C157.676 228.866 156.268 226.414 155.13 223.834C154.572 222.574 154.038 221.308 153.582 220.024C153.126 218.74 152.682 217.48 152.304 216.064L158.232 214.402Z" fill="#FFC3BD"/>
<path d="M149.892 214.69C147.228 219.616 155.364 227.29 155.364 227.29L163.482 221.71C162.211 218.606 160.717 215.598 159.012 212.71C155.802 207.4 151.926 210.946 149.892 214.69Z" fill="#0C95EF"/>
<path d="M169.908 222.952L173.922 219.838L170.676 216.838C170.676 216.838 167.562 218.638 168 221.542L169.908 222.952Z" fill="#FFC3BD"/>
<path d="M174.624 217.875L172.446 214.863L170.676 216.807L173.922 219.837L174.624 217.875Z" fill="#FFC3BD"/>
<path opacity="0.7" d="M156.6 245.416C156.6 245.416 157.164 273.79 156.72 285.358C156.264 297.394 151.764 336.808 151.764 336.808H144.852C144.852 336.808 144.6 298.102 144.294 286.276C143.958 273.388 142.296 245.416 142.296 245.416H156.6Z" fill="white"/>
<path d="M135.03 241C133.612 245.742 133.121 250.712 133.584 255.64H156.75L156.858 241.24L135.03 241Z" fill="#0C95EF"/>
<path opacity="0.7" d="M135.03 241C133.612 245.742 133.121 250.712 133.584 255.64H156.75L156.858 241.24L135.03 241Z" fill="white"/>
<path d="M140.31 241.541L134.634 241.475L134.484 242.951L140.31 243.005V241.541Z" fill="#263238"/>
<path d="M149.934 241.653L141.186 241.551V243.009L149.934 243.093V241.653Z" fill="#263238"/>
<path d="M150.552 241.66V243.1L156.858 243.154V241.732L150.552 241.66Z" fill="#263238"/>
<path opacity="0.2" d="M145.392 205.486C145.55 205.39 145.717 205.31 145.89 205.246C145.62 205.39 145.434 205.468 145.392 205.486Z" fill="black"/>
</svg>
