<svg width="20" height="20" viewBox="0 0 20 20" fill="none" xmlns="http://www.w3.org/2000/svg">
<path d="M4.55827 7.49935C6.1691 7.49935 7.47493 6.19351 7.47493 4.58268C7.47493 2.97185 6.1691 1.66602 4.55827 1.66602C2.94744 1.66602 1.6416 2.97185 1.6416 4.58268C1.6416 6.19351 2.94744 7.49935 4.55827 7.49935Z" stroke="#667085"/>
<path d="M14.1418 12.5H16.6418C17.5584 12.5 18.3084 13.25 18.3084 14.1667V16.6667C18.3084 17.5833 17.5584 18.3333 16.6418 18.3333H14.1418C13.2251 18.3333 12.4751 17.5833 12.4751 16.6667V14.1667C12.4751 13.25 13.2251 12.5 14.1418 12.5Z" stroke="#667085"/>
<path d="M9.99991 4.16602H12.2332C13.7749 4.16602 14.4916 6.07435 13.3332 7.09102L6.67491 12.916C5.51658 13.9243 6.23325 15.8327 7.76658 15.8327H9.99991" stroke="#667085" stroke-linecap="round" stroke-linejoin="round"/>
<path d="M4.57185 4.58268H4.58148" stroke="#667085" stroke-linecap="round" stroke-linejoin="round"/>
<path d="M15.4051 15.4167H15.4147" stroke="#667085" stroke-linecap="round" stroke-linejoin="round"/>
</svg>
