<svg width="20" height="21" viewBox="0 0 20 21" fill="none" xmlns="http://www.w3.org/2000/svg">
<path d="M19.1667 13.3089V15.134C19.1667 17.1673 17.6834 19.0839 15.6667 19.6422C15.525 19.6755 15.375 19.6755 15.2417 19.6422C14.2584 19.3755 13.3917 18.7756 12.7834 18.0006C12.125 17.1839 11.7417 16.1756 11.7417 15.134V13.3089C11.7417 12.9589 12 12.5755 12.3167 12.4422L14.6334 11.4922C15.1584 11.2839 15.7417 11.2839 16.2667 11.4922L17.1 11.8339L18.5917 12.4422C18.9084 12.5755 19.1667 12.9589 19.1667 13.3089Z" stroke="#20A0F3" stroke-width="1.5" stroke-linecap="round" stroke-linejoin="round"/>
<path d="M17.4583 9.67542L17.0999 11.8337L16.2666 11.492C15.7416 11.2837 15.1582 11.2837 14.6332 11.492L12.3166 12.442C11.9999 12.5754 11.7416 12.9587 11.7416 13.3087V15.1338C11.7416 16.1755 12.1249 17.1837 12.7832 18.0004H5.1499C4.00824 18.0004 2.93325 17.0921 2.74158 15.9671L1.69158 9.67542C1.55824 8.90042 1.9499 7.85873 2.56656 7.36707L8.04991 2.98372C8.89158 2.30872 10.2582 2.30873 11.0999 2.99207L16.5832 7.36707C17.1916 7.85873 17.5916 8.90042 17.4583 9.67542Z" stroke="#20A0F3" stroke-width="1.5" stroke-linecap="round" stroke-linejoin="round"/>
</svg>
