<svg width="21" height="21" viewBox="0 0 21 21" fill="none" xmlns="http://www.w3.org/2000/svg">
<path d="M1.84326 7.99935V5.91602C1.84326 3.84102 3.51826 2.16602 5.59326 2.16602H7.6766" stroke="#667085" stroke-width="1.5" stroke-linecap="round" stroke-linejoin="round"/>
<path d="M12.6768 2.16602H14.7601C16.8351 2.16602 18.5101 3.84102 18.5101 5.91602V7.99935" stroke="#667085" stroke-width="1.5" stroke-linecap="round" stroke-linejoin="round"/>
<path d="M18.5103 13.834V15.084C18.5103 17.159 16.8353 18.834 14.7603 18.834H13.5103" stroke="#667085" stroke-width="1.5" stroke-linecap="round" stroke-linejoin="round"/>
<path d="M7.6766 18.8333H5.59326C3.51826 18.8333 1.84326 17.1583 1.84326 15.0833V13" stroke="#667085" stroke-width="1.5" stroke-linecap="round" stroke-linejoin="round"/>
<path d="M8.92692 6.33398V8.00065C8.92692 8.83398 8.51025 9.25065 7.67692 9.25065H6.01025C5.17692 9.25065 4.76025 8.83398 4.76025 8.00065V6.33398C4.76025 5.50065 5.17692 5.08398 6.01025 5.08398H7.67692C8.51025 5.08398 8.92692 5.50065 8.92692 6.33398Z" stroke="#667085" stroke-width="1.5" stroke-linecap="round" stroke-linejoin="round"/>
<path d="M15.5934 6.33398V8.00065C15.5934 8.83398 15.1768 9.25065 14.3434 9.25065H12.6768C11.8434 9.25065 11.4268 8.83398 11.4268 8.00065V6.33398C11.4268 5.50065 11.8434 5.08398 12.6768 5.08398H14.3434C15.1768 5.08398 15.5934 5.50065 15.5934 6.33398Z" stroke="#667085" stroke-width="1.5" stroke-linecap="round" stroke-linejoin="round"/>
<path d="M8.92692 13V14.6667C8.92692 15.5 8.51025 15.9167 7.67692 15.9167H6.01025C5.17692 15.9167 4.76025 15.5 4.76025 14.6667V13C4.76025 12.1667 5.17692 11.75 6.01025 11.75H7.67692C8.51025 11.75 8.92692 12.1667 8.92692 13Z" stroke="#667085" stroke-width="1.5" stroke-linecap="round" stroke-linejoin="round"/>
<path d="M15.5934 13V14.6667C15.5934 15.5 15.1768 15.9167 14.3434 15.9167H12.6768C11.8434 15.9167 11.4268 15.5 11.4268 14.6667V13C11.4268 12.1667 11.8434 11.75 12.6768 11.75H14.3434C15.1768 11.75 15.5934 12.1667 15.5934 13Z" stroke="#667085" stroke-width="1.5" stroke-linecap="round" stroke-linejoin="round"/>
</svg>
