<svg width="17" height="16" viewBox="0 0 17 16" fill="none" xmlns="http://www.w3.org/2000/svg">
<path d="M8.32667 11.8336H12.2733C12.2133 11.8869 12.1533 11.9336 12.0933 11.9869L9.24666 14.1202C8.30666 14.8202 6.77333 14.8202 5.82667 14.1202L2.97333 11.9869C2.34667 11.5202 1.83333 10.4869 1.83333 9.7069V4.7669C1.83333 3.95356 2.45333 3.05356 3.21333 2.7669L6.53333 1.52023C7.08 1.31357 7.98666 1.31357 8.53333 1.52023L11.8467 2.7669C12.48 3.0069 13.02 3.67357 13.1867 4.35357H8.31999C8.17333 4.35357 8.03999 4.36024 7.91333 4.36024C6.67999 4.43357 6.35999 4.88023 6.35999 6.2869V9.90689C6.36666 11.4402 6.76 11.8336 8.32667 11.8336Z" stroke="#8ACDF9" stroke-linecap="round" stroke-linejoin="round"/>
<path d="M6.36667 7.48047H15.1667" stroke="#8ACDF9" stroke-miterlimit="10" stroke-linecap="round" stroke-linejoin="round"/>
<path d="M15.1667 6.27985V9.97984C15.1533 11.4598 14.7467 11.8265 13.2067 11.8265H8.32667C6.76 11.8265 6.36667 11.4332 6.36667 9.89317V6.27317C6.36667 4.87317 6.68667 4.4265 7.92 4.3465C8.04667 4.3465 8.18 4.33984 8.32667 4.33984H13.2067C14.7733 4.34651 15.1667 4.73318 15.1667 6.27985Z" stroke="#8ACDF9" stroke-linecap="round" stroke-linejoin="round"/>
<path d="M8.04666 10.1738H8.93332" stroke="#8ACDF9" stroke-miterlimit="10" stroke-linecap="round" stroke-linejoin="round"/>
<path d="M10.3333 10.1738H12.5133" stroke="#8ACDF9" stroke-miterlimit="10" stroke-linecap="round" stroke-linejoin="round"/>
</svg>
