<svg width="20" height="21" viewBox="0 0 20 21" fill="none" xmlns="http://www.w3.org/2000/svg">
<path d="M17.425 9.76756C17.425 13.8426 14.4666 17.6592 10.425 18.7759C10.15 18.8509 9.84995 18.8509 9.57495 18.7759C5.53328 17.6592 2.57495 13.8426 2.57495 9.76756V6.10922C2.57495 5.42588 3.09163 4.65088 3.7333 4.39255L8.37494 2.49258C9.41661 2.06758 10.5916 2.06758 11.6333 2.49258L16.275 4.39255C16.9083 4.65088 17.4333 5.42588 17.4333 6.10922L17.425 9.76756Z" stroke="#20A0F3" stroke-width="1.5" stroke-linecap="round" stroke-linejoin="round"/>
<path d="M9.99992 10.9173C10.9204 10.9173 11.6666 10.1711 11.6666 9.25065C11.6666 8.33018 10.9204 7.58398 9.99992 7.58398C9.07944 7.58398 8.33325 8.33018 8.33325 9.25065C8.33325 10.1711 9.07944 10.9173 9.99992 10.9173Z" stroke="#20A0F3" stroke-width="1.5" stroke-miterlimit="10" stroke-linecap="round" stroke-linejoin="round"/>
<path d="M10 10.918V13.418" stroke="#20A0F3" stroke-width="1.5" stroke-miterlimit="10" stroke-linecap="round" stroke-linejoin="round"/>
</svg>
