<svg width="52" height="52" viewBox="0 0 52 52" fill="none" xmlns="http://www.w3.org/2000/svg">
<path d="M22.7284 4.83188L11.9168 8.90521C9.42509 9.83688 7.38843 12.7835 7.38843 15.4269V31.5252C7.38843 34.0819 9.07843 37.4402 11.1368 38.9785L20.4534 45.9335C23.5084 48.2302 28.5351 48.2302 31.5901 45.9335L40.9068 38.9785C42.9651 37.4402 44.6551 34.0819 44.6551 31.5252V15.4269C44.6551 12.7619 42.6184 9.81521 40.1268 8.88354L29.3151 4.83188C27.4734 4.16021 24.5268 4.16021 22.7284 4.83188Z" stroke="#77C5F8" stroke-width="1.5" stroke-linecap="round" stroke-linejoin="round"/>
<path d="M26.0001 27.0827C28.3933 27.0827 30.3334 25.1426 30.3334 22.7493C30.3334 20.3561 28.3933 18.416 26.0001 18.416C23.6068 18.416 21.6667 20.3561 21.6667 22.7493C21.6667 25.1426 23.6068 27.0827 26.0001 27.0827Z" stroke="#77C5F8" stroke-width="1.5" stroke-miterlimit="10" stroke-linecap="round" stroke-linejoin="round"/>
<path d="M26 27.084V33.584" stroke="#77C5F8" stroke-width="1.5" stroke-miterlimit="10" stroke-linecap="round" stroke-linejoin="round"/>
</svg>
