<svg width="20" height="20" viewBox="0 0 20 20" fill="none" xmlns="http://www.w3.org/2000/svg">
<path d="M8.74155 1.85781L4.58322 3.42448C3.62489 3.78281 2.84155 4.91615 2.84155 5.93281V12.1245C2.84155 13.1078 3.49155 14.3995 4.28322 14.9911L7.86655 17.6661C9.04155 18.5495 10.9749 18.5495 12.1499 17.6661L15.7332 14.9911C16.5249 14.3995 17.1749 13.1078 17.1749 12.1245V5.93281C17.1749 4.90781 16.3916 3.77448 15.4332 3.41615L11.2749 1.85781C10.5666 1.59948 9.43322 1.59948 8.74155 1.85781Z" stroke="#667085" stroke-width="1.5" stroke-linecap="round" stroke-linejoin="round"/>
<path d="M9.99992 10.4173C10.9204 10.4173 11.6666 9.67113 11.6666 8.75065C11.6666 7.83018 10.9204 7.08398 9.99992 7.08398C9.07944 7.08398 8.33325 7.83018 8.33325 8.75065C8.33325 9.67113 9.07944 10.4173 9.99992 10.4173Z" stroke="#667085" stroke-width="1.5" stroke-miterlimit="10" stroke-linecap="round" stroke-linejoin="round"/>
<path d="M10 10.416V12.916" stroke="#667085" stroke-width="1.5" stroke-miterlimit="10" stroke-linecap="round" stroke-linejoin="round"/>
</svg>
