<svg width="16" height="16" viewBox="0 0 16 16" fill="none" xmlns="http://www.w3.org/2000/svg">
<rect x="0.2" y="0.2" width="15.6" height="15.6" rx="7.8" fill="#344054"/>
<path d="M9.66665 11.3335H6.33331C6.19665 11.3335 6.08331 11.2202 6.08331 11.0835C6.08331 10.9468 6.19665 10.8335 6.33331 10.8335H9.66665C9.80331 10.8335 9.91665 10.9468 9.91665 11.0835C9.91665 11.2202 9.80331 11.3335 9.66665 11.3335Z" fill="#D0D5DD"/>
<path d="M10.7833 5.84018L9.45001 6.79351C9.27335 6.92018 9.02001 6.84351 8.94335 6.64018L8.31334 4.96018C8.20668 4.67018 7.79668 4.67018 7.69001 4.96018L7.05668 6.63684C6.98001 6.84351 6.73001 6.92018 6.55335 6.79018L5.22001 5.83684C4.95335 5.65018 4.60001 5.91351 4.71001 6.22351L6.09668 10.1068C6.14335 10.2402 6.27001 10.3268 6.41001 10.3268H9.58668C9.72668 10.3268 9.85335 10.2368 9.90001 10.1068L11.2867 6.22351C11.4 5.91351 11.0467 5.65018 10.7833 5.84018ZM8.83334 8.91684H7.16668C7.03001 8.91684 6.91668 8.80351 6.91668 8.66684C6.91668 8.53018 7.03001 8.41684 7.16668 8.41684H8.83334C8.97001 8.41684 9.08334 8.53018 9.08334 8.66684C9.08334 8.80351 8.97001 8.91684 8.83334 8.91684Z" fill="#D0D5DD"/>
<rect x="0.2" y="0.2" width="15.6" height="15.6" rx="7.8" stroke="#D0D5DD" stroke-width="0.4"/>
</svg>
