<svg width="375" height="513" viewBox="0 0 375 513" fill="none" xmlns="http://www.w3.org/2000/svg">
<path d="M284.433 378.999C256.581 402.459 211.649 406.207 171.309 399.478C130.952 392.988 94.9135 376.482 74.7638 349.346C54.8529 322.228 50.8137 284.719 56.1254 250.761C61.42 217.042 76.3215 186.652 100.882 152.15C125.204 117.632 159.441 78.7801 192.034 79.6719C224.628 80.5636 256.055 121.233 279.514 159.171C302.973 197.109 318.685 232.571 320.898 272.11C323.367 311.428 312.303 355.3 284.433 378.999Z" fill="#D3ECFD"/>
<path d="M266.832 174.459L239.472 216.117L238.269 217.954L235.888 219.054L151.203 258.408L159.568 287.074L161.481 293.627L154.851 299.106L97.7182 354.625H50.4414L135.92 283.637L130.742 255.451L129.334 247.778L135.952 244.731L226.205 203.176L255.6 166.811L247.715 165.25L272.502 154.965L271.229 181.774L266.832 174.459Z" fill="#263238"/>
<path opacity="0.6" d="M266.832 174.459L239.472 216.117L238.269 217.954L235.888 219.054L151.203 258.408L159.568 287.074L161.481 293.627L154.851 299.106L97.7182 354.625H50.4414L135.92 283.637L130.742 255.451L129.334 247.778L135.952 244.731L226.205 203.176L255.6 166.811L247.715 165.25L272.502 154.965L271.229 181.774L266.832 174.459Z" fill="#E4E7EC"/>
<path d="M252.529 352.034H207.217C206.771 352.034 206.41 352.395 206.41 352.841V363.17C206.41 363.616 206.771 363.977 207.217 363.977H252.529C252.974 363.977 253.335 363.616 253.335 363.17V352.841C253.335 352.395 252.974 352.034 252.529 352.034Z" fill="#0C95EF"/>
<path opacity="0.2" d="M210.365 352.725H208.509V363.394H210.365V352.725Z" fill="black"/>
<path opacity="0.2" d="M214.583 352.674H213.232V363.343H214.583V352.674Z" fill="black"/>
<path opacity="0.2" d="M218.467 352.725H217.789V363.394H218.467V352.725Z" fill="black"/>
<path opacity="0.2" d="M223.702 352.674H223.363V363.343H223.702V352.674Z" fill="black"/>
<path opacity="0.2" d="M249.379 363.343H251.235V352.674H249.379V363.343Z" fill="black"/>
<path opacity="0.2" d="M245.162 363.394H246.513V352.725H245.162V363.394Z" fill="black"/>
<path opacity="0.2" d="M241.284 363.343H241.956V352.674H241.284V363.343Z" fill="black"/>
<path opacity="0.2" d="M236.042 363.394H236.381V352.725H236.042V363.394Z" fill="black"/>
<path opacity="0.2" d="M229.789 363.394H229.955V352.725H229.789V363.394Z" fill="black"/>
<path opacity="0.2" d="M252.08 353.851H207.76C207.611 353.851 207.468 353.792 207.362 353.687C207.257 353.581 207.197 353.438 207.197 353.288C207.199 353.139 207.259 352.997 207.364 352.892C207.469 352.787 207.612 352.727 207.76 352.725H252.08C252.23 352.725 252.373 352.784 252.479 352.89C252.584 352.996 252.644 353.139 252.644 353.288C252.645 353.362 252.631 353.436 252.603 353.505C252.575 353.574 252.533 353.636 252.481 353.688C252.428 353.741 252.366 353.782 252.297 353.81C252.228 353.838 252.155 353.852 252.08 353.851Z" fill="white"/>
<path d="M253.809 340.124H208.497C208.051 340.124 207.69 340.485 207.69 340.93V351.26C207.69 351.705 208.051 352.066 208.497 352.066H253.809C254.254 352.066 254.615 351.705 254.615 351.26V340.93C254.615 340.485 254.254 340.124 253.809 340.124Z" fill="#0C95EF"/>
<path opacity="0.2" d="M211.645 340.814H209.789V351.483H211.645V340.814Z" fill="black"/>
<path opacity="0.2" d="M215.869 340.764H214.519V351.432H215.869V340.764Z" fill="black"/>
<path opacity="0.2" d="M219.748 340.814H219.076V351.483H219.748V340.814Z" fill="black"/>
<path opacity="0.2" d="M224.983 340.764H224.644V351.432H224.983V340.764Z" fill="black"/>
<path opacity="0.2" d="M250.666 351.426H252.522V340.757H250.666V351.426Z" fill="black"/>
<path opacity="0.2" d="M246.442 351.477H247.792V340.808H246.442V351.477Z" fill="black"/>
<path opacity="0.2" d="M242.557 351.426H243.235V340.757H242.557V351.426Z" fill="black"/>
<path opacity="0.2" d="M237.322 351.477H237.661V340.808H237.322V351.477Z" fill="black"/>
<path opacity="0.2" d="M231.069 351.477H231.235V340.808H231.069V351.477Z" fill="black"/>
<path opacity="0.2" d="M253.361 341.941H209.041C208.892 341.939 208.75 341.879 208.644 341.774C208.539 341.669 208.479 341.527 208.478 341.378C208.478 341.228 208.537 341.085 208.642 340.979C208.748 340.874 208.891 340.814 209.041 340.814H253.361C253.435 340.814 253.509 340.828 253.577 340.856C253.646 340.884 253.708 340.925 253.761 340.978C253.813 341.03 253.855 341.092 253.883 341.161C253.911 341.23 253.925 341.303 253.924 341.378C253.924 341.527 253.865 341.67 253.759 341.776C253.653 341.882 253.51 341.941 253.361 341.941Z" fill="white"/>
<path d="M253.809 328.213H208.497C208.051 328.213 207.69 328.574 207.69 329.019V339.349C207.69 339.794 208.051 340.155 208.497 340.155H253.809C254.254 340.155 254.615 339.794 254.615 339.349V329.019C254.615 328.574 254.254 328.213 253.809 328.213Z" fill="#0C95EF"/>
<path opacity="0.2" d="M211.645 328.898H209.789V339.567H211.645V328.898Z" fill="black"/>
<path opacity="0.2" d="M215.869 328.847H214.519V339.515H215.869V328.847Z" fill="black"/>
<path opacity="0.2" d="M219.748 328.898H219.076V339.567H219.748V328.898Z" fill="black"/>
<path opacity="0.2" d="M224.983 328.847H224.644V339.515H224.983V328.847Z" fill="black"/>
<path opacity="0.2" d="M250.666 339.515H252.522V328.846H250.666V339.515Z" fill="black"/>
<path opacity="0.2" d="M246.442 339.566H247.792V328.898H246.442V339.566Z" fill="black"/>
<path opacity="0.2" d="M242.557 339.515H243.235V328.846H242.557V339.515Z" fill="black"/>
<path opacity="0.2" d="M237.322 339.566H237.661V328.898H237.322V339.566Z" fill="black"/>
<path opacity="0.2" d="M231.069 339.566H231.235V328.898H231.069V339.566Z" fill="black"/>
<path opacity="0.2" d="M253.361 330.024H209.041C208.891 330.024 208.748 329.965 208.642 329.859C208.537 329.754 208.478 329.611 208.478 329.461C208.479 329.312 208.539 329.17 208.644 329.065C208.75 328.959 208.892 328.9 209.041 328.898H253.361C253.51 328.898 253.653 328.957 253.759 329.063C253.865 329.169 253.924 329.312 253.924 329.461C253.925 329.535 253.911 329.609 253.883 329.678C253.855 329.746 253.813 329.809 253.761 329.861C253.708 329.914 253.646 329.955 253.577 329.983C253.509 330.011 253.435 330.025 253.361 330.024Z" fill="white"/>
<path d="M252.529 316.296H207.217C206.771 316.296 206.41 316.657 206.41 317.103V327.432C206.41 327.878 206.771 328.239 207.217 328.239H252.529C252.974 328.239 253.335 327.878 253.335 327.432V317.103C253.335 316.657 252.974 316.296 252.529 316.296Z" fill="#0C95EF"/>
<path opacity="0.2" d="M210.365 316.987H208.509V327.656H210.365V316.987Z" fill="black"/>
<path opacity="0.2" d="M214.583 316.937H213.232V327.605H214.583V316.937Z" fill="black"/>
<path opacity="0.2" d="M218.467 316.987H217.789V327.656H218.467V316.987Z" fill="black"/>
<path opacity="0.2" d="M223.702 316.937H223.363V327.605H223.702V316.937Z" fill="black"/>
<path opacity="0.2" d="M249.379 327.599H251.235V316.93H249.379V327.599Z" fill="black"/>
<path opacity="0.2" d="M245.162 327.649H246.513V316.981H245.162V327.649Z" fill="black"/>
<path opacity="0.2" d="M241.284 327.599H241.956V316.93H241.284V327.599Z" fill="black"/>
<path opacity="0.2" d="M236.042 327.649H236.381V316.981H236.042V327.649Z" fill="black"/>
<path opacity="0.2" d="M229.789 327.649H229.955V316.981H229.789V327.649Z" fill="black"/>
<path opacity="0.2" d="M252.08 318.114H207.76C207.612 318.112 207.469 318.052 207.364 317.947C207.259 317.842 207.199 317.699 207.197 317.551C207.197 317.401 207.257 317.258 207.362 317.152C207.468 317.047 207.611 316.987 207.76 316.987H252.08C252.155 316.986 252.228 317 252.297 317.028C252.366 317.056 252.428 317.098 252.481 317.15C252.533 317.203 252.575 317.265 252.603 317.334C252.631 317.403 252.645 317.476 252.644 317.551C252.644 317.7 252.584 317.843 252.479 317.949C252.373 318.054 252.23 318.114 252.08 318.114Z" fill="white"/>
<path d="M250.609 304.386H205.297C204.851 304.386 204.49 304.747 204.49 305.192V315.522C204.49 315.967 204.851 316.328 205.297 316.328H250.609C251.054 316.328 251.415 315.967 251.415 315.522V305.192C251.415 304.747 251.054 304.386 250.609 304.386Z" fill="#0C95EF"/>
<path opacity="0.2" d="M208.445 305.071H206.589V315.74H208.445V305.071Z" fill="black"/>
<path opacity="0.2" d="M212.663 305.02H211.312V315.688H212.663V305.02Z" fill="black"/>
<path opacity="0.2" d="M216.541 305.071H215.869V315.74H216.541V305.071Z" fill="black"/>
<path opacity="0.2" d="M221.783 305.02H221.443V315.688H221.783V305.02Z" fill="black"/>
<path opacity="0.2" d="M247.459 315.688H249.315V305.019H247.459V315.688Z" fill="black"/>
<path opacity="0.2" d="M243.236 315.739H244.586V305.07H243.236V315.739Z" fill="black"/>
<path opacity="0.2" d="M239.363 315.688H240.035V305.019H239.363V315.688Z" fill="black"/>
<path opacity="0.2" d="M234.129 315.739H234.468V305.07H234.129V315.739Z" fill="black"/>
<path opacity="0.2" d="M227.87 315.739H228.036V305.07H227.87V315.739Z" fill="black"/>
<path opacity="0.2" d="M250.161 306.197H205.841C205.766 306.198 205.693 306.184 205.624 306.156C205.555 306.128 205.493 306.087 205.44 306.034C205.388 305.982 205.347 305.919 205.319 305.851C205.291 305.782 205.277 305.708 205.277 305.634C205.277 305.485 205.337 305.341 205.442 305.236C205.548 305.13 205.691 305.071 205.841 305.071H250.161C250.31 305.071 250.453 305.13 250.559 305.236C250.664 305.341 250.724 305.485 250.724 305.634C250.725 305.708 250.711 305.782 250.683 305.851C250.655 305.919 250.613 305.982 250.561 306.034C250.508 306.087 250.446 306.128 250.377 306.156C250.308 306.184 250.235 306.198 250.161 306.197Z" fill="white"/>
<path d="M252.529 292.469H207.217C206.771 292.469 206.41 292.83 206.41 293.275V303.605C206.41 304.05 206.771 304.411 207.217 304.411H252.529C252.974 304.411 253.335 304.05 253.335 303.605V293.275C253.335 292.83 252.974 292.469 252.529 292.469Z" fill="#0C95EF"/>
<path opacity="0.2" d="M210.365 293.16H208.509V303.829H210.365V293.16Z" fill="black"/>
<path opacity="0.2" d="M214.583 293.109H213.232V303.778H214.583V293.109Z" fill="black"/>
<path opacity="0.2" d="M218.467 293.16H217.789V303.829H218.467V293.16Z" fill="black"/>
<path opacity="0.2" d="M223.702 293.109H223.363V303.778H223.702V293.109Z" fill="black"/>
<path opacity="0.2" d="M249.379 303.771H251.235V293.103H249.379V303.771Z" fill="black"/>
<path opacity="0.2" d="M245.162 303.822H246.513V293.153H245.162V303.822Z" fill="black"/>
<path opacity="0.2" d="M241.284 303.771H241.956V293.103H241.284V303.771Z" fill="black"/>
<path opacity="0.2" d="M236.042 303.822H236.381V293.153H236.042V303.822Z" fill="black"/>
<path opacity="0.2" d="M229.789 303.822H229.955V293.153H229.789V303.822Z" fill="black"/>
<path opacity="0.2" d="M252.08 294.287H207.76C207.611 294.287 207.468 294.227 207.362 294.122C207.257 294.016 207.197 293.873 207.197 293.723C207.197 293.574 207.257 293.431 207.362 293.325C207.468 293.22 207.611 293.16 207.76 293.16H252.08C252.155 293.159 252.228 293.173 252.297 293.201C252.366 293.229 252.428 293.271 252.481 293.323C252.533 293.376 252.575 293.438 252.603 293.507C252.631 293.576 252.645 293.649 252.644 293.723C252.645 293.798 252.631 293.871 252.603 293.94C252.575 294.009 252.533 294.071 252.481 294.124C252.428 294.176 252.366 294.217 252.297 294.245C252.228 294.273 252.155 294.287 252.08 294.287Z" fill="white"/>
<path d="M252.529 280.559H207.217C206.771 280.559 206.41 280.92 206.41 281.365V291.695C206.41 292.14 206.771 292.501 207.217 292.501H252.529C252.974 292.501 253.335 292.14 253.335 291.695V281.365C253.335 280.92 252.974 280.559 252.529 280.559Z" fill="#0C95EF"/>
<path opacity="0.2" d="M210.365 281.243H208.509V291.912H210.365V281.243Z" fill="black"/>
<path opacity="0.2" d="M214.583 281.192H213.232V291.861H214.583V281.192Z" fill="black"/>
<path opacity="0.2" d="M218.467 281.243H217.789V291.912H218.467V281.243Z" fill="black"/>
<path opacity="0.2" d="M223.702 281.192H223.363V291.861H223.702V281.192Z" fill="black"/>
<path opacity="0.2" d="M249.379 291.861H251.235V281.192H249.379V291.861Z" fill="black"/>
<path opacity="0.2" d="M245.162 291.912H246.513V281.243H245.162V291.912Z" fill="black"/>
<path opacity="0.2" d="M241.284 291.861H241.956V281.192H241.284V291.861Z" fill="black"/>
<path opacity="0.2" d="M236.042 291.912H236.381V281.243H236.042V291.912Z" fill="black"/>
<path opacity="0.2" d="M229.789 291.912H229.955V281.243H229.789V291.912Z" fill="black"/>
<path opacity="0.2" d="M252.08 282.376H207.76C207.611 282.374 207.467 282.314 207.362 282.207C207.256 282.1 207.197 281.956 207.197 281.806C207.199 281.658 207.259 281.515 207.364 281.41C207.469 281.305 207.612 281.245 207.76 281.243H252.08C252.23 281.243 252.373 281.303 252.479 281.408C252.584 281.514 252.644 281.657 252.644 281.806C252.644 281.881 252.631 281.955 252.603 282.024C252.575 282.093 252.533 282.156 252.481 282.209C252.429 282.262 252.366 282.304 252.297 282.332C252.229 282.361 252.155 282.376 252.08 282.376Z" fill="white"/>
<path d="M254.448 268.642H209.136C208.691 268.642 208.33 269.003 208.33 269.448V279.778C208.33 280.223 208.691 280.584 209.136 280.584H254.448C254.894 280.584 255.255 280.223 255.255 279.778V269.448C255.255 269.003 254.894 268.642 254.448 268.642Z" fill="#0C95EF"/>
<path opacity="0.2" d="M212.285 269.333H210.429V280.002H212.285V269.333Z" fill="black"/>
<path opacity="0.2" d="M216.51 269.282H215.159V279.951H216.51V269.282Z" fill="black"/>
<path opacity="0.2" d="M220.394 269.333H219.716V280.002H220.394V269.333Z" fill="black"/>
<path opacity="0.2" d="M225.622 269.282H225.283V279.951H225.622V269.282Z" fill="black"/>
<path opacity="0.2" d="M251.306 279.944H253.162V269.276H251.306V279.944Z" fill="black"/>
<path opacity="0.2" d="M247.082 280.002H248.433V269.333H247.082V280.002Z" fill="black"/>
<path opacity="0.2" d="M243.204 279.944H243.876V269.276H243.204V279.944Z" fill="black"/>
<path opacity="0.2" d="M237.962 280.002H238.301V269.333H237.962V280.002Z" fill="black"/>
<path opacity="0.2" d="M231.715 280.002H231.882V269.333H231.715V280.002Z" fill="black"/>
<path opacity="0.2" d="M254 270.44H209.687C209.612 270.441 209.538 270.427 209.469 270.399C209.4 270.371 209.337 270.33 209.284 270.277C209.231 270.225 209.189 270.162 209.161 270.094C209.132 270.025 209.117 269.951 209.117 269.877C209.117 269.802 209.132 269.728 209.161 269.66C209.189 269.591 209.231 269.529 209.284 269.476C209.337 269.424 209.4 269.382 209.469 269.355C209.538 269.327 209.612 269.313 209.687 269.314H254C254.075 269.313 254.149 269.327 254.218 269.355C254.287 269.382 254.35 269.424 254.403 269.476C254.456 269.529 254.498 269.591 254.527 269.66C254.555 269.728 254.57 269.802 254.57 269.877C254.57 269.951 254.555 270.025 254.527 270.094C254.498 270.162 254.456 270.225 254.403 270.277C254.35 270.33 254.287 270.371 254.218 270.399C254.149 270.427 254.075 270.441 254 270.44Z" fill="white"/>
<path d="M251.248 256.731H205.936C205.491 256.731 205.13 257.092 205.13 257.538V267.867C205.13 268.313 205.491 268.674 205.936 268.674H251.248C251.694 268.674 252.055 268.313 252.055 267.867V257.538C252.055 257.092 251.694 256.731 251.248 256.731Z" fill="#0C95EF"/>
<path opacity="0.2" d="M209.085 257.422H207.229V268.091H209.085V257.422Z" fill="black"/>
<path opacity="0.2" d="M213.303 257.365H211.952V268.034H213.303V257.365Z" fill="black"/>
<path opacity="0.2" d="M217.181 257.422H216.509V268.091H217.181V257.422Z" fill="black"/>
<path opacity="0.2" d="M222.423 257.365H222.084V268.034H222.423V257.365Z" fill="black"/>
<path opacity="0.2" d="M248.099 268.034H249.955V257.365H248.099V268.034Z" fill="black"/>
<path opacity="0.2" d="M243.875 268.085H245.226V257.416H243.875V268.085Z" fill="black"/>
<path opacity="0.2" d="M240.004 268.034H240.676V257.365H240.004V268.034Z" fill="black"/>
<path opacity="0.2" d="M234.762 268.085H235.102V257.416H234.762V268.085Z" fill="black"/>
<path opacity="0.2" d="M228.509 268.085H228.676V257.416H228.509V268.085Z" fill="black"/>
<path opacity="0.2" d="M250.8 258.549H206.48C206.331 258.547 206.189 258.487 206.084 258.382C205.979 258.277 205.919 258.134 205.917 257.986C205.917 257.836 205.976 257.693 206.082 257.587C206.188 257.482 206.331 257.422 206.48 257.422H250.8C250.874 257.422 250.948 257.436 251.017 257.464C251.085 257.492 251.148 257.533 251.2 257.585C251.253 257.638 251.294 257.7 251.322 257.769C251.35 257.838 251.364 257.911 251.363 257.986C251.363 258.135 251.304 258.278 251.198 258.384C251.093 258.489 250.95 258.549 250.8 258.549Z" fill="white"/>
<path d="M249.968 244.814H204.656C204.211 244.814 203.85 245.175 203.85 245.621V255.95C203.85 256.396 204.211 256.757 204.656 256.757H249.968C250.413 256.757 250.774 256.396 250.774 255.95V245.621C250.774 245.175 250.413 244.814 249.968 244.814Z" fill="#0C95EF"/>
<path opacity="0.2" d="M207.805 245.506H205.949V256.175H207.805V245.506Z" fill="black"/>
<path opacity="0.2" d="M212.023 245.455H210.673V256.123H212.023V245.455Z" fill="black"/>
<path opacity="0.2" d="M215.908 245.506H215.229V256.175H215.908V245.506Z" fill="black"/>
<path opacity="0.2" d="M221.143 245.455H220.804V256.123H221.143V245.455Z" fill="black"/>
<path opacity="0.2" d="M246.82 256.117H248.676V245.448H246.82V256.117Z" fill="black"/>
<path opacity="0.2" d="M242.596 256.174H243.946V245.506H242.596V256.174Z" fill="black"/>
<path opacity="0.2" d="M238.718 256.117H239.39V245.448H238.718V256.117Z" fill="black"/>
<path opacity="0.2" d="M233.488 256.174H233.827V245.506H233.488V256.174Z" fill="black"/>
<path opacity="0.2" d="M227.229 256.174H227.396V245.506H227.229V256.174Z" fill="black"/>
<path opacity="0.2" d="M249.52 246.632H205.2C205.126 246.633 205.052 246.619 204.983 246.591C204.915 246.563 204.852 246.522 204.8 246.469C204.747 246.417 204.706 246.354 204.678 246.286C204.65 246.217 204.636 246.143 204.637 246.069C204.636 245.995 204.65 245.921 204.678 245.853C204.706 245.784 204.747 245.721 204.8 245.669C204.852 245.616 204.915 245.575 204.983 245.547C205.052 245.519 205.126 245.505 205.2 245.506H249.52C249.594 245.505 249.668 245.519 249.736 245.547C249.805 245.575 249.868 245.616 249.92 245.669C249.973 245.721 250.014 245.784 250.042 245.853C250.07 245.921 250.084 245.995 250.083 246.069C250.084 246.143 250.07 246.217 250.042 246.286C250.014 246.354 249.973 246.417 249.92 246.469C249.868 246.522 249.805 246.563 249.736 246.591C249.668 246.619 249.594 246.633 249.52 246.632Z" fill="white"/>
<path d="M194.897 352.034H149.585C149.139 352.034 148.778 352.395 148.778 352.841V363.17C148.778 363.616 149.139 363.977 149.585 363.977H194.897C195.342 363.977 195.703 363.616 195.703 363.17V352.841C195.703 352.395 195.342 352.034 194.897 352.034Z" fill="#0C95EF"/>
<path opacity="0.2" d="M152.727 352.725H150.871V363.394H152.727V352.725Z" fill="black"/>
<path opacity="0.2" d="M156.951 352.674H155.601V363.343H156.951V352.674Z" fill="black"/>
<path opacity="0.2" d="M160.829 352.725H160.157V363.394H160.829V352.725Z" fill="black"/>
<path opacity="0.2" d="M166.065 352.674H165.726V363.343H166.065V352.674Z" fill="black"/>
<path opacity="0.2" d="M191.748 363.343H193.604V352.674H191.748V363.343Z" fill="black"/>
<path opacity="0.2" d="M187.524 363.394H188.874V352.725H187.524V363.394Z" fill="black"/>
<path opacity="0.2" d="M183.645 363.343H184.317V352.674H183.645V363.343Z" fill="black"/>
<path opacity="0.2" d="M178.41 363.394H178.749V352.725H178.41V363.394Z" fill="black"/>
<path opacity="0.2" d="M172.157 363.394H172.323V352.725H172.157V363.394Z" fill="black"/>
<path opacity="0.2" d="M194.449 353.851H150.129C150.054 353.852 149.981 353.838 149.912 353.81C149.843 353.782 149.781 353.741 149.729 353.688C149.676 353.636 149.635 353.574 149.607 353.505C149.579 353.436 149.565 353.362 149.565 353.288C149.565 353.139 149.625 352.996 149.73 352.89C149.836 352.784 149.979 352.725 150.129 352.725H194.449C194.597 352.727 194.74 352.787 194.845 352.892C194.95 352.997 195.01 353.139 195.012 353.288C195.012 353.438 194.953 353.581 194.847 353.687C194.741 353.792 194.598 353.851 194.449 353.851Z" fill="white"/>
<path d="M192.97 340.124H147.658C147.213 340.124 146.852 340.485 146.852 340.93V351.26C146.852 351.705 147.213 352.066 147.658 352.066H192.97C193.415 352.066 193.776 351.705 193.776 351.26V340.93C193.776 340.485 193.415 340.124 192.97 340.124Z" fill="#0C95EF"/>
<path opacity="0.2" d="M150.807 340.814H148.951V351.483H150.807V340.814Z" fill="black"/>
<path opacity="0.2" d="M155.031 340.764H153.681V351.432H155.031V340.764Z" fill="black"/>
<path opacity="0.2" d="M158.909 340.814H158.237V351.483H158.909V340.814Z" fill="black"/>
<path opacity="0.2" d="M164.145 340.764H163.806V351.432H164.145V340.764Z" fill="black"/>
<path opacity="0.2" d="M189.828 351.426H191.684V340.757H189.828V351.426Z" fill="black"/>
<path opacity="0.2" d="M185.604 351.477H186.954V340.808H185.604V351.477Z" fill="black"/>
<path opacity="0.2" d="M181.725 351.426H182.397V340.757H181.725V351.426Z" fill="black"/>
<path opacity="0.2" d="M176.484 351.477H176.823V340.808H176.484V351.477Z" fill="black"/>
<path opacity="0.2" d="M170.231 351.477H170.397V340.808H170.231V351.477Z" fill="black"/>
<path opacity="0.2" d="M192.522 341.941H148.202C148.053 341.939 147.911 341.879 147.805 341.774C147.7 341.669 147.64 341.527 147.639 341.378C147.639 341.228 147.698 341.085 147.804 340.979C147.909 340.874 148.053 340.814 148.202 340.814H192.522C192.596 340.814 192.67 340.828 192.738 340.856C192.807 340.884 192.87 340.925 192.922 340.978C192.974 341.03 193.016 341.092 193.044 341.161C193.072 341.23 193.086 341.303 193.085 341.378C193.085 341.527 193.026 341.67 192.92 341.776C192.814 341.882 192.671 341.941 192.522 341.941Z" fill="white"/>
<path d="M194.897 328.213H149.585C149.139 328.213 148.778 328.574 148.778 329.019V339.349C148.778 339.794 149.139 340.155 149.585 340.155H194.897C195.342 340.155 195.703 339.794 195.703 339.349V329.019C195.703 328.574 195.342 328.213 194.897 328.213Z" fill="#0C95EF"/>
<path opacity="0.2" d="M152.727 328.898H150.871V339.567H152.727V328.898Z" fill="black"/>
<path opacity="0.2" d="M156.951 328.847H155.601V339.515H156.951V328.847Z" fill="black"/>
<path opacity="0.2" d="M160.829 328.898H160.157V339.567H160.829V328.898Z" fill="black"/>
<path opacity="0.2" d="M166.065 328.847H165.726V339.515H166.065V328.847Z" fill="black"/>
<path opacity="0.2" d="M191.748 339.515H193.604V328.846H191.748V339.515Z" fill="black"/>
<path opacity="0.2" d="M187.524 339.566H188.874V328.898H187.524V339.566Z" fill="black"/>
<path opacity="0.2" d="M183.645 339.515H184.317V328.846H183.645V339.515Z" fill="black"/>
<path opacity="0.2" d="M178.41 339.566H178.749V328.898H178.41V339.566Z" fill="black"/>
<path opacity="0.2" d="M172.157 339.566H172.323V328.898H172.157V339.566Z" fill="black"/>
<path opacity="0.2" d="M194.449 330.024H150.129C150.054 330.025 149.981 330.011 149.912 329.983C149.843 329.955 149.781 329.914 149.729 329.861C149.676 329.809 149.635 329.746 149.607 329.678C149.579 329.609 149.565 329.535 149.565 329.461C149.565 329.312 149.625 329.169 149.73 329.063C149.836 328.957 149.979 328.898 150.129 328.898H194.449C194.597 328.9 194.74 328.959 194.845 329.065C194.95 329.17 195.01 329.312 195.012 329.461C195.012 329.611 194.953 329.754 194.847 329.859C194.741 329.965 194.598 330.024 194.449 330.024Z" fill="white"/>
<path d="M193.61 316.296H148.298C147.852 316.296 147.491 316.657 147.491 317.103V327.432C147.491 327.878 147.852 328.239 148.298 328.239H193.61C194.055 328.239 194.416 327.878 194.416 327.432V317.103C194.416 316.657 194.055 316.296 193.61 316.296Z" fill="#0C95EF"/>
<path opacity="0.2" d="M151.447 316.987H149.591V327.656H151.447V316.987Z" fill="black"/>
<path opacity="0.2" d="M155.671 316.937H154.32V327.605H155.671V316.937Z" fill="black"/>
<path opacity="0.2" d="M159.549 316.987H158.877V327.656H159.549V316.987Z" fill="black"/>
<path opacity="0.2" d="M164.785 316.937H164.445V327.605H164.785V316.937Z" fill="black"/>
<path opacity="0.2" d="M190.467 327.599H192.323V316.93H190.467V327.599Z" fill="black"/>
<path opacity="0.2" d="M186.243 327.649H187.594V316.981H186.243V327.649Z" fill="black"/>
<path opacity="0.2" d="M182.359 327.599H183.037V316.93H182.359V327.599Z" fill="black"/>
<path opacity="0.2" d="M177.124 327.649H177.463V316.981H177.124V327.649Z" fill="black"/>
<path opacity="0.2" d="M170.878 327.649H171.044V316.981H170.878V327.649Z" fill="black"/>
<path opacity="0.2" d="M193.162 318.114H148.849C148.699 318.114 148.555 318.055 148.448 317.949C148.342 317.844 148.281 317.7 148.279 317.551C148.279 317.476 148.294 317.402 148.323 317.334C148.351 317.265 148.394 317.202 148.447 317.15C148.499 317.098 148.562 317.056 148.631 317.028C148.7 317 148.774 316.986 148.849 316.987H193.162C193.237 316.986 193.311 317 193.38 317.028C193.449 317.056 193.512 317.098 193.565 317.15C193.618 317.202 193.66 317.265 193.689 317.334C193.717 317.402 193.732 317.476 193.732 317.551C193.73 317.7 193.67 317.844 193.563 317.949C193.456 318.055 193.312 318.114 193.162 318.114Z" fill="white"/>
<path d="M193.61 304.386H148.298C147.852 304.386 147.491 304.747 147.491 305.192V315.522C147.491 315.967 147.852 316.328 148.298 316.328H193.61C194.055 316.328 194.416 315.967 194.416 315.522V305.192C194.416 304.747 194.055 304.386 193.61 304.386Z" fill="#0C95EF"/>
<path opacity="0.2" d="M151.447 305.071H149.591V315.74H151.447V305.071Z" fill="black"/>
<path opacity="0.2" d="M155.671 305.02H154.32V315.688H155.671V305.02Z" fill="black"/>
<path opacity="0.2" d="M159.549 305.071H158.877V315.74H159.549V305.071Z" fill="black"/>
<path opacity="0.2" d="M164.785 305.02H164.445V315.688H164.785V305.02Z" fill="black"/>
<path opacity="0.2" d="M190.467 315.688H192.323V305.019H190.467V315.688Z" fill="black"/>
<path opacity="0.2" d="M186.243 315.739H187.594V305.07H186.243V315.739Z" fill="black"/>
<path opacity="0.2" d="M182.359 315.688H183.037V305.019H182.359V315.688Z" fill="black"/>
<path opacity="0.2" d="M177.124 315.739H177.463V305.07H177.124V315.739Z" fill="black"/>
<path opacity="0.2" d="M170.878 315.739H171.044V305.07H170.878V315.739Z" fill="black"/>
<path opacity="0.2" d="M193.162 306.197H148.849C148.774 306.198 148.7 306.184 148.631 306.156C148.562 306.128 148.499 306.087 148.447 306.035C148.394 305.982 148.351 305.92 148.323 305.851C148.294 305.782 148.279 305.709 148.279 305.634C148.281 305.484 148.342 305.341 148.448 305.235C148.555 305.13 148.699 305.071 148.849 305.071H193.162C193.312 305.071 193.456 305.13 193.563 305.235C193.67 305.341 193.73 305.484 193.732 305.634C193.732 305.709 193.717 305.782 193.689 305.851C193.66 305.92 193.618 305.982 193.565 306.035C193.512 306.087 193.449 306.128 193.38 306.156C193.311 306.184 193.237 306.198 193.162 306.197Z" fill="white"/>
<path d="M193.61 292.469H148.298C147.852 292.469 147.491 292.83 147.491 293.275V303.605C147.491 304.05 147.852 304.411 148.298 304.411H193.61C194.055 304.411 194.416 304.05 194.416 303.605V293.275C194.416 292.83 194.055 292.469 193.61 292.469Z" fill="#0C95EF"/>
<path opacity="0.2" d="M151.447 293.16H149.591V303.829H151.447V293.16Z" fill="black"/>
<path opacity="0.2" d="M155.671 293.109H154.32V303.778H155.671V293.109Z" fill="black"/>
<path opacity="0.2" d="M159.549 293.16H158.877V303.829H159.549V293.16Z" fill="black"/>
<path opacity="0.2" d="M164.785 293.109H164.445V303.778H164.785V293.109Z" fill="black"/>
<path opacity="0.2" d="M190.467 303.771H192.323V293.103H190.467V303.771Z" fill="black"/>
<path opacity="0.2" d="M186.243 303.822H187.594V293.153H186.243V303.822Z" fill="black"/>
<path opacity="0.2" d="M182.359 303.771H183.037V293.103H182.359V303.771Z" fill="black"/>
<path opacity="0.2" d="M177.124 303.822H177.463V293.153H177.124V303.822Z" fill="black"/>
<path opacity="0.2" d="M170.878 303.822H171.044V293.153H170.878V303.822Z" fill="black"/>
<path opacity="0.2" d="M193.162 294.287H148.849C148.774 294.287 148.7 294.273 148.631 294.246C148.562 294.218 148.499 294.176 148.447 294.124C148.394 294.072 148.351 294.009 148.323 293.94C148.294 293.872 148.279 293.798 148.279 293.723C148.279 293.649 148.294 293.575 148.323 293.506C148.351 293.438 148.394 293.375 148.447 293.323C148.499 293.27 148.562 293.229 148.631 293.201C148.7 293.173 148.774 293.159 148.849 293.16H193.162C193.237 293.159 193.311 293.173 193.38 293.201C193.449 293.229 193.512 293.27 193.565 293.323C193.618 293.375 193.66 293.438 193.689 293.506C193.717 293.575 193.732 293.649 193.732 293.723C193.732 293.798 193.717 293.872 193.689 293.94C193.66 294.009 193.618 294.072 193.565 294.124C193.512 294.176 193.449 294.218 193.38 294.246C193.311 294.273 193.237 294.287 193.162 294.287Z" fill="white"/>
<path d="M194.167 268.514H148.855C148.41 268.514 148.049 268.875 148.049 269.32V279.65C148.049 280.095 148.41 280.456 148.855 280.456H194.167C194.613 280.456 194.974 280.095 194.974 279.65V269.32C194.974 268.875 194.613 268.514 194.167 268.514Z" fill="#0C95EF"/>
<path opacity="0.2" d="M152.003 269.205H150.147V279.874H152.003V269.205Z" fill="black"/>
<path opacity="0.2" d="M156.227 269.154H154.877V279.823H156.227V269.154Z" fill="black"/>
<path opacity="0.2" d="M160.106 269.205H159.434V279.874H160.106V269.205Z" fill="black"/>
<path opacity="0.2" d="M165.341 269.154H165.002V279.823H165.341V269.154Z" fill="black"/>
<path opacity="0.2" d="M191.025 279.816H192.881V269.148H191.025V279.816Z" fill="black"/>
<path opacity="0.2" d="M186.8 279.874H188.15V269.205H186.8V279.874Z" fill="black"/>
<path opacity="0.2" d="M182.922 279.816H183.594V269.148H182.922V279.816Z" fill="black"/>
<path opacity="0.2" d="M177.68 279.874H178.02V269.205H177.68V279.874Z" fill="black"/>
<path opacity="0.2" d="M171.434 279.874H171.601V269.205H171.434V279.874Z" fill="black"/>
<path opacity="0.2" d="M193.719 270.331H149.406C149.331 270.332 149.257 270.318 149.188 270.29C149.119 270.263 149.056 270.221 149.003 270.169C148.95 270.116 148.908 270.054 148.879 269.985C148.851 269.917 148.836 269.843 148.836 269.768C148.838 269.618 148.898 269.475 149.005 269.37C149.112 269.264 149.256 269.205 149.406 269.205H193.719C193.869 269.205 194.013 269.264 194.12 269.37C194.226 269.475 194.287 269.618 194.289 269.768C194.289 269.843 194.274 269.917 194.245 269.985C194.217 270.054 194.174 270.116 194.122 270.169C194.069 270.221 194.006 270.263 193.937 270.29C193.868 270.318 193.794 270.332 193.719 270.331Z" fill="white"/>
<path d="M194.897 280.559H149.585C149.139 280.559 148.778 280.92 148.778 281.365V291.695C148.778 292.14 149.139 292.501 149.585 292.501H194.897C195.342 292.501 195.703 292.14 195.703 291.695V281.365C195.703 280.92 195.342 280.559 194.897 280.559Z" fill="#0C95EF"/>
<path opacity="0.2" d="M152.727 281.243H150.871V291.912H152.727V281.243Z" fill="black"/>
<path opacity="0.2" d="M156.951 281.192H155.601V291.861H156.951V281.192Z" fill="black"/>
<path opacity="0.2" d="M160.829 281.243H160.157V291.912H160.829V281.243Z" fill="black"/>
<path opacity="0.2" d="M166.065 281.192H165.726V291.861H166.065V281.192Z" fill="black"/>
<path opacity="0.2" d="M191.748 291.861H193.604V281.192H191.748V291.861Z" fill="black"/>
<path opacity="0.2" d="M187.524 291.912H188.874V281.243H187.524V291.912Z" fill="black"/>
<path opacity="0.2" d="M183.645 291.861H184.317V281.192H183.645V291.861Z" fill="black"/>
<path opacity="0.2" d="M178.41 291.912H178.749V281.243H178.41V291.912Z" fill="black"/>
<path opacity="0.2" d="M172.157 291.912H172.323V281.243H172.157V291.912Z" fill="black"/>
<path opacity="0.2" d="M194.449 282.376H150.129C150.054 282.376 149.98 282.361 149.912 282.332C149.843 282.304 149.781 282.262 149.728 282.209C149.676 282.156 149.634 282.093 149.606 282.024C149.579 281.955 149.565 281.881 149.565 281.806C149.565 281.657 149.625 281.514 149.73 281.408C149.836 281.303 149.979 281.243 150.129 281.243H194.449C194.597 281.245 194.74 281.305 194.845 281.41C194.95 281.515 195.01 281.658 195.012 281.806C195.012 281.956 194.953 282.1 194.847 282.207C194.742 282.314 194.599 282.374 194.449 282.376Z" fill="white"/>
<path d="M178.052 261.039L176.618 263.842L175.159 266.69L172.605 265.756L173.885 263.253L175.498 260.104L178.052 261.039Z" fill="#FFC2BC"/>
<path opacity="0.2" d="M178.051 261.039L176.618 263.842L173.885 263.253L175.498 260.104L178.051 261.039Z" fill="black"/>
<path d="M233.822 245.186C233.745 245.186 233.67 245.159 233.612 245.108C233.554 245.057 233.517 244.987 233.508 244.911C233.418 244.271 225.009 181.551 214.858 154.031C214.838 153.99 214.826 153.946 214.824 153.901C214.821 153.856 214.829 153.811 214.845 153.769C214.861 153.727 214.886 153.689 214.918 153.658C214.95 153.626 214.988 153.601 215.031 153.585C215.073 153.57 215.118 153.563 215.163 153.566C215.208 153.568 215.252 153.58 215.292 153.601C215.331 153.622 215.366 153.651 215.394 153.687C215.422 153.722 215.442 153.763 215.453 153.807C225.636 181.378 234.058 244.2 234.142 244.84C234.153 244.925 234.13 245.01 234.078 245.079C234.027 245.147 233.951 245.192 233.866 245.205L233.822 245.186Z" fill="#263238"/>
<path d="M217.616 243.381L220.336 243.272L220.867 236.962L218.141 237.071L217.616 243.381Z" fill="#FFC2BC"/>
<path d="M220.593 241.832L217.623 241.736C217.569 241.737 217.516 241.754 217.472 241.786C217.429 241.818 217.396 241.864 217.38 241.916L216.74 244.309C216.725 244.367 216.722 244.427 216.734 244.486C216.745 244.545 216.769 244.6 216.805 244.648C216.841 244.696 216.887 244.736 216.94 244.763C216.993 244.791 217.051 244.807 217.111 244.808C218.186 244.808 219.742 244.808 221.092 244.847C222.666 244.898 223.652 244.847 225.521 244.879C226.634 244.911 226.993 243.797 226.526 243.682C224.414 243.151 223.031 243.247 221.239 242.063C221.049 241.929 220.825 241.849 220.593 241.832Z" fill="#263238"/>
<path opacity="0.2" d="M220.867 236.962L220.592 240.213L217.872 240.328L218.141 237.071L220.867 236.962Z" fill="black"/>
<path d="M216.509 220.52C217.2 221.845 217.252 235.733 217.252 239.259H221.956C222.564 235.605 225.572 215.982 221.316 213.179C216.631 210.088 204.752 211.15 204.752 211.15L203.895 209.416L202.18 205.96L192.349 209.64L190.205 210.434L189.322 210.766H189.245C189.245 210.766 189.245 210.862 189.245 211.029C189.277 211.413 189.367 212.187 189.527 213.154C189.712 214.313 189.973 215.459 190.308 216.584C191.216 219.547 192.829 222.344 195.632 221.41C195.754 221.371 195.876 221.32 195.997 221.269C196.228 221.166 196.477 221.07 196.733 220.974C198.98 220.25 201.304 219.793 203.658 219.611C209.597 219.048 215.984 219.496 216.509 220.52Z" fill="#263238"/>
<path d="M222.166 239.669L216.669 239.816L216.637 238.044L222.678 237.794L222.166 239.669Z" fill="#0C95EF"/>
<path d="M175.633 265.32H172.318C172.264 265.321 172.212 265.339 172.17 265.373C172.128 265.406 172.099 265.453 172.087 265.506L171.524 267.919C171.51 267.977 171.51 268.038 171.524 268.097C171.537 268.155 171.563 268.21 171.601 268.257C171.639 268.304 171.686 268.341 171.741 268.367C171.795 268.393 171.854 268.406 171.914 268.405C172.983 268.405 173.764 268.322 175.114 268.322C175.94 268.322 178.43 268.412 179.594 268.412C180.759 268.412 180.874 267.279 180.426 267.176C178.34 266.722 176.766 266.088 176.1 265.487C176.037 265.429 175.963 265.385 175.883 265.356C175.803 265.328 175.718 265.316 175.633 265.32Z" fill="#263238"/>
<path d="M199.761 210.741L199.191 212.706C198.89 213.755 198.474 215.183 197.988 216.84L196.772 220.981C194.698 227.989 192.062 236.738 190.602 240.891C187.697 249.135 177.975 263.797 177.975 263.797L173.297 262.082C173.297 262.082 180.478 248.271 182.833 239.912C184.478 234.075 187.057 223.586 188.753 216.539L189.566 213.16C189.841 212.008 190.065 211.067 190.206 210.408C190.346 209.749 190.462 209.327 190.462 209.327L192.35 209.615L199.761 210.741Z" fill="#263238"/>
<path d="M178.481 264.104L172.977 262.082L173.597 260.443L179.466 262.223L178.481 264.104Z" fill="#0C95EF"/>
<path opacity="0.2" d="M203.914 209.41L199.761 214.254L199.191 212.706L198.551 211.016L197.969 216.84L190.327 216.59L188.733 216.539L189.546 213.16C189.386 212.194 189.297 211.419 189.265 211.035L189.316 210.747L190.199 210.414C190.365 209.723 190.455 209.333 190.455 209.333L192.343 209.621L202.193 205.96L203.914 209.41Z" fill="black"/>
<path opacity="0.2" d="M203.683 219.618C201.056 219.794 198.469 220.352 196.003 221.275C195.882 221.327 195.76 221.378 195.639 221.416L196.195 218.677C196.195 218.677 200.989 218.453 203.683 219.618Z" fill="black"/>
<path d="M167.939 212.04L166.269 214.255L164.854 211.56C164.854 211.56 166.461 209.672 167.414 210.543L167.939 212.04Z" fill="#FFC2BC"/>
<path d="M163.716 215.266L163.3 212.508L164.855 211.528L166.269 214.255L163.716 215.266Z" fill="#FFC2BC"/>
<path d="M168.394 211.835L167.927 212.072L167.235 210.318L167.978 209.96L168.394 211.835Z" fill="white"/>
<path d="M187.024 195.854C186.781 196.281 186.531 196.691 186.275 197.083C185.631 198.133 184.957 199.165 184.253 200.181L183.671 201.019C183.082 201.864 182.461 202.69 181.795 203.515C181.463 203.925 181.123 204.341 180.746 204.75C180.367 205.179 179.963 205.585 179.536 205.966C177.899 207.36 176.098 208.548 174.173 209.506C172.317 210.465 170.392 211.282 168.413 211.95L167.581 210.082C168.413 209.576 169.277 209.058 170.103 208.52C170.928 207.982 171.767 207.451 172.567 206.888C173.367 206.325 174.154 205.755 174.896 205.16C175.626 204.588 176.319 203.971 176.97 203.31C178.199 201.882 179.305 200.354 180.279 198.741C181.347 197.083 182.698 194.178 183.754 192.52L187.024 195.854Z" fill="#263238"/>
<path opacity="0.2" d="M186.275 197.083C185.631 198.133 184.957 199.165 184.253 200.181C184.324 198.835 184.698 197.522 185.347 196.341C185.733 196.474 186.061 196.736 186.275 197.083Z" fill="black"/>
<path d="M222.973 188.962L221.117 190.69L221.38 192.29C222.058 193.186 223.62 192.079 223.984 191.797C224.042 191.755 224.105 191.718 224.17 191.688L225.156 191.291C225.33 191.219 225.475 191.09 225.566 190.925C225.658 190.76 225.692 190.569 225.661 190.383L225.469 189.205C225.452 189.094 225.412 188.989 225.352 188.894C225.292 188.799 225.214 188.718 225.122 188.654C225.03 188.591 224.926 188.547 224.816 188.525C224.706 188.503 224.593 188.503 224.484 188.527L223.376 188.751C223.224 188.78 223.084 188.853 222.973 188.962Z" fill="#FFC2BC"/>
<path d="M220.688 190.703L221.2 190.575L221.495 192.431L220.688 192.623V190.703Z" fill="white"/>
<path d="M221.117 192.635C219.084 193.066 217.022 193.344 214.948 193.467C212.81 193.633 210.661 193.534 208.548 193.173C207.985 193.065 207.43 192.924 206.884 192.75C206.346 192.584 205.847 192.405 205.348 192.219C204.356 191.854 203.428 191.464 202.461 191.035L201.329 190.523C200.471 190.126 199.626 189.717 198.769 189.288C198.129 188.981 197.533 188.648 196.919 188.315L198.564 184.405C200.324 185.288 202.404 186.485 204.17 187.362C205.828 188.253 207.561 188.998 209.348 189.589C210.244 189.826 211.155 190.003 212.074 190.12C213.021 190.254 213.994 190.338 214.961 190.414C215.927 190.491 216.925 190.536 217.911 190.549C218.897 190.562 219.908 190.594 220.881 190.606L221.117 192.635Z" fill="#263238"/>
<path opacity="0.2" d="M201.309 190.524C200.451 190.127 199.606 189.717 198.749 189.288L198.416 187.471C199.697 188.133 200.716 189.209 201.309 190.524Z" fill="black"/>
<path d="M184.323 192.168C185.381 194.77 186.224 197.454 186.845 200.194C187.306 202.114 188.938 204.034 189.219 205.794C189.488 207.735 189.873 209.659 190.371 211.554C192.323 210.504 198.23 209.205 202.192 207.074C202.358 191.125 198.077 184.904 198.077 184.904C196.99 185.181 195.921 185.525 194.877 185.935L194.186 186.223C192.279 187.122 190.421 188.12 188.618 189.211C188.266 189.423 187.914 189.64 187.574 189.851C185.834 190.991 184.323 192.168 184.323 192.168Z" fill="#0C95EF"/>
<path opacity="0.7" d="M184.323 192.168C185.381 194.77 186.224 197.454 186.845 200.194C187.306 202.114 188.938 204.034 189.219 205.794C189.488 207.735 189.873 209.659 190.371 211.554C192.323 210.504 198.23 209.205 202.192 207.074C202.358 191.125 198.077 184.904 198.077 184.904C196.99 185.181 195.921 185.525 194.877 185.935L194.186 186.223C192.279 187.122 190.421 188.12 188.618 189.211C188.266 189.423 187.914 189.64 187.574 189.851C185.834 190.991 184.323 192.168 184.323 192.168Z" fill="white"/>
<path d="M194.813 191.868L195.056 190.389L194.039 190.325L193.418 191.01L194.813 191.868Z" fill="#0C95EF"/>
<path d="M194.038 190.325C192.157 191.375 190.294 190.152 189.091 189.314L188.963 189.224C189.494 188.488 189.546 187.304 189.373 186.114C189.169 184.799 188.816 183.51 188.323 182.274L192.63 184.744C192.63 185.039 192.579 185.301 192.566 185.532C192.509 186.088 192.502 186.466 192.81 186.709C193.287 186.976 193.832 187.098 194.378 187.061C194.87 187.631 195.331 189.602 194.038 190.325Z" fill="#FFC2BC"/>
<path d="M187.601 189.87C187.601 189.87 193.021 195.528 196.989 198.606C196.989 198.606 196.695 188.603 194.903 185.947L198.589 184.405C198.589 184.405 202.135 192.238 202.641 205.32L204.241 208.616L199.761 213.173L198.321 209.794L197.354 215.4L188.113 216.219L189.245 209.819L183.786 192.539L187.601 189.87Z" fill="#263238"/>
<path d="M194.327 191.567C194.327 191.567 195.607 195.932 195.518 198.261L197.169 199.119L197.463 197.839C197.463 197.839 196.01 192.213 194.673 191.228L194.327 191.567Z" fill="#0C95EF"/>
<path d="M187.792 189.403C187.792 189.403 194.563 196.834 196.957 198.607C196.957 198.607 196.259 188.546 194.704 186.018C194.704 186.018 195.773 185.282 198.051 187.503L196.912 189.615L198.935 191.01C198.935 191.01 198.243 198.549 196.912 202.127C197.009 201.371 197.052 200.61 197.04 199.848L189.098 195.445L189.45 193.013L186.448 192.885C186.448 192.885 186.781 190.011 187.792 189.403Z" fill="#263238"/>
<path opacity="0.2" d="M187.792 189.403C187.792 189.403 194.563 196.834 196.957 198.607C196.957 198.607 196.259 188.546 194.704 186.018C194.704 186.018 195.773 185.282 198.051 187.503L196.912 189.615L198.935 191.01C198.935 191.01 198.243 198.549 196.912 202.127C197.009 201.371 197.052 200.61 197.04 199.848L189.098 195.445L189.45 193.013L186.448 192.885C186.448 192.885 186.781 190.011 187.792 189.403Z" fill="white"/>
<path d="M215.364 154.485C215.364 154.485 211.524 154.05 209.38 155.061C207.236 156.072 205.079 159.368 201.597 159.682C198.116 159.996 197.418 158.863 197.418 158.863C197.418 158.863 200.484 164.303 206.378 164.245C212.272 164.188 215.338 163.215 218.813 165.404C218.826 165.404 216.151 156.181 215.364 154.485Z" fill="#0C95EF"/>
<path opacity="0.2" d="M192.81 186.696C192.452 187.81 191.562 189.384 189.457 189.346C189.335 189.356 189.213 189.356 189.092 189.346L188.964 189.256C189.495 188.52 189.546 187.336 189.373 186.146C190.32 185.533 191.47 185.319 192.573 185.55C192.509 186.075 192.503 186.453 192.81 186.696Z" fill="black"/>
<path d="M194.039 190.325C194.072 191.098 193.907 191.867 193.559 192.559C192.375 192.392 188.835 190.639 188.656 189.173C188.747 188.821 188.939 188.503 189.207 188.258C190.556 189.444 192.249 190.169 194.039 190.325Z" fill="white"/>
<path d="M194.039 190.325C194.698 190.496 195.312 190.808 195.838 191.24C196.17 189.864 194.794 186.555 194.442 186.376C193.868 186.32 193.29 186.418 192.766 186.658C192.766 186.658 194.698 188.462 194.039 190.325Z" fill="white"/>
<path d="M184.56 180.892C184.49 181.986 185.2 184.034 186.429 183.01C187.658 181.986 184.682 179.01 184.56 180.892Z" fill="#263238"/>
<path d="M192.221 180.475C193.014 183.035 193.61 184.52 192.822 186.28C191.632 188.93 188.074 188.924 186.518 186.626C185.123 184.565 184.054 180.699 186.16 178.786C186.625 178.364 187.19 178.066 187.802 177.922C188.413 177.777 189.051 177.79 189.657 177.958C190.262 178.127 190.815 178.446 191.263 178.887C191.711 179.327 192.041 179.873 192.221 180.475Z" fill="#FFC2BC"/>
<path d="M192.631 177.218C192.375 175.541 190.385 175.778 189.22 176.661V179.97C189.669 179.756 190.098 179.501 190.5 179.208C190.5 179.208 190.954 181.685 192.471 182.408C194.404 180.533 194.564 177.64 192.631 177.218Z" fill="#263238"/>
<path d="M194 182.21C194.037 182.882 193.807 183.542 193.36 184.047C192.752 184.687 191.972 184.271 191.748 183.445C191.524 182.619 191.613 181.48 192.388 181.128C192.565 181.054 192.758 181.025 192.949 181.044C193.141 181.063 193.325 181.129 193.484 181.236C193.644 181.343 193.775 181.488 193.865 181.658C193.955 181.828 194.001 182.017 194 182.21Z" fill="#FFC2BC"/>
<path d="M188.65 182.587C188.727 182.792 188.65 182.997 188.541 183.048C188.432 183.099 188.234 182.971 188.157 182.767C188.08 182.562 188.157 182.357 188.266 182.306C188.375 182.255 188.567 182.383 188.65 182.587Z" fill="#263238"/>
<path d="M186.321 183.438C186.404 183.643 186.353 183.848 186.218 183.899C186.084 183.95 185.911 183.822 185.834 183.618C185.758 183.413 185.802 183.208 185.937 183.157C186.071 183.106 186.238 183.234 186.321 183.438Z" fill="#263238"/>
<path d="M187.095 183.272C187.07 183.97 186.947 184.662 186.73 185.326C186.908 185.371 187.093 185.377 187.273 185.344C187.453 185.31 187.624 185.239 187.774 185.134L187.095 183.272Z" fill="#ED893E"/>
<path d="M189.175 185.518L188.912 185.634C188.896 185.64 188.878 185.639 188.863 185.632C188.847 185.624 188.835 185.611 188.829 185.595C188.823 185.579 188.824 185.561 188.831 185.546C188.838 185.53 188.851 185.518 188.868 185.512C189.125 185.424 189.358 185.277 189.548 185.083C189.738 184.888 189.88 184.651 189.962 184.392C189.964 184.384 189.967 184.375 189.971 184.368C189.976 184.361 189.982 184.355 189.989 184.35C189.997 184.345 190.005 184.342 190.013 184.34C190.022 184.339 190.03 184.339 190.039 184.341C190.047 184.342 190.055 184.345 190.062 184.35C190.069 184.355 190.075 184.361 190.079 184.369C190.084 184.376 190.086 184.384 190.087 184.393C190.088 184.401 190.087 184.41 190.084 184.418C190.015 184.653 189.899 184.873 189.743 185.062C189.587 185.251 189.393 185.407 189.175 185.518Z" fill="#263238"/>
<path d="M189.085 181.576C189.065 181.587 189.042 181.593 189.018 181.593C188.995 181.593 188.972 181.587 188.951 181.576C188.817 181.485 188.662 181.426 188.501 181.406C188.34 181.386 188.176 181.405 188.023 181.461C187.992 181.475 187.956 181.475 187.924 181.462C187.892 181.45 187.867 181.425 187.853 181.394C187.84 181.362 187.839 181.327 187.852 181.295C187.864 181.263 187.889 181.238 187.921 181.224C188.112 181.151 188.319 181.125 188.523 181.148C188.726 181.172 188.922 181.244 189.092 181.359C189.12 181.378 189.139 181.407 189.146 181.441C189.153 181.474 189.148 181.509 189.13 181.538C189.118 181.553 189.103 181.566 189.085 181.576Z" fill="#263238"/>
<path d="M185.04 183.01C185.016 183.019 184.988 183.019 184.964 183.01C184.947 183.008 184.93 183.003 184.915 182.996C184.901 182.988 184.887 182.977 184.877 182.964C184.866 182.951 184.858 182.935 184.853 182.919C184.848 182.903 184.847 182.886 184.848 182.869C184.867 182.664 184.934 182.465 185.046 182.291C185.157 182.118 185.309 181.973 185.488 181.871C185.503 181.863 185.52 181.859 185.537 181.857C185.554 181.856 185.571 181.858 185.587 181.864C185.603 181.869 185.618 181.877 185.63 181.889C185.643 181.9 185.654 181.913 185.661 181.928C185.677 181.958 185.681 181.993 185.671 182.025C185.662 182.058 185.64 182.085 185.61 182.101C185.471 182.184 185.355 182.3 185.272 182.438C185.188 182.577 185.139 182.733 185.13 182.895C185.129 182.921 185.119 182.946 185.103 182.966C185.087 182.987 185.065 183.002 185.04 183.01Z" fill="#263238"/>
<path d="M190.442 179.227C190.442 179.227 188.823 180.898 187.242 180.814C187.668 180.621 188.056 180.352 188.388 180.021C188.388 180.021 185.296 181.358 183.773 180.661C182.25 179.963 182.423 179.208 182.423 179.208C182.423 179.208 182.596 179.65 184.074 179.605C184.074 179.605 182.794 178.766 183.312 177.582C183.386 177.724 183.495 177.845 183.628 177.933C183.761 178.022 183.915 178.075 184.074 178.088C184.576 177.316 185.249 176.67 186.042 176.201C186.835 175.733 187.725 175.454 188.644 175.387C191.965 175.01 192.637 176.322 192.784 177.307C192.932 178.293 190.442 179.227 190.442 179.227Z" fill="#263238"/>
<path d="M137.257 352.034H91.9451C91.4997 352.034 91.1387 352.395 91.1387 352.84V363.17C91.1387 363.615 91.4997 363.976 91.9451 363.976H137.257C137.702 363.976 138.063 363.615 138.063 363.17V352.84C138.063 352.395 137.702 352.034 137.257 352.034Z" fill="#0C95EF"/>
<path opacity="0.2" d="M95.0943 352.725H93.2383V363.394H95.0943V352.725Z" fill="black"/>
<path opacity="0.2" d="M99.3113 352.674H97.9609V363.343H99.3113V352.674Z" fill="black"/>
<path opacity="0.2" d="M103.19 352.725H102.518V363.394H103.19V352.725Z" fill="black"/>
<path opacity="0.2" d="M108.425 352.674H108.086V363.343H108.425V352.674Z" fill="black"/>
<path opacity="0.2" d="M134.108 363.342H135.964V352.673H134.108V363.342Z" fill="black"/>
<path opacity="0.2" d="M129.891 363.394H131.241V352.725H129.891V363.394Z" fill="black"/>
<path opacity="0.2" d="M126.006 363.342H126.678V352.673H126.006V363.342Z" fill="black"/>
<path opacity="0.2" d="M120.771 363.394H121.11V352.725H120.771V363.394Z" fill="black"/>
<path opacity="0.2" d="M114.518 363.394H114.685V352.725H114.518V363.394Z" fill="black"/>
<path opacity="0.2" d="M136.809 353.851H92.489C92.4148 353.852 92.3412 353.838 92.2725 353.81C92.2038 353.782 92.1413 353.741 92.0889 353.688C92.0364 353.636 91.9949 353.574 91.9669 353.505C91.9389 353.436 91.925 353.362 91.9258 353.288C91.9258 353.139 91.9852 352.996 92.0908 352.89C92.1964 352.784 92.3396 352.725 92.489 352.725H136.809C136.958 352.725 137.102 352.784 137.207 352.89C137.313 352.996 137.372 353.139 137.372 353.288C137.373 353.362 137.359 353.436 137.331 353.505C137.303 353.574 137.262 353.636 137.209 353.688C137.157 353.741 137.094 353.782 137.026 353.81C136.957 353.838 136.883 353.852 136.809 353.851Z" fill="white"/>
<path d="M137.897 340.124H92.5847C92.1394 340.124 91.7783 340.485 91.7783 340.93V351.26C91.7783 351.705 92.1394 352.066 92.5847 352.066H137.897C138.342 352.066 138.703 351.705 138.703 351.26V340.93C138.703 340.485 138.342 340.124 137.897 340.124Z" fill="#0C95EF"/>
<path opacity="0.2" d="M95.7339 340.814H93.8779V351.483H95.7339V340.814Z" fill="black"/>
<path opacity="0.2" d="M99.952 340.764H98.6016V351.432H99.952V340.764Z" fill="black"/>
<path opacity="0.2" d="M103.83 340.814H103.158V351.483H103.83V340.814Z" fill="black"/>
<path opacity="0.2" d="M109.072 340.764H108.732V351.432H109.072V340.764Z" fill="black"/>
<path opacity="0.2" d="M134.748 351.426H136.604V340.757H134.748V351.426Z" fill="black"/>
<path opacity="0.2" d="M130.525 351.477H131.875V340.808H130.525V351.477Z" fill="black"/>
<path opacity="0.2" d="M126.646 351.426H127.318V340.757H126.646V351.426Z" fill="black"/>
<path opacity="0.2" d="M121.411 351.477H121.75V340.808H121.411V351.477Z" fill="black"/>
<path opacity="0.2" d="M115.158 351.477H115.324V340.808H115.158V351.477Z" fill="black"/>
<path opacity="0.2" d="M137.449 341.941H93.1287C92.9793 341.941 92.836 341.882 92.7304 341.776C92.6248 341.67 92.5655 341.527 92.5655 341.378C92.5646 341.303 92.5786 341.23 92.6066 341.161C92.6346 341.092 92.676 341.03 92.7285 340.978C92.781 340.925 92.8434 340.884 92.9121 340.856C92.9808 340.828 93.0545 340.814 93.1287 340.814H137.449C137.523 340.814 137.596 340.828 137.665 340.856C137.734 340.884 137.796 340.925 137.849 340.978C137.901 341.03 137.943 341.092 137.971 341.161C137.999 341.23 138.013 341.303 138.012 341.378C138.012 341.527 137.953 341.67 137.847 341.776C137.741 341.882 137.598 341.941 137.449 341.941Z" fill="white"/>
<path d="M135.337 328.213H90.0252C89.5798 328.213 89.2188 328.574 89.2188 329.019V339.349C89.2188 339.794 89.5798 340.155 90.0252 340.155H135.337C135.782 340.155 136.144 339.794 136.144 339.349V329.019C136.144 328.574 135.782 328.213 135.337 328.213Z" fill="#0C95EF"/>
<path opacity="0.2" d="M93.1675 328.898H91.3115V339.567H93.1675V328.898Z" fill="black"/>
<path opacity="0.2" d="M97.3914 328.847H96.041V339.515H97.3914V328.847Z" fill="black"/>
<path opacity="0.2" d="M101.27 328.898H100.598V339.567H101.27V328.898Z" fill="black"/>
<path opacity="0.2" d="M106.505 328.847H106.166V339.515H106.505V328.847Z" fill="black"/>
<path opacity="0.2" d="M132.182 339.515H134.038V328.846H132.182V339.515Z" fill="black"/>
<path opacity="0.2" d="M127.971 339.566H129.321V328.898H127.971V339.566Z" fill="black"/>
<path opacity="0.2" d="M124.086 339.515H124.758V328.846H124.086V339.515Z" fill="black"/>
<path opacity="0.2" d="M118.851 339.566H119.19V328.898H118.851V339.566Z" fill="black"/>
<path opacity="0.2" d="M112.598 339.566H112.765V328.898H112.598V339.566Z" fill="black"/>
<path opacity="0.2" d="M134.889 330.024H90.5691C90.4949 330.025 90.4213 330.011 90.3526 329.983C90.2838 329.955 90.2214 329.914 90.1689 329.861C90.1165 329.809 90.075 329.746 90.047 329.678C90.019 329.609 90.005 329.535 90.0059 329.461C90.0059 329.312 90.0652 329.169 90.1709 329.063C90.2765 328.957 90.4197 328.898 90.5691 328.898H134.889C135.038 328.9 135.18 328.959 135.285 329.065C135.391 329.17 135.451 329.312 135.452 329.461C135.452 329.611 135.393 329.754 135.287 329.859C135.182 329.965 135.038 330.024 134.889 330.024Z" fill="white"/>
<path d="M109.814 320.315L108.528 323.483L107.555 325.877L105.11 325.006L105.987 322.856L107.37 319.438L109.814 320.315Z" fill="#E4897B"/>
<path d="M162.063 303.355L159.983 304.898L159.221 303.208L157.455 299.304L159.535 297.755L161.205 301.455L162.063 303.355Z" fill="#E4897B"/>
<path opacity="0.2" d="M107.369 319.438L109.814 320.315L108.527 323.483L105.986 322.856L107.369 319.438Z" fill="black"/>
<path opacity="0.2" d="M161.205 301.455L159.221 303.208L157.455 299.304L159.535 297.755L161.205 301.455Z" fill="black"/>
<path d="M128.162 232.603C128.233 232.802 128.393 232.923 128.521 232.878C128.649 232.834 128.7 232.635 128.63 232.437C128.559 232.238 128.399 232.117 128.271 232.162C128.143 232.206 128.079 232.405 128.162 232.603Z" fill="#263238"/>
<path d="M128.374 232.93C128.822 233.448 129.338 233.903 129.91 234.28C129.811 234.425 129.681 234.546 129.529 234.635C129.378 234.723 129.208 234.777 129.033 234.792L128.374 232.93Z" fill="#DE5753"/>
<path d="M127.055 231.765C127.026 231.774 126.995 231.774 126.966 231.765C126.944 231.743 126.933 231.713 126.933 231.682C126.933 231.651 126.944 231.621 126.966 231.599C127.073 231.437 127.217 231.302 127.386 231.207C127.555 231.111 127.744 231.057 127.938 231.048C127.971 231.05 128.002 231.064 128.025 231.088C128.047 231.112 128.06 231.143 128.06 231.176C128.06 231.193 128.057 231.209 128.05 231.224C128.044 231.24 128.034 231.253 128.022 231.265C128.01 231.276 127.996 231.285 127.98 231.291C127.965 231.296 127.948 231.299 127.932 231.298C127.778 231.304 127.628 231.348 127.494 231.425C127.36 231.502 127.247 231.61 127.164 231.74C127.149 231.751 127.131 231.759 127.112 231.764C127.093 231.768 127.074 231.769 127.055 231.765Z" fill="#263238"/>
<path d="M123.426 235.829C123.458 237.749 123.215 241.244 121.686 242.261C121.686 242.261 121.858 244.245 125.327 244.86C129.167 245.544 127.49 243.292 127.49 243.292C125.5 242.428 125.826 240.892 126.447 239.503L123.426 235.829Z" fill="#E4897B"/>
<path d="M121.443 234.504C122.441 236.872 122.908 238.344 124.572 239.125C127.068 240.341 129.692 238.178 129.391 235.56C129.148 233.199 127.548 229.723 124.835 229.595C124.238 229.565 123.643 229.687 123.106 229.952C122.57 230.216 122.11 230.612 121.77 231.104C121.43 231.596 121.222 232.167 121.165 232.762C121.107 233.357 121.203 233.957 121.443 234.504Z" fill="#E4897B"/>
<path d="M123.133 238.357C124.259 238.811 127.798 236.277 126.589 233.359C126.589 233.359 127.798 231.407 127.363 229.519C126.928 227.63 125.507 227.061 124.163 227.675C122.973 228.213 123.101 228.885 123.101 228.885C123.101 228.885 117.341 230.395 118.915 232.603C116.886 235.522 121.718 237.8 123.133 238.357Z" fill="#263238"/>
<path d="M125.641 234.024C125.895 234.611 126.333 235.098 126.889 235.413C127.632 235.816 128.061 235.253 127.907 234.504C127.753 233.755 127.222 232.808 126.454 232.712C125.686 232.616 125.347 233.32 125.641 234.024Z" fill="#E4897B"/>
<path d="M120.764 242.28C120.495 241.743 120.201 241.128 120.853 240.962C121.506 240.796 126.14 240.527 127.465 240.962C127.029 241.685 127.701 242.607 127.701 242.607L120.764 242.28Z" fill="#0C95EF"/>
<path opacity="0.5" d="M120.764 242.28C120.495 241.743 120.201 241.128 120.853 240.962C121.506 240.796 126.14 240.527 127.465 240.962C127.029 241.685 127.701 242.607 127.701 242.607L120.764 242.28Z" fill="#FAFAFA"/>
<path d="M107.721 324.84H104.892C104.841 324.841 104.791 324.859 104.751 324.891C104.712 324.924 104.685 324.969 104.674 325.02L104.162 327.324C104.149 327.379 104.148 327.437 104.16 327.493C104.172 327.549 104.198 327.602 104.233 327.646C104.269 327.691 104.315 327.726 104.367 327.75C104.419 327.774 104.476 327.786 104.534 327.784C105.551 327.784 107.03 327.708 108.31 327.708C109.814 327.708 111.106 327.791 112.866 327.791C113.935 327.791 114.23 326.716 113.782 326.62C111.753 326.172 110.102 326.127 108.348 325.045C108.161 324.921 107.945 324.85 107.721 324.84Z" fill="#263238"/>
<path d="M126.026 265.16C126.026 265.16 125.219 270.594 124.24 276.84C123.811 279.515 123.35 282.338 122.896 284.949C122.39 287.874 121.898 290.523 121.488 292.392C119.702 300.52 110.224 322.92 110.224 322.92L105.584 321.915C105.584 321.915 112.214 304.488 113.693 293.115C114.838 284.392 117.085 265.154 117.085 265.154L126.026 265.16Z" fill="#263238"/>
<path d="M111.331 321.365L110.467 323.042L105.244 321.909L105.679 320.36L111.331 321.365Z" fill="#0C95EF"/>
<path opacity="0.3" d="M111.331 321.365L110.467 323.042L105.244 321.909L105.679 320.36L111.331 321.365Z" fill="black"/>
<path opacity="0.2" d="M124.239 276.84C123.811 279.515 123.35 282.338 122.895 284.949C121.615 279.784 122.031 276.693 122.031 276.693L124.239 276.84Z" fill="black"/>
<path d="M118.441 247.023C117.193 248.2 115.881 249.448 114.691 250.696C113.488 251.918 112.347 253.2 111.273 254.536C110.815 255.198 110.402 255.891 110.038 256.61C109.641 257.384 109.238 258.171 108.854 258.978L106.505 263.829L104.662 263.189C105.059 261.391 105.565 259.637 106.115 257.877C106.403 257 106.71 256.123 107.049 255.247C107.407 254.304 107.846 253.393 108.361 252.527C109.401 250.94 110.57 249.441 111.856 248.047C113.099 246.651 114.424 245.33 115.824 244.091L118.441 247.023Z" fill="#DC897C"/>
<path d="M104.508 267.925L105.449 266.255L102.582 265.384C102.42 265.771 102.341 266.187 102.35 266.606C102.359 267.025 102.455 267.437 102.633 267.816L104.508 267.925Z" fill="#E4897B"/>
<path d="M106.499 263.803L104.662 263.208L102.582 265.384L105.449 266.254L106.499 263.803Z" fill="#E4897B"/>
<path d="M162.031 303.003L159.695 304.738C159.655 304.769 159.625 304.813 159.613 304.863C159.6 304.913 159.604 304.966 159.625 305.013L160.585 307.17C160.608 307.222 160.642 307.269 160.686 307.306C160.73 307.344 160.782 307.37 160.838 307.384C160.894 307.397 160.952 307.398 161.008 307.385C161.064 307.372 161.116 307.347 161.161 307.31C161.967 306.67 162.332 306.35 163.356 305.589C163.996 305.122 165.455 304.091 166.332 303.445C167.209 302.798 166.678 301.845 166.262 302.037C164.399 302.875 163.324 302.965 162.467 302.882C162.311 302.868 162.157 302.911 162.031 303.003Z" fill="#263238"/>
<path d="M117.327 242.523C114.838 242.37 111.164 247.752 111.164 247.752L114.786 252.699C116.376 251.772 117.699 250.449 118.626 248.859C120.348 245.954 119.868 242.683 117.327 242.523Z" fill="#0C95EF"/>
<path opacity="0.6" d="M117.327 242.523C114.838 242.37 111.164 247.752 111.164 247.752L114.786 252.699C116.376 251.772 117.699 250.449 118.626 248.859C120.348 245.954 119.868 242.683 117.327 242.523Z" fill="#FAFAFA"/>
<path opacity="0.2" d="M118.032 247.49C116.4 248.367 115.312 250.523 114.627 252.475L114.787 252.699C116.377 251.772 117.7 250.449 118.627 248.859C118.729 248.693 118.825 248.514 118.915 248.341L118.032 247.49Z" fill="black"/>
<path d="M132.06 242.126C132.06 242.126 133.551 245.877 130.94 265.166H117.084C116.988 263.035 118.326 252.654 116.271 242.632C117.804 242.335 119.354 242.138 120.911 242.043C122.684 241.96 128.591 240.763 130.153 240.91C132.207 241.09 132.06 242.126 132.06 242.126Z" fill="#0C95EF"/>
<path opacity="0.6" d="M132.387 250.632C132.22 254.043 131.804 258.741 130.94 265.16H117.084C116.988 263.029 118.326 252.648 116.271 242.626C117.804 242.328 119.354 242.132 120.911 242.037C122.684 241.954 128.591 240.757 130.153 240.904C132.207 241.09 132.073 242.127 132.073 242.127C132.073 242.127 132.387 242.914 132.47 245.621C132.502 246.856 132.495 248.488 132.387 250.632Z" fill="#FAFAFA"/>
<path d="M130.378 264.04L133.117 270.44C133.117 270.44 146.384 272.104 150.147 276.667C153.91 281.23 161.027 299.746 161.027 299.746L157.482 302.76C157.482 302.76 147.306 284.046 144.458 281.787C141.61 279.528 125.398 279.534 121.776 278.184C118.154 276.834 117.11 265.141 117.11 265.141L130.378 264.04Z" fill="#263238"/>
<path d="M156.726 302.408L161.001 299.131L161.551 300.187L157.455 303.419L156.726 302.408Z" fill="#0C95EF"/>
<path opacity="0.3" d="M156.726 302.408L161.001 299.131L161.551 300.187L157.455 303.419L156.726 302.408Z" fill="black"/>
<path d="M127.439 230.44C127.439 230.44 127.279 226.638 125.27 226.51C123.26 226.382 121.679 228.2 121.679 228.2C121.485 227.957 121.238 227.761 120.958 227.626C120.678 227.491 120.371 227.42 120.06 227.419C118.921 227.355 116.937 229.294 116.937 229.294C116.937 229.294 119.414 227.771 120.457 228.469C120.457 228.469 117.647 229.25 116.937 231.029C116.632 231.933 116.129 232.757 115.465 233.442H116.937L115.97 235.086C115.97 235.086 118.006 237.051 119.542 236.725L119.049 237.659C119.049 237.659 122.063 238.76 123.292 238.421C124.521 238.082 123.356 231.963 123.356 231.963L127.439 230.44Z" fill="#263238"/>
<path opacity="0.2" d="M132.387 250.632C129.872 248.923 129.91 244.987 129.91 244.987L132.47 245.627C132.502 246.856 132.496 248.488 132.387 250.632Z" fill="black"/>
<path d="M109.187 270.063L92.0923 267.189L87.6699 280.347L90.4987 285.487L109.161 287.944L112.944 273.608L109.187 270.063Z" fill="#0C95EF"/>
<path opacity="0.4" d="M87.6699 280.347L88.7707 282.351L89.0203 282.792L90.4987 285.487L109.161 287.944L112.944 273.608L111.337 272.098L110.844 271.631L109.193 270.063L92.0923 267.189L87.6699 280.347Z" fill="black"/>
<path opacity="0.2" d="M112.944 273.608L96.0224 270.978L92.0928 267.189L109.194 270.063L112.944 273.608Z" fill="white"/>
<path opacity="0.1" d="M96.0219 270.978L90.4987 285.487L87.6699 280.347L92.0923 267.189L96.0219 270.978Z" fill="white"/>
<path d="M88.7705 282.351L89.0201 282.792L94.1337 269.205L111.337 272.098L110.844 271.631L93.8265 268.904L88.7705 282.351Z" fill="#263238"/>
<path d="M105.565 270.843L104.701 270.043L100.394 269.263L101.149 270.133L105.565 270.843Z" fill="#263238"/>
<path d="M107.228 271.164C107.228 271.164 107.426 266.645 107.305 266.344C107.183 266.044 101.122 265.064 100.668 264.968C100.214 264.872 98.2168 269.276 98.2168 269.276L98.5624 269.807L99.708 269.96C99.708 269.96 101.161 266.165 101.308 266.069C102.969 266.246 104.618 266.515 106.249 266.876C106.377 266.978 105.878 270.428 105.878 270.428L106.268 270.991L107.228 271.164Z" fill="#263238"/>
<path d="M88.8281 278.344L90.1081 279.989L90.2297 279.663L91.1961 277.103L91.3113 276.796L91.5161 276.245C91.5161 276.245 91.1513 276.655 90.6521 277.122C90.1345 277.65 89.5136 278.066 88.8281 278.344Z" fill="#0C95EF"/>
<path opacity="0.2" d="M89.2441 278.466L90.1977 279.663L91.1641 277.103L91.2793 276.795C90.7489 277.511 90.0498 278.085 89.2441 278.466Z" fill="white"/>
<path opacity="0.2" d="M90.6201 277.115H91.1641L91.4841 276.258C91.4841 276.258 91.1193 276.648 90.6201 277.115Z" fill="black"/>
<path d="M88.3608 275.125L88.124 277.442C89.0805 277.005 90.1454 276.862 91.1832 277.032L91.3048 276.712L92.0472 274.722L92.1304 274.517C90.8425 274.39 89.5436 274.6 88.3608 275.125Z" fill="#0C95EF"/>
<path d="M90.793 271.195C91.2401 272.067 91.8283 272.858 92.5338 273.538L92.6234 273.295L92.8538 272.655L93.2378 271.599L93.4234 271.087L93.4746 270.939C93.168 270.47 92.9025 269.976 92.681 269.461L90.793 271.195Z" fill="#0C95EF"/>
<path d="M94.71 268.213C94.9434 268.578 95.1243 268.975 95.2476 269.39L95.5164 269.435L95.8876 269.493L96.4828 269.602L97.0524 269.698L97.2508 269.73C97.2407 268.841 96.9087 267.986 96.3164 267.323L94.71 268.213Z" fill="#0C95EF"/>
<path opacity="0.2" d="M95.0684 268.277C95.2594 268.646 95.4096 269.034 95.5164 269.435L95.8876 269.493C95.8562 269.444 95.836 269.389 95.8282 269.331C95.8205 269.274 95.8254 269.215 95.8428 269.16C95.8594 269.11 95.8859 269.063 95.9206 269.022C95.9554 268.982 95.9979 268.949 96.0454 268.925C96.093 268.902 96.1449 268.888 96.198 268.884C96.2511 268.88 96.3043 268.887 96.3548 268.904C96.4051 268.92 96.4517 268.946 96.4919 268.98C96.5321 269.014 96.5651 269.056 96.5889 269.103C96.6128 269.15 96.627 269.202 96.6307 269.254C96.6345 269.307 96.6277 269.36 96.6108 269.41C96.5874 269.485 96.5429 269.551 96.4828 269.602L97.0524 269.698C97.0186 268.945 96.7575 268.219 96.3036 267.618L95.0684 268.277Z" fill="white"/>
<path opacity="0.2" d="M88.5144 275.215L88.3672 277.09C89.3121 276.772 90.3103 276.644 91.3048 276.712L92.0472 274.722C90.8468 274.576 89.6291 274.746 88.5144 275.215ZM90.5688 275.061C90.6457 275.034 90.7276 275.026 90.8084 275.036C90.8891 275.046 90.9665 275.074 91.0345 275.119C91.1025 275.164 91.1594 275.223 91.2007 275.293C91.242 275.363 91.2666 275.442 91.2727 275.523C91.2788 275.604 91.2662 275.686 91.2358 275.761C91.2054 275.837 91.1581 275.904 91.0975 275.959C91.0369 276.013 90.9646 276.053 90.8863 276.075C90.8079 276.096 90.7256 276.1 90.6456 276.085C90.5687 276.112 90.4868 276.121 90.406 276.111C90.3253 276.101 90.2479 276.072 90.1799 276.027C90.1118 275.983 90.055 275.923 90.0137 275.853C89.9724 275.783 89.9477 275.704 89.9416 275.623C89.9356 275.542 89.9482 275.46 89.9786 275.385C90.009 275.31 90.0563 275.242 90.1169 275.188C90.1775 275.133 90.2497 275.094 90.3281 275.072C90.4065 275.05 90.4888 275.046 90.5688 275.061Z" fill="white"/>
<path opacity="0.2" d="M91.1191 271.298C91.5399 272.021 92.0447 272.691 92.6231 273.295L92.8535 272.655C92.7227 272.602 92.6175 272.5 92.5602 272.371C92.5028 272.242 92.4979 272.096 92.5463 271.964C92.5866 271.832 92.6746 271.72 92.793 271.65C92.9115 271.581 93.0518 271.558 93.1863 271.586L93.3719 271.074C93.0468 270.714 92.783 270.303 92.5911 269.858L91.1191 271.298Z" fill="white"/>
<path d="M148.387 230.031L149.372 228.386L151.548 230.447C151.292 230.778 150.97 231.052 150.602 231.251C150.234 231.451 149.828 231.571 149.411 231.605L148.387 230.031Z" fill="#E4897B"/>
<path d="M150.895 226.184L152.438 228.354L151.548 230.446L149.372 228.386L150.895 226.184Z" fill="#E4897B"/>
<path d="M131.356 241.231C133.128 240.867 134.879 240.415 136.604 239.874C138.267 239.381 139.862 238.684 141.353 237.8C141.489 237.715 141.62 237.621 141.744 237.519L142.185 237.109C142.492 236.815 142.825 236.469 143.113 236.162C143.721 235.484 144.348 234.786 144.95 234.069C146.185 232.648 147.388 231.17 148.63 229.73L150.249 230.805C149.36 232.54 148.374 234.191 147.331 235.836C146.8 236.648 146.256 237.468 145.654 238.268C145.353 238.664 145.014 239.068 144.694 239.471C144.528 239.669 144.316 239.874 144.131 240.079C143.902 240.305 143.66 240.519 143.408 240.719C141.708 241.938 139.839 242.9 137.859 243.573C135.966 244.258 134.017 244.778 132.035 245.128L131.356 241.231Z" fill="#DC897C"/>
<path d="M130.53 246.824C133.225 249.16 139.145 245.154 139.145 245.154L136.783 239.323C134.611 239.577 132.468 240.037 130.383 240.699C126.639 241.973 128.47 245.045 130.53 246.824Z" fill="#0C95EF"/>
<path opacity="0.6" d="M130.53 246.824C133.225 249.16 139.145 245.154 139.145 245.154L136.783 239.323C134.611 239.577 132.468 240.037 130.383 240.699C126.639 241.973 128.47 245.045 130.53 246.824Z" fill="#FAFAFA"/>
</svg>
