<svg width="20" height="20" viewBox="0 0 20 20" fill="none" xmlns="http://www.w3.org/2000/svg">
<path d="M12.825 4.34199L14 6.69199C14.1583 7.01699 14.5833 7.32532 14.9417 7.39198L17.0667 7.74198C18.425 7.96698 18.7417 8.95032 17.7667 9.93365L16.1083 11.592C15.8333 11.867 15.675 12.4087 15.7667 12.8003L16.2417 14.8503C16.6167 16.467 15.75 17.1003 14.325 16.2503L12.3333 15.067C11.975 14.8503 11.375 14.8503 11.0167 15.067L9.025 16.2503C7.6 17.092 6.73334 16.467 7.10834 14.8503L7.58335 12.8003C7.67502 12.417 7.51668 11.8753 7.24168 11.592L5.58336 9.93365C4.60836 8.95865 4.92502 7.97531 6.28335 7.74198L8.40834 7.39198C8.76668 7.33365 9.19168 7.01699 9.35001 6.69199L10.525 4.34199C11.15 3.06699 12.1834 3.06699 12.825 4.34199Z" stroke="#98A2B3" stroke-width="1.5" stroke-linecap="round" stroke-linejoin="round"/>
<path d="M6.66666 4.16699H1.66666" stroke="#98A2B3" stroke-width="1.5" stroke-linecap="round" stroke-linejoin="round"/>
<path d="M4.16666 15.833H1.66666" stroke="#98A2B3" stroke-width="1.5" stroke-linecap="round" stroke-linejoin="round"/>
<path d="M2.5 10H1.66666" stroke="#98A2B3" stroke-width="1.5" stroke-linecap="round" stroke-linejoin="round"/>
</svg>
