<svg width="375" height="513" viewBox="0 0 375 513" fill="none" xmlns="http://www.w3.org/2000/svg">
<path d="M284.433 378.997C256.581 402.457 211.649 406.205 171.309 399.476C130.952 392.986 94.9135 376.48 74.7638 349.344C54.8529 322.226 50.8137 284.717 56.1254 250.759C61.42 217.04 76.3215 186.65 100.882 152.148C125.204 117.63 159.441 78.7782 192.034 79.6699C224.628 80.5617 256.055 121.231 279.514 159.169C302.973 197.107 318.685 232.569 320.898 272.109C323.367 311.426 312.303 355.298 284.433 378.997Z" fill="#D3ECFD"/>
<circle cx="191" cy="255" r="70" fill="#20A0F3"/>
<mask id="mask0_1793_30867" style="mask-type:alpha" maskUnits="userSpaceOnUse" x="149" y="223" width="82" height="65">
<path d="M158.802 250.494L149 260.296L176.493 287.79L231 233.28L220.72 223L176.015 267.707L158.802 250.494Z" fill="black"/>
</mask>
<g mask="url(#mask0_1793_30867)">
<rect width="82.1581" height="15.2145" transform="matrix(0.707091 -0.707122 0.707091 0.707122 164.325 279.398)" fill="#D3ECFD"/>
<rect width="60.0126" height="15.2145" transform="matrix(0.707091 0.707122 -0.707091 0.707122 149.562 240.488)" fill="#D3ECFD"/>
</g>
</svg>
