<svg width="20" height="20" viewBox="0 0 20 20" fill="none" xmlns="http://www.w3.org/2000/svg">
<path d="M10.0001 1.66602C5.40841 1.66602 1.66675 5.40768 1.66675 9.99935C1.66675 14.591 5.40841 18.3327 10.0001 18.3327C14.5917 18.3327 18.3334 14.591 18.3334 9.99935C18.3334 5.40768 14.5917 1.66602 10.0001 1.66602ZM13.9834 8.08268L9.25841 12.8077C9.14175 12.9243 8.98342 12.991 8.81675 12.991C8.65008 12.991 8.49175 12.9243 8.37508 12.8077L6.01675 10.4493C5.77508 10.2077 5.77508 9.80768 6.01675 9.56602C6.25841 9.32435 6.65841 9.32435 6.90008 9.56602L8.81675 11.4827L13.1001 7.19935C13.3417 6.95768 13.7417 6.95768 13.9834 7.19935C14.2251 7.44102 14.2251 7.83268 13.9834 8.08268Z" fill="#47B0F5"/>
</svg>
