<svg width="24" height="25" viewBox="0 0 24 25" fill="none" xmlns="http://www.w3.org/2000/svg">
<path d="M16.19 2.82227H7.81C4.17 2.82227 2 4.99227 2 8.63227V17.0023C2 20.6523 4.17 22.8223 7.81 22.8223H16.18C19.82 22.8223 21.99 20.6523 21.99 17.0123V8.63227C22 4.99227 19.83 2.82227 16.19 2.82227ZM7.63 18.9723C7.63 19.3823 7.29 19.7223 6.88 19.7223C6.47 19.7223 6.13 19.3823 6.13 18.9723V16.9023C6.13 16.4923 6.47 16.1523 6.88 16.1523C7.29 16.1523 7.63 16.4923 7.63 16.9023V18.9723ZM12.75 18.9723C12.75 19.3823 12.41 19.7223 12 19.7223C11.59 19.7223 11.25 19.3823 11.25 18.9723V14.8223C11.25 14.4123 11.59 14.0723 12 14.0723C12.41 14.0723 12.75 14.4123 12.75 14.8223V18.9723ZM17.87 18.9723C17.87 19.3823 17.53 19.7223 17.12 19.7223C16.71 19.7223 16.37 19.3823 16.37 18.9723V12.7523C16.37 12.3423 16.71 12.0023 17.12 12.0023C17.53 12.0023 17.87 12.3423 17.87 12.7523V18.9723ZM17.87 9.59227C17.87 10.0023 17.53 10.3423 17.12 10.3423C16.71 10.3423 16.37 10.0023 16.37 9.59227V8.62227C13.82 11.2423 10.63 13.0923 7.06 13.9823C7 14.0023 6.94 14.0023 6.88 14.0023C6.54 14.0023 6.24 13.7723 6.15 13.4323C6.05 13.0323 6.29 12.6223 6.7 12.5223C10.07 11.6823 13.07 9.91227 15.45 7.41227H14.2C13.79 7.41227 13.45 7.07227 13.45 6.66227C13.45 6.25227 13.79 5.91227 14.2 5.91227H17.13C17.17 5.91227 17.2 5.93227 17.24 5.93227C17.29 5.94227 17.34 5.94227 17.39 5.96227C17.44 5.98227 17.48 6.01227 17.53 6.04227C17.56 6.06227 17.59 6.07227 17.62 6.09227C17.63 6.10227 17.63 6.11227 17.64 6.11227C17.68 6.15227 17.71 6.19227 17.74 6.23227C17.77 6.27227 17.8 6.30227 17.81 6.34227C17.83 6.38227 17.83 6.42227 17.84 6.47227C17.85 6.52227 17.87 6.57227 17.87 6.63227C17.87 6.64227 17.88 6.65227 17.88 6.66227V9.59227H17.87Z" fill="#20A0F3"/>
</svg>
