<svg width="32" height="32" viewBox="0 0 32 32" fill="none" xmlns="http://www.w3.org/2000/svg">
<path d="M20 12.7735C19.96 12.7668 19.9133 12.7668 19.8733 12.7735C18.9533 12.7402 18.22 11.9868 18.22 11.0535C18.22 10.1002 18.9866 9.3335 19.94 9.3335C20.8933 9.3335 21.66 10.1068 21.66 11.0535C21.6533 11.9868 20.92 12.7402 20 12.7735Z" stroke="#20A0F3" stroke-linecap="round" stroke-linejoin="round"/>
<path d="M19.3135 17.6269C20.2269 17.7803 21.2335 17.6203 21.9402 17.1469C22.8802 16.5203 22.8802 15.4936 21.9402 14.8669C21.2269 14.3936 20.2069 14.2336 19.2935 14.3936" stroke="#20A0F3" stroke-linecap="round" stroke-linejoin="round"/>
<path d="M11.9803 12.7735C12.0203 12.7668 12.0669 12.7668 12.1069 12.7735C13.0269 12.7402 13.7603 11.9868 13.7603 11.0535C13.7603 10.1002 12.9936 9.3335 12.0403 9.3335C11.0869 9.3335 10.3203 10.1068 10.3203 11.0535C10.3269 11.9868 11.0603 12.7402 11.9803 12.7735Z" stroke="#20A0F3" stroke-linecap="round" stroke-linejoin="round"/>
<path d="M12.6669 17.6269C11.7536 17.7803 10.7469 17.6203 10.0403 17.1469C9.10027 16.5203 9.10027 15.4936 10.0403 14.8669C10.7536 14.3936 11.7736 14.2336 12.6869 14.3936" stroke="#20A0F3" stroke-linecap="round" stroke-linejoin="round"/>
<path d="M16 17.7535C15.96 17.7468 15.9134 17.7468 15.8734 17.7535C14.9534 17.7201 14.22 16.9668 14.22 16.0335C14.22 15.0801 14.9867 14.3135 15.94 14.3135C16.8934 14.3135 17.66 15.0868 17.66 16.0335C17.6534 16.9668 16.92 17.7268 16 17.7535Z" stroke="#20A0F3" stroke-linecap="round" stroke-linejoin="round"/>
<path d="M14.0598 19.8532C13.1198 20.4799 13.1198 21.5066 14.0598 22.1332C15.1265 22.8466 16.8731 22.8466 17.9398 22.1332C18.8798 21.5066 18.8798 20.4799 17.9398 19.8532C16.8798 19.1466 15.1265 19.1466 14.0598 19.8532Z" stroke="#20A0F3" stroke-linecap="round" stroke-linejoin="round"/>
<rect x="0.3" y="0.3" width="31.4" height="31.4" rx="15.7" stroke="#20A0F3" stroke-width="0.6"/>
</svg>
