<svg width="21" height="21" viewBox="0 0 21 21" fill="none" xmlns="http://www.w3.org/2000/svg">
<path d="M17.6768 5.48307C14.9018 5.20807 12.1101 5.06641 9.32676 5.06641C7.67676 5.06641 6.02676 5.14974 4.37676 5.31641L2.67676 5.48307" stroke="#98A2B3" stroke-width="1.5" stroke-linecap="round" stroke-linejoin="round"/>
<path d="M7.26001 4.64102L7.44334 3.54935C7.57668 2.75768 7.67668 2.16602 9.08501 2.16602H11.2683C12.6767 2.16602 12.785 2.79102 12.91 3.55768L13.0933 4.64102" stroke="#98A2B3" stroke-width="1.5" stroke-linecap="round" stroke-linejoin="round"/>
<path d="M15.8852 8.11719L15.3435 16.5089C15.2518 17.8172 15.1768 18.8339 12.8518 18.8339H7.50184C5.17684 18.8339 5.10184 17.8172 5.01017 16.5089L4.46851 8.11719" stroke="#98A2B3" stroke-width="1.5" stroke-linecap="round" stroke-linejoin="round"/>
<path d="M8.78516 14.25H11.5602" stroke="#98A2B3" stroke-width="1.5" stroke-linecap="round" stroke-linejoin="round"/>
<path d="M8.09351 10.916H12.2602" stroke="#98A2B3" stroke-width="1.5" stroke-linecap="round" stroke-linejoin="round"/>
</svg>
