<svg width="375" height="513" viewBox="0 0 375 513" fill="none" xmlns="http://www.w3.org/2000/svg">
<path d="M284.434 378.997C256.581 402.457 211.649 406.205 171.309 399.476C130.952 392.986 94.914 376.48 74.7642 349.344C54.8534 322.226 50.8142 284.717 56.1258 250.759C61.4204 217.04 76.322 186.65 100.883 152.148C125.205 117.63 159.442 78.7782 192.035 79.6699C224.628 80.5617 256.056 121.231 279.515 159.169C302.974 197.107 318.685 232.569 320.898 272.109C323.367 311.426 312.304 355.298 284.434 378.997Z" fill="#D3ECFD"/>
<path d="M228.73 146.174L213.089 146.1C212.578 146.11 212.075 146.221 211.607 146.426C211.139 146.631 210.716 146.927 210.362 147.295C210.009 147.664 209.731 148.098 209.545 148.574C209.359 149.05 209.269 149.558 209.28 150.069V152.904C209.289 153.414 209.198 153.921 209.011 154.396C208.824 154.87 208.546 155.304 208.192 155.671C207.837 156.038 207.414 156.331 206.947 156.535C206.479 156.739 205.976 156.848 205.465 156.857L174.977 156.719C173.946 156.691 172.969 156.255 172.259 155.507C171.55 154.758 171.167 153.759 171.194 152.729V149.893C171.221 148.862 170.838 147.863 170.129 147.115C169.419 146.367 168.442 145.931 167.412 145.903H161.911L148.217 145.813C144.957 145.8 141.825 147.081 139.509 149.375C137.193 151.669 135.882 154.789 135.864 158.049L135.029 355.463C135.015 358.724 136.295 361.858 138.589 364.176C140.883 366.494 144.003 367.807 147.265 367.827L227.778 368.194C231.039 368.208 234.173 366.927 236.491 364.631C238.808 362.336 240.119 359.214 240.136 355.953L240.971 158.538C240.98 156.922 240.67 155.321 240.059 153.825C239.448 152.329 238.549 150.968 237.412 149.82C236.275 148.672 234.923 147.759 233.434 147.133C231.944 146.508 230.346 146.182 228.73 146.174Z" fill="white"/>
<path d="M228.73 146.174C228.73 146.174 228.874 146.174 229.15 146.174C229.569 146.178 229.987 146.212 230.4 146.275C232.032 146.473 233.603 147.017 235.007 147.871C236.05 148.484 236.992 149.253 237.8 150.153C238.796 151.245 239.587 152.506 240.136 153.877C240.766 155.466 241.072 157.164 241.035 158.873C241.035 160.687 241.035 162.597 241.035 164.672C240.977 181.073 240.891 204.8 240.785 234.113C240.679 263.427 240.535 298.342 240.381 337.109C240.359 341.957 240.34 346.86 240.322 351.818C240.322 353.063 240.322 354.303 240.322 355.542C240.337 356.8 240.174 358.054 239.838 359.266C239.486 360.492 238.948 361.657 238.242 362.719C237.527 363.779 236.664 364.73 235.678 365.544C233.653 367.172 231.17 368.125 228.576 368.268C227.927 368.31 227.288 368.3 226.644 368.295H224.708H220.835L205.162 368.22L172.992 368.076L156.538 368.002L148.228 367.959C145.394 368.108 142.59 367.321 140.248 365.72C137.919 364.087 136.214 361.713 135.412 358.985C135.028 357.633 134.861 356.228 134.917 354.824V350.675C134.938 345.153 134.961 339.668 134.986 334.22C135.032 323.325 135.078 312.598 135.125 302.039C135.215 280.945 135.305 260.596 135.391 241.21C135.476 221.824 135.561 203.406 135.635 186.17C135.674 177.551 135.711 169.236 135.747 161.224C135.747 160.224 135.747 159.229 135.747 158.24C135.747 157.745 135.795 157.245 135.821 156.75C135.848 156.255 135.949 155.761 136.077 155.287C136.517 153.396 137.397 151.635 138.643 150.146C139.89 148.657 141.469 147.482 143.253 146.717C144.978 145.983 146.844 145.637 148.717 145.706L159.448 145.759L164.592 145.812H167.119C167.976 145.771 168.822 146.012 169.529 146.498C170.218 146.983 170.739 147.672 171.019 148.467C171.246 149.254 171.325 150.077 171.253 150.893C171.253 151.292 171.253 151.691 171.253 152.09C171.238 152.482 171.251 152.875 171.29 153.265C171.384 154.032 171.702 154.754 172.205 155.34C172.694 155.923 173.355 156.337 174.094 156.521C174.457 156.611 174.831 156.651 175.205 156.638H176.339H180.781L197.012 156.729L204.167 156.766C204.731 156.766 205.306 156.798 205.843 156.766C206.382 156.705 206.9 156.523 207.359 156.234C207.8 155.957 208.181 155.596 208.479 155.17C208.778 154.744 208.989 154.263 209.099 153.755C209.188 153.26 209.222 152.757 209.2 152.255C209.2 151.76 209.2 151.265 209.2 150.786C209.18 150.306 209.204 149.826 209.269 149.35C209.35 148.889 209.509 148.444 209.737 148.036C210.175 147.253 210.868 146.644 211.701 146.312C212.509 145.966 213.366 146.078 214.142 146.062L222.122 146.115L227.033 146.147C228.139 146.147 228.703 146.147 228.703 146.147H227.033H222.122H214.142C213.332 146.067 212.514 146.152 211.738 146.397C210.922 146.719 210.245 147.315 209.823 148.084C209.598 148.482 209.444 148.916 209.365 149.366C209.303 149.837 209.282 150.312 209.301 150.786C209.301 151.27 209.301 151.76 209.301 152.255C209.323 152.764 209.289 153.274 209.2 153.776C209.087 154.299 208.871 154.795 208.564 155.233C208.257 155.672 207.866 156.045 207.413 156.33C206.939 156.621 206.407 156.803 205.854 156.862C205.285 156.91 204.731 156.862 204.162 156.862L197.044 156.867L180.813 156.803H176.37H175.232C174.844 156.817 174.455 156.778 174.078 156.686C173.307 156.493 172.617 156.063 172.104 155.457C171.579 154.845 171.246 154.092 171.146 153.292C171.11 152.894 171.098 152.494 171.109 152.095C171.109 151.696 171.109 151.297 171.109 150.898C171.181 150.102 171.103 149.299 170.88 148.531C170.61 147.771 170.112 147.113 169.454 146.647C168.777 146.182 167.966 145.954 167.146 145.998H164.619H159.453L148.728 145.95C146.859 145.872 144.998 146.222 143.286 146.973C141.573 147.725 140.056 148.858 138.849 150.286C137.609 151.767 136.734 153.518 136.295 155.399C136.167 155.867 136.13 156.356 136.04 156.835C135.949 157.314 135.976 157.809 135.97 158.303C135.97 159.293 135.97 160.288 135.97 161.288C135.942 169.289 135.91 177.604 135.875 186.233C135.805 203.47 135.731 221.877 135.657 241.28C135.582 260.682 135.492 281.009 135.406 302.108C135.364 312.653 135.32 323.378 135.273 334.284C135.252 339.731 135.229 345.218 135.204 350.744C135.204 352.12 135.204 353.503 135.204 354.893C135.151 356.269 135.315 357.644 135.688 358.969C136.47 361.619 138.121 363.93 140.375 365.528C142.675 367.096 145.427 367.864 148.206 367.715L156.516 367.757L172.966 367.832L205.136 367.981L220.814 368.055H224.687H226.613C227.256 368.055 227.9 368.055 228.528 368.029C231.065 367.891 233.495 366.961 235.476 365.369C236.444 364.573 237.291 363.641 237.992 362.602C238.679 361.563 239.201 360.423 239.54 359.224C239.875 358.03 240.036 356.793 240.019 355.553V351.829C240.04 346.864 240.062 341.961 240.083 337.119C240.258 298.352 240.418 263.443 240.546 234.124C240.673 204.806 240.806 181.084 240.886 164.682C240.886 162.634 240.886 160.697 240.918 158.883C240.959 157.185 240.659 155.495 240.035 153.914C239.491 152.567 238.712 151.326 237.737 150.249C235.815 148.138 233.22 146.758 230.395 146.344C229.983 146.28 229.567 146.241 229.15 146.227L228.73 146.174Z" fill="#263238"/>
<path d="M214.275 208.328L213.068 206.897L216.664 204.966L199.954 199.311L205.609 215.505L207.668 212.807C207.668 212.807 218.478 231.832 207.668 243.397C196.932 254.883 184.26 252.394 184.26 252.394L186.702 260.374C186.702 260.374 206.62 261.789 217.308 243.786C227.996 225.783 214.275 208.328 214.275 208.328Z" fill="#0C95EF"/>
<path d="M164.172 248.249L165.379 249.681L161.778 251.612L178.488 257.267L172.833 241.073L170.779 243.77C170.779 243.77 159.964 224.746 170.779 213.18C181.515 201.694 194.187 204.184 194.187 204.184L191.745 196.204C191.745 196.204 171.822 194.789 161.155 212.781C150.489 230.773 164.172 248.249 164.172 248.249Z" fill="#0C95EF"/>
<path d="M214.275 208.328L213.068 206.897L216.664 204.966L199.954 199.311L205.609 215.505L207.668 212.807C207.668 212.807 218.478 231.832 207.668 243.397C196.932 254.883 184.26 252.394 184.26 252.394L186.702 260.374C186.702 260.374 206.62 261.789 217.308 243.786C227.996 225.783 214.275 208.328 214.275 208.328Z" fill="#0C95EF"/>
<path d="M164.172 248.249L165.379 249.681L161.778 251.612L178.488 257.267L172.833 241.073L170.779 243.77C170.779 243.77 159.964 224.746 170.779 213.18C181.515 201.694 194.187 204.184 194.187 204.184L191.745 196.204C191.745 196.204 171.822 194.789 161.155 212.781C150.489 230.773 164.172 248.249 164.172 248.249Z" fill="#0C95EF"/>
<g opacity="0.8">
<path d="M214.275 208.328L213.068 206.897L216.664 204.966L199.954 199.311L205.609 215.505L207.668 212.807C207.668 212.807 218.478 231.832 207.668 243.397C196.932 254.883 184.26 252.394 184.26 252.394L186.702 260.374C186.702 260.374 206.62 261.789 217.308 243.786C227.996 225.783 214.275 208.328 214.275 208.328Z" fill="white"/>
</g>
<g opacity="0.8">
<path d="M164.172 248.249L165.379 249.681L161.778 251.612L178.488 257.267L172.833 241.073L170.779 243.77C170.779 243.77 159.964 224.746 170.779 213.18C181.515 201.694 194.187 204.184 194.187 204.184L191.745 196.204C191.745 196.204 171.822 194.789 161.155 212.781C150.489 230.773 164.172 248.249 164.172 248.249Z" fill="white"/>
</g>
<path fill-rule="evenodd" clip-rule="evenodd" d="M198.752 218.839C199.543 219.687 200.218 220.637 200.757 221.664H203.949L205.141 226.84L202.252 228.239C202.213 229.398 202.02 230.547 201.678 231.655L203.96 233.916L201.14 238.416L198.108 237.352C197.263 238.147 196.315 238.824 195.288 239.363V242.555L190.128 243.758L188.734 240.864C187.583 240.825 186.441 240.633 185.34 240.294L183.079 242.571L178.573 239.757L179.637 236.725C178.845 235.879 178.17 234.931 177.631 233.905H174.439L173.248 228.729L176.136 227.335C176.175 226.176 176.368 225.027 176.711 223.919L174.434 221.658L177.248 217.152L180.281 218.216C181.126 217.423 182.075 216.747 183.1 216.205V213.013L188.277 211.816L189.67 214.71C190.83 214.747 191.979 214.94 193.086 215.285L195.347 213.003L199.853 215.822L198.789 218.849L198.752 218.839ZM192.416 223.095C191.46 222.495 190.349 222.193 189.221 222.226C188.094 222.258 187.002 222.625 186.083 223.279C185.164 223.933 184.46 224.845 184.06 225.899C183.66 226.954 183.581 228.103 183.835 229.202C184.089 230.301 184.663 231.3 185.485 232.073C186.306 232.845 187.339 233.356 188.451 233.541C189.564 233.726 190.706 233.577 191.734 233.113C192.762 232.648 193.628 231.889 194.224 230.931C194.621 230.297 194.889 229.59 195.013 228.853C195.137 228.115 195.114 227.36 194.946 226.63C194.778 225.901 194.468 225.212 194.034 224.603C193.6 223.994 193.05 223.476 192.416 223.079V223.095Z" fill="#0C95EF"/>
<g opacity="0.6">
<path fill-rule="evenodd" clip-rule="evenodd" d="M192.416 223.08C191.46 222.482 190.349 222.182 189.223 222.215C188.096 222.249 187.005 222.616 186.088 223.27C185.17 223.924 184.467 224.836 184.067 225.889C183.667 226.943 183.589 228.091 183.842 229.19C184.095 230.288 184.668 231.286 185.488 232.059C186.308 232.831 187.339 233.343 188.451 233.53C189.562 233.716 190.704 233.569 191.732 233.107C192.759 232.644 193.627 231.888 194.224 230.932C194.621 230.298 194.889 229.592 195.013 228.854C195.137 228.116 195.114 227.361 194.946 226.632C194.778 225.902 194.468 225.214 194.034 224.604C193.6 223.995 193.05 223.477 192.416 223.08Z" fill="white"/>
</g>
<path d="M171.875 280.828V277.418H172.503V280.801C172.503 282.217 173.168 282.86 174.322 282.86C175.477 282.86 176.152 282.217 176.152 280.801V277.418H176.764V280.828C176.764 282.541 175.849 283.424 174.322 283.424C172.795 283.424 171.875 282.536 171.875 280.828Z" fill="#263238"/>
<path d="M183.318 279.461C183.318 280.727 182.403 281.493 180.887 281.493H179.291V283.371H178.658V277.418H180.887C182.403 277.418 183.318 278.184 183.318 279.461ZM182.691 279.461C182.691 278.509 182.063 277.961 180.871 277.961H179.275V280.94H180.871C182.063 280.94 182.68 280.408 182.68 279.461H182.691Z" fill="#263238"/>
<path d="M184.68 277.418H187.101C189.006 277.418 190.293 278.642 190.293 280.397C190.293 282.153 189.006 283.371 187.101 283.371H184.68V277.418ZM187.069 282.828C188.665 282.828 189.671 281.823 189.671 280.397C189.671 278.971 188.649 277.961 187.069 277.961H185.308V282.828H187.069Z" fill="#263238"/>
<path d="M195.347 281.781H192.032L191.314 283.377H190.66L193.384 277.424H194.006L196.725 283.377H196.065L195.347 281.781ZM195.118 281.249L193.692 278.057L192.261 281.249H195.118Z" fill="#263238"/>
<path d="M198.571 277.962H196.475V277.43H201.3V277.962H199.209V283.372H198.582L198.571 277.962Z" fill="#263238"/>
<path d="M206.503 282.828V283.36H202.295V277.418H206.375V277.95H202.923V280.078H206.003V280.61H202.923V282.823L206.503 282.828Z" fill="#263238"/>
<path d="M233.396 165.325C233.396 165.378 231.241 165.442 228.581 165.463C225.921 165.485 223.793 165.463 223.793 165.405C223.793 165.346 225.921 165.282 228.581 165.261C231.241 165.24 233.396 165.267 233.396 165.325Z" fill="#263238"/>
<path d="M233.417 167.789C233.417 167.847 231.262 167.911 228.602 167.932C225.942 167.953 223.788 167.932 223.788 167.868C223.788 167.804 225.942 167.751 228.602 167.73C231.262 167.709 233.417 167.735 233.417 167.789Z" fill="#263238"/>
<path d="M233.438 170.251C233.438 170.31 231.284 170.374 228.624 170.395C225.964 170.416 223.804 170.395 223.804 170.331C223.804 170.267 225.958 170.214 228.624 170.193C231.289 170.172 233.438 170.198 233.438 170.251Z" fill="#263238"/>
<path d="M145.786 173.066H145.983H146.515L148.574 173.018L148.515 173.077C148.515 172.619 148.515 172.125 148.515 171.587C148.515 171.305 148.515 171.055 148.515 170.725C148.548 170.56 148.633 170.41 148.757 170.296C148.882 170.182 149.039 170.111 149.207 170.092C149.537 170.092 149.829 170.092 150.191 170.092C150.378 170.124 150.549 170.221 150.671 170.366C150.794 170.511 150.861 170.695 150.861 170.885C150.861 171.582 150.861 172.311 150.888 173.061L150.792 172.971H153.388L153.287 173.066C153.287 172.002 153.287 170.938 153.287 169.837C153.287 169.56 153.287 169.305 153.287 169.012C153.276 168.89 153.238 168.771 153.176 168.666C153.113 168.56 153.027 168.469 152.925 168.401L151.792 167.283L150.696 166.219L150.164 165.687C149.983 165.512 149.84 165.331 149.632 165.288C149.531 165.262 149.425 165.259 149.322 165.278C149.219 165.297 149.121 165.339 149.036 165.4C148.877 165.533 148.712 165.725 148.552 165.879L147.568 166.741C146.983 167.347 146.371 167.906 145.93 168.433C145.8 168.738 145.754 169.072 145.797 169.401V170.316C145.797 170.848 145.797 171.38 145.797 171.784C145.797 172.188 145.797 172.47 145.797 172.726C145.797 172.981 145.797 173.061 145.797 173.066C145.79 172.964 145.79 172.86 145.797 172.758C145.797 172.502 145.797 172.199 145.797 171.827C145.797 171.454 145.797 170.906 145.759 170.342C145.759 170.05 145.759 169.741 145.759 169.411C145.759 169.247 145.759 169.076 145.759 168.879C145.758 168.693 145.806 168.51 145.898 168.347C146.382 167.757 146.962 167.241 147.541 166.613L148.467 165.666C148.632 165.501 148.77 165.342 148.967 165.171C149.073 165.092 149.195 165.037 149.325 165.011C149.455 164.985 149.589 164.989 149.717 165.022C149.964 165.11 150.182 165.265 150.345 165.469L150.877 166.001L151.973 167.065L153.112 168.183C153.218 168.277 153.314 168.382 153.399 168.496C153.484 168.626 153.532 168.777 153.537 168.933C153.537 169.204 153.537 169.465 153.537 169.757C153.537 170.869 153.537 171.949 153.537 172.992V173.093H153.42H150.824H150.733V173.002C150.733 172.247 150.733 171.518 150.733 170.827C150.737 170.675 150.684 170.527 150.586 170.41C150.489 170.294 150.352 170.217 150.201 170.193C149.904 170.193 149.547 170.193 149.26 170.193C149.125 170.206 148.998 170.261 148.898 170.351C148.797 170.441 148.728 170.561 148.701 170.694C148.701 170.954 148.701 171.263 148.701 171.523V173.104H148.643H146.552H146.02C145.941 173.1 145.862 173.087 145.786 173.066Z" fill="#263238"/>
<path d="M209.546 170.964C209.546 171.039 201.438 171.103 191.458 171.103C181.478 171.103 173.37 171.039 173.37 170.964C173.37 170.89 181.478 170.826 191.458 170.826C201.438 170.826 209.546 170.89 209.546 170.964Z" fill="#263238"/>
<path d="M208.604 339.104H170.593C168.262 339.104 166.026 338.178 164.377 336.53C162.728 334.882 161.8 332.647 161.799 330.315C161.799 327.983 162.726 325.746 164.375 324.097C166.024 322.448 168.261 321.521 170.593 321.521H208.604C210.937 321.521 213.174 322.448 214.823 324.097C216.472 325.746 217.398 327.983 217.398 330.315C217.397 332.647 216.47 334.882 214.821 336.53C213.172 338.178 210.936 339.104 208.604 339.104Z" fill="#0C95EF"/>
<path d="M182.345 331.597L182.664 330.895C183.055 331.167 183.518 331.313 183.994 331.316C184.526 331.316 184.776 331.135 184.776 330.885C184.776 330.129 182.425 330.645 182.425 329.145C182.425 328.459 182.957 327.889 184.127 327.889C184.619 327.878 185.105 328.001 185.531 328.246L185.244 328.953C184.903 328.754 184.517 328.646 184.122 328.64C183.59 328.64 183.356 328.847 183.356 329.102C183.356 329.847 185.702 329.331 185.702 330.815C185.702 331.491 185.143 332.066 183.989 332.066C183.406 332.079 182.833 331.916 182.345 331.597Z" fill="white"/>
<path d="M188.282 331.847C188.063 331.985 187.807 332.053 187.548 332.044C187.397 332.062 187.245 332.047 187.101 332C186.957 331.952 186.825 331.873 186.716 331.768C186.606 331.663 186.521 331.535 186.467 331.393C186.413 331.251 186.392 331.099 186.404 330.948V329.671H185.925V328.974H186.404V328.219H187.303V328.974H188.08V329.671H187.303V330.932C187.296 330.986 187.301 331.04 187.317 331.092C187.334 331.143 187.362 331.191 187.399 331.23C187.436 331.269 187.482 331.3 187.533 331.319C187.583 331.338 187.638 331.346 187.692 331.342C187.821 331.345 187.948 331.305 188.053 331.23L188.282 331.847Z" fill="white"/>
<path d="M191.538 330.224V332.011H190.692V331.628C190.588 331.779 190.444 331.898 190.278 331.974C190.111 332.05 189.927 332.079 189.745 332.059C189.016 332.059 188.585 331.655 188.585 331.118C188.585 330.58 188.974 330.187 189.921 330.187H190.66C190.66 329.804 190.431 329.575 189.947 329.575C189.625 329.572 189.311 329.675 189.053 329.867L188.729 329.234C189.129 328.981 189.596 328.851 190.069 328.862C190.985 328.846 191.538 329.282 191.538 330.224ZM190.633 331.017V330.697H190.016C189.596 330.697 189.484 330.852 189.484 331.059C189.484 331.267 189.676 331.437 189.99 331.437C190.132 331.449 190.274 331.414 190.395 331.338C190.516 331.263 190.609 331.15 190.66 331.017H190.633Z" fill="white"/>
<path d="M194.272 328.847V329.677H194.075C193.961 329.666 193.845 329.681 193.737 329.722C193.628 329.762 193.531 329.826 193.451 329.91C193.371 329.993 193.311 330.094 193.276 330.203C193.24 330.313 193.23 330.43 193.246 330.544V332.012H192.346V328.911H193.208V329.32C193.333 329.16 193.496 329.033 193.681 328.951C193.867 328.868 194.07 328.833 194.272 328.847Z" fill="white"/>
<path d="M196.922 331.847C196.702 331.985 196.446 332.054 196.187 332.044C196.034 332.065 195.879 332.051 195.732 332.003C195.585 331.955 195.451 331.875 195.339 331.768C195.228 331.661 195.142 331.53 195.088 331.386C195.034 331.241 195.013 331.086 195.028 330.932V329.655H194.549V328.959H195.028V328.203H195.932V328.959H196.703V329.655H195.932V330.916C195.925 330.97 195.93 331.024 195.946 331.075C195.962 331.126 195.99 331.173 196.026 331.212C196.063 331.251 196.108 331.282 196.158 331.302C196.208 331.321 196.262 331.33 196.315 331.326C196.446 331.328 196.575 331.289 196.682 331.214L196.922 331.847Z" fill="white"/>
<path d="M225.724 297.394C225.724 297.469 209.381 297.532 189.224 297.532C169.066 297.532 152.718 297.469 152.718 297.394C152.718 297.32 169.061 297.256 189.224 297.256C209.386 297.256 225.724 297.314 225.724 297.394Z" fill="#263238"/>
<path d="M211.179 301.869C211.179 301.943 201.348 302.007 189.224 302.007C177.099 302.007 167.263 301.943 167.263 301.869C167.263 301.794 177.094 301.73 189.224 301.73C201.353 301.73 211.179 301.789 211.179 301.869Z" fill="#263238"/>
<path d="M110.168 367.783L106.934 379.737L117.441 380.695L119.649 369.315L110.168 367.783Z" fill="#0C95EF"/>
<path d="M117.744 379.722C117.231 379.754 116.716 379.737 116.207 379.669C115.26 379.594 113.956 379.451 112.52 379.264L108.849 378.77C108.336 378.731 107.829 378.644 107.333 378.509C107.846 378.477 108.361 378.497 108.87 378.568C109.817 378.642 111.121 378.791 112.557 378.972L116.228 379.461C116.74 379.504 117.247 379.591 117.744 379.722Z" fill="#263238"/>
<g opacity="0.6">
<path d="M106.934 379.738L117.441 380.695L117.611 379.817L107.237 378.498L106.944 379.615" fill="white"/>
</g>
<path d="M112.153 379.206C112.408 377.663 112.741 376.134 113.153 374.626C113.485 373.097 113.899 371.588 114.393 370.104C114.138 371.646 113.804 373.175 113.392 374.684C113.058 376.212 112.644 377.721 112.153 379.206Z" fill="#263238"/>
<path d="M117.164 379.642C117.33 378.912 117.33 378.154 117.164 377.424C116.981 376.638 116.583 375.918 116.015 375.344C115.308 374.655 114.386 374.231 113.403 374.141C112.42 374.037 111.43 374.261 110.589 374.78C109.908 375.215 109.347 375.813 108.955 376.52C108.606 377.182 108.38 377.904 108.29 378.648C108.29 378.648 108.29 378.589 108.29 378.488C108.279 378.336 108.279 378.183 108.29 378.03C108.361 377.473 108.53 376.932 108.791 376.434C109.184 375.676 109.769 375.034 110.488 374.572C111.368 374.016 112.41 373.772 113.446 373.881C114.389 373.954 115.283 374.336 115.989 374.966C116.696 375.596 117.176 376.441 117.356 377.371C117.469 377.924 117.469 378.494 117.356 379.047C117.324 379.195 117.281 379.341 117.228 379.483C117.196 379.594 117.17 379.648 117.164 379.642Z" fill="#263238"/>
<path d="M153.537 364.576L152.835 375.216C152.835 375.216 163.4 378.721 163.475 380.701L142.828 380.849L143.243 364.262L153.537 364.576Z" fill="#0C95EF"/>
<g opacity="0.6">
<path d="M146.504 374.108C146.304 374.162 146.131 374.288 146.018 374.462C145.905 374.636 145.86 374.845 145.892 375.05C145.938 375.253 146.061 375.43 146.234 375.545C146.407 375.66 146.618 375.704 146.823 375.667C147.036 375.609 147.219 375.474 147.337 375.288C147.456 375.102 147.5 374.878 147.462 374.661C147.391 374.456 147.244 374.286 147.05 374.186C146.857 374.087 146.632 374.067 146.424 374.129" fill="white"/>
</g>
<g opacity="0.6">
<path d="M142.817 380.828L142.86 379.152L162.799 379.684C163.011 379.793 163.192 379.952 163.327 380.148C163.462 380.344 163.545 380.57 163.57 380.807L142.817 380.828Z" fill="white"/>
</g>
<path d="M153.175 375.104C153.175 375.205 152.643 375.237 152.154 375.546C151.664 375.855 151.372 376.269 151.281 376.227C151.191 376.184 151.356 375.61 151.978 375.243C152.601 374.876 153.197 375.009 153.175 375.104Z" fill="#263238"/>
<path d="M155.309 376.062C155.309 376.157 154.888 376.317 154.532 376.732C154.175 377.147 154.064 377.599 153.968 377.588C153.872 377.578 153.819 377.009 154.271 376.524C154.723 376.04 155.309 375.966 155.309 376.062Z" fill="#263238"/>
<path d="M156.463 378.69C156.367 378.69 156.245 378.201 156.521 377.658C156.798 377.115 157.272 376.908 157.314 376.993C157.357 377.078 157.053 377.365 156.835 377.812C156.617 378.259 156.564 378.685 156.463 378.69Z" fill="#263238"/>
<path d="M153.063 372.662C153.021 372.753 152.563 372.604 151.999 372.625C151.436 372.646 150.983 372.811 150.935 372.721C150.888 372.63 151.324 372.29 151.999 372.274C152.675 372.258 153.117 372.588 153.063 372.662Z" fill="#263238"/>
<path d="M153.165 370.518C152.824 370.599 152.467 370.586 152.133 370.481C151.765 370.404 151.407 370.283 151.069 370.119C150.867 370.018 150.672 369.906 150.483 369.784C150.371 369.716 150.268 369.632 150.18 369.534C150.117 369.461 150.079 369.369 150.074 369.273C150.068 369.177 150.094 369.082 150.148 369.002C150.2 368.931 150.268 368.874 150.347 368.836C150.426 368.798 150.513 368.78 150.6 368.784C150.731 368.786 150.86 368.808 150.984 368.848C151.203 368.908 151.417 368.988 151.622 369.087C151.964 369.255 152.279 369.476 152.553 369.741C153.021 370.199 153.17 370.582 153.138 370.598C153.106 370.614 152.867 370.311 152.388 369.927C152.11 369.713 151.806 369.534 151.484 369.395C151.295 369.312 151.099 369.246 150.898 369.199C150.68 369.135 150.494 369.124 150.436 369.199C150.377 369.273 150.436 369.252 150.436 369.316C150.503 369.388 150.58 369.45 150.664 369.502C150.834 369.622 151.012 369.73 151.196 369.826C151.512 369.996 151.843 370.135 152.186 370.241C152.519 370.309 152.846 370.402 153.165 370.518Z" fill="#263238"/>
<path d="M153.032 370.662C152.846 370.359 152.761 370.006 152.787 369.651C152.776 369.039 152.934 368.435 153.244 367.906C153.305 367.772 153.398 367.655 153.517 367.568C153.635 367.48 153.774 367.425 153.92 367.406C154.012 367.409 154.102 367.439 154.177 367.492C154.253 367.545 154.311 367.618 154.346 367.704C154.394 367.827 154.427 367.956 154.441 368.087C154.474 368.318 154.474 368.553 154.441 368.784C154.373 369.172 154.21 369.537 153.968 369.848C153.548 370.38 153.122 370.481 153.117 370.444C153.111 370.407 153.441 370.21 153.766 369.704C153.952 369.413 154.073 369.084 154.122 368.742C154.149 368.544 154.149 368.343 154.122 368.146C154.096 367.928 154.016 367.747 153.936 367.768C153.856 367.789 153.654 367.922 153.564 368.093C153.456 368.261 153.366 368.439 153.292 368.625C153.166 368.954 153.087 369.3 153.058 369.651C152.989 370.263 153.085 370.646 153.032 370.662Z" fill="#263238"/>
<path d="M153.537 272.338L122.08 272.104L106.881 371.949L119.936 373.604L136.667 291.506L141.673 373.896L141.689 374.141L155.809 373.896L153.537 272.338Z" fill="#263238"/>
<path d="M139.231 280.407C139.447 280.38 139.664 280.366 139.88 280.364L141.774 280.295L148.573 280.104H148.701V280.237C148.701 282.21 148.701 284.413 148.701 286.759V286.817L148.653 286.86L147.472 287.924L143.982 291.116L143.886 291.201L143.796 291.121L139.141 286.972L139.104 286.94V286.887C139.104 284.907 139.146 283.274 139.162 282.099C139.162 281.567 139.162 281.136 139.189 280.811C139.185 280.665 139.194 280.519 139.215 280.375C139.224 280.534 139.224 280.694 139.215 280.854C139.215 281.183 139.215 281.625 139.247 282.168C139.247 283.322 139.279 284.929 139.306 286.881L139.269 286.801L143.956 290.908H143.769L147.254 287.716L148.44 286.652L148.392 286.759C148.392 284.413 148.392 282.21 148.392 280.237L148.525 280.364L141.801 280.428H139.364C139.32 280.425 139.275 280.418 139.231 280.407Z" fill="#455A64"/>
<path d="M124.426 279.997C124.619 279.984 124.813 279.984 125.006 279.997L126.698 280.136L132.816 280.668H132.943V280.795C132.715 282.726 132.449 284.924 132.172 287.27V287.328L132.129 287.365L130.773 288.429L127.427 291.089L127.315 291.175L127.23 291.068L123.575 286.44L123.543 286.402V286.355C123.809 284.397 124.027 282.785 124.181 281.62C124.261 281.088 124.32 280.668 124.368 280.338C124.378 280.193 124.405 280.051 124.447 279.912C124.444 280.072 124.432 280.232 124.41 280.391C124.378 280.724 124.336 281.161 124.282 281.7L123.75 286.387V286.301C124.814 287.637 126.081 289.196 127.448 290.893H127.251L130.592 288.233L131.949 287.169L131.895 287.259C132.188 284.918 132.465 282.721 132.704 280.79L132.816 280.928L126.788 280.258L125.075 280.05C124.858 280.046 124.641 280.028 124.426 279.997Z" fill="#455A64"/>
<path d="M143.674 295.15C143.179 294.962 142.702 294.73 142.248 294.458C141.381 294.006 140.184 293.394 138.848 292.719C137.513 292.043 136.3 291.474 135.417 291.054C134.926 290.851 134.453 290.609 134.002 290.33C134.517 290.456 135.018 290.635 135.497 290.862C136.407 291.234 137.625 291.788 138.981 292.458C140.338 293.128 141.503 293.783 142.344 294.283C142.813 294.529 143.259 294.82 143.674 295.15Z" fill="#455A64"/>
<path d="M143.269 297.575C142.893 297.506 142.533 297.369 142.205 297.171C140.544 296.319 139.183 294.978 138.306 293.33C138.102 293.004 137.96 292.643 137.885 292.266C138.519 293.381 139.283 294.417 140.162 295.351C141.109 296.21 142.151 296.956 143.269 297.575Z" fill="#455A64"/>
<path d="M152.148 326.426C152.129 326.61 152.081 326.79 152.005 326.958C151.834 327.421 151.614 327.865 151.35 328.283C150.479 329.681 149.196 330.776 147.678 331.416C146.159 332.056 144.48 332.21 142.87 331.858C142.388 331.756 141.917 331.605 141.466 331.406C141.296 331.343 141.136 331.255 140.992 331.145C141.622 331.354 142.261 331.532 142.908 331.677C144.476 331.967 146.095 331.792 147.565 331.172C149.035 330.553 150.292 329.517 151.18 328.192C151.867 327.15 152.095 326.405 152.148 326.426Z" fill="#455A64"/>
<path d="M150.079 325.574C149.713 325.821 149.306 326.001 148.877 326.106C147.863 326.426 146.811 326.605 145.749 326.638C144.692 326.678 143.633 326.616 142.589 326.452C142.151 326.409 141.72 326.31 141.306 326.16C141.306 326.059 143.296 326.442 145.738 326.351C146.779 326.319 147.813 326.176 148.824 325.926C149.595 325.718 150.063 325.532 150.079 325.574Z" fill="#455A64"/>
<path d="M126.692 326.16C126.376 326.541 126.007 326.874 125.596 327.15C124.637 327.862 123.582 328.435 122.463 328.852C121.343 329.268 120.17 329.526 118.978 329.618C118.486 329.678 117.988 329.665 117.499 329.581C117.499 329.533 118.063 329.528 118.957 329.416C121.291 329.125 123.524 328.292 125.479 326.985C125.869 326.689 126.274 326.414 126.692 326.16Z" fill="#455A64"/>
<path d="M123.931 326.049C122.997 326.33 122.015 326.412 121.048 326.288C120.072 326.253 119.114 326.018 118.233 325.597C118.233 325.512 119.5 325.879 121.069 326.001C122.638 326.123 123.92 325.964 123.931 326.049Z" fill="#455A64"/>
<path d="M136.481 292.197C136.037 292.466 135.561 292.68 135.066 292.836C133.889 293.264 132.674 293.579 131.438 293.777C130.207 293.976 128.96 294.056 127.714 294.017C127.195 294.023 126.677 293.968 126.171 293.852C126.684 293.805 127.199 293.792 127.714 293.815C130.194 293.781 132.657 293.387 135.023 292.644C135.499 292.464 135.986 292.314 136.481 292.197Z" fill="#455A64"/>
<path d="M135.619 288.973C135.699 288.973 135.768 289.217 135.773 289.505C135.779 289.792 135.715 290.037 135.635 290.037C135.555 290.037 135.491 289.792 135.486 289.505C135.481 289.217 135.539 288.973 135.619 288.973Z" fill="#455A64"/>
<path d="M135.625 286.76C135.704 286.76 135.768 287.01 135.763 287.292C135.758 287.574 135.699 287.824 135.619 287.824C135.539 287.824 135.476 287.574 135.476 287.292C135.476 287.01 135.545 286.76 135.625 286.76Z" fill="#455A64"/>
<path d="M135.667 284.553C135.747 284.553 135.806 284.803 135.8 285.085C135.795 285.367 135.72 285.617 135.641 285.617C135.561 285.617 135.502 285.367 135.513 285.085C135.524 284.803 135.593 284.547 135.667 284.553Z" fill="#455A64"/>
<path d="M135.758 282.338C135.837 282.338 135.891 282.593 135.875 282.897C135.859 283.2 135.789 283.429 135.71 283.429C135.63 283.429 135.577 283.173 135.587 282.897C135.598 282.62 135.678 282.333 135.758 282.338Z" fill="#455A64"/>
<path d="M135.891 280.131C135.97 280.131 136.018 280.386 135.997 280.695C135.976 281.003 135.896 281.227 135.816 281.227C135.736 281.227 135.688 280.966 135.71 280.663C135.731 280.36 135.811 280.126 135.891 280.131Z" fill="#455A64"/>
<path d="M136.061 277.928C136.141 277.928 136.183 278.183 136.162 278.487C136.141 278.79 136.05 279.019 135.97 279.019C135.891 279.019 135.848 278.758 135.875 278.455C135.901 278.152 135.986 277.917 136.061 277.928Z" fill="#455A64"/>
<path d="M136.236 276.119C136.316 276.119 136.364 276.295 136.343 276.486C136.321 276.678 136.247 276.832 136.167 276.827C136.087 276.822 136.039 276.651 136.061 276.46C136.082 276.268 136.156 276.114 136.236 276.119Z" fill="#455A64"/>
<path d="M118.452 371.411C118.532 371.411 118.547 371.682 118.484 371.985C118.42 372.289 118.313 372.517 118.234 372.517C118.154 372.517 118.143 372.246 118.202 371.948C118.26 371.65 118.377 371.379 118.452 371.411Z" fill="#455A64"/>
<path d="M118.888 369.252C118.962 369.252 118.978 369.523 118.92 369.821C118.861 370.119 118.749 370.353 118.67 370.353C118.59 370.353 118.579 370.082 118.638 369.779C118.696 369.475 118.808 369.252 118.888 369.252Z" fill="#455A64"/>
<path d="M119.319 367.075C119.399 367.075 119.415 367.346 119.351 367.644C119.287 367.942 119.181 368.176 119.106 368.176C119.032 368.176 119.01 367.905 119.069 367.607C119.127 367.309 119.244 367.059 119.319 367.075Z" fill="#455A64"/>
<path d="M119.755 364.905C119.835 364.905 119.845 365.176 119.787 365.479C119.728 365.782 119.617 366.011 119.537 366.011C119.457 366.011 119.446 365.74 119.505 365.442C119.563 365.144 119.675 364.894 119.755 364.905Z" fill="#455A64"/>
<path d="M120.186 362.741C120.266 362.741 120.282 363.012 120.223 363.31C120.165 363.608 120.048 363.842 119.973 363.842C119.899 363.842 119.877 363.571 119.941 363.268C120.005 362.964 120.111 362.725 120.186 362.741Z" fill="#455A64"/>
<path d="M120.622 360.569C120.702 360.569 120.713 360.84 120.654 361.138C120.596 361.436 120.484 361.67 120.404 361.67C120.324 361.67 120.314 361.399 120.372 361.101C120.431 360.803 120.542 360.553 120.622 360.569Z" fill="#455A64"/>
<path d="M121.058 358.405C121.133 358.405 121.149 358.671 121.09 358.974C121.032 359.278 120.915 359.506 120.84 359.506C120.766 359.506 120.744 359.235 120.808 358.937C120.872 358.639 120.968 358.389 121.058 358.405Z" fill="#455A64"/>
<path d="M121.5 356.233C121.58 356.233 121.591 356.504 121.532 356.802C121.473 357.1 121.362 357.334 121.282 357.334C121.202 357.334 121.192 357.063 121.25 356.76C121.309 356.457 121.41 356.217 121.5 356.233Z" fill="#455A64"/>
<path d="M121.926 354.063C122 354.063 122.016 354.335 121.958 354.632C121.899 354.93 121.787 355.164 121.708 355.164C121.628 355.164 121.612 354.893 121.676 354.595C121.739 354.297 121.846 354.047 121.926 354.063Z" fill="#455A64"/>
<path d="M122.357 351.897C122.436 351.897 122.452 352.163 122.388 352.466C122.325 352.77 122.218 352.998 122.138 352.998C122.059 352.998 122.048 352.727 122.106 352.429C122.165 352.131 122.282 351.881 122.357 351.897Z" fill="#455A64"/>
<path d="M122.793 349.727C122.867 349.727 122.883 349.999 122.825 350.297C122.766 350.594 122.654 350.829 122.575 350.829C122.495 350.829 122.484 350.557 122.543 350.254C122.601 349.951 122.713 349.711 122.793 349.727Z" fill="#455A64"/>
<path d="M123.224 347.557C123.303 347.557 123.319 347.829 123.256 348.127C123.192 348.425 123.085 348.659 123.011 348.659C122.936 348.659 122.915 348.387 122.974 348.089C123.032 347.791 123.149 347.541 123.224 347.557Z" fill="#455A64"/>
<path d="M123.66 345.391C123.734 345.391 123.75 345.663 123.692 345.961C123.633 346.259 123.522 346.493 123.442 346.493C123.362 346.493 123.351 346.221 123.41 345.923C123.468 345.625 123.58 345.375 123.66 345.391Z" fill="#455A64"/>
<path d="M124.091 343.22C124.171 343.22 124.187 343.492 124.128 343.789C124.07 344.087 123.952 344.321 123.878 344.321C123.804 344.321 123.782 344.05 123.841 343.752C123.899 343.454 124.016 343.183 124.091 343.22Z" fill="#455A64"/>
<path d="M124.527 341.057C124.607 341.057 124.618 341.328 124.559 341.631C124.501 341.934 124.389 342.163 124.309 342.163C124.229 342.163 124.219 341.892 124.277 341.594C124.336 341.296 124.447 341.057 124.527 341.057Z" fill="#455A64"/>
<path d="M124.958 338.886C125.038 338.886 125.054 339.157 124.995 339.455C124.937 339.753 124.82 339.987 124.745 339.987C124.671 339.987 124.649 339.721 124.713 339.418C124.777 339.114 124.884 338.87 124.958 338.886Z" fill="#455A64"/>
<path d="M125.394 336.714C125.474 336.714 125.485 336.985 125.426 337.283C125.368 337.581 125.256 337.815 125.176 337.815C125.096 337.815 125.086 337.544 125.144 337.246C125.203 336.948 125.314 336.698 125.394 336.714Z" fill="#455A64"/>
<path d="M125.831 334.544C125.905 334.544 125.921 334.815 125.862 335.118C125.804 335.421 125.687 335.65 125.612 335.65C125.538 335.65 125.517 335.379 125.581 335.081C125.644 334.783 125.756 334.528 125.831 334.544Z" fill="#455A64"/>
<path d="M126.288 332.38C126.368 332.38 126.384 332.651 126.32 332.949C126.256 333.247 126.15 333.481 126.07 333.481C125.99 333.481 125.979 333.21 126.038 332.906C126.096 332.603 126.182 332.364 126.288 332.38Z" fill="#455A64"/>
<path d="M126.698 330.208C126.772 330.208 126.788 330.479 126.73 330.777C126.671 331.075 126.559 331.309 126.48 331.309C126.4 331.309 126.384 331.038 126.448 330.74C126.511 330.442 126.618 330.192 126.698 330.208Z" fill="#455A64"/>
<path d="M127.128 328.038C127.208 328.038 127.224 328.309 127.16 328.612C127.097 328.916 126.99 329.144 126.91 329.144C126.831 329.144 126.82 328.873 126.878 328.575C126.937 328.277 127.054 328.022 127.128 328.038Z" fill="#455A64"/>
<path d="M127.565 325.872C127.639 325.872 127.655 326.143 127.597 326.441C127.538 326.739 127.426 326.973 127.347 326.973C127.267 326.973 127.256 326.702 127.315 326.399C127.373 326.095 127.485 325.856 127.565 325.872Z" fill="#455A64"/>
<path d="M127.996 323.702C128.075 323.702 128.091 323.973 128.028 324.271C127.964 324.569 127.857 324.803 127.783 324.803C127.708 324.803 127.687 324.532 127.746 324.234C127.804 323.936 127.921 323.686 127.996 323.702Z" fill="#455A64"/>
<path d="M128.416 321.532C128.496 321.532 128.507 321.803 128.448 322.107C128.389 322.41 128.278 322.639 128.198 322.639C128.118 322.639 128.108 322.367 128.166 322.069C128.225 321.771 128.352 321.516 128.416 321.532Z" fill="#455A64"/>
<path d="M128.863 319.366C128.943 319.366 128.959 319.637 128.9 319.935C128.841 320.233 128.724 320.467 128.65 320.467C128.575 320.467 128.554 320.196 128.613 319.893C128.671 319.589 128.788 319.35 128.863 319.366Z" fill="#455A64"/>
<path d="M129.299 317.196C129.379 317.196 129.39 317.467 129.331 317.765C129.273 318.063 129.161 318.297 129.081 318.297C129.001 318.297 128.991 318.026 129.049 317.728C129.108 317.43 129.219 317.18 129.299 317.196Z" fill="#455A64"/>
<path d="M129.735 315.026C129.81 315.026 129.826 315.297 129.767 315.6C129.709 315.904 129.592 316.132 129.517 316.132C129.443 316.132 129.421 315.861 129.485 315.563C129.549 315.265 129.656 315.015 129.735 315.026Z" fill="#455A64"/>
<path d="M130.166 312.859C130.246 312.859 130.257 313.131 130.198 313.429C130.14 313.727 130.028 313.961 129.948 313.961C129.868 313.961 129.858 313.689 129.916 313.386C129.975 313.083 130.087 312.859 130.166 312.859Z" fill="#455A64"/>
<path d="M130.603 310.688C130.677 310.688 130.693 310.96 130.634 311.257C130.576 311.555 130.459 311.789 130.384 311.789C130.31 311.789 130.289 311.518 130.352 311.22C130.416 310.922 130.544 310.672 130.603 310.688Z" fill="#455A64"/>
<path d="M131.034 308.524C131.113 308.524 131.129 308.79 131.065 309.093C131.002 309.397 130.895 309.625 130.815 309.625C130.736 309.625 130.725 309.354 130.783 309.056C130.842 308.758 130.959 308.508 131.034 308.524Z" fill="#455A64"/>
<path d="M131.47 306.354C131.544 306.354 131.56 306.626 131.501 306.924C131.443 307.221 131.331 307.456 131.251 307.456C131.172 307.456 131.161 307.184 131.22 306.881C131.278 306.578 131.39 306.338 131.47 306.354Z" fill="#455A64"/>
<path d="M131.9 304.182C131.98 304.182 131.996 304.454 131.932 304.752C131.869 305.05 131.762 305.284 131.682 305.284C131.603 305.284 131.592 305.012 131.65 304.714C131.709 304.416 131.826 304.166 131.9 304.182Z" fill="#455A64"/>
<path d="M132.337 302.018C132.411 302.018 132.427 302.29 132.369 302.588C132.31 302.885 132.198 303.12 132.119 303.12C132.039 303.12 132.028 302.848 132.087 302.55C132.145 302.252 132.257 302.002 132.337 302.018Z" fill="#455A64"/>
<path d="M132.768 299.846C132.848 299.846 132.864 300.118 132.805 300.416C132.747 300.714 132.629 300.948 132.555 300.948C132.481 300.948 132.459 300.676 132.518 300.378C132.576 300.081 132.672 299.83 132.768 299.846Z" fill="#455A64"/>
<path d="M133.204 297.677C133.284 297.677 133.294 297.948 133.236 298.246C133.177 298.544 133.066 298.778 132.986 298.778C132.906 298.778 132.895 298.506 132.954 298.209C133.012 297.911 133.124 297.661 133.204 297.677Z" fill="#455A64"/>
<path d="M133.635 295.511C133.715 295.511 133.731 295.782 133.672 296.08C133.614 296.378 133.496 296.612 133.422 296.612C133.348 296.612 133.326 296.346 133.39 296.043C133.454 295.739 133.56 295.495 133.635 295.511Z" fill="#455A64"/>
<path d="M134.071 293.341C134.151 293.341 134.162 293.612 134.103 293.91C134.045 294.208 133.933 294.442 133.853 294.442C133.773 294.442 133.763 294.17 133.821 293.873C133.88 293.575 133.991 293.325 134.071 293.341Z" fill="#455A64"/>
<path d="M177.435 226.458C177.435 226.458 181.116 220.941 181.217 220.894C181.217 220.894 184.537 215.297 185.643 215.297C186.75 215.297 186.351 216.43 185.207 218.436C184.659 219.308 184.285 220.278 184.106 221.293L186.835 222.936C186.835 222.936 188.66 222.234 188.734 223.931C188.708 224.709 188.603 225.483 188.42 226.24C188.309 226.847 188.037 227.49 187.463 227.262C187.32 227.214 187.197 227.123 187.109 227C187.022 226.878 186.977 226.731 186.979 226.581C186.941 225.575 187.128 225.203 186.979 225.203C186.83 225.203 185.016 230.475 185.016 230.475L177.435 226.458Z" fill="#FFBE9D"/>
<path d="M184.866 222.127C185.141 221.922 185.435 221.743 185.744 221.595C186.054 221.45 186.4 221.396 186.739 221.441C186.867 221.452 186.99 221.494 187.099 221.563C187.207 221.632 187.297 221.726 187.362 221.837C187.427 221.948 187.464 222.073 187.47 222.201C187.476 222.329 187.452 222.457 187.399 222.574C187.29 222.847 187.137 223.1 186.947 223.324" fill="#FFBE9D"/>
<path d="M183.622 221.015C183.882 220.825 184.16 220.659 184.452 220.52C184.745 220.383 185.072 220.333 185.393 220.376C185.599 220.398 185.789 220.497 185.925 220.653C186.006 220.766 186.057 220.896 186.074 221.034C186.092 221.171 186.076 221.311 186.026 221.44C185.778 221.832 185.493 222.199 185.175 222.536" fill="#FFBE9D"/>
<path d="M178.722 223.346L173.402 234.72L179.254 240.715L182.308 232.235C182.308 232.235 183.946 232.56 184.616 231.475C185.361 230.262 186.34 226.761 186.34 226.761L178.722 223.346Z" fill="#FFBE9D"/>
<path d="M182.52 223.032C182.563 222.448 182.782 221.892 183.148 221.436C183.39 221.102 183.703 220.826 184.063 220.627C184.334 220.483 184.521 220.43 184.537 220.462C184.553 220.494 183.898 220.888 183.382 221.606C182.866 222.324 182.611 223.069 182.52 223.032Z" fill="#EB996E"/>
<path d="M188.42 223.08C188.42 223.117 188.213 223.016 187.888 222.963C187.492 222.89 187.084 222.954 186.728 223.144C186.383 223.369 186.091 223.666 185.872 224.016C185.686 224.282 185.558 224.447 185.521 224.426C185.484 224.405 185.547 224.213 185.702 223.894C185.897 223.478 186.209 223.128 186.601 222.888C186.806 222.778 187.032 222.71 187.264 222.689C187.496 222.668 187.73 222.694 187.952 222.766C188.293 222.883 188.442 223.053 188.42 223.08Z" fill="#EB996E"/>
<path d="M186.441 221.472C186.002 221.676 185.583 221.922 185.191 222.206C184.595 222.738 184.302 223.35 184.223 223.313C184.299 222.788 184.578 222.314 184.999 221.993C185.276 221.737 185.613 221.554 185.978 221.461C186.26 221.419 186.436 221.44 186.441 221.472Z" fill="#EB996E"/>
<path d="M187.75 223.931C187.824 223.904 187.963 224.346 187.681 224.782C187.399 225.218 186.947 225.314 186.941 225.213C186.936 225.112 187.229 224.979 187.441 224.633C187.654 224.287 187.665 223.941 187.75 223.931Z" fill="#EB996E"/>
<path d="M177.45 226.239C177.45 226.239 177.264 222.844 178.083 222.073C178.903 221.302 181.275 222.105 181.275 222.105" fill="#FFBE9D"/>
<path d="M181.616 220.488C181.292 221.18 180.883 221.829 180.398 222.419C179.99 223.065 179.504 223.658 178.951 224.186C179.677 222.845 180.571 221.603 181.611 220.488H181.616Z" fill="#EB996E"/>
<path d="M134.497 194.756L134.417 221.244L145.781 221.776L146.11 215.334C146.11 215.334 150.148 216.137 151.186 212.387C151.856 209.993 151.686 191.484 151.686 191.484L134.497 194.756Z" fill="#FFBE9D"/>
<path d="M153.181 193.351C151.393 193.883 151.005 196.794 151.005 196.794L148.196 202.991C146.765 201.874 144.844 201.927 144.472 204.454C144.206 206.268 146.467 206.636 146.467 206.636C145.153 208.875 144.259 210.684 142.344 212.812C140.274 215.116 139.115 215.344 136.864 215.382H134.39C134.39 215.382 133.177 211.445 130.932 201.603C128.437 190.681 141.354 192.085 143.748 189.298C147.658 184.76 158.825 191.74 153.181 193.351Z" fill="#263238"/>
<path d="M131.177 202.629C129.081 201.225 128.895 197.309 130.113 194.931C130.739 193.754 131.665 192.763 132.798 192.059C133.93 191.354 135.228 190.961 136.561 190.92C136.92 190.944 137.28 190.904 137.625 190.803C138.09 190.557 138.48 190.189 138.753 189.739C140.625 187.308 142.477 184.919 145.951 184.919C146.717 184.881 147.479 185.065 148.142 185.451C148.761 185.873 149.225 186.486 149.462 187.196C150.1 186.851 150.787 186.603 151.499 186.462C151.856 186.392 152.224 186.4 152.578 186.485C152.931 186.57 153.262 186.731 153.548 186.957C153.824 187.194 154.007 187.521 154.066 187.88C154.124 188.239 154.054 188.607 153.867 188.92C154.457 188.911 155.031 189.114 155.484 189.492C155.938 189.869 156.242 190.397 156.341 190.979C156.527 192.144 154.862 192.963 154.686 193.053C154.686 193.053 155.601 194.969 153.42 196.118C152.542 196.575 151.398 196.022 151.292 195.953" fill="#263238"/>
<path d="M139.476 205.178C139.63 205.842 139.608 206.535 139.412 207.189C139.306 207.862 139.029 208.498 138.609 209.035C138.529 208.997 138.896 208.184 139.141 207.125C139.386 206.066 139.391 205.178 139.476 205.178Z" fill="#455A64"/>
<path d="M140.849 203.879C140.948 204.525 140.912 205.184 140.742 205.815C140.666 206.464 140.464 207.091 140.146 207.661C140.19 207.02 140.295 206.384 140.46 205.762C140.533 205.124 140.663 204.494 140.849 203.879Z" fill="#455A64"/>
<path d="M144.786 199.506C144.786 199.543 144.493 199.777 144.083 200.256C143.556 200.89 143.142 201.61 142.86 202.384C142.576 203.159 142.349 203.954 142.179 204.762C142.13 205.108 142.035 205.446 141.897 205.768C141.871 205.411 141.898 205.052 141.977 204.704C142.091 203.868 142.296 203.047 142.588 202.256C142.887 201.462 143.345 200.738 143.934 200.128C144.161 199.853 144.454 199.639 144.786 199.506Z" fill="#455A64"/>
<path d="M146.376 196.527C146.507 196.746 146.584 196.992 146.6 197.246C146.765 198.465 146.455 199.702 145.733 200.698C145.456 201.071 145.201 201.23 145.201 201.23C145.633 200.529 145.976 199.777 146.222 198.991C146.377 198.179 146.429 197.352 146.376 196.527Z" fill="#455A64"/>
<path d="M132.816 203.146C132.773 203.215 132.427 203.093 132.034 202.874C131.64 202.656 131.358 202.428 131.4 202.342C131.443 202.257 131.784 202.39 132.177 202.608C132.571 202.827 132.853 203.077 132.816 203.146Z" fill="#455A64"/>
<path d="M138.306 200.315C138.352 200.727 138.236 201.141 137.981 201.469C137.63 202.054 137.157 202.352 137.109 202.294C137.061 202.235 137.412 201.858 137.731 201.32C138.051 200.783 138.221 200.299 138.306 200.315Z" fill="#455A64"/>
<path d="M139.992 199.41C139.98 199.913 139.802 200.397 139.487 200.788C139.029 201.48 138.46 201.852 138.423 201.788C138.679 201.386 138.958 200.999 139.258 200.628C139.477 200.208 139.723 199.801 139.992 199.41Z" fill="#455A64"/>
<path d="M148.387 188.319C148.387 188.319 148.169 188.154 147.759 187.92C147.171 187.61 146.519 187.443 145.855 187.431C144.871 187.405 143.901 187.666 143.062 188.181C142.05 188.844 141.23 189.761 140.684 190.841C140.271 191.631 139.946 192.464 139.716 193.325L139.673 193.49L139.519 193.41C138.737 192.999 137.87 192.777 136.986 192.761C136.285 192.744 135.587 192.85 134.922 193.075C134.332 193.294 133.766 193.576 133.236 193.916C133.345 193.786 133.472 193.673 133.614 193.58C133.999 193.302 134.419 193.077 134.864 192.91C135.544 192.653 136.265 192.523 136.992 192.527C137.917 192.526 138.828 192.744 139.652 193.165L139.45 193.256C139.677 192.37 140.006 191.513 140.428 190.702C141.003 189.583 141.867 188.637 142.929 187.963C143.814 187.433 144.836 187.18 145.866 187.234C146.557 187.266 147.228 187.473 147.818 187.835C147.974 187.936 148.12 188.051 148.254 188.181C148.35 188.26 148.393 188.308 148.387 188.319Z" fill="#455A64"/>
<path d="M154.362 189.761C154.362 189.761 154.676 189.676 155.016 190.053C155.207 190.286 155.301 190.583 155.277 190.883C155.247 191.081 155.172 191.268 155.057 191.432C154.943 191.595 154.792 191.73 154.617 191.825C154.198 192.064 153.702 192.133 153.234 192.017C152.717 191.885 152.232 191.65 151.808 191.325C151.363 190.98 150.898 190.662 150.414 190.373C149.89 190.089 149.325 189.889 148.738 189.782C147.594 189.579 146.418 189.659 145.312 190.016C144.408 190.314 143.554 190.748 142.78 191.304C142.074 191.838 141.398 192.41 140.753 193.017C140.88 192.811 141.032 192.621 141.205 192.453C141.65 191.973 142.136 191.533 142.658 191.139C143.434 190.545 144.302 190.081 145.227 189.766C146.374 189.377 147.6 189.285 148.792 189.5C149.408 189.613 150.002 189.823 150.553 190.123C151.044 190.421 151.515 190.752 151.962 191.112C152.356 191.419 152.806 191.647 153.287 191.782C153.699 191.898 154.139 191.85 154.516 191.649C154.67 191.573 154.803 191.462 154.908 191.325C155.012 191.189 155.084 191.03 155.117 190.862C155.151 190.6 155.082 190.335 154.926 190.123C154.785 189.94 154.586 189.812 154.362 189.761Z" fill="#455A64"/>
<path d="M122.399 224.016L112.248 241.04C111.11 243.029 110.062 245.147 109.056 247.344C108.674 248.446 108.571 249.627 108.756 250.779C108.942 251.931 109.411 253.019 110.12 253.946L109.833 253.531C110.389 254.218 111.092 254.773 111.89 255.154C112.688 255.535 113.561 255.733 114.446 255.733H114.712C115.866 255.733 116.994 255.395 117.959 254.762C118.924 254.129 119.683 253.228 120.143 252.169L123.404 247.221L122.399 224.016Z" fill="#0C95EF"/>
<path d="M153.026 220.759C150.302 219.365 147.611 219.051 144.674 218.966C141.258 218.865 136.439 218.386 132.752 218.78C132.752 218.78 122.261 219.557 121.532 226.76L122.963 260.542L120.558 274.853L154.197 275.869L153.952 258.972C154.367 250.189 153.484 237.746 153.484 237.746C154.016 233.022 156.585 230.899 156.952 227.824C157.277 225.111 155.458 221.998 153.026 220.759Z" fill="#0C95EF"/>
<path d="M143.546 261.016C143.402 261.192 143.235 261.349 143.051 261.484C142.572 261.882 142.059 262.238 141.519 262.548C139.727 263.577 137.704 264.136 135.638 264.173C133.572 264.209 131.53 263.721 129.703 262.755C129.153 262.468 128.628 262.136 128.134 261.76C127.939 261.632 127.761 261.48 127.602 261.308C127.634 261.26 128.379 261.893 129.773 262.574C131.586 263.47 133.588 263.919 135.61 263.883C137.632 263.847 139.617 263.327 141.397 262.367C142.78 261.627 143.509 260.973 143.546 261.016Z" fill="#263238"/>
<path d="M121.5 227.133C121.524 227.241 121.537 227.352 121.537 227.463C121.537 227.713 121.575 228.021 121.596 228.41C121.633 229.266 121.692 230.442 121.755 231.878C121.883 234.847 122.048 238.885 122.234 243.343C122.42 247.801 122.623 251.855 122.766 254.802C122.841 256.239 122.899 257.414 122.942 258.271C122.942 258.659 122.974 258.968 122.984 259.218C122.997 259.327 122.997 259.438 122.984 259.548C122.955 259.442 122.937 259.333 122.931 259.223C122.905 258.973 122.873 258.664 122.835 258.281C122.756 257.462 122.67 256.276 122.569 254.813C122.367 251.881 122.154 247.833 121.963 243.353C121.771 238.874 121.644 234.841 121.569 231.889C121.569 230.447 121.516 229.271 121.5 228.41C121.5 228.027 121.5 227.713 121.5 227.468C121.488 227.357 121.488 227.244 121.5 227.133Z" fill="#263238"/>
<path d="M119.372 228.926C119.346 229.019 119.307 229.107 119.255 229.187L118.877 229.916C118.537 230.544 118.031 231.443 117.382 232.539C116.105 234.746 114.19 237.704 112.248 241.051C111.275 242.732 110.456 244.392 109.743 245.908C109.07 247.224 108.734 248.686 108.764 250.164C108.815 251.16 109.082 252.133 109.546 253.015C109.876 253.638 110.152 253.925 110.126 253.946C110.052 253.886 109.984 253.818 109.924 253.744C109.746 253.532 109.586 253.306 109.445 253.069C108.931 252.185 108.628 251.194 108.562 250.174C108.498 248.658 108.82 247.149 109.498 245.791C110.206 244.253 111.02 242.599 111.998 240.896C113.946 237.524 115.887 234.592 117.207 232.384C117.856 231.32 118.388 230.459 118.776 229.81C118.952 229.533 119.09 229.278 119.207 229.113C119.324 228.948 119.372 228.921 119.372 228.926Z" fill="#263238"/>
<path d="M181.244 238.2L173.46 233.108L168.545 241.62C168.545 241.62 161.735 232.156 158.644 226.613C155.793 221.505 152.111 220.133 150.334 219.76C150.212 219.735 150.086 219.739 149.966 219.772C149.846 219.805 149.735 219.867 149.643 219.951C149.551 220.035 149.481 220.14 149.437 220.256C149.394 220.373 149.378 220.499 149.393 220.622L152.053 239.03C152.393 239.987 158.011 248.132 161.15 252.228C166.39 259.07 174.109 254.692 176.227 249.904C177.935 246.1 180.552 240.328 181.244 238.2Z" fill="#0C95EF"/>
<path d="M170.785 249.297C170.688 248.9 170.638 248.493 170.636 248.084C170.571 247.111 170.445 246.142 170.258 245.185C170.066 244.233 169.73 243.317 169.263 242.466C168.901 241.822 168.587 241.471 168.625 241.439C168.959 241.684 169.236 241.998 169.439 242.36C169.971 243.207 170.345 244.145 170.54 245.126C170.734 246.097 170.834 247.084 170.838 248.073C170.871 248.482 170.853 248.893 170.785 249.297Z" fill="#263238"/>
<path d="M173.061 245.492C173.014 245.492 172.976 245.098 172.785 244.497C172.531 243.717 172.106 243.005 171.54 242.411C171.017 241.787 170.278 241.383 169.47 241.278C169.135 241.281 168.803 241.338 168.486 241.449C168.454 241.449 168.779 241.097 169.476 241.076C169.912 241.1 170.338 241.212 170.729 241.407C171.12 241.602 171.466 241.875 171.747 242.209C172.347 242.831 172.773 243.6 172.982 244.438C173.091 244.778 173.119 245.139 173.061 245.492Z" fill="#263238"/>
<path d="M149.829 222.031C149.774 222.109 149.71 222.18 149.638 222.243L149.398 222.488C149.313 222.6 149.212 222.717 149.1 222.85C148.486 223.626 148.029 224.516 147.754 225.467C147.345 226.876 147.245 228.357 147.462 229.808C147.571 230.664 147.794 231.502 148.127 232.298C148.504 233.152 148.925 233.987 149.387 234.799C151.292 238.145 153.255 241.039 154.67 243.13C155.372 244.14 155.952 244.97 156.383 245.582C156.604 245.875 156.81 246.178 157 246.492C157 246.492 156.926 246.428 156.804 246.284C156.681 246.141 156.506 245.933 156.272 245.651C155.83 245.119 155.208 244.273 154.484 243.247C152.573 240.567 150.798 237.794 149.164 234.937C148.695 234.118 148.27 233.275 147.893 232.41C147.548 231.597 147.313 230.742 147.196 229.867C146.989 228.377 147.115 226.86 147.563 225.425C147.859 224.457 148.354 223.562 149.015 222.797L149.34 222.451L149.6 222.222C149.744 222.078 149.818 222.02 149.829 222.031Z" fill="#263238"/>
<path d="M149.845 270.934C149.772 270.979 149.693 271.013 149.611 271.035L148.909 271.279C148.605 271.386 148.233 271.503 147.791 271.62C147.35 271.737 146.85 271.897 146.291 272.014C144.98 272.327 143.654 272.57 142.317 272.742C139.039 273.172 135.719 273.182 132.438 272.774C131.102 272.606 129.776 272.37 128.464 272.067C127.9 271.95 127.4 271.801 126.958 271.678C126.517 271.556 126.144 271.45 125.836 271.343L125.139 271.104C124.979 271.051 124.894 271.013 124.899 271.003C124.986 271.011 125.071 271.027 125.155 271.051L125.868 271.237C126.176 271.322 126.554 271.423 127.001 271.524C127.448 271.625 127.942 271.764 128.506 271.865C129.624 272.109 130.97 272.327 132.47 272.508C134.1 272.688 135.74 272.778 137.38 272.78C139.019 272.767 140.657 272.668 142.285 272.482C143.785 272.296 145.126 272.067 146.243 271.817C146.807 271.71 147.307 271.572 147.749 271.466C148.19 271.359 148.568 271.258 148.877 271.173L149.59 270.981C149.671 270.951 149.758 270.935 149.845 270.934Z" fill="#263238"/>
<g opacity="0.3">
<path d="M120.872 251.1L122.389 248.743L121.596 230.182L120.872 251.1Z" fill="black"/>
</g>
<g opacity="0.3">
<path d="M147.105 228.926C147.105 228.926 147.153 235.688 148.701 238.369C150.249 241.05 153.952 246.838 153.952 246.492C153.952 246.147 153.745 241.704 153.745 241.704C153.745 241.704 147.137 232.708 147.105 228.926Z" fill="black"/>
</g>
<path d="M119.526 251.68C119.378 251.764 119.212 251.813 119.042 251.823C118.577 251.874 118.106 251.812 117.669 251.643C117.025 251.397 116.444 251.008 115.972 250.504C115.414 249.884 114.937 249.196 114.552 248.456C114.177 247.722 113.758 247.011 113.296 246.328C112.914 245.789 112.445 245.318 111.908 244.934C111.4 244.598 110.827 244.372 110.227 244.269C110.402 244.233 110.583 244.233 110.759 244.269C111.217 244.344 111.656 244.512 112.046 244.764C112.618 245.143 113.12 245.618 113.531 246.168C114.007 246.848 114.437 247.559 114.818 248.296C115.192 249.017 115.649 249.692 116.18 250.307C116.626 250.794 117.17 251.18 117.776 251.44C118.329 251.671 118.932 251.753 119.526 251.68Z" fill="white"/>
<path d="M121.585 240.008C121.537 240.008 121.42 239.604 121.096 239.008C120.671 238.231 120.086 237.554 119.38 237.02C118.674 236.486 117.862 236.109 116.999 235.912C116.334 235.763 115.903 235.763 115.903 235.715C116.275 235.634 116.66 235.634 117.031 235.715C117.945 235.865 118.809 236.233 119.55 236.789C120.291 237.345 120.887 238.071 121.287 238.907C121.465 239.248 121.567 239.624 121.585 240.008Z" fill="white"/>
<path d="M147.228 230.044C147.228 230.044 146.861 229.975 146.201 229.922C145.268 229.857 144.33 229.942 143.424 230.172C142.077 230.524 140.78 231.042 139.561 231.715C138.168 232.443 136.694 233.369 135.024 234.135C133.453 234.868 131.758 235.3 130.028 235.407C128.617 235.489 127.202 235.358 125.831 235.018C124.909 234.795 124.017 234.466 123.171 234.039C122.867 233.896 122.639 233.752 122.495 233.667C122.351 233.582 122.266 233.523 122.271 233.513C122.277 233.502 122.612 233.672 123.218 233.938C124.073 234.323 124.964 234.621 125.878 234.827C127.233 235.134 128.626 235.243 130.012 235.151C131.709 235.03 133.369 234.601 134.912 233.885C136.556 233.13 138.035 232.215 139.444 231.491C140.682 230.816 142.004 230.309 143.376 229.986C144.304 229.764 145.264 229.706 146.211 229.815C146.468 229.845 146.722 229.893 146.972 229.959C147.061 229.975 147.147 230.003 147.228 230.044Z" fill="white"/>
<path d="M153.766 248.45C153.669 248.496 153.567 248.53 153.463 248.551C153.166 248.643 152.864 248.718 152.558 248.774C151.44 248.999 150.299 249.09 149.159 249.046C147.469 248.975 145.791 248.74 144.147 248.343C142.285 247.918 140.285 247.306 138.183 246.689C136.216 246.093 134.207 245.647 132.172 245.354C130.514 245.116 128.832 245.103 127.171 245.316C126.051 245.461 124.957 245.762 123.921 246.21C123.192 246.529 122.803 246.742 122.793 246.742C122.873 246.671 122.963 246.61 123.059 246.561C123.25 246.466 123.506 246.279 123.878 246.12C124.912 245.631 126.013 245.298 127.144 245.13C128.823 244.897 130.525 244.897 132.204 245.13C134.254 245.41 136.278 245.853 138.258 246.455C140.386 247.072 142.36 247.689 144.206 248.125C145.831 248.534 147.491 248.787 149.164 248.881C150.293 248.941 151.426 248.88 152.542 248.7C153.33 248.535 153.76 248.423 153.766 248.45Z" fill="white"/>
<path d="M153.952 258.973C152.549 258.344 151.055 257.942 149.526 257.781C147.865 257.648 146.194 257.705 144.546 257.951C142.679 258.207 140.647 258.632 138.503 259.015C136.359 259.398 134.305 259.771 132.411 259.936C130.737 260.106 129.05 260.095 127.379 259.904C126.25 259.77 125.141 259.504 124.075 259.111C123.697 258.983 123.42 258.829 123.229 258.749C123.128 258.711 123.031 258.661 122.942 258.6C122.942 258.574 123.357 258.755 124.112 259.01C125.181 259.357 126.283 259.59 127.4 259.707C129.059 259.879 130.731 259.879 132.39 259.707C134.263 259.531 136.311 259.175 138.455 258.771C140.599 258.366 142.631 257.946 144.514 257.707C146.181 257.465 147.871 257.425 149.547 257.59C150.678 257.712 151.786 257.991 152.84 258.42C153.126 258.535 153.405 258.669 153.675 258.819C153.773 258.86 153.865 258.912 153.952 258.973Z" fill="white"/>
<path d="M136.662 272.54C136.473 272.449 136.294 272.336 136.13 272.205C135.8 271.97 135.321 271.641 134.72 271.247C133.161 270.215 131.537 269.286 129.858 268.465C128.173 267.645 126.437 266.934 124.66 266.337C123.979 266.108 123.426 265.938 123.064 265.805C122.859 265.759 122.661 265.688 122.474 265.592C122.682 265.606 122.889 265.641 123.091 265.698C123.49 265.783 124.054 265.932 124.745 266.134C128.359 267.215 131.773 268.877 134.853 271.055C135.444 271.47 135.917 271.827 136.215 272.088C136.382 272.22 136.532 272.372 136.662 272.54Z" fill="white"/>
<path d="M153.037 272.359C152.702 272.612 152.323 272.801 151.92 272.918C149.988 273.605 147.869 273.54 145.983 272.737C145.595 272.59 145.235 272.378 144.919 272.109C145.311 272.239 145.696 272.388 146.073 272.556C147.004 272.878 147.978 273.057 148.962 273.088C149.947 273.114 150.931 272.987 151.877 272.711C152.585 272.519 153.016 272.317 153.037 272.359Z" fill="white"/>
<path d="M164.682 237.236C164.693 237.397 164.672 237.558 164.619 237.71C164.492 238.13 164.28 238.519 163.996 238.854C163.575 239.345 163.069 239.756 162.501 240.067C161.814 240.433 161.103 240.753 160.373 241.024C159.657 241.293 158.978 241.65 158.352 242.088C157.853 242.454 157.442 242.926 157.149 243.471C156.887 243.98 156.769 244.55 156.809 245.121C156.733 244.979 156.696 244.819 156.702 244.658C156.685 244.216 156.779 243.777 156.974 243.381C157.257 242.794 157.674 242.282 158.192 241.886C158.83 241.422 159.528 241.048 160.267 240.774C160.993 240.505 161.703 240.196 162.395 239.848C162.942 239.559 163.438 239.181 163.863 238.731C164.236 238.294 164.515 237.786 164.682 237.236Z" fill="white"/>
<path d="M158.144 225.948C158.139 226.113 158.108 226.276 158.054 226.432C158.013 226.613 157.958 226.791 157.889 226.964C157.812 227.206 157.722 227.444 157.618 227.677C157.354 228.287 157.033 228.871 156.66 229.422C156.192 230.091 155.657 230.711 155.064 231.273C154.467 231.828 153.815 232.32 153.117 232.741C152.546 233.081 151.944 233.366 151.319 233.592C151.08 233.682 150.837 233.758 150.59 233.821C150.416 233.876 150.238 233.919 150.058 233.949C149.898 233.992 149.734 234.013 149.568 234.013C149.568 233.959 150.244 233.826 151.276 233.406C151.872 233.161 152.446 232.867 152.994 232.528C154.35 231.686 155.524 230.581 156.447 229.278C156.825 228.749 157.156 228.188 157.437 227.602C157.921 226.607 158.091 225.932 158.144 225.948Z" fill="white"/>
<path d="M147.903 218.967C147.656 219.102 147.398 219.218 147.132 219.313C146.632 219.525 145.887 219.791 144.956 220.084C144.025 220.377 142.902 220.664 141.636 220.925C138.888 221.471 136.083 221.677 133.284 221.536C132.142 221.48 131.004 221.364 129.874 221.191C128.911 221.036 128.139 220.882 127.607 220.744C127.33 220.692 127.057 220.616 126.793 220.515C127.077 220.534 127.358 220.577 127.634 220.643C128.166 220.744 128.943 220.871 129.9 220.994C130.858 221.116 132.028 221.228 133.294 221.281C134.683 221.331 136.074 221.308 137.46 221.212C138.844 221.106 140.222 220.928 141.588 220.68C142.844 220.435 143.972 220.148 144.903 219.898C145.834 219.648 146.584 219.398 147.095 219.217C147.357 219.112 147.627 219.028 147.903 218.967Z" fill="white"/>
<path d="M168.805 242.104C168.897 242.27 168.961 242.449 168.997 242.636C169.124 243.139 169.201 243.654 169.226 244.173C169.245 245.885 169.066 247.593 168.694 249.264C168.548 250.198 168.306 251.115 167.97 251.999C167.688 252.726 167.269 253.392 166.736 253.962C166.377 254.347 165.947 254.66 165.47 254.882C165.305 254.973 165.124 255.03 164.938 255.052C165.566 254.754 166.131 254.339 166.603 253.829C167.098 253.261 167.485 252.609 167.747 251.903C168.06 251.029 168.29 250.128 168.433 249.211C168.795 247.559 168.997 245.875 169.034 244.184C168.998 243.486 168.921 242.792 168.805 242.104Z" fill="white"/>
<path d="M179.488 243.486C179.44 243.486 179.19 242.954 178.637 242.135C177.903 241.085 176.992 240.17 175.945 239.432C174.893 238.701 173.721 238.161 172.481 237.836C171.529 237.591 170.885 237.549 170.917 237.501C171.062 237.474 171.21 237.474 171.354 237.501C171.748 237.521 172.139 237.574 172.524 237.661C173.102 237.784 173.666 237.962 174.21 238.193C175.548 238.746 176.748 239.584 177.727 240.65C178.123 241.084 178.479 241.552 178.791 242.05C179 242.388 179.178 242.744 179.323 243.114C179.397 243.229 179.452 243.354 179.488 243.486Z" fill="white"/>
<g opacity="0.3">
<path d="M148.212 271.363C148.339 271.3 148.451 271.211 148.541 271.101C148.63 270.991 148.695 270.863 148.731 270.725C148.766 270.588 148.771 270.444 148.746 270.305C148.721 270.165 148.665 270.032 148.584 269.916C148.386 269.717 148.145 269.566 147.879 269.474C147.614 269.382 147.331 269.351 147.052 269.384C144.301 269.437 141.902 271.278 139.2 271.773C137.146 272.145 135.023 271.725 133.023 271.118C131.023 270.512 129.07 269.719 127.017 269.331C126.592 269.222 126.148 269.211 125.719 269.299C125.504 269.346 125.308 269.455 125.154 269.612C125 269.768 124.895 269.967 124.852 270.182C124.798 270.613 124.899 270.937 125.548 271.156C125.548 271.156 132.353 273.049 137.252 272.975C140.952 272.828 144.626 272.287 148.212 271.363Z" fill="black"/>
</g>
</svg>
