<svg width="20" height="20" viewBox="0 0 20 20" fill="none" xmlns="http://www.w3.org/2000/svg">
<path d="M17.5667 7.14938V12.8493C17.5667 13.7827 17.0667 14.6494 16.2584 15.1244L11.3084 17.9827C10.5 18.4494 9.50005 18.4494 8.68338 17.9827L3.73338 15.1244C2.92505 14.6577 2.42505 13.791 2.42505 12.8493V7.14938C2.42505 6.21604 2.92505 5.34934 3.73338 4.87434L8.68338 2.01602C9.49172 1.54935 10.4917 1.54935 11.3084 2.01602L16.2584 4.87434C17.0667 5.34934 17.5667 6.20771 17.5667 7.14938Z" stroke="#667085" stroke-linecap="round" stroke-linejoin="round"/>
<path d="M10 9.16651C11.0724 9.16651 11.9417 8.29719 11.9417 7.22483C11.9417 6.15248 11.0724 5.2832 10 5.2832C8.92766 5.2832 8.05835 6.15248 8.05835 7.22483C8.05835 8.29719 8.92766 9.16651 10 9.16651Z" stroke="#667085" stroke-linecap="round" stroke-linejoin="round"/>
<path d="M13.3334 13.8826C13.3334 12.3826 11.8417 11.166 10.0001 11.166C8.15841 11.166 6.66675 12.3826 6.66675 13.8826" stroke="#667085" stroke-linecap="round" stroke-linejoin="round"/>
</svg>
