<svg width="375" height="513" viewBox="0 0 375 513" fill="none" xmlns="http://www.w3.org/2000/svg">
<path d="M284.434 378.998C256.581 402.458 211.649 406.207 171.309 399.478C130.952 392.988 94.914 376.481 74.7642 349.346C54.8534 322.227 50.8142 284.718 56.1258 250.761C61.4204 217.041 76.322 186.651 100.883 152.15C125.205 117.631 159.442 78.7796 192.035 79.6714C224.628 80.5631 256.056 121.232 279.515 159.17C302.974 197.108 318.685 232.571 320.898 272.11C323.367 311.427 312.304 355.299 284.434 378.998Z" fill="#D3ECFD"/>
<path d="M261.069 218.021H113.231C109.884 218.021 107.17 220.734 107.17 224.082V317.74C107.17 321.087 109.884 323.801 113.231 323.801H261.069C264.417 323.801 267.13 321.087 267.13 317.74V224.082C267.13 220.734 264.417 218.021 261.069 218.021Z" fill="#455A64"/>
<path d="M100.918 316.97H274.223V318.821C274.223 320.785 273.443 322.669 272.055 324.057C270.666 325.446 268.782 326.226 266.819 326.226H108.323C106.359 326.226 104.475 325.446 103.087 324.057C101.698 322.669 100.918 320.785 100.918 318.821V316.97Z" fill="#455A64"/>
<path d="M262.388 222.222H111.463V311.55H262.388V222.222Z" fill="#263238"/>
<path d="M171.384 315.976L173.53 319.4H203.794L205.791 315.976H171.384Z" fill="#263238"/>
<path d="M258.232 225.246H115.935C115.184 225.246 114.575 225.855 114.575 226.607V309.906C114.575 310.658 115.184 311.267 115.935 311.267H258.232C258.984 311.267 259.593 310.658 259.593 309.906V226.607C259.593 225.855 258.984 225.246 258.232 225.246Z" fill="#EBEBEB"/>
<path d="M259.434 311.392H114.417L114.575 231.678H259.434V311.392Z" fill="#FAFAFA"/>
<path d="M126.468 228.57C126.469 228.8 126.402 229.025 126.275 229.216C126.148 229.408 125.967 229.557 125.755 229.646C125.543 229.734 125.309 229.758 125.084 229.713C124.859 229.669 124.651 229.559 124.489 229.397C124.326 229.234 124.215 229.028 124.17 228.802C124.125 228.577 124.147 228.344 124.235 228.131C124.323 227.919 124.472 227.737 124.663 227.61C124.854 227.482 125.078 227.414 125.308 227.414C125.46 227.413 125.611 227.443 125.752 227.501C125.892 227.559 126.02 227.644 126.128 227.751C126.236 227.859 126.322 227.986 126.38 228.127C126.438 228.267 126.468 228.418 126.468 228.57Z" fill="#263238"/>
<path d="M119.446 228.57C119.447 228.8 119.38 229.025 119.253 229.217C119.125 229.408 118.944 229.558 118.732 229.646C118.52 229.734 118.286 229.758 118.06 229.713C117.835 229.668 117.628 229.558 117.465 229.395C117.302 229.233 117.192 229.025 117.147 228.8C117.103 228.574 117.126 228.341 117.214 228.128C117.303 227.916 117.452 227.735 117.644 227.608C117.835 227.48 118.06 227.413 118.29 227.414C118.442 227.413 118.593 227.443 118.733 227.501C118.874 227.559 119.001 227.644 119.109 227.751C119.216 227.859 119.302 227.987 119.359 228.127C119.417 228.268 119.447 228.418 119.446 228.57Z" fill="#263238"/>
<path d="M122.816 228.57C122.817 228.8 122.749 229.025 122.622 229.217C122.495 229.408 122.314 229.558 122.101 229.646C121.889 229.734 121.655 229.758 121.43 229.713C121.204 229.668 120.997 229.558 120.835 229.395C120.672 229.233 120.561 229.025 120.517 228.8C120.472 228.574 120.495 228.341 120.584 228.128C120.672 227.916 120.822 227.735 121.013 227.608C121.205 227.48 121.43 227.413 121.659 227.414C121.811 227.413 121.962 227.443 122.103 227.501C122.243 227.559 122.371 227.644 122.478 227.751C122.586 227.859 122.671 227.987 122.729 228.127C122.787 228.268 122.816 228.418 122.816 228.57Z" fill="#263238"/>
<path d="M265.754 315.976C265.754 316.034 230.252 316.08 186.468 316.08C142.684 316.08 107.17 316.034 107.17 315.976C107.17 315.918 142.667 315.872 186.468 315.872C230.269 315.872 265.754 315.922 265.754 315.976Z" fill="#263238"/>
<path d="M161.009 262.815L220.01 262.266L221.737 302.373L160.643 301.936L161.009 262.815Z" fill="#0C95EF"/>
<path d="M161.009 262.824L188.881 240.173C189.453 239.707 190.169 239.453 190.907 239.453C191.645 239.453 192.36 239.707 192.933 240.173L220.006 262.27" fill="#0C95EF"/>
<g opacity="0.3">
<path d="M161.009 262.824L188.881 240.173C189.453 239.707 190.169 239.453 190.907 239.453C191.645 239.453 192.36 239.707 192.933 240.173L220.006 262.27" fill="black"/>
</g>
<path d="M160.643 301.928C160.572 301.857 165.281 296.69 171.168 290.388C177.054 284.085 181.888 279.048 181.963 279.106C182.038 279.164 177.324 284.339 171.434 290.646C165.543 296.952 160.718 302.003 160.643 301.928Z" fill="#263238"/>
<path d="M221.737 302.373C221.662 302.444 217.052 297.381 211.441 291.112C205.829 284.843 201.34 279.672 201.415 279.605C201.49 279.539 206.099 284.597 211.715 290.87C217.331 297.144 221.811 302.306 221.737 302.373Z" fill="#263238"/>
<g opacity="0.5">
<path d="M220.01 262.266L190.433 285.995L161.009 262.815" fill="black"/>
</g>
<path d="M163.987 265.003L163.854 246.575L215.517 245.859L216.137 265.245L190.428 285.683L163.987 265.003Z" fill="#FAFAFA"/>
<path d="M163.987 265.004C163.987 265.004 164.158 265.124 164.478 265.37L165.884 266.456L171.234 270.616C175.843 274.214 182.466 279.352 190.482 285.625H190.374L216.071 265.17L216.033 265.257C215.913 261.559 215.788 257.678 215.663 253.73C215.576 251.072 215.492 248.443 215.409 245.868L215.517 245.972L163.858 246.654L163.925 246.583C163.95 252.378 163.975 256.983 163.987 260.136C163.987 261.713 163.987 262.928 163.987 263.756C163.987 264.172 163.987 264.475 163.987 264.692C163.987 264.908 163.987 265.012 163.987 265.012C163.987 265.012 163.987 264.908 163.987 264.7C163.987 264.492 163.987 264.176 163.987 263.772C163.987 262.94 163.962 261.734 163.946 260.161C163.917 256.996 163.871 252.391 163.817 246.583V246.517H163.883L215.513 245.768H215.621V245.876C215.705 248.451 215.788 251.076 215.875 253.734C216 257.682 216.125 261.563 216.241 265.262V265.316L216.2 265.349L190.474 285.775L190.42 285.82L190.366 285.775L171.138 270.686L165.83 266.501L164.445 265.403L163.987 265.004Z" fill="#263238"/>
<path d="M207.372 255.153C207.372 255.211 199.468 255.323 189.725 255.402C179.983 255.481 172.079 255.498 172.079 255.44C172.079 255.381 179.983 255.269 189.725 255.186C199.468 255.103 207.372 255.09 207.372 255.153Z" fill="#263238"/>
<path d="M207.38 260.357C207.38 260.415 199.476 260.531 189.738 260.611C179.999 260.69 172.091 260.706 172.091 260.644C172.091 260.581 179.995 260.473 189.738 260.394C199.481 260.315 207.38 260.299 207.38 260.357Z" fill="#263238"/>
<path d="M207.393 266.356C207.393 266.418 199.489 266.53 189.75 266.609C180.012 266.688 172.104 266.705 172.104 266.643C172.104 266.58 180.008 266.472 189.75 266.393C199.493 266.314 207.393 266.297 207.393 266.356Z" fill="#263238"/>
<path d="M207.405 272.354C207.405 272.417 199.872 272.525 190.574 272.6C181.276 272.675 173.739 272.691 173.739 272.629C173.739 272.566 181.272 272.458 190.574 272.383C199.876 272.308 207.405 272.296 207.405 272.354Z" fill="#263238"/>
<path d="M200.816 277.633C200.748 277.652 200.678 277.661 200.608 277.658L200.013 277.683L197.833 277.737L190.632 277.87C187.82 277.92 185.27 277.937 183.427 277.937H181.247H180.652C180.583 277.939 180.513 277.932 180.444 277.916C180.512 277.897 180.582 277.889 180.652 277.891L181.243 277.866L183.427 277.812L190.628 277.683C193.44 277.629 195.986 277.613 197.829 277.613H200.013H200.608C200.678 277.613 200.747 277.62 200.816 277.633Z" fill="#263238"/>
<path d="M194.16 282.708C192.915 282.82 191.665 282.859 190.416 282.825C189.167 282.864 187.917 282.831 186.672 282.725C187.917 282.615 189.167 282.577 190.416 282.609C191.665 282.572 192.915 282.605 194.16 282.708Z" fill="#263238"/>
<path d="M201.132 245.697C201.19 245.697 201.215 245.938 201.186 246.225C201.157 246.512 201.086 246.737 201.028 246.733C200.97 246.729 200.945 246.487 200.974 246.2C201.003 245.913 201.07 245.689 201.132 245.697Z" fill="#263238"/>
<path d="M201.686 241.645C201.74 241.986 201.725 242.334 201.64 242.669C201.62 243.014 201.531 243.352 201.378 243.663C201.335 242.976 201.44 242.288 201.686 241.645Z" fill="#263238"/>
<path d="M202.501 237.635C202.535 237.98 202.497 238.329 202.389 238.658C202.346 239.002 202.234 239.333 202.06 239.632C202.027 239.288 202.066 238.94 202.176 238.613C202.215 238.268 202.326 237.935 202.501 237.635Z" fill="#263238"/>
<path d="M203.612 233.704C203.557 234.392 203.354 235.061 203.017 235.663C203.013 235.316 203.079 234.973 203.212 234.652C203.277 234.311 203.413 233.988 203.612 233.704Z" fill="#263238"/>
<path d="M205.038 229.868C205.014 230.214 204.919 230.551 204.76 230.858C204.665 231.192 204.502 231.502 204.281 231.77C204.308 231.428 204.403 231.096 204.56 230.792C204.652 230.454 204.815 230.139 205.038 229.868Z" fill="#263238"/>
<path d="M206.811 226.187C206.63 226.851 206.313 227.47 205.879 228.005C205.935 227.663 206.061 227.338 206.249 227.048C206.507 226.544 206.757 226.157 206.811 226.187Z" fill="#263238"/>
<path d="M208.949 222.701C208.853 223.034 208.69 223.344 208.47 223.612C208.171 224.086 207.884 224.444 207.834 224.415C207.917 224.078 208.072 223.763 208.287 223.491C208.604 223.021 208.899 222.667 208.949 222.701Z" fill="#263238"/>
<path d="M211.47 219.481C211.339 219.802 211.145 220.093 210.9 220.338C210.538 220.754 210.209 221.091 210.159 221.053C210.109 221.016 210.367 220.637 210.733 220.2C211.1 219.764 211.424 219.443 211.47 219.481Z" fill="#263238"/>
<path d="M214.348 216.581C214.39 216.627 214.091 216.977 213.683 217.363C213.275 217.75 212.909 218.029 212.851 217.987C212.793 217.946 213.105 217.596 213.516 217.205C213.928 216.814 214.311 216.536 214.348 216.581Z" fill="#263238"/>
<path d="M217.568 214.06C217.602 214.11 217.261 214.422 216.807 214.755C216.55 214.986 216.249 215.161 215.921 215.271C215.884 215.225 216.225 214.913 216.682 214.58C216.938 214.346 217.24 214.169 217.568 214.06Z" fill="#263238"/>
<path d="M221.096 211.993C220.571 212.441 219.957 212.773 219.295 212.966C219.266 212.912 219.644 212.654 220.127 212.384C220.418 212.185 220.749 212.052 221.096 211.993Z" fill="#263238"/>
<path d="M224.882 210.454C224.607 210.663 224.293 210.816 223.958 210.903C223.646 211.054 223.306 211.138 222.96 211.148C223.234 210.937 223.548 210.784 223.883 210.699C224.194 210.546 224.535 210.462 224.882 210.454Z" fill="#263238"/>
<path d="M228.859 209.526C228.552 209.682 228.216 209.776 227.873 209.8C227.544 209.905 227.197 209.941 226.854 209.904C227.479 209.611 228.169 209.481 228.859 209.526Z" fill="#263238"/>
<path d="M232.94 209.301C232.611 209.409 232.264 209.449 231.92 209.418C231.576 209.459 231.227 209.426 230.897 209.322C231.225 209.213 231.572 209.172 231.916 209.201C232.261 209.161 232.609 209.195 232.94 209.301Z" fill="#263238"/>
<path d="M237.008 209.78C236.665 209.831 236.315 209.811 235.981 209.721C235.634 209.702 235.295 209.61 234.986 209.451C235.676 209.418 236.365 209.53 237.008 209.78Z" fill="#263238"/>
<path d="M240.914 210.949C240.229 210.865 239.569 210.635 238.98 210.275C239.326 210.285 239.667 210.365 239.982 210.508C240.321 210.587 240.638 210.737 240.914 210.949Z" fill="#263238"/>
<path d="M244.554 212.804C244.216 212.729 243.897 212.588 243.614 212.388C243.298 212.246 243.015 212.041 242.782 211.785C243.121 211.857 243.441 211.998 243.722 212.201C244.213 212.488 244.588 212.754 244.554 212.804Z" fill="#263238"/>
<path d="M247.758 215.333C247.444 215.192 247.161 214.99 246.926 214.738C246.51 214.372 246.193 214.031 246.231 213.985C246.268 213.94 246.647 214.202 247.063 214.576C247.479 214.951 247.799 215.292 247.758 215.333Z" fill="#263238"/>
<path d="M249.779 217.663C249.729 217.696 249.55 217.542 249.363 217.318C249.176 217.093 249.085 216.881 249.13 216.839C249.176 216.798 249.355 216.956 249.546 217.184C249.738 217.413 249.829 217.625 249.779 217.663Z" fill="#263238"/>
<path d="M269.015 242.727C268.666 242.682 268.331 242.566 268.029 242.386C267.505 242.144 267.102 241.903 267.131 241.849C267.48 241.897 267.816 242.013 268.121 242.19C268.452 242.307 268.756 242.49 269.015 242.727Z" fill="#263238"/>
<path d="M272.942 244.104C272.244 244.041 271.567 243.834 270.954 243.496C271.652 243.557 272.329 243.764 272.942 244.104Z" fill="#263238"/>
<path d="M277.048 244.749C276.702 244.821 276.346 244.821 276 244.749C275.648 244.747 275.301 244.671 274.981 244.528C275.325 244.459 275.68 244.459 276.025 244.528C276.377 244.532 276.725 244.607 277.048 244.749Z" fill="#263238"/>
<path d="M281.2 244.62C280.873 244.75 280.524 244.812 280.172 244.803C279.825 244.867 279.467 244.857 279.124 244.774C279.452 244.645 279.803 244.581 280.156 244.586C280.502 244.525 280.858 244.536 281.2 244.62Z" fill="#263238"/>
<path d="M285.285 243.854C284.982 244.035 284.647 244.153 284.299 244.204C283.962 244.309 283.606 244.344 283.255 244.308C283.563 244.137 283.903 244.031 284.253 243.996C284.584 243.878 284.935 243.83 285.285 243.854Z" fill="#263238"/>
<path d="M289.145 242.319C289.174 242.373 288.771 242.61 288.247 242.856C287.944 243.035 287.607 243.149 287.257 243.189C287.819 242.771 288.462 242.475 289.145 242.319Z" fill="#263238"/>
<path d="M292.594 240.002C292.631 240.048 292.307 240.389 291.845 240.738C291.585 240.978 291.274 241.155 290.934 241.254C290.901 241.204 291.259 240.909 291.716 240.568C291.972 240.328 292.27 240.136 292.594 240.002Z" fill="#263238"/>
<path d="M295.423 236.965C295.309 237.302 295.12 237.608 294.87 237.86C294.499 238.305 294.141 238.613 294.1 238.571C294.058 238.53 294.341 238.155 294.703 237.739C295.065 237.323 295.373 236.932 295.423 236.965Z" fill="#263238"/>
<path d="M297.37 233.288C297.356 233.643 297.258 233.99 297.083 234.299C296.967 234.634 296.777 234.939 296.525 235.189C296.587 234.844 296.708 234.512 296.883 234.207C296.993 233.876 297.158 233.565 297.37 233.288Z" fill="#263238"/>
<path d="M298.16 229.236C298.26 229.577 298.276 229.936 298.206 230.284C298.205 230.64 298.117 230.99 297.948 231.304C297.906 230.957 297.92 230.606 297.99 230.264C297.989 229.914 298.047 229.567 298.16 229.236Z" fill="#263238"/>
<path d="M297.54 225.134C297.74 225.428 297.868 225.764 297.915 226.116C298.027 226.452 298.057 226.81 298.002 227.16C297.847 226.848 297.746 226.512 297.702 226.166C297.591 225.833 297.537 225.485 297.54 225.134Z" fill="#263238"/>
<path d="M295.731 221.407C295.776 221.369 296.093 221.727 296.384 222.239C296.591 222.525 296.726 222.858 296.775 223.208C296.721 223.237 296.479 222.838 296.197 222.347C295.991 222.061 295.833 221.744 295.731 221.407Z" fill="#263238"/>
<path d="M292.844 218.437C293.181 218.55 293.485 218.744 293.73 219.002C294.171 219.381 294.458 219.755 294.416 219.797C294.374 219.838 294 219.535 293.584 219.165C293.168 218.794 292.81 218.486 292.844 218.437Z" fill="#263238"/>
<path d="M289.07 216.748C289.426 216.714 289.784 216.773 290.11 216.918C290.457 216.998 290.779 217.162 291.046 217.397C290.7 217.359 290.361 217.267 290.044 217.122C289.702 217.048 289.374 216.922 289.07 216.748Z" fill="#263238"/>
<path d="M284.948 216.818C285.251 216.63 285.598 216.525 285.955 216.515C286.303 216.435 286.665 216.447 287.007 216.548C286.324 216.703 285.627 216.794 284.927 216.818H284.948Z" fill="#263238"/>
<path d="M281.362 218.823C281.316 218.786 281.603 218.407 282.073 218.046C282.337 217.803 282.662 217.638 283.013 217.567C283.043 217.625 282.652 217.879 282.181 218.22C281.711 218.561 281.408 218.865 281.362 218.823Z" fill="#263238"/>
<path d="M279.715 222.559C279.636 222.209 279.657 221.845 279.777 221.507C279.826 221.15 279.977 220.816 280.214 220.546C280.177 220.89 280.1 221.229 279.985 221.557C279.939 221.901 279.848 222.238 279.715 222.559Z" fill="#263238"/>
<path d="M280.526 226.59C280.279 226.332 280.106 226.014 280.022 225.667C279.87 225.342 279.81 224.983 279.848 224.627C280.018 224.931 280.146 225.257 280.226 225.596C280.374 225.911 280.475 226.246 280.526 226.59Z" fill="#263238"/>
<path d="M283.246 229.685C282.905 229.579 282.597 229.387 282.352 229.128C281.911 228.745 281.641 228.354 281.686 228.317C281.732 228.279 282.069 228.591 282.493 228.965C282.918 229.34 283.28 229.635 283.246 229.685Z" fill="#263238"/>
<path d="M287.024 231.378C286.669 231.397 286.315 231.33 285.992 231.183C285.645 231.105 285.323 230.94 285.056 230.704C285.403 230.742 285.741 230.834 286.059 230.979C286.401 231.056 286.727 231.191 287.024 231.378Z" fill="#263238"/>
<path d="M291.15 231.77C290.466 231.946 289.746 231.93 289.07 231.724C289.412 231.652 289.763 231.635 290.11 231.674C290.46 231.645 290.812 231.678 291.15 231.77Z" fill="#263238"/>
<path d="M295.248 231.012C294.636 231.363 293.94 231.542 293.235 231.528C293.541 231.361 293.875 231.25 294.221 231.199C294.55 231.081 294.898 231.017 295.248 231.012Z" fill="#263238"/>
<path d="M298.992 229.286C298.745 229.537 298.449 229.735 298.123 229.868C297.83 230.063 297.5 230.196 297.153 230.259C297.692 229.811 298.318 229.48 298.992 229.286Z" fill="#263238"/>
<path d="M302.32 226.807C302.362 226.852 302.033 227.185 301.588 227.551C301.337 227.799 301.04 227.996 300.714 228.13C300.677 228.08 301.01 227.747 301.451 227.385C301.701 227.138 301.996 226.942 302.32 226.807Z" fill="#263238"/>
<path d="M305.17 223.766C305.215 223.803 304.949 224.182 304.575 224.627C304.2 225.072 303.859 225.388 303.818 225.346C303.776 225.305 304.038 224.93 304.408 224.485C304.779 224.04 305.12 223.72 305.17 223.766Z" fill="#263238"/>
<path d="M307.454 220.296C307.374 220.639 307.223 220.962 307.013 221.245C306.713 221.74 306.434 222.114 306.384 222.077C306.465 221.734 306.615 221.411 306.825 221.128C307.121 220.641 307.399 220.267 307.454 220.296Z" fill="#263238"/>
<path d="M309.142 216.494C309.117 216.846 309.022 217.189 308.864 217.505C308.771 217.846 308.604 218.161 308.373 218.428C308.409 218.08 308.506 217.74 308.66 217.426C308.756 217.086 308.92 216.769 309.142 216.494Z" fill="#263238"/>
<path d="M310.303 212.488C310.324 212.839 310.272 213.19 310.149 213.519C310.095 213.868 309.97 214.202 309.783 214.501C309.813 213.801 309.99 213.115 310.303 212.488Z" fill="#263238"/>
<path d="M311.031 208.411C311.088 208.759 311.071 209.115 310.981 209.455C310.962 209.806 310.873 210.15 310.719 210.466C310.662 210.118 310.679 209.763 310.769 209.422C310.789 209.071 310.878 208.727 311.031 208.411Z" fill="#263238"/>
<path d="M311.414 204.268C311.51 204.964 311.458 205.673 311.26 206.348C311.182 206.003 311.172 205.647 311.231 205.299C311.222 204.947 311.284 204.596 311.414 204.268Z" fill="#263238"/>
<path d="M311.547 200.112C311.649 200.448 311.679 200.803 311.634 201.152C311.665 201.504 311.621 201.858 311.505 202.192C311.409 201.853 311.379 201.498 311.418 201.148C311.392 200.797 311.436 200.445 311.547 200.112Z" fill="#263238"/>
<path d="M311.518 195.952C311.629 196.287 311.672 196.64 311.643 196.992C311.684 197.341 311.652 197.696 311.547 198.032C311.436 197.697 311.393 197.343 311.422 196.992C311.385 196.642 311.418 196.289 311.518 195.952Z" fill="#263238"/>
<path d="M311.472 193.393C311.53 193.393 311.584 193.497 311.589 193.63C311.593 193.764 311.547 193.868 311.485 193.872C311.422 193.876 311.372 193.768 311.372 193.635C311.372 193.501 311.397 193.393 311.472 193.393Z" fill="#263238"/>
<path d="M320.571 181.041L292.295 184.113L294.366 203.174L322.641 200.102L320.571 181.041Z" fill="#0C95EF"/>
<path d="M294.354 203.194L292.274 184.125L320.562 181.055L322.642 200.129L294.354 203.194ZM292.307 184.133L294.387 203.174L322.642 200.104L320.562 181.063L292.307 184.133Z" fill="#263238"/>
<path d="M320.686 181.288C320.617 181.389 320.537 181.484 320.449 181.571L319.738 182.349L317.08 185.169L308.223 194.413L308.152 194.492L308.061 194.433L307.845 194.296L296.912 187.303L293.584 185.161L292.694 184.566C292.587 184.5 292.486 184.427 292.39 184.345C292.507 184.392 292.618 184.451 292.723 184.52L293.638 185.073L296.966 187.153L307.953 194.084L308.169 194.221H308.007L316.951 185.032L319.667 182.27L320.412 181.529C320.496 181.441 320.588 181.36 320.686 181.288Z" fill="#263238"/>
<path d="M294.478 203.402C294.42 203.365 296.263 200.519 298.593 197.054C300.922 193.589 302.865 190.814 302.923 190.847C302.981 190.881 301.143 193.73 298.809 197.196C296.475 200.661 294.537 203.444 294.478 203.402Z" fill="#263238"/>
<path d="M312.304 189.608C312.358 189.558 314.742 191.925 317.629 194.891C320.516 197.857 322.816 200.299 322.766 200.353C322.717 200.407 320.333 198.04 317.442 195.07C314.55 192.1 312.246 189.637 312.304 189.608Z" fill="#263238"/>
<path d="M191.444 238.841C191.502 238.841 191.589 239.053 191.639 239.336C191.689 239.619 191.676 239.856 191.618 239.869C191.56 239.881 191.473 239.657 191.423 239.37C191.373 239.083 191.385 238.85 191.444 238.841Z" fill="#263238"/>
<path d="M190.778 234.781C190.935 235.092 191.027 235.432 191.048 235.779C191.138 236.116 191.158 236.467 191.107 236.811C190.947 236.501 190.855 236.161 190.836 235.813C190.746 235.476 190.726 235.125 190.778 234.781Z" fill="#263238"/>
<path d="M190.183 230.713C190.335 231.026 190.42 231.367 190.433 231.715C190.515 232.053 190.528 232.404 190.47 232.747C190.316 232.434 190.231 232.093 190.221 231.744C190.138 231.407 190.126 231.056 190.183 230.713Z" fill="#263238"/>
<path d="M189.717 226.632C189.856 226.951 189.93 227.294 189.933 227.642C190.007 227.982 190.007 228.334 189.933 228.674C189.794 228.355 189.722 228.011 189.721 227.663C189.648 227.323 189.647 226.972 189.717 226.632Z" fill="#263238"/>
<path d="M189.43 222.521C189.613 223.191 189.652 223.891 189.547 224.577C189.364 223.907 189.324 223.207 189.43 222.521Z" fill="#263238"/>
<path d="M189.388 218.407C189.533 219.093 189.533 219.801 189.388 220.487C189.281 220.156 189.245 219.806 189.284 219.46C189.244 219.105 189.279 218.747 189.388 218.407Z" fill="#263238"/>
<path d="M189.646 214.306C189.722 214.646 189.729 214.998 189.667 215.342C189.673 215.689 189.608 216.035 189.476 216.357C189.395 216.018 189.386 215.667 189.451 215.325C189.445 214.975 189.511 214.628 189.646 214.306Z" fill="#263238"/>
<path d="M190.262 210.241C190.313 210.586 190.289 210.938 190.191 211.273C190.166 211.621 190.068 211.959 189.904 212.267C189.884 211.574 190.005 210.885 190.262 210.241Z" fill="#263238"/>
<path d="M191.315 206.269C191.319 206.616 191.254 206.961 191.123 207.284C191.056 207.626 190.922 207.951 190.728 208.24C190.718 207.891 190.782 207.544 190.915 207.221C190.979 206.879 191.115 206.554 191.315 206.269Z" fill="#263238"/>
<path d="M192.85 202.454C192.814 202.801 192.706 203.136 192.533 203.44C192.425 203.77 192.251 204.076 192.022 204.338C192.165 203.659 192.448 203.017 192.854 202.454H192.85Z" fill="#263238"/>
<path d="M194.855 198.868C194.774 199.206 194.625 199.525 194.418 199.804C194.127 200.286 193.848 200.636 193.794 200.636C193.876 200.297 194.026 199.979 194.235 199.7C194.526 199.205 194.805 198.835 194.855 198.868Z" fill="#263238"/>
<path d="M197.322 195.577C197.367 195.619 197.118 195.993 196.764 196.447C196.411 196.9 196.082 197.216 196.032 197.179C196.159 196.854 196.35 196.559 196.594 196.31C196.951 195.869 197.28 195.54 197.322 195.577Z" fill="#263238"/>
<path d="M200.246 192.686C200.283 192.736 199.976 193.081 199.56 193.464C199.144 193.847 198.769 194.117 198.728 194.076C198.686 194.034 198.994 193.689 199.414 193.302C199.834 192.915 200.209 192.64 200.246 192.686Z" fill="#263238"/>
<path d="M203.607 190.323C203.636 190.377 203.275 190.664 202.796 190.968C202.523 191.184 202.209 191.341 201.873 191.43C201.839 191.384 202.201 191.093 202.68 190.785C202.955 190.571 203.271 190.414 203.607 190.323Z" fill="#263238"/>
<path d="M207.351 188.638C207.081 188.859 206.768 189.021 206.432 189.113C206.123 189.272 205.785 189.365 205.438 189.387C205.708 189.167 206.021 189.006 206.357 188.913C206.666 188.753 207.004 188.66 207.351 188.638Z" fill="#263238"/>
<path d="M210.355 187.898C210.355 187.956 210.147 188.048 209.868 188.102C209.589 188.156 209.348 188.152 209.336 188.102C209.323 188.052 209.544 187.952 209.827 187.898C210.109 187.844 210.347 187.84 210.355 187.898Z" fill="#263238"/>
<path d="M188.226 172.278L180.708 191.721L209.552 202.874L217.07 183.432L188.226 172.278Z" fill="#0C95EF"/>
<path d="M209.552 202.891L180.698 191.729L188.224 172.277L217.077 183.434L209.552 202.891ZM180.723 191.717L209.552 202.861L217.065 183.438L188.236 172.294L180.723 191.717Z" fill="#263238"/>
<path d="M217.073 183.705C216.957 183.768 216.834 183.82 216.707 183.859L215.63 184.25L211.657 185.647L198.478 190.174L198.37 190.211L198.312 190.111L198.17 189.87L191.098 177.652L188.981 173.933L188.419 172.914C188.346 172.798 188.285 172.675 188.236 172.548C188.322 172.653 188.399 172.766 188.465 172.885L189.077 173.879L191.248 177.544C193.095 180.68 195.616 184.978 198.399 189.72L198.541 189.961L198.374 189.899L211.595 185.448L215.597 184.137L216.691 183.792C216.815 183.749 216.943 183.72 217.073 183.705Z" fill="#263238"/>
<path d="M180.711 191.991C180.673 191.925 183.872 190.099 187.858 187.915C191.843 185.731 195.1 184.012 195.138 184.079C195.175 184.146 191.976 185.972 187.991 188.16C184.005 190.348 180.748 192.058 180.711 191.991Z" fill="#263238"/>
<path d="M204.822 187.528C204.897 187.507 206.016 190.98 207.318 195.286C208.62 199.592 209.627 203.107 209.552 203.128C209.477 203.148 208.358 199.679 207.056 195.369C205.754 191.06 204.747 187.565 204.822 187.528Z" fill="#263238"/>
<path d="M179.33 243.392C179.388 243.392 179.417 243.634 179.396 243.921C179.375 244.208 179.305 244.437 179.246 244.432C179.188 244.428 179.155 244.191 179.18 243.904C179.205 243.617 179.271 243.388 179.33 243.392Z" fill="#263238"/>
<path d="M179.434 239.162C179.542 239.504 179.578 239.865 179.542 240.223C179.574 240.579 179.536 240.938 179.429 241.279C179.324 240.938 179.289 240.578 179.325 240.223C179.292 239.865 179.329 239.505 179.434 239.162Z" fill="#263238"/>
<path d="M179.147 234.952C179.353 235.635 179.419 236.352 179.342 237.061C179.202 236.731 179.133 236.375 179.138 236.017C179.072 235.665 179.074 235.303 179.147 234.952Z" fill="#263238"/>
<path d="M178.444 230.767C178.613 231.083 178.717 231.429 178.751 231.786C178.854 232.13 178.887 232.49 178.847 232.847C178.679 232.53 178.574 232.184 178.539 231.828C178.434 231.485 178.402 231.123 178.444 230.767Z" fill="#263238"/>
<path d="M177.291 226.694C177.643 227.315 177.862 228.002 177.936 228.712C177.733 228.417 177.592 228.085 177.52 227.734C177.374 227.407 177.296 227.053 177.291 226.694Z" fill="#263238"/>
<path d="M175.673 222.788C175.911 223.055 176.092 223.368 176.205 223.707C176.383 224.019 176.498 224.362 176.542 224.718C176.306 224.45 176.126 224.137 176.01 223.799C175.831 223.488 175.716 223.144 175.673 222.788Z" fill="#263238"/>
<path d="M173.572 219.115C173.622 219.081 173.922 219.456 174.238 219.947C174.449 220.237 174.602 220.567 174.687 220.916C174.633 220.945 174.35 220.562 174.051 220.059C173.83 219.779 173.667 219.458 173.572 219.115Z" fill="#263238"/>
<path d="M170.98 215.774C171.026 215.733 171.367 216.065 171.742 216.515C171.996 216.768 172.198 217.069 172.337 217.401C172.287 217.434 171.95 217.101 171.575 216.656C171.321 216.405 171.118 216.105 170.98 215.774Z" fill="#263238"/>
<path d="M167.952 212.829C167.989 212.783 168.368 213.066 168.809 213.457C169.25 213.848 169.562 214.206 169.52 214.248C169.196 214.097 168.905 213.883 168.663 213.619C168.222 213.228 167.902 212.875 167.952 212.829Z" fill="#263238"/>
<path d="M164.512 210.358C164.855 210.457 165.175 210.626 165.452 210.853C165.939 211.177 166.309 211.481 166.284 211.531C165.941 211.427 165.622 211.258 165.344 211.032C164.849 210.712 164.478 210.408 164.512 210.358Z" fill="#263238"/>
<path d="M160.743 208.436C161.098 208.482 161.441 208.599 161.749 208.781C162.088 208.899 162.399 209.082 162.665 209.322C162.309 209.277 161.967 209.159 161.658 208.977C161.32 208.858 161.009 208.675 160.743 208.436Z" fill="#263238"/>
<path d="M156.72 207.159C157.079 207.146 157.436 207.204 157.772 207.329C158.126 207.389 158.464 207.519 158.767 207.712C158.408 207.723 158.051 207.665 157.714 207.542C157.361 207.48 157.023 207.35 156.72 207.159Z" fill="#263238"/>
<path d="M152.514 206.622C153.221 206.504 153.945 206.562 154.623 206.793C153.916 206.85 153.204 206.792 152.514 206.622Z" fill="#263238"/>
<path d="M148.296 206.913C148.973 206.687 149.69 206.602 150.401 206.664C150.074 206.811 149.72 206.891 149.361 206.897C149.01 206.971 148.649 206.977 148.296 206.913Z" fill="#263238"/>
<path d="M144.211 208.003C144.505 207.8 144.838 207.658 145.189 207.587C145.517 207.445 145.871 207.371 146.229 207.371C145.933 207.573 145.601 207.714 145.251 207.787C144.922 207.926 144.568 207.999 144.211 208.003Z" fill="#263238"/>
<path d="M140.4 209.838C140.371 209.784 140.762 209.517 141.282 209.239C141.578 209.034 141.912 208.893 142.264 208.823C141.716 209.281 141.083 209.624 140.4 209.834V209.838Z" fill="#263238"/>
<path d="M137.022 212.375C136.981 212.334 137.314 211.993 137.763 211.614C138.016 211.36 138.317 211.158 138.649 211.019C138.682 211.069 138.349 211.41 137.904 211.781C137.654 212.037 137.354 212.24 137.022 212.375Z" fill="#263238"/>
<path d="M134.256 215.57C134.363 215.226 134.546 214.91 134.793 214.647C135.155 214.181 135.508 213.856 135.55 213.894C135.591 213.931 135.321 214.31 134.963 214.78C134.605 215.25 134.306 215.604 134.256 215.57Z" fill="#263238"/>
<path d="M132.713 218.312C132.659 218.287 132.713 218.058 132.842 217.796C132.971 217.534 133.112 217.347 133.166 217.38C133.22 217.413 133.166 217.638 133.037 217.896C132.908 218.154 132.767 218.341 132.713 218.312Z" fill="#263238"/>
<path d="M106.28 242.856C106.28 242.798 106.501 242.723 106.783 242.685C107.066 242.648 107.303 242.685 107.312 242.731C107.32 242.777 107.1 242.868 106.808 242.902C106.517 242.935 106.284 242.927 106.28 242.856Z" fill="#263238"/>
<path d="M102.162 242.398C102.512 242.394 102.86 242.446 103.193 242.552C103.542 242.588 103.882 242.681 104.2 242.827C103.494 242.894 102.785 242.749 102.162 242.411V242.398Z" fill="#263238"/>
<path d="M98.4343 240.555C98.7692 240.66 99.0842 240.821 99.3661 241.03C99.857 241.321 100.252 241.566 100.227 241.625C99.8765 241.562 99.5448 241.42 99.258 241.209C98.7588 240.917 98.401 240.605 98.4343 240.555Z" fill="#263238"/>
<path d="M95.3392 237.776C95.385 237.739 95.7261 238.055 96.1296 238.463C96.5331 238.871 96.8451 239.216 96.8077 239.262C96.7702 239.307 96.3917 239.029 95.9757 238.617C95.5597 238.205 95.2934 237.818 95.3392 237.776Z" fill="#263238"/>
<path d="M92.8932 234.407C92.9473 234.378 93.2426 234.74 93.5546 235.239C93.775 235.513 93.939 235.829 94.0372 236.167C93.9873 236.204 93.6919 235.838 93.3757 235.355C93.1505 235.076 92.9861 234.753 92.8932 234.407Z" fill="#263238"/>
<path d="M91.0959 230.65C91.3251 230.918 91.4978 231.229 91.6035 231.566C91.7705 231.877 91.8764 232.217 91.9155 232.568C91.6841 232.301 91.51 231.99 91.4038 231.653C91.2356 231.343 91.131 231.002 91.0959 230.65Z" fill="#263238"/>
<path d="M89.9021 226.657C90.0898 226.956 90.2157 227.29 90.2724 227.638C90.3954 227.969 90.4492 228.322 90.4304 228.674C90.2398 228.377 90.1136 228.042 90.0602 227.693C89.9374 227.362 89.8836 227.009 89.9021 226.657Z" fill="#263238"/>
<path d="M89.1783 222.551C89.3306 222.869 89.4196 223.214 89.4403 223.566C89.5276 223.908 89.5446 224.265 89.4903 224.614C89.3342 224.297 89.245 223.952 89.2282 223.599C89.1384 223.257 89.1214 222.9 89.1783 222.551Z" fill="#263238"/>
<path d="M88.7789 218.403C88.9788 219.077 89.0355 219.786 88.9453 220.483C88.8121 220.157 88.747 219.808 88.754 219.456C88.6886 219.107 88.6971 218.749 88.7789 218.403Z" fill="#263238"/>
<path d="M88.6042 215.279C88.6666 215.279 88.7248 215.508 88.7373 215.795C88.7498 216.082 88.7123 216.315 88.6541 216.319C88.5958 216.323 88.5334 216.09 88.521 215.803C88.5085 215.516 88.5459 215.283 88.6042 215.279Z" fill="#263238"/>
<path d="M104.27 190.056L69.6805 191.687L70.7801 215.003L105.369 213.372L104.27 190.056Z" fill="#0C95EF"/>
<path d="M70.7661 215.013L69.6678 191.688L104.271 190.057L105.369 213.382L70.7661 215.013ZM69.6886 191.688L70.7869 214.984L105.356 213.353L104.258 190.057L69.6886 191.688Z" fill="#263238"/>
<path d="M104.391 190.332C104.3 190.45 104.197 190.558 104.084 190.656L103.16 191.547L99.7281 194.779L88.2714 205.374L88.1757 205.462L88.0717 205.387L87.8221 205.204L75.0385 195.894C73.4327 194.704 72.1265 193.735 71.1863 193.044L70.1505 192.254C70.0246 192.169 69.9075 192.071 69.801 191.963C69.9362 192.032 70.0656 192.113 70.1879 192.204L71.2612 192.936L75.1716 195.707L88.0052 204.942L88.2589 205.125H88.0593L99.5741 194.6L103.077 191.443L104.042 190.611C104.148 190.506 104.266 190.412 104.391 190.332Z" fill="#263238"/>
<path d="M70.8992 215.279C70.8326 215.225 73.2828 211.905 76.3737 207.866C79.4646 203.827 82.0272 200.594 82.0937 200.644C82.1603 200.694 79.7142 204.018 76.6233 208.057C73.5324 212.097 70.9699 215.329 70.8992 215.279Z" fill="#263238"/>
<path d="M93.5795 199.812C93.6461 199.754 96.3667 202.808 99.6531 206.626C102.939 210.445 105.556 213.59 105.477 213.649C105.398 213.707 102.694 210.653 99.4035 206.83C96.1129 203.007 93.5129 199.871 93.5795 199.812Z" fill="#263238"/>
</svg>
