<svg width="375" height="513" viewBox="0 0 375 513" fill="none" xmlns="http://www.w3.org/2000/svg">
<path d="M284.434 378.998C256.581 402.458 211.649 406.207 171.309 399.478C130.952 392.988 94.914 376.481 74.7642 349.346C54.8534 322.227 50.8142 284.718 56.1258 250.761C61.4204 217.041 76.322 186.651 100.883 152.15C125.205 117.631 159.442 78.7796 192.035 79.6714C224.628 80.5631 256.056 121.232 279.515 159.17C302.974 197.108 318.685 232.571 320.898 272.11C323.367 311.427 312.304 355.299 284.434 378.998Z" fill="#D3ECFD"/>
<path d="M181.525 244.724L182.855 237.052L185.467 237.808L181.525 244.724Z" fill="#0C95EF"/>
<path d="M182.403 247.182L189.883 245.016L188.84 242.5L182.403 247.182Z" fill="#0C95EF"/>
<path d="M183.733 244.293L187.994 236.238L190.867 238.233L183.733 244.293Z" fill="#0C95EF"/>
<path d="M231.874 169.541H224.122C223.799 169.521 223.495 169.377 223.273 169.141C223.051 168.904 222.928 168.592 222.928 168.267C222.928 167.943 223.051 167.631 223.273 167.394C223.495 167.157 223.799 167.014 224.122 166.993H231.874C232.197 167.014 232.501 167.157 232.723 167.394C232.945 167.631 233.068 167.943 233.068 168.267C233.068 168.592 232.945 168.904 232.723 169.141C232.501 169.377 232.197 169.521 231.874 169.541Z" fill="#0C95EF"/>
<g opacity="0.7">
<path d="M231.874 169.541H224.122C223.799 169.521 223.495 169.377 223.273 169.141C223.051 168.904 222.928 168.592 222.928 168.267C222.928 167.943 223.051 167.631 223.273 167.394C223.495 167.157 223.799 167.014 224.122 166.993H231.874C232.197 167.014 232.501 167.157 232.723 167.394C232.945 167.631 233.068 167.943 233.068 168.267C233.068 168.592 232.945 168.904 232.723 169.141C232.501 169.377 232.197 169.521 231.874 169.541Z" fill="white"/>
</g>
<path d="M260.309 195.668L230.592 250.358C230.407 250.695 230.096 250.946 229.727 251.055C229.358 251.163 228.961 251.121 228.623 250.937L178.057 223.444C177.719 223.259 177.468 222.949 177.359 222.579C177.251 222.21 177.293 221.813 177.477 221.475L216.126 150.358C216.311 150.02 216.622 149.769 216.991 149.661C217.36 149.552 217.757 149.594 218.095 149.778L252.143 168.291L260.309 195.668Z" fill="#0C95EF"/>
<g opacity="0.2">
<path d="M260.309 195.668L230.592 250.358C230.407 250.695 230.096 250.946 229.727 251.055C229.358 251.163 228.961 251.121 228.623 250.937L178.057 223.444C177.719 223.259 177.468 222.949 177.359 222.579C177.251 222.21 177.293 221.813 177.477 221.475L216.126 150.358C216.311 150.02 216.622 149.769 216.991 149.661C217.36 149.552 217.757 149.594 218.095 149.778L252.143 168.291L260.309 195.668Z" fill="white"/>
</g>
<path d="M243.623 207.949L205.859 187.572L204.596 189.913L242.36 210.29L243.623 207.949Z" fill="#0C95EF"/>
<path d="M238.466 217.513L200.701 197.136L199.438 199.477L237.203 219.854L238.466 217.513Z" fill="#0C95EF"/>
<path d="M233.303 227.082L195.538 206.705L194.275 209.046L232.04 229.423L233.303 227.082Z" fill="#0C95EF"/>
<path d="M252.212 168.265L243.253 184.757C243.07 185.095 243.027 185.492 243.136 185.861C243.245 186.23 243.496 186.541 243.833 186.725L260.277 195.663L252.212 168.265Z" fill="#0C95EF"/>
<path opacity="0.7" d="M252.212 168.265L243.253 184.757C243.07 185.095 243.027 185.492 243.136 185.861C243.245 186.23 243.496 186.541 243.833 186.725L260.277 195.663L252.212 168.265Z" fill="white"/>
<path d="M268.055 193.827L238.343 248.517C238.158 248.855 237.848 249.105 237.478 249.214C237.109 249.323 236.712 249.281 236.374 249.097L185.808 221.624C185.469 221.441 185.217 221.131 185.108 220.761C184.998 220.392 185.039 219.995 185.223 219.656L223.872 148.522C224.056 148.184 224.366 147.932 224.735 147.822C225.104 147.712 225.502 147.754 225.841 147.937L259.915 166.451L268.055 193.827Z" fill="#0C95EF"/>
<g opacity="0.5">
<path d="M268.055 193.827L238.343 248.517C238.158 248.855 237.848 249.105 237.478 249.214C237.109 249.323 236.712 249.281 236.374 249.097L185.808 221.624C185.469 221.441 185.217 221.131 185.108 220.761C184.998 220.392 185.039 219.995 185.223 219.656L223.872 148.522C224.056 148.184 224.366 147.932 224.735 147.822C225.104 147.712 225.502 147.754 225.841 147.937L259.915 166.451L268.055 193.827Z" fill="white"/>
</g>
<path d="M250.377 205.558L214.626 186.273C214.494 186.201 214.349 186.156 214.2 186.141C214.051 186.125 213.9 186.139 213.756 186.182C213.612 186.225 213.478 186.296 213.362 186.391C213.245 186.486 213.149 186.603 213.078 186.736L212.903 187.06C212.831 187.193 212.786 187.338 212.77 187.488C212.754 187.638 212.768 187.789 212.811 187.933C212.854 188.078 212.925 188.212 213.02 188.329C213.116 188.446 213.233 188.542 213.365 188.614L249.116 207.899C249.383 208.042 249.695 208.074 249.986 207.988C250.276 207.901 250.52 207.702 250.664 207.436L250.839 207.106C250.911 206.974 250.956 206.829 250.972 206.68C250.987 206.531 250.973 206.38 250.93 206.236C250.887 206.092 250.816 205.958 250.721 205.842C250.626 205.725 250.509 205.629 250.377 205.558Z" fill="#0C95EF"/>
<path d="M245.208 215.131L209.457 195.841C208.901 195.541 208.207 195.748 207.907 196.304L207.73 196.632C207.43 197.188 207.638 197.882 208.193 198.181L243.945 217.472C244.501 217.772 245.195 217.564 245.494 217.008L245.671 216.681C245.971 216.125 245.764 215.431 245.208 215.131Z" fill="#0C95EF"/>
<path d="M240.048 224.705L204.297 205.414C203.741 205.115 203.047 205.322 202.747 205.878L202.57 206.206C202.27 206.762 202.478 207.455 203.034 207.755L238.785 227.046C239.341 227.346 240.035 227.138 240.335 226.582L240.511 226.255C240.811 225.699 240.604 225.005 240.048 224.705Z" fill="#0C95EF"/>
<path d="M259.963 166.429L250.999 182.921C250.908 183.089 250.85 183.272 250.83 183.462C250.81 183.651 250.828 183.842 250.882 184.025C250.937 184.208 251.027 184.377 251.147 184.525C251.268 184.673 251.416 184.795 251.584 184.885L268.028 193.822L259.963 166.429Z" fill="#0C95EF"/>
<path opacity="0.7" d="M259.963 166.429L250.999 182.921C250.908 183.089 250.85 183.272 250.83 183.462C250.81 183.651 250.828 183.842 250.882 184.025C250.937 184.208 251.027 184.377 251.147 184.525C251.268 184.673 251.416 184.795 251.584 184.885L268.028 193.822L259.963 166.429Z" fill="white"/>
<path d="M257.91 141.356L260.41 152.459C250.941 155.055 242.445 164.429 236.332 173.282C233.83 176.958 231.818 180.944 230.347 185.14C230.347 185.14 249.446 167.866 259.974 166.855L259.469 185.204C259.469 185.204 270.391 163.924 291.591 156.156C291.612 156.151 273.833 143.362 257.91 141.356Z" fill="#0C95EF"/>
<path d="M191.442 297.887L195.235 294.742L185.67 285.667L181.589 289.151L191.442 297.887Z" fill="#CB7A63"/>
<path d="M198.31 293.529C197.877 293.404 197.415 293.427 196.996 293.593C196.741 293.668 196.464 293.758 196.241 293.843C196.017 293.928 195.884 293.982 195.74 294.04L195.32 294.226C195.295 294.232 195.273 294.247 195.258 294.267C195.242 294.288 195.234 294.313 195.235 294.338C195.232 294.347 195.23 294.356 195.23 294.365C195.23 294.374 195.232 294.383 195.235 294.391C195.252 294.418 195.279 294.437 195.31 294.444C195.848 294.586 196.398 294.68 196.953 294.726C197.226 294.762 197.503 294.74 197.767 294.663H197.805C197.957 294.612 198.103 294.546 198.241 294.466C198.328 294.396 198.397 294.305 198.44 294.202C198.484 294.099 198.501 293.987 198.491 293.875C198.492 293.807 198.476 293.74 198.444 293.679C198.413 293.619 198.367 293.568 198.31 293.529ZM198.257 293.881C198.27 293.956 198.261 294.033 198.232 294.104C198.203 294.175 198.154 294.235 198.092 294.28C197.965 294.371 197.817 294.43 197.661 294.45C197.447 294.488 197.229 294.501 197.012 294.487C196.672 294.468 196.335 294.425 196.001 294.359L195.751 294.311C196.205 294.095 196.681 293.929 197.172 293.817C197.438 293.749 197.708 293.7 197.98 293.668C198.058 293.664 198.136 293.682 198.204 293.721C198.228 293.739 198.245 293.764 198.255 293.793C198.264 293.821 198.265 293.852 198.257 293.881Z" fill="#0C95EF"/>
<path d="M196.57 291.54C196.449 291.561 196.333 291.607 196.23 291.675C196.126 291.743 196.038 291.831 195.969 291.933C195.926 291.997 195.888 292.065 195.858 292.136C195.656 292.753 195.615 293.413 195.74 294.051C195.743 294.059 195.743 294.069 195.74 294.077C195.745 294.098 195.754 294.117 195.768 294.133C195.782 294.149 195.8 294.161 195.82 294.168C195.832 294.173 195.845 294.176 195.858 294.176C195.87 294.176 195.883 294.173 195.895 294.168C195.904 294.168 195.914 294.165 195.922 294.16C195.93 294.156 195.937 294.149 195.943 294.141C196.048 294.052 196.146 293.954 196.235 293.849C196.404 293.649 196.555 293.435 196.687 293.21C197.017 292.678 197.251 292.066 197.108 291.753C197.055 291.614 196.916 291.476 196.57 291.54ZM196.89 291.859C196.98 292.061 196.799 292.54 196.533 293.008C196.371 293.294 196.179 293.562 195.959 293.806C195.885 293.324 195.911 292.831 196.033 292.359C196.064 292.257 196.111 292.16 196.171 292.072C196.26 291.942 196.389 291.847 196.538 291.8H196.613C196.836 291.737 196.879 291.822 196.916 291.848L196.89 291.859Z" fill="#0C95EF"/>
<path d="M194.74 294.519L189.952 296.924C189.861 296.967 189.789 297.041 189.748 297.132C189.707 297.224 189.7 297.327 189.729 297.424L191.133 301.882C191.168 301.987 191.223 302.084 191.296 302.167C191.368 302.251 191.456 302.319 191.555 302.369C191.654 302.418 191.761 302.447 191.871 302.455C191.982 302.463 192.092 302.449 192.197 302.414L192.277 302.377C200.443 299.509 202.949 297.477 203.8 297.014C206.231 295.689 204.864 293.966 203.96 294.179C199.885 295.152 198.517 294.902 196.756 294.45C196.089 294.31 195.397 294.334 194.74 294.519Z" fill="#263238"/>
<path opacity="0.2" d="M185.675 285.672L190.516 289.965L186.43 293.444L181.589 289.151L185.675 285.672Z" fill="black"/>
<path d="M184.164 293.412L190.255 287.795L188.915 285.443L181.871 291.492L184.164 293.412Z" fill="#0C95EF"/>
<path opacity="0.5" d="M184.164 293.412L190.255 287.795L188.915 285.443L181.871 291.492L184.164 293.412Z" fill="white"/>
<path d="M187.957 286.268L187.138 286.97L185.92 288.034L185.212 288.635L183.084 290.476L182.675 290.822C182.675 290.822 173.998 285.933 169.167 281.778C165.863 278.921 165.565 277.851 165.214 278.117C160.549 281.671 146.738 293.939 138.912 300.318C138.657 300.35 138.38 300.371 138.146 300.392C133.965 300.696 130.698 300.238 128.123 299.264C128.123 295.87 131.001 287.944 131.241 287.177C131.241 287.177 142.791 275.702 161.506 265.999C161.69 265.905 161.878 265.822 162.07 265.748C162.31 265.637 162.555 265.537 162.804 265.451C163.72 265.086 164.688 264.867 165.672 264.802C166.5 264.768 167.326 264.898 168.103 265.185C168.55 265.343 168.984 265.535 169.401 265.759C169.767 265.948 170.122 266.158 170.465 266.387C171.045 266.754 171.604 267.164 172.13 267.568C173.327 268.494 182.366 280.139 187.223 285.512C187.484 285.762 187.729 286.028 187.957 286.268Z" fill="#0C95EF"/>
<g opacity="0.1">
<path d="M187.957 286.268L187.138 286.97L185.92 288.034L185.212 288.635L183.084 290.476L182.675 290.822C182.675 290.822 173.998 285.933 169.167 281.778C165.863 278.921 165.565 277.851 165.214 278.117C160.549 281.671 146.738 293.939 138.912 300.318C138.657 300.35 138.38 300.371 138.146 300.392C133.965 300.696 130.698 300.238 128.123 299.264C128.123 295.87 131.001 287.944 131.241 287.177C131.241 287.177 142.791 275.702 161.506 265.999C161.69 265.905 161.878 265.822 162.07 265.748C162.31 265.637 162.555 265.537 162.804 265.451C163.72 265.086 164.688 264.867 165.672 264.802C166.5 264.768 167.326 264.898 168.103 265.185C168.55 265.343 168.984 265.535 169.401 265.759C169.767 265.948 170.122 266.158 170.465 266.387C171.045 266.754 171.604 267.164 172.13 267.568C173.327 268.494 182.366 280.139 187.223 285.512C187.484 285.762 187.729 286.028 187.957 286.268Z" fill="black"/>
</g>
<path d="M126.325 237.276C127.059 240.585 127.825 245.421 125.548 247.698C128.375 252.665 131.767 257.289 135.656 261.477C140.641 252.81 135.917 247.453 135.917 247.453C132.193 246.655 132.241 245.149 132.826 242.553L126.325 237.276Z" fill="#CB7A63"/>
<path d="M123.24 248.102C123.511 247.207 124.072 246.429 124.836 245.889C125.586 245.32 133.347 245.234 135.342 245.889C136.519 246.262 137.52 247.05 138.157 248.107L123.24 248.102Z" fill="#0C95EF"/>
<path d="M158.974 261.296L160.974 260.381L161.075 263.647C160.498 264.151 159.833 264.542 159.112 264.802C158.887 264.868 158.649 264.874 158.421 264.819C158.193 264.764 157.983 264.65 157.813 264.488C157.643 264.326 157.519 264.122 157.453 263.897C157.387 263.672 157.381 263.434 157.436 263.206C157.535 262.793 157.724 262.408 157.99 262.078C158.256 261.747 158.592 261.48 158.974 261.296Z" fill="#CB7A63"/>
<path d="M163.538 261.301L163.432 262.503C163.417 262.684 163.345 262.855 163.227 262.992C163.108 263.128 162.949 263.224 162.772 263.264L161.059 263.647L160.958 260.381L162.698 260.407C162.808 260.405 162.916 260.425 163.018 260.465C163.12 260.506 163.213 260.566 163.291 260.643C163.37 260.72 163.432 260.811 163.474 260.913C163.517 261.014 163.538 261.122 163.538 261.232V261.301Z" fill="#CB7A63"/>
<path d="M133.539 270.584C136.718 272.218 140.327 272.823 143.865 272.313C148.121 271.595 155.569 267.313 158.798 264.865L157.734 263.269C156.138 263.615 142.95 270.308 134.443 264.254C132.847 263.126 126.628 258.481 124.431 258.577C120.861 258.737 121.17 262.477 122.702 264.035C124.474 265.818 131.076 269.371 133.539 270.584Z" fill="#CB7A63"/>
<g opacity="0.2">
<path d="M163.432 262.503C163.419 262.683 163.348 262.854 163.23 262.99C163.112 263.126 162.954 263.22 162.778 263.259L161.075 263.647C160.498 264.151 159.833 264.542 159.112 264.802C159.011 264.835 158.905 264.853 158.798 264.855C155.564 267.313 148.158 271.59 143.87 272.303C140.334 272.81 136.728 272.205 133.549 270.574C131.086 269.361 124.474 265.786 122.681 263.988C121.149 262.429 120.84 258.668 124.41 258.529C126.607 258.434 132.831 263.078 134.422 264.206C142.54 269.978 154.893 264.158 157.42 263.307C157.418 263.268 157.418 263.229 157.42 263.19C157.513 262.779 157.694 262.394 157.952 262.062C158.218 261.732 158.554 261.467 158.937 261.285L160.921 260.375L162.65 260.402C162.759 260.401 162.867 260.421 162.969 260.462C163.07 260.502 163.162 260.563 163.24 260.64C163.318 260.716 163.379 260.808 163.421 260.908C163.463 261.009 163.485 261.117 163.485 261.227V261.301L163.432 262.503Z" fill="black"/>
<path d="M160.975 260.381L160.958 260.386V260.381H160.975Z" fill="black"/>
</g>
<path d="M144.695 253.449C149.212 263.402 138.737 266.248 143.535 282.57L120.766 283.102C120.915 274.356 124.027 276.234 119.925 259.79C119.579 258.396 119.005 254.401 120.489 250.746C121.056 249.323 122.1 248.14 123.442 247.4C125.123 246.495 132.528 247.203 135.906 247.432C139.567 246.937 144.025 252.204 144.695 253.449Z" fill="#0C95EF"/>
<path opacity="0.5" d="M144.695 253.449C149.212 263.402 138.737 266.248 143.535 282.57L120.766 283.102C120.915 274.356 124.027 276.234 119.925 259.79C119.579 258.396 119.005 254.401 120.489 250.746C121.056 249.323 122.1 248.14 123.442 247.4C125.123 246.495 132.528 247.203 135.906 247.432C139.567 246.937 144.025 252.204 144.695 253.449Z" fill="white"/>
<path d="M140.343 233.701C140.279 234.137 140.455 234.493 140.726 234.531C140.998 234.568 141.258 234.265 141.338 233.844C141.418 233.424 141.221 233.057 140.95 233.014C140.678 232.972 140.402 233.286 140.343 233.701Z" fill="#263238"/>
<path d="M140.827 233.02L141.891 232.876C141.891 232.876 141.242 233.589 140.827 233.02Z" fill="#263238"/>
<path d="M140.412 234.275C140.645 235.282 141.017 236.251 141.519 237.154C141.284 237.275 141.025 237.344 140.76 237.355C140.495 237.366 140.231 237.319 139.987 237.217L140.412 234.275Z" fill="#A02724"/>
<path d="M141.849 230.775C141.889 230.76 141.925 230.734 141.952 230.7C141.98 230.667 141.997 230.626 142.003 230.583C142.012 230.518 141.996 230.451 141.957 230.398C141.919 230.344 141.861 230.308 141.796 230.296C141.407 230.228 141.008 230.254 140.632 230.373C140.257 230.491 139.915 230.698 139.636 230.977C139.607 230.998 139.584 231.024 139.566 231.055C139.549 231.085 139.538 231.119 139.534 231.154C139.531 231.189 139.535 231.224 139.546 231.257C139.557 231.291 139.575 231.321 139.598 231.347C139.622 231.373 139.651 231.394 139.683 231.408C139.715 231.422 139.75 231.429 139.785 231.429C139.821 231.429 139.855 231.421 139.887 231.406C139.919 231.392 139.948 231.37 139.971 231.344L140.003 231.307C140.227 231.089 140.5 230.927 140.798 230.835C141.097 230.742 141.413 230.722 141.721 230.775C141.763 230.785 141.807 230.785 141.849 230.775Z" fill="#263238"/>
<path d="M126.564 230.253C126.133 235.44 125.841 237.627 128.049 240.643C131.379 245.176 137.853 244.58 139.811 239.627C141.593 235.164 141.998 227.434 137.268 224.662C136.465 224.187 135.576 223.874 134.652 223.743C133.728 223.612 132.787 223.664 131.883 223.897C130.979 224.129 130.13 224.538 129.385 225.099C128.639 225.661 128.012 226.364 127.538 227.168C126.978 228.107 126.644 229.163 126.564 230.253Z" fill="#CB7A63"/>
<path d="M139.934 239.313C139.538 238.974 139.241 238.535 139.072 238.042C139.067 238.014 139.072 237.986 139.086 237.962C139.099 237.938 139.121 237.919 139.146 237.909C139.173 237.902 139.201 237.906 139.225 237.92C139.249 237.934 139.266 237.957 139.274 237.983C139.43 238.406 139.684 238.787 140.013 239.095L139.934 239.313Z" fill="#263238"/>
<path d="M122.867 223.513C120.893 226.173 119.994 226.886 122.441 234.02C123.426 236.887 126.282 240.686 127.671 241.032C130.161 241.659 132.581 239.914 134.449 238.154C136.148 236.675 137.571 234.906 138.651 232.929C139.652 230.913 140.019 228.492 139.183 226.402C138.29 224.13 135.135 222.103 132.773 221.614C130.006 221.018 124.511 221.284 122.867 223.513Z" fill="#263238"/>
<path d="M138.396 233.371C138.396 233.371 139.019 234.435 138.231 235.238V233.818L138.396 233.371Z" fill="#263238"/>
<path d="M138.396 233.371C138.396 233.371 138.625 235.009 137.252 235.621L137.987 233.855L138.396 233.371Z" fill="#263238"/>
<path d="M129.235 240.43C129.235 240.43 127.724 241.117 127.942 242.601L129.044 241.032L129.235 240.43Z" fill="#263238"/>
<path d="M129.294 240.468C129.294 240.468 128.145 241.659 128.9 242.963L129.342 241.096L129.294 240.468Z" fill="#263238"/>
<path d="M140.45 231.227C141.011 230.693 141.507 230.095 141.929 229.445C142.359 228.792 142.548 228.009 142.461 227.232C142.353 226.742 142.14 226.281 141.834 225.883C141.529 225.485 141.14 225.159 140.694 224.928C139.804 224.469 138.85 224.148 137.864 223.976C137.397 223.808 136.884 223.823 136.428 224.018C136.238 224.159 136.089 224.347 135.995 224.564C135.902 224.781 135.867 225.018 135.896 225.253C135.946 225.725 136.076 226.185 136.279 226.615C136.927 228.337 137.405 230.119 137.704 231.935C137.869 232.85 137.747 233.461 138.651 233.105C139.21 232.897 139.992 231.711 140.45 231.227Z" fill="#263238"/>
<path d="M133.289 233.791C133.234 234.991 133.657 236.164 134.465 237.052C135.529 238.223 136.923 237.457 137.316 235.988C137.673 234.68 137.54 232.493 136.119 231.865C134.699 231.238 133.363 232.328 133.289 233.791Z" fill="#CB7A63"/>
<path d="M193.628 300.275L197.735 296.275L189.782 286.278L184.818 289.21L193.628 300.275Z" fill="#CB7A63"/>
<path d="M201.927 295.04C201.475 294.881 200.539 295.391 199.826 295.844C199.645 295.955 199.486 296.067 199.347 296.163L199.278 296.216C199.118 296.328 199.001 296.413 198.959 296.45C198.935 296.462 198.915 296.481 198.903 296.505C198.892 296.53 198.889 296.557 198.895 296.583C198.903 296.61 198.919 296.634 198.941 296.651C198.963 296.668 198.99 296.678 199.017 296.679C199.507 296.7 199.998 296.684 200.486 296.631L200.81 296.594C201.162 296.567 201.501 296.45 201.794 296.253C201.902 296.188 202.001 296.111 202.092 296.025C202.169 295.932 202.222 295.822 202.245 295.704C202.268 295.586 202.262 295.464 202.225 295.349C202.204 295.277 202.166 295.212 202.114 295.159C202.062 295.105 201.998 295.064 201.927 295.04ZM201.959 295.423C201.986 295.501 201.991 295.584 201.975 295.664C201.959 295.745 201.923 295.819 201.869 295.881C201.647 296.095 201.365 296.237 201.06 296.285C200.7 296.368 200.333 296.416 199.964 296.429C199.794 296.429 199.617 296.429 199.432 296.429L199.613 296.296C199.653 296.262 199.696 296.232 199.741 296.205C200.313 295.802 200.942 295.489 201.608 295.274C201.69 295.251 201.777 295.251 201.858 295.274C201.887 295.287 201.912 295.308 201.93 295.334C201.948 295.361 201.958 295.392 201.959 295.423Z" fill="#0C95EF"/>
<path d="M199.651 293.343C199.53 293.39 199.42 293.461 199.328 293.553C199.237 293.644 199.165 293.754 199.119 293.875C198.778 294.689 199.278 295.955 199.358 296.152C199.367 296.174 199.382 296.192 199.401 296.206C199.419 296.22 199.441 296.229 199.464 296.232C199.491 296.237 199.518 296.237 199.544 296.232C199.563 296.226 199.578 296.212 199.587 296.195C199.671 296.08 199.745 295.959 199.81 295.833C200.204 295.094 200.571 293.859 200.252 293.434C200.172 293.317 199.996 293.2 199.651 293.343ZM199.518 295.854C199.268 295.265 199.209 294.612 199.347 293.987C199.41 293.829 199.527 293.699 199.677 293.62L199.746 293.588C199.975 293.498 200.034 293.588 200.055 293.588C200.289 293.913 199.933 295.173 199.518 295.854Z" fill="#0C95EF"/>
<path opacity="0.2" d="M189.367 285.667L193.107 290.455L188.048 293.279L184.249 288.614L189.367 285.667Z" fill="black"/>
<path d="M120.558 281.373L120.026 283.443C119.946 283.602 120.143 283.757 120.404 283.751L143.849 283.219C144.057 283.219 144.222 283.108 144.232 282.975L143.647 280.809C143.647 280.671 143.477 280.554 143.253 280.559L120.909 281.219C120.843 281.216 120.777 281.228 120.716 281.255C120.655 281.282 120.601 281.322 120.558 281.373Z" fill="#263238"/>
<path d="M141.423 283.443L140.806 283.512C140.684 283.512 140.583 283.475 140.583 283.395V280.735C140.583 280.655 140.684 280.58 140.801 280.57L141.418 280.495C141.54 280.495 141.641 280.538 141.641 280.618V283.278C141.641 283.358 141.545 283.432 141.423 283.443Z" fill="#0C95EF"/>
<path d="M133.028 283.56L132.411 283.624C132.294 283.624 132.193 283.586 132.193 283.507V280.847C132.193 280.772 132.294 280.698 132.416 280.682L133.028 280.613C133.15 280.613 133.252 280.65 133.252 280.73V283.39C133.252 283.475 133.15 283.56 133.028 283.56Z" fill="#0C95EF"/>
<path d="M133.028 283.56L132.411 283.624C132.294 283.624 132.193 283.586 132.193 283.507V280.847C132.193 280.772 132.294 280.698 132.416 280.682L133.028 280.613C133.15 280.613 133.252 280.65 133.252 280.73V283.39C133.252 283.475 133.15 283.56 133.028 283.56Z" fill="#0C95EF"/>
<path d="M192.511 287.816L191.474 288.401L189.686 289.412L188.09 290.311L186.446 291.237L185.813 291.593L185.42 291.3C185.324 291.237 185.212 291.157 185.085 291.056C184.691 290.763 184.148 290.359 183.489 289.853C180.185 287.236 174.296 282.097 172.54 277.421C171.407 278.772 170.05 280.469 168.497 282.342C161.804 290.412 151.42 301.802 138.928 303.286L138.162 303.366C133.986 303.723 130.714 303.308 128.134 302.366C121.649 299.988 119.84 294.29 120.282 289.444C120.324 287.172 120.766 283.129 120.766 283.129H144.429C147.759 279.08 154.452 272.739 161.288 268.765C161.448 268.664 161.613 268.568 161.778 268.483C161.943 268.398 162.187 268.249 162.389 268.137C164.453 266.972 166.657 266.078 168.949 265.477C169.417 265.365 169.88 265.27 170.337 265.201C170.806 265.13 171.279 265.086 171.753 265.068C174.992 264.924 177.807 266.132 179.733 269.361L192.155 287.284L192.511 287.816Z" fill="#0C95EF"/>
<path d="M179.743 263.227L153.601 264.307L154.367 247.671L180.509 246.591L179.743 263.227Z" fill="#0C95EF"/>
<path d="M179.44 264.535L153.675 265.599C153.506 265.611 153.336 265.585 153.177 265.525C153.019 265.465 152.875 265.372 152.755 265.251C152.636 265.13 152.543 264.986 152.485 264.826C152.426 264.667 152.402 264.497 152.414 264.328L153.17 247.799C153.193 247.438 153.346 247.099 153.602 246.844C153.858 246.589 154.198 246.437 154.558 246.416L180.323 245.352C180.492 245.341 180.662 245.367 180.82 245.428C180.978 245.488 181.122 245.582 181.241 245.702C181.361 245.822 181.453 245.967 181.512 246.126C181.571 246.284 181.596 246.454 181.584 246.623L180.823 263.152C180.803 263.513 180.651 263.853 180.395 264.108C180.14 264.363 179.8 264.515 179.44 264.535Z" fill="#263238"/>
<path d="M179.743 263.227L153.601 264.307L154.367 247.671L180.509 246.591L179.743 263.227Z" fill="#0C95EF"/>
<path opacity="0.9" d="M179.743 263.227L153.601 264.307L154.367 247.671L180.509 246.591L179.743 263.227Z" fill="white"/>
<path opacity="0.1" d="M163.645 246.048L159.325 265.36L161.043 265.291L165.305 245.979L163.645 246.048Z" fill="white"/>
<path opacity="0.1" d="M166.294 245.937L161.974 265.248L165.384 265.11L169.646 245.798L166.294 245.937Z" fill="white"/>
<path d="M171.258 264.743L179.961 264.498C180.11 265.509 179.679 265.887 179.126 265.903L176.344 265.972L174.482 266.014L171.593 266.094L153.67 266.626L153.526 265.365L171.258 264.743Z" fill="#0C95EF"/>
<path d="M171.258 264.743L179.961 264.498C180.11 265.509 179.679 265.887 179.126 265.903L176.344 265.972L174.482 266.014L171.593 266.094L149.408 266.775C149.284 266.78 149.161 266.749 149.054 266.684C148.947 266.62 148.861 266.526 148.807 266.413C148.761 266.317 148.74 266.211 148.745 266.104C148.751 265.997 148.783 265.894 148.838 265.802C148.893 265.711 148.971 265.635 149.063 265.581C149.155 265.527 149.259 265.497 149.366 265.493L171.258 264.743Z" fill="#0C95EF"/>
<path opacity="0.2" d="M171.258 264.743L179.961 264.498C180.11 265.509 179.679 265.887 179.126 265.903L176.344 265.972L174.482 266.014L171.593 266.094L149.408 266.775C149.284 266.78 149.161 266.749 149.054 266.684C148.947 266.62 148.861 266.526 148.807 266.413C148.761 266.317 148.74 266.211 148.745 266.104C148.751 265.997 148.783 265.894 148.838 265.802C148.893 265.711 148.971 265.635 149.063 265.581C149.155 265.527 149.259 265.497 149.366 265.493L171.258 264.743Z" fill="black"/>
<path opacity="0.2" d="M179.961 264.498L180.014 264.849C180.035 264.979 180.028 265.112 179.993 265.238C179.958 265.365 179.896 265.482 179.812 265.583C179.728 265.684 179.623 265.766 179.505 265.823C179.386 265.879 179.257 265.91 179.126 265.913L176.344 265.983L171.173 266.169L171.258 264.754L179.961 264.498Z" fill="black"/>
<path opacity="0.2" d="M134.88 253.938C134.88 253.938 133.651 256.444 137.199 263.062L138.683 265.759C139.173 266.647 142.407 264.833 143.397 263.168C143.397 263.168 137.173 259.434 134.88 253.938Z" fill="black"/>
<path d="M164.996 261.652L167.47 260.923L167.076 264.743C167.076 264.743 163.624 267.052 162.427 264.844L162.911 263.615C163.089 263.152 163.369 262.736 163.73 262.396C164.091 262.056 164.524 261.802 164.996 261.652Z" fill="#CB7A63"/>
<path d="M170.316 262.423L170.008 263.801C169.963 264.009 169.852 264.197 169.692 264.336C169.532 264.476 169.331 264.561 169.119 264.578L167.06 264.743L167.459 260.918L169.481 261.237C169.74 261.271 169.975 261.407 170.135 261.614C170.294 261.822 170.365 262.084 170.332 262.343L170.316 262.423Z" fill="#CB7A63"/>
<path d="M144.376 268.132C146.105 270.473 148.531 272.43 151.382 272.989C154.744 273.643 161.214 268.887 164.246 265.812C164.097 264.514 164.182 263.812 162.889 263.631C162.889 263.631 159.548 266.078 153.255 267.547C151.217 268.02 149.861 265.951 148.089 262.913C147.206 261.407 144.365 255.215 143.264 253.837C141.53 251.624 136.603 253.209 138.561 258.534C139.38 260.758 142.966 266.206 144.376 268.132Z" fill="#CB7A63"/>
<path d="M142.535 250.198C146.03 253.39 147.733 259.093 147.733 259.093L139.567 264.073C139.567 264.073 133.608 255.688 134.672 252.768C135.513 250.501 137.071 249.012 139.12 248.884C139.748 248.863 140.374 248.969 140.961 249.194C141.548 249.42 142.083 249.761 142.535 250.198Z" fill="#0C95EF"/>
<path d="M123.798 283.874H123.181C123.058 283.874 122.957 283.815 122.968 283.735L123.197 281.075C123.197 280.995 123.309 280.932 123.431 280.926H124.048C124.17 280.926 124.271 280.99 124.261 281.065L124.032 283.725C124.019 283.775 123.988 283.818 123.945 283.846C123.901 283.873 123.849 283.883 123.798 283.874Z" fill="#0C95EF"/>
<path d="M184.803 292.726L192.761 288.747L192.08 285.917L183.004 290.055L184.803 292.726Z" fill="#0C95EF"/>
<path opacity="0.5" d="M184.803 292.726L192.761 288.747L192.08 285.917L183.004 290.055L184.803 292.726Z" fill="white"/>
<path d="M197.416 295.838L191.926 297.498C191.822 297.527 191.731 297.592 191.67 297.682C191.61 297.771 191.583 297.88 191.596 297.988L192.261 302.967C192.28 303.084 192.322 303.196 192.384 303.297C192.447 303.398 192.528 303.485 192.625 303.554C192.722 303.623 192.831 303.672 192.946 303.698C193.062 303.724 193.182 303.727 193.299 303.707H193.394C202.566 302.18 205.593 300.515 206.577 300.163C209.397 299.211 208.269 297.136 207.269 297.195C202.779 297.471 201.38 296.95 199.597 296.131C198.906 295.854 198.156 295.754 197.416 295.838Z" fill="#263238"/>
<path d="M123.591 230.195C121.941 230.456 120.308 229.189 119.792 227.604C119.579 226.797 119.537 225.954 119.668 225.13C119.799 224.305 120.1 223.517 120.553 222.816C121.175 221.752 125.256 219.23 126.767 222.071C129.778 227.7 123.591 230.195 123.591 230.195Z" fill="#263238"/>
<path d="M179.509 252.294L163.416 252.975L163.49 251.379L179.583 250.698L179.509 252.294Z" fill="#0C95EF"/>
<g opacity="0.7">
<path d="M179.509 252.294L163.416 252.975L163.49 251.379L179.583 250.698L179.509 252.294Z" fill="white"/>
</g>
<path d="M179.413 254.507L163.32 255.194L163.389 253.598L179.482 252.911L179.413 254.507Z" fill="#0C95EF"/>
<g opacity="0.7">
<path d="M179.413 254.507L163.32 255.194L163.389 253.598L179.482 252.911L179.413 254.507Z" fill="white"/>
</g>
<path d="M179.312 256.726L163.219 257.412L163.294 255.811L179.381 255.13L179.312 256.726Z" fill="#0C95EF"/>
<g opacity="0.7">
<path d="M179.312 256.726L163.219 257.412L163.294 255.811L179.381 255.13L179.312 256.726Z" fill="white"/>
</g>
<path d="M179.211 258.939L163.118 259.625L163.193 258.029L179.286 257.343L179.211 258.939Z" fill="#0C95EF"/>
<g opacity="0.7">
<path d="M179.211 258.939L163.118 259.625L163.193 258.029L179.286 257.343L179.211 258.939Z" fill="white"/>
</g>
<path d="M179.115 261.157L163.022 261.844L163.091 260.248L179.184 259.561L179.115 261.157Z" fill="#0C95EF"/>
<g opacity="0.7">
<path d="M179.115 261.157L163.022 261.844L163.091 260.248L179.184 259.561L179.115 261.157Z" fill="white"/>
</g>
<path d="M156.909 253.877L155.617 253.932L155.64 254.464L156.932 254.408L156.909 253.877Z" fill="#0C95EF"/>
<g opacity="0.5">
<path d="M156.909 253.875L155.617 253.933L155.639 254.465L156.931 254.407L156.909 253.875Z" fill="white"/>
</g>
<path d="M156.847 255.415L155.555 255.471L155.578 256.002L156.87 255.947L156.847 255.415Z" fill="#0C95EF"/>
<g opacity="0.5">
<path d="M156.847 255.414L155.555 255.472L155.577 256.003L156.869 255.945L156.847 255.414Z" fill="white"/>
</g>
<path d="M156.458 257.367L155.165 257.419L155.186 257.951L156.479 257.899L156.458 257.367Z" fill="#0C95EF"/>
<g opacity="0.5">
<path d="M156.458 257.366L155.165 257.42L155.185 257.952L156.478 257.898L156.458 257.366Z" fill="white"/>
</g>
<path d="M156.729 258.482L155.437 258.538L155.46 259.069L156.752 259.014L156.729 258.482Z" fill="#0C95EF"/>
<g opacity="0.5">
<path d="M156.729 258.481L155.437 258.538L155.459 259.07L156.751 259.012L156.729 258.481Z" fill="white"/>
</g>
<path d="M156.325 260.437L155.032 260.488L155.054 261.02L156.347 260.969L156.325 260.437Z" fill="#0C95EF"/>
<g opacity="0.5">
<path d="M155.404 260.599L155.452 260.067L156.739 260.008L156.691 260.545L155.404 260.599Z" fill="white"/>
</g>
<path d="M156.608 261.551L155.317 261.605L155.339 262.137L156.631 262.083L156.608 261.551Z" fill="#0C95EF"/>
<g opacity="0.5">
<path d="M156.608 261.55L155.317 261.606L155.338 262.138L156.63 262.081L156.608 261.55Z" fill="white"/>
</g>
<path d="M158.261 252.406L155.59 253.401L155.617 252.698L157.096 252.459L155.633 252.358L155.659 251.656L158.261 252.406Z" fill="#0C95EF"/>
<path d="M174.567 249.868L163.416 250.342L163.469 249.235L174.62 248.762L174.567 249.868Z" fill="#0C95EF"/>
<g opacity="0.7">
<path d="M174.567 249.868L163.416 250.342L163.469 249.235L174.62 248.762L174.567 249.868Z" fill="white"/>
</g>
<path d="M159.522 250.438L157.888 250.512L158.548 250.092L158.729 250.257L158.926 250.086L159.522 250.438Z" fill="#0C95EF"/>
<path d="M158.484 250.038L157.825 250.464L157.873 249.485L158.484 250.038Z" fill="#0C95EF"/>
<path d="M159.628 249.458L159.575 250.379L158.974 250.028L159.628 249.458Z" fill="#0C95EF"/>
<path d="M158.749 249.865L158.71 249.905L158.715 249.909L158.753 249.868L158.749 249.865Z" fill="white"/>
<path d="M158.72 249.873L158.716 249.876L158.755 249.917L158.759 249.913L158.72 249.873Z" fill="white"/>
<path d="M159.628 249.363L158.926 250.001L158.729 250.177L158.548 250.007L157.936 249.453L157.888 249.411L159.628 249.363Z" fill="#0C95EF"/>
<path d="M156.912 249.547L155.62 249.602L155.627 249.762L156.918 249.707L156.912 249.547Z" fill="#0C95EF"/>
<path d="M156.913 249.951L155.621 250.006L155.628 250.166L156.92 250.111L156.913 249.951Z" fill="#0C95EF"/>
<path d="M156.914 250.366L155.623 250.421L155.629 250.58L156.921 250.525L156.914 250.366Z" fill="#0C95EF"/>
<path d="M129.091 262.652L133.917 317.81H126.16L120.968 258.455H124.532C125.679 258.46 126.782 258.893 127.626 259.669C128.469 260.446 128.992 261.51 129.091 262.652Z" fill="#0C95EF"/>
<path opacity="0.2" d="M129.139 263.152L133.927 317.81H126.16L120.968 258.455H124.032C125.316 258.46 126.551 258.945 127.496 259.814C128.44 260.683 129.027 261.873 129.139 263.152Z" fill="black"/>
<path d="M124.032 262.051L128.91 317.81H82.6265L77.8385 262.737C77.7905 262.193 77.8562 261.645 78.0315 261.128C78.2067 260.611 78.4876 260.136 78.8564 259.733C79.2251 259.33 79.6736 259.009 80.1734 258.788C80.6731 258.568 81.2132 258.455 81.7593 258.455H120.159C121.136 258.467 122.073 258.842 122.789 259.506C123.505 260.171 123.948 261.078 124.032 262.051Z" fill="#0C95EF"/>
<path opacity="0.2" d="M124.089 262.657L128.915 317.81H82.6307L77.8586 263.461C77.8026 262.825 77.8793 262.185 78.084 261.58C78.2887 260.976 78.6168 260.421 79.0475 259.95C79.4783 259.479 80.0022 259.103 80.5861 258.846C81.17 258.588 81.801 258.455 82.4391 258.455H119.509C120.66 258.456 121.768 258.888 122.616 259.666C123.464 260.444 123.99 261.511 124.089 262.657Z" fill="white"/>
<path d="M205.529 317.81H82.8232L81.4719 302.515H199.257C200.596 302.539 201.88 303.053 202.866 303.96C203.853 304.867 204.472 306.103 204.609 307.436L205.529 317.81Z" fill="#0C95EF"/>
<path opacity="0.2" d="M205.529 317.81H82.8232L81.4719 302.515H199.257C200.596 302.539 201.88 303.053 202.866 303.96C203.853 304.867 204.472 306.103 204.609 307.436L205.529 317.81Z" fill="white"/>
<path d="M211.158 323.667H81.3816C80.5736 323.666 79.799 323.344 79.2276 322.773C78.6563 322.202 78.3347 321.427 78.3333 320.619C78.3333 319.81 78.6544 319.035 79.2261 318.463C79.7978 317.892 80.5731 317.571 81.3816 317.571H211.158C211.966 317.571 212.742 317.892 213.313 318.463C213.885 319.035 214.206 319.81 214.206 320.619C214.205 321.427 213.883 322.202 213.312 322.773C212.74 323.344 211.966 323.666 211.158 323.667Z" fill="#0C95EF"/>
<path opacity="0.2" d="M211.158 323.667H135.821C135.013 323.667 134.237 323.346 133.666 322.774C133.094 322.203 132.773 321.427 132.773 320.619C132.772 320.218 132.85 319.822 133.003 319.452C133.156 319.081 133.381 318.745 133.664 318.462C133.947 318.179 134.284 317.954 134.654 317.801C135.024 317.648 135.421 317.57 135.821 317.571H211.158C211.966 317.571 212.741 317.892 213.313 318.463C213.885 319.035 214.206 319.81 214.206 320.619C214.205 321.427 213.883 322.202 213.312 322.773C212.74 323.344 211.966 323.666 211.158 323.667Z" fill="black"/>
<path d="M83.084 323.667L84.6215 328.897H87.6964L89.3882 323.667H83.084Z" fill="#263238"/>
<path opacity="0.5" d="M83.084 323.667L84.6215 328.897H87.6964L89.3882 323.667H83.084Z" fill="white"/>
<path d="M127.149 323.667L128.687 328.897H131.762L133.459 323.667H127.149Z" fill="#263238"/>
<path opacity="0.5" d="M127.149 323.667L128.687 328.897H131.762L133.459 323.667H127.149Z" fill="white"/>
<path d="M160.878 323.667L162.416 328.897H165.491L167.183 323.667H160.878Z" fill="#263238"/>
<path opacity="0.5" d="M160.878 323.667L162.416 328.897H165.491L167.183 323.667H160.878Z" fill="white"/>
<path d="M204.944 323.667L206.481 328.897H209.556L211.248 323.667H204.944Z" fill="#263238"/>
<path opacity="0.5" d="M204.944 323.667L206.481 328.897H209.556L211.248 323.667H204.944Z" fill="white"/>
<path d="M113.334 256.38H109.966C109.895 256.38 109.828 256.352 109.778 256.302C109.728 256.252 109.7 256.184 109.7 256.114C109.7 256.043 109.728 255.976 109.778 255.926C109.828 255.876 109.895 255.848 109.966 255.848H113.334C113.404 255.849 113.471 255.878 113.52 255.927C113.57 255.977 113.598 256.044 113.6 256.114C113.6 256.184 113.571 256.252 113.522 256.302C113.472 256.352 113.404 256.38 113.334 256.38Z" fill="#0C95EF"/>
<path d="M107.726 256.38H90.8458C90.7753 256.38 90.7076 256.352 90.6577 256.302C90.6079 256.252 90.5798 256.184 90.5798 256.114C90.5812 256.044 90.6097 255.977 90.6593 255.927C90.7088 255.878 90.7757 255.849 90.8458 255.848H107.726C107.796 255.849 107.863 255.878 107.913 255.927C107.962 255.977 107.991 256.044 107.992 256.114C107.992 256.184 107.964 256.252 107.914 256.302C107.864 256.352 107.797 256.38 107.726 256.38Z" fill="#0C95EF"/>
<path d="M167.576 287.167C167.51 287.165 167.446 287.141 167.395 287.098C167.37 287.073 167.351 287.044 167.337 287.011C167.324 286.979 167.317 286.944 167.317 286.909C167.317 286.874 167.324 286.839 167.337 286.807C167.351 286.774 167.37 286.745 167.395 286.72L168.991 285.007C169.016 284.982 169.045 284.962 169.078 284.949C169.11 284.935 169.145 284.928 169.18 284.928C169.215 284.928 169.25 284.935 169.282 284.949C169.315 284.962 169.344 284.982 169.369 285.007C169.418 285.058 169.446 285.125 169.446 285.196C169.446 285.266 169.418 285.334 169.369 285.385L167.773 287.098C167.719 287.146 167.648 287.17 167.576 287.167Z" fill="#0C95EF"/>
<path d="M153.154 300.802C153.104 300.802 153.056 300.788 153.015 300.762C152.973 300.736 152.94 300.698 152.92 300.653C152.903 300.622 152.893 300.588 152.89 300.553C152.887 300.518 152.891 300.483 152.902 300.45C152.913 300.417 152.931 300.386 152.954 300.36C152.977 300.333 153.005 300.312 153.037 300.296C157.963 297.801 165.778 288.47 165.858 288.374C165.88 288.347 165.907 288.325 165.938 288.309C165.969 288.293 166.003 288.283 166.037 288.28C166.072 288.277 166.107 288.281 166.14 288.292C166.173 288.302 166.204 288.32 166.23 288.342C166.284 288.389 166.317 288.454 166.323 288.525C166.329 288.595 166.307 288.666 166.262 288.72C165.943 289.103 158.282 298.227 153.276 300.77C153.239 300.791 153.197 300.802 153.154 300.802Z" fill="#0C95EF"/>
</svg>
