<svg width="375" height="505" viewBox="0 0 375 505" fill="none" xmlns="http://www.w3.org/2000/svg">
<path d="M283.434 370.998C255.581 394.458 210.649 398.207 170.309 391.478C129.952 384.988 93.9139 368.481 73.7642 341.346C53.8534 314.227 49.8141 276.718 55.1258 242.761C60.4204 209.041 75.322 178.651 99.8827 144.15C124.205 109.631 158.441 70.7796 191.035 71.6714C223.628 72.5631 255.056 113.232 278.515 151.17C301.973 189.108 317.685 224.571 319.898 264.11C322.367 303.427 311.304 347.299 283.434 370.998Z" fill="#D3ECFD"/>
<path d="M245.451 139.588V337.18C245.452 337.589 245.37 337.994 245.212 338.371C245.054 338.748 244.823 339.09 244.532 339.377C244.24 339.664 243.895 339.89 243.515 340.041C243.135 340.193 242.729 340.268 242.321 340.262H136.15C135.78 340.268 135.412 340.199 135.069 340.06C134.726 339.921 134.414 339.714 134.152 339.452C133.89 339.19 133.683 338.878 133.544 338.535C133.405 338.192 133.336 337.824 133.342 337.454V139.335C133.329 139.008 133.381 138.68 133.494 138.372C133.608 138.065 133.781 137.782 134.004 137.542C134.227 137.301 134.496 137.107 134.794 136.97C135.093 136.833 135.415 136.757 135.743 136.745H160.98C161.369 136.753 161.748 136.876 162.067 137.1C162.385 137.324 162.63 137.638 162.77 138.002L163.928 140.81C164.07 141.172 164.317 141.483 164.637 141.705C164.957 141.926 165.336 142.047 165.725 142.052H213.188C213.573 142.049 213.95 141.931 214.269 141.714C214.587 141.496 214.834 141.189 214.978 140.831L216.136 137.974C216.275 137.609 216.52 137.294 216.839 137.069C217.157 136.844 217.536 136.719 217.926 136.71H242.735C243.476 136.734 244.177 137.05 244.686 137.589C245.195 138.128 245.47 138.847 245.451 139.588Z" fill="#263238"/>
<path d="M245.458 149.928H133.356V326.25H245.458V149.928Z" fill="#0C95EF"/>
<path opacity="0.7" d="M245.458 149.928H133.356V326.25H245.458V149.928Z" fill="white"/>
<path opacity="0.6" d="M146.596 145.246H148.049V143.316H146.596V145.246Z" fill="white"/>
<path opacity="0.6" d="M144.23 145.246H145.683V142.67H144.23V145.246Z" fill="white"/>
<path opacity="0.6" d="M141.864 145.246H143.317V142.024H141.864V145.246Z" fill="white"/>
<path opacity="0.6" d="M139.499 145.246H140.952V141.378H139.499V145.246Z" fill="white"/>
<path opacity="0.6" d="M232.464 142.607H231.608V144.537H232.464V142.607Z" fill="white"/>
<path opacity="0.6" d="M233.054 145.246H239.906V141.898H233.054V145.246Z" fill="white"/>
<path d="M183.858 167.437H220.748C220.858 167.447 220.969 167.434 221.074 167.399C221.179 167.364 221.275 167.308 221.357 167.233C221.438 167.159 221.504 167.069 221.548 166.967C221.593 166.866 221.616 166.757 221.616 166.647C221.616 166.536 221.593 166.427 221.548 166.326C221.504 166.225 221.438 166.134 221.357 166.06C221.275 165.986 221.179 165.929 221.074 165.894C220.969 165.859 220.858 165.847 220.748 165.857H183.858C183.661 165.876 183.479 165.967 183.346 166.113C183.213 166.259 183.139 166.449 183.139 166.647C183.139 166.844 183.213 167.035 183.346 167.181C183.479 167.327 183.661 167.418 183.858 167.437Z" fill="#263238"/>
<path d="M229.144 170.364H183.654C183.573 170.355 183.491 170.363 183.413 170.388C183.335 170.413 183.263 170.454 183.202 170.509C183.141 170.564 183.092 170.631 183.059 170.705C183.025 170.78 183.008 170.861 183.008 170.943C183.008 171.025 183.025 171.106 183.059 171.181C183.092 171.255 183.141 171.322 183.202 171.377C183.263 171.432 183.335 171.473 183.413 171.498C183.491 171.523 183.573 171.531 183.654 171.522H229.144C229.287 171.506 229.418 171.439 229.514 171.332C229.61 171.225 229.663 171.086 229.663 170.943C229.663 170.8 229.61 170.661 229.514 170.554C229.418 170.447 229.287 170.38 229.144 170.364Z" fill="#263238"/>
<path d="M215.799 173.684H183.654C183.573 173.675 183.491 173.683 183.413 173.708C183.335 173.734 183.263 173.775 183.202 173.829C183.141 173.884 183.092 173.951 183.059 174.026C183.025 174.1 183.008 174.181 183.008 174.263C183.008 174.345 183.025 174.426 183.059 174.501C183.092 174.576 183.141 174.643 183.202 174.697C183.263 174.752 183.335 174.793 183.413 174.818C183.491 174.843 183.573 174.851 183.654 174.842H215.799C215.942 174.827 216.073 174.759 216.169 174.652C216.265 174.545 216.318 174.407 216.318 174.263C216.318 174.12 216.265 173.981 216.169 173.875C216.073 173.768 215.942 173.7 215.799 173.684Z" fill="#263238"/>
<path d="M244.118 195.165H134.69V304.593H244.118V195.165Z" fill="#0C95EF"/>
<path d="M240.594 316.429L237.512 313.768L234.423 316.429V309.114H240.594V316.429Z" fill="#0C95EF"/>
<path d="M229.46 309.114H224.813C224.507 309.114 224.214 309.235 223.999 309.451C223.783 309.667 223.661 309.96 223.661 310.265V313.438C223.661 313.744 223.783 314.037 223.999 314.252C224.214 314.468 224.507 314.59 224.813 314.59H226.392V316.429L227.593 314.59H229.46C229.611 314.591 229.761 314.561 229.901 314.504C230.042 314.446 230.169 314.362 230.276 314.255C230.383 314.147 230.468 314.02 230.525 313.88C230.583 313.74 230.612 313.59 230.611 313.438V310.265C230.612 310.114 230.583 309.964 230.525 309.824C230.468 309.684 230.383 309.556 230.276 309.449C230.169 309.342 230.042 309.257 229.901 309.2C229.761 309.142 229.611 309.113 229.46 309.114Z" fill="#0C95EF"/>
<path d="M220.144 309.985C219.288 308.581 217.631 309.107 216.775 310.195C215.925 309.1 214.276 308.545 213.398 309.949C211.931 312.308 214.921 314.519 216.339 315.39L216.74 315.636L217.147 315.39C218.544 314.541 221.59 312.364 220.144 309.985Z" fill="#0C95EF"/>
<g opacity="0.3">
<path opacity="0.7" d="M221.773 204.375H225.915L223.844 209.746L221.773 204.375Z" fill="white"/>
<path opacity="0.7" d="M235.118 231.108L236.375 235.053L230.632 234.702L235.118 231.108Z" fill="white"/>
<path d="M233.503 213.796L231.538 218.619L237.512 220.704V216.801L233.503 213.796Z" fill="white"/>
<path d="M156.045 203.084H159.084L156.045 207.064V203.084Z" fill="white"/>
<path d="M144.616 222.705L148.056 221.918L149.018 224.874L145.051 226.257L144.616 222.705Z" fill="white"/>
<path d="M179.421 207.064C180.162 207.064 180.762 206.464 180.762 205.723C180.762 204.983 180.162 204.383 179.421 204.383C178.681 204.383 178.08 204.983 178.08 205.723C178.08 206.464 178.681 207.064 179.421 207.064Z" fill="white"/>
<path d="M159.885 295.629C159.885 296.155 159.728 296.67 159.436 297.107C159.143 297.545 158.727 297.886 158.241 298.087C157.754 298.288 157.219 298.341 156.702 298.238C156.186 298.134 155.712 297.88 155.34 297.507C154.968 297.135 154.716 296.66 154.614 296.143C154.512 295.627 154.566 295.092 154.768 294.606C154.97 294.12 155.313 293.705 155.751 293.413C156.189 293.122 156.705 292.967 157.231 292.968C157.58 292.968 157.926 293.037 158.248 293.171C158.571 293.304 158.863 293.501 159.11 293.748C159.356 293.995 159.552 294.288 159.685 294.611C159.818 294.934 159.886 295.28 159.885 295.629Z" fill="white"/>
<path d="M147.073 272.512L148.056 274.175L143.303 276.211L142.222 275.102L147.073 272.512Z" fill="white"/>
<path d="M178.08 299.749L177.154 297.397H180.769L178.08 299.749Z" fill="white"/>
<path d="M216.487 297.398L216.768 294.779L221.724 296.085V299.911L216.487 297.398Z" fill="white"/>
<path d="M227.136 283.898H231.566L229.354 286.517L227.136 283.898Z" fill="white"/>
<path d="M234.423 256.955L233.503 262.515L234.521 263.442L235.476 256.955H234.423Z" fill="white"/>
<path d="M139.379 240.669L143.303 243.519L140.495 245.583L139.379 240.669Z" fill="white"/>
<path d="M156.789 218.107C157.033 218.107 157.231 217.909 157.231 217.664C157.231 217.42 157.033 217.222 156.789 217.222C156.545 217.222 156.347 217.42 156.347 217.664C156.347 217.909 156.545 218.107 156.789 218.107Z" fill="white"/>
<path d="M213.623 212.835C213.964 212.835 214.24 212.558 214.24 212.217C214.24 211.876 213.964 211.599 213.623 211.599C213.281 211.599 213.005 211.876 213.005 212.217C213.005 212.558 213.281 212.835 213.623 212.835Z" fill="white"/>
<path d="M197.041 296.892C197.041 297.024 196.989 297.151 196.895 297.245C196.802 297.338 196.675 297.391 196.543 297.391C196.411 297.391 196.284 297.338 196.191 297.245C196.097 297.151 196.045 297.024 196.045 296.892C196.045 296.76 196.097 296.633 196.191 296.54C196.284 296.446 196.411 296.394 196.543 296.394C196.675 296.394 196.802 296.446 196.895 296.54C196.989 296.633 197.041 296.76 197.041 296.892Z" fill="white"/>
<path d="M202.889 200.676L207.831 199.932V202.34L202.889 203.084V200.676Z" fill="white"/>
<path d="M235.476 203.084H237.098L236.283 205.071L235.476 203.084Z" fill="white"/>
<path d="M142.222 205.723H144.616L143.416 207.064L142.222 205.723Z" fill="white"/>
<path d="M232.97 299.749L232.738 295.144L236.283 296.394L232.97 299.749Z" fill="white"/>
<path d="M236.375 273.249L234.521 271.768V273.249L236.375 274.365V273.249Z" fill="white"/>
<path d="M141.338 258.437L143.416 260.199L142.377 261.771L139.625 259.567L141.338 258.437Z" fill="white"/>
<path d="M139.625 217.222H142.222L139.379 218.107L139.625 217.222Z" fill="white"/>
</g>
<path d="M184.897 213.017L189.593 208.602L194.24 213.059L199.885 209.95L203.282 215.425L209.523 213.825L211.447 219.967H217.891L218.235 226.397L224.476 227.998L223.198 234.316L228.849 237.419L226.048 243.217L230.744 247.626L226.589 252.547L230.042 257.987L224.792 261.722L226.785 267.844L220.776 270.153L221.183 276.583L214.781 277.328L213.581 283.66L207.192 282.782L204.455 288.616L198.488 286.18L194.381 291.15L189.207 287.31L183.998 291.101L179.941 286.096L173.953 288.468L171.271 282.614L164.883 283.421L163.739 277.082L157.343 276.275L157.814 269.851L151.826 267.486L153.876 261.378L148.66 257.594L152.17 252.189L148.056 247.226L152.801 242.866L150.057 237.033L155.736 233.986L154.521 227.661L160.776 226.124L161.176 219.693L167.621 219.757L169.607 213.628L175.834 215.292L179.281 209.851L184.897 213.017Z" fill="#0C95EF"/>
<path opacity="0.4" d="M227.291 253.951L231.446 249.037L226.75 244.628L229.558 238.83L223.907 235.727L225.185 229.409L218.944 227.808L218.6 221.378H212.155L210.232 215.236L203.991 216.836L200.594 211.361L194.978 214.47L190.33 210.013L185.634 214.428L180.018 211.262L176.571 216.71L170.344 215.039L168.358 221.167L161.913 221.104L161.513 227.535L155.258 229.072L156.473 235.39L150.794 238.437L153.539 244.27L148.758 248.658L152.872 253.621L149.362 259.026L154.577 262.81L152.528 268.917L158.516 271.283L158.045 277.707L164.441 278.514L165.578 284.832L171.973 284.025L174.655 289.879L180.643 287.506L184.7 292.512L189.909 288.721L195.083 292.561L199.19 287.591L205.157 290.027L207.894 284.193L214.276 285.07L215.483 278.753L221.885 278.008L221.471 271.578L227.487 269.268L225.493 263.14L230.744 259.412L227.291 253.951ZM225.999 258.486L221.359 261.785L223.121 267.198L217.807 269.233L218.172 274.913L212.514 275.572L211.453 281.188L205.837 280.416L203.416 285.569L198.151 283.421L194.521 287.801L189.951 284.411L185.353 287.759L181.773 283.337L176.48 285.443L174.114 280.269L168.463 280.971L167.459 275.355L161.843 274.653L162.264 268.981L156.971 266.875L158.782 261.483L154.177 258.142L157.28 253.368L153.644 248.988L157.856 245.134L155.364 239.953L160.383 237.264L159.309 231.648L164.841 230.293L165.192 224.614L170.878 224.67L172.633 219.258L178.13 220.732L181.176 215.924L186.139 218.732L190.281 214.828L194.388 218.767L199.372 216.022L202.377 220.859L207.887 219.455L209.586 224.888H215.279L215.581 230.574L221.092 231.978L219.969 237.552L224.953 240.29L222.482 245.415L226.631 249.311L222.959 253.656L225.999 258.486Z" fill="black"/>
<path opacity="0.4" d="M184.897 213.017L189.593 208.602L194.24 213.059L199.885 209.95L203.282 215.425L209.523 213.825L211.447 219.967H217.891L218.235 226.397L224.476 227.998L223.198 234.316L228.849 237.419L226.048 243.217L230.744 247.626L226.589 252.547L230.042 257.987L224.792 261.722L226.785 267.844L220.776 270.153L221.183 276.583L214.781 277.328L213.581 283.66L207.192 282.782L204.455 288.616L198.488 286.18L194.381 291.15L189.207 287.31L183.998 291.101L179.941 286.096L173.953 288.468L171.271 282.614L164.883 283.421L163.739 277.082L157.343 276.275L157.814 269.851L151.826 267.486L153.876 261.378L148.66 257.594L152.17 252.189L148.056 247.226L152.801 242.866L150.057 237.033L155.736 233.986L154.521 227.661L160.776 226.124L161.176 219.693L167.621 219.757L169.607 213.628L175.834 215.292L179.281 209.851L184.897 213.017Z" fill="black"/>
<path d="M226.589 252.547L230.744 247.633L226.048 243.224L228.856 237.426L223.205 234.323L224.483 228.005L218.242 226.404L217.898 219.974H211.454L209.53 213.832L203.289 215.432L199.892 209.956L194.276 213.066L189.628 208.609L184.932 213.024L179.316 209.858L175.869 215.306L169.642 213.635L167.656 219.763L161.211 219.7L160.811 226.131L154.556 227.668L155.771 233.986L150.092 237.033L152.837 242.866L148.056 247.254L152.17 252.217L148.66 257.622L153.876 261.406L151.826 267.513L157.814 269.879L157.343 276.302L163.739 277.11L164.876 283.428L171.271 282.62L173.953 288.475L179.941 286.102L183.998 291.108L189.207 287.317L194.381 291.157L198.488 286.187L204.455 288.623L207.192 282.789L213.574 283.666L214.781 277.348L221.183 276.604L220.769 270.174L226.785 267.864L224.792 261.736L230.042 258.008L226.589 252.547ZM225.297 257.082L220.657 260.381L222.419 265.794L217.105 267.829L217.47 273.509L211.812 274.168L210.752 279.784L205.136 279.012L202.714 284.165L197.449 282.017L193.819 286.397L189.249 283.007L184.651 286.355L181.071 281.933L175.778 284.038L173.412 278.865L167.761 279.567L166.757 273.951L161.141 273.249L161.562 267.577L156.269 265.471L158.08 260.079L153.475 256.738L156.578 251.964L152.942 247.584L157.154 243.73L154.662 238.549L159.681 235.86L158.607 230.244L164.139 228.889L164.49 223.21L170.176 223.266L171.931 217.854L177.428 219.328L180.474 214.519L185.437 217.327L189.579 213.424L193.686 217.363L198.67 214.618L201.675 219.455L207.185 218.051L208.884 223.484H214.577L214.879 229.17L220.39 230.574L219.267 236.148L224.251 238.886L221.78 244.01L225.929 247.907L222.257 252.252L225.297 257.082Z" fill="#0C95EF"/>
<path opacity="0.6" d="M226.589 252.547L230.744 247.633L226.048 243.224L228.856 237.426L223.205 234.323L224.483 228.005L218.242 226.404L217.898 219.974H211.454L209.53 213.832L203.289 215.432L199.892 209.956L194.276 213.066L189.628 208.609L184.932 213.024L179.316 209.858L175.869 215.306L169.642 213.635L167.656 219.763L161.211 219.7L160.811 226.131L154.556 227.668L155.771 233.986L150.092 237.033L152.837 242.866L148.056 247.254L152.17 252.217L148.66 257.622L153.876 261.406L151.826 267.513L157.814 269.879L157.343 276.302L163.739 277.11L164.876 283.428L171.271 282.62L173.953 288.475L179.941 286.102L183.998 291.108L189.207 287.317L194.381 291.157L198.488 286.187L204.455 288.623L207.192 282.789L213.574 283.666L214.781 277.348L221.183 276.604L220.769 270.174L226.785 267.864L224.792 261.736L230.042 258.008L226.589 252.547ZM225.297 257.082L220.657 260.381L222.419 265.794L217.105 267.829L217.47 273.509L211.812 274.168L210.752 279.784L205.136 279.012L202.714 284.165L197.449 282.017L193.819 286.397L189.249 283.007L184.651 286.355L181.071 281.933L175.778 284.038L173.412 278.865L167.761 279.567L166.757 273.951L161.141 273.249L161.562 267.577L156.269 265.471L158.08 260.079L153.475 256.738L156.578 251.964L152.942 247.584L157.154 243.73L154.662 238.549L159.681 235.86L158.607 230.244L164.139 228.889L164.49 223.21L170.176 223.266L171.931 217.854L177.428 219.328L180.474 214.519L185.437 217.327L189.579 213.424L193.686 217.363L198.67 214.618L201.675 219.455L207.185 218.051L208.884 223.484H214.577L214.879 229.17L220.39 230.574L219.267 236.148L224.251 238.886L221.78 244.01L225.929 247.907L222.257 252.252L225.297 257.082Z" fill="white"/>
<path opacity="0.4" d="M168.772 247.822C168.772 247.822 172.352 247.205 174.114 247.822C175.876 248.44 183.331 261.16 183.331 261.16C183.331 261.16 197.793 241.266 209.354 232.568C209.354 232.568 194.353 246.004 185.655 268.559C185.655 268.559 182.728 269.851 180.657 267.542C180.06 266.84 173.342 255.39 172.043 254.962C171.025 254.618 167.74 254.786 167.74 254.786L168.772 247.822Z" fill="black"/>
<path d="M168.07 247.12C168.07 247.12 171.65 246.503 173.412 247.12C175.174 247.738 182.629 260.458 182.629 260.458C182.629 260.458 197.091 240.564 208.653 231.866C208.653 231.866 193.651 245.302 184.953 267.858C184.953 267.858 182.026 269.149 179.955 266.84C179.358 266.138 172.64 254.688 171.341 254.26C170.323 253.916 167.038 254.084 167.038 254.084L168.07 247.12Z" fill="white"/>
<path d="M173.468 173.65C173.483 176.527 172.758 179.36 171.362 181.877L171.053 182.404C170.05 184.068 168.765 185.546 167.255 186.77L167.171 186.84C165.742 187.992 164.134 188.903 162.412 189.536C160.55 190.218 158.582 190.565 156.599 190.561C155.968 190.565 155.337 190.529 154.711 190.455C153.658 190.344 152.619 190.13 151.608 189.817C149.146 189.06 146.892 187.743 145.023 185.97C142.98 184.047 141.446 181.647 140.56 178.985C139.675 176.323 139.465 173.483 139.949 170.719C140.434 167.956 141.598 165.356 143.336 163.154C145.075 160.952 147.333 159.217 149.909 158.104C152.484 156.992 155.296 156.537 158.091 156.781C160.886 157.025 163.576 157.959 165.92 159.501C168.264 161.043 170.188 163.143 171.519 165.612C172.85 168.082 173.547 170.844 173.545 173.65H173.468Z" fill="#0C95EF"/>
<path d="M171.334 181.877L171.025 182.403C167.155 182.343 163.293 182.779 159.534 183.702L158.277 184.011L157.42 184.236C156.346 184.523 155.314 184.825 154.437 185.113L154.037 185.246L153.749 185.338C152.703 185.689 151.812 186.005 151.131 186.264C150.113 186.65 149.53 186.903 149.53 186.903C149.197 186.474 148.892 186.024 148.617 185.555L148.575 185.478C147.052 182.923 144.363 177.054 145.627 168.63C147.031 159.258 154.802 159.855 157.561 160.375C157.89 160.429 158.216 160.504 158.537 160.599C158.537 160.599 167.234 162.649 167.557 168.069C167.603 168.794 167.692 169.516 167.824 170.231C168.642 174.21 169.817 178.108 171.334 181.877Z" fill="#263238"/>
<path d="M162.384 189.536C160.522 190.218 158.554 190.565 156.571 190.561C155.94 190.564 155.309 190.529 154.683 190.455C153.63 190.343 152.591 190.129 151.58 189.816L151.039 185.401L150.78 183.295L162.356 184.938V185.927L162.391 188.834V189.536H162.384Z" fill="#0C95EF"/>
<path d="M167.143 186.84C165.714 187.992 164.106 188.903 162.384 189.536C160.522 190.218 158.554 190.565 156.571 190.561C155.94 190.565 155.309 190.529 154.683 190.455C153.63 190.344 152.591 190.13 151.58 189.817C149.118 189.06 146.864 187.743 144.995 185.97C145.529 185.885 146.069 185.822 146.61 185.752H146.743C147.382 185.682 148.021 185.619 148.66 185.57C149.418 185.506 150.169 185.457 150.927 185.429H151.06L151.987 185.394H153.089H154.381C155.785 185.394 157.208 185.446 158.649 185.548L160.102 185.668L160.867 185.745L161.976 185.914L162.222 185.949H162.391L163.696 186.173C163.9 186.208 164.104 186.257 164.307 186.286L164.693 186.363L165.107 186.44L165.809 186.58L166.301 186.679L167.143 186.84Z" fill="#263238"/>
<path d="M159.421 189.69C154.598 188.869 153.223 186.735 153.223 186.735C155.286 184.952 155.041 182.179 154.627 180.417C154.494 179.867 154.315 179.329 154.093 178.809L159.885 180.143C159.717 180.949 159.606 181.765 159.555 182.586C159.51 183.194 159.541 183.804 159.646 184.404C159.969 186.159 160.966 186.229 160.966 186.229C161.885 188.23 159.421 189.69 159.421 189.69Z" fill="#E4897B"/>
<path opacity="0.2" d="M159.534 182.628C159.489 183.236 159.52 183.846 159.625 184.446C157.322 184.039 155.637 182.116 154.606 180.459C154.473 179.909 154.294 179.371 154.072 178.851L159.863 180.185C159.696 180.991 159.585 181.807 159.534 182.628Z" fill="black"/>
<path d="M158.747 163.59C164.23 163.829 165.873 166.84 166.027 172.505C166.231 179.582 164.448 184.531 157.659 182.733C148.435 180.283 149.642 163.197 158.747 163.59Z" fill="#E4897B"/>
<path d="M162.496 172.042C162.901 172.881 163.406 173.668 163.998 174.387C163.827 174.605 163.599 174.773 163.339 174.872C163.079 174.971 162.798 174.997 162.524 174.948L162.496 172.042Z" fill="#DE5753"/>
<path d="M156.859 168.63C156.797 168.631 156.737 168.608 156.69 168.567C156.666 168.544 156.647 168.516 156.633 168.486C156.62 168.455 156.613 168.422 156.613 168.388C156.613 168.355 156.62 168.321 156.633 168.291C156.647 168.26 156.666 168.232 156.69 168.209C157.038 167.877 157.458 167.63 157.918 167.49C158.377 167.35 158.863 167.32 159.337 167.402C159.37 167.408 159.401 167.42 159.429 167.438C159.457 167.456 159.481 167.48 159.5 167.507C159.519 167.534 159.532 167.565 159.539 167.598C159.546 167.63 159.547 167.664 159.541 167.697C159.535 167.729 159.522 167.761 159.504 167.789C159.486 167.817 159.463 167.841 159.435 167.86C159.408 167.879 159.377 167.892 159.345 167.899C159.312 167.906 159.278 167.906 159.246 167.9C158.858 167.839 158.461 167.865 158.084 167.977C157.708 168.088 157.361 168.283 157.07 168.546C157.043 168.576 157.011 168.599 156.974 168.613C156.938 168.628 156.898 168.634 156.859 168.63Z" fill="#263238"/>
<path d="M165.43 168.406C165.377 168.404 165.326 168.387 165.283 168.356C165.018 168.132 164.707 167.97 164.372 167.881C164.037 167.793 163.686 167.78 163.345 167.844C163.314 167.855 163.28 167.859 163.246 167.857C163.213 167.855 163.18 167.846 163.15 167.831C163.12 167.816 163.093 167.795 163.071 167.77C163.049 167.744 163.033 167.714 163.022 167.682C163.002 167.618 163.008 167.549 163.038 167.488C163.068 167.428 163.12 167.382 163.184 167.36C163.601 167.268 164.033 167.273 164.448 167.374C164.863 167.475 165.249 167.67 165.578 167.942C165.632 167.983 165.668 168.043 165.679 168.11C165.689 168.177 165.673 168.245 165.634 168.3C165.61 168.332 165.579 168.358 165.544 168.376C165.509 168.394 165.47 168.404 165.43 168.406Z" fill="#263238"/>
<path d="M152.359 172.575C152.359 172.575 155.118 168.181 154.879 164.685C154.879 164.685 165.936 160.712 165.999 171.761C165.999 171.761 167.48 162.017 158.066 161.393C148.653 160.768 148.098 174.562 152.787 178.879C152.787 178.879 150.653 175.32 152.359 172.575Z" fill="#263238"/>
<path d="M153.209 173.769C153.181 173.133 152.904 172.534 152.437 172.102C151.971 171.669 151.352 171.438 150.716 171.459C149.004 171.572 148.049 175.025 152.24 176.043C152.836 176.191 153.202 175.65 153.209 173.769Z" fill="#E4897B"/>
<path d="M162.629 176.563C162.256 177.119 161.923 177.701 161.633 178.304L161.289 178.206C159.758 177.728 159.183 177.005 159.049 176.345C158.982 176.02 158.994 175.682 159.084 175.362C159.129 175.18 159.2 175.005 159.295 174.843C160.109 175.555 161.067 176.084 162.103 176.394C162.426 176.507 162.629 176.563 162.629 176.563Z" fill="#263238"/>
<path d="M162.11 176.394L161.801 176.9C160.397 176.451 159.4 175.945 159.084 175.362C159.129 175.18 159.2 175.005 159.295 174.843C160.111 175.556 161.071 176.085 162.11 176.394Z" fill="white"/>
<path d="M161.289 178.206C159.758 177.728 159.183 177.005 159.049 176.345C159.63 176.535 160.172 176.827 160.65 177.209C160.965 177.463 161.189 177.813 161.289 178.206Z" fill="#DE5753"/>
<path d="M158.621 163.997C158.621 163.997 156.024 172.926 150.351 172.568C144.679 172.21 153.932 161.161 153.932 161.161C153.932 161.161 163.345 158.065 167.712 163.183C172.078 168.3 165.999 171.761 165.999 171.761C165.999 171.761 166.645 164.79 158.621 163.997Z" fill="#263238"/>
<path d="M154.409 171.691C154.374 171.691 154.34 171.68 154.311 171.66C154.282 171.64 154.26 171.611 154.247 171.579C154.231 171.537 154.231 171.49 154.248 171.448C154.265 171.406 154.298 171.373 154.339 171.354C158.761 169.459 158.417 163.428 158.417 163.365C158.415 163.32 158.431 163.276 158.461 163.241C158.491 163.207 158.534 163.186 158.579 163.183C158.625 163.181 158.67 163.196 158.705 163.226C158.741 163.256 158.763 163.298 158.768 163.344C158.768 163.407 159.126 169.662 154.479 171.677L154.409 171.691Z" fill="#263238"/>
<path d="M159.267 171.733C159.316 172.154 159.126 172.526 158.846 172.561C158.565 172.597 158.291 172.274 158.242 171.859C158.193 171.445 158.382 171.066 158.663 171.031C158.944 170.996 159.218 171.305 159.267 171.733Z" fill="#263238"/>
<path d="M158.544 171.059L159.428 170.589C159.428 170.589 159.056 171.438 158.544 171.059Z" fill="#263238"/>
<path d="M164.525 171.017C164.574 171.438 164.384 171.81 164.104 171.845C163.823 171.88 163.549 171.564 163.5 171.143C163.451 170.722 163.64 170.35 163.921 170.315C164.202 170.28 164.49 170.596 164.525 171.017Z" fill="#263238"/>
<path d="M163.788 170.343L164.665 169.873C164.665 169.873 164.321 170.736 163.788 170.343Z" fill="#263238"/>
<path d="M167.227 186.77L167.143 186.84C165.714 187.992 164.106 188.902 162.384 189.536V189.037V188.82L161.464 186.959L161.934 185.85L162.335 184.924L162.742 185.808L167.227 186.77Z" fill="#0C95EF"/>
<path opacity="0.6" d="M167.227 186.77L167.143 186.84C165.714 187.992 164.106 188.902 162.384 189.536V189.037V188.82L161.464 186.959L161.934 185.85L162.335 184.924L162.742 185.808L167.227 186.77Z" fill="white"/>
<path d="M156.676 186.819L154.76 189.227L154.662 190.462C153.609 190.35 152.57 190.137 151.559 189.824C149.096 189.067 146.843 187.75 144.974 185.977L146.568 185.752H146.701L150.078 185.275L150.78 183.302L154.219 185.352L156.697 186.833L156.676 186.819Z" fill="#0C95EF"/>
<path opacity="0.6" d="M156.669 186.819L154.76 189.227L154.662 190.462C153.609 190.35 152.57 190.136 151.559 189.824C149.096 189.066 146.843 187.75 144.974 185.977L146.701 185.738L150.078 185.268L150.78 183.295L154.219 185.345L156.669 186.819Z" fill="white"/>
<path d="M174.627 187.956C174.627 188.866 174.357 189.755 173.852 190.511C173.346 191.267 172.628 191.856 171.788 192.204C170.948 192.552 170.023 192.643 169.131 192.466C168.239 192.289 167.42 191.851 166.777 191.208C166.134 190.565 165.696 189.745 165.519 188.853C165.341 187.961 165.432 187.037 165.78 186.197C166.128 185.356 166.718 184.638 167.474 184.133C168.23 183.628 169.119 183.358 170.028 183.358C171.248 183.358 172.417 183.843 173.28 184.705C174.142 185.567 174.627 186.737 174.627 187.956Z" fill="white"/>
<path d="M173.953 187.956C173.953 188.733 173.722 189.491 173.291 190.137C172.86 190.782 172.247 191.285 171.53 191.582C170.813 191.879 170.024 191.957 169.263 191.805C168.502 191.654 167.802 191.28 167.254 190.731C166.705 190.182 166.331 189.483 166.18 188.722C166.028 187.961 166.106 187.172 166.403 186.455C166.7 185.738 167.203 185.125 167.848 184.694C168.494 184.262 169.252 184.032 170.028 184.032C171.069 184.032 172.067 184.446 172.803 185.182C173.539 185.918 173.953 186.916 173.953 187.956Z" fill="#263238"/>
<path d="M169.874 189.999L167.782 188.153L168.245 187.626L169.762 188.96L171.755 186.222L172.324 186.637L169.874 189.999Z" fill="white"/>
</svg>
