<svg width="375" height="513" viewBox="0 0 375 513" fill="none" xmlns="http://www.w3.org/2000/svg">
<path d="M284.434 378.998C256.581 402.458 211.649 406.207 171.309 399.478C130.952 392.988 94.9141 376.481 74.7644 349.346C54.8536 322.227 50.8143 284.718 56.126 250.761C61.4206 217.041 76.3221 186.651 100.883 152.15C125.205 117.631 159.442 78.7796 192.035 79.6714C224.628 80.5631 256.056 121.232 279.515 159.17C302.974 197.108 318.685 232.571 320.898 272.11C323.368 311.427 312.304 355.299 284.434 378.998Z" fill="#D3ECFD"/>
<path d="M177.262 181.842C177.297 180.358 178.662 178.419 184.164 178.069C189.666 177.719 191.71 177.971 193.964 182.269C196.414 186.896 199.214 192.069 197.387 196.808C195.56 201.547 189.799 204.34 185.676 206.846C181.553 209.352 175.414 217.773 175.414 217.773C175.414 217.773 163.969 186 177.262 181.842Z" fill="#475467"/>
<path d="M179.775 245.241C179.775 245.241 188.112 288.039 191.073 305.441C194.146 323.536 196.736 362.47 196.736 362.47H201.37C201.37 362.47 207.271 328.87 201.37 303.915C201.769 283.993 197.87 242.56 197.87 242.56L179.775 245.241Z" fill="#FF8B7B"/>
<path d="M185.851 244.338C185.851 244.338 204.135 289.096 210.505 305.553C219.437 317.523 241.886 342.912 243.118 343.423L244.742 339.762C244.742 339.762 231.022 312.931 219.962 299.673C217.022 279.968 203.015 241.797 203.015 241.797L185.851 244.338Z" fill="#FF8B7B"/>
<path d="M177.241 217.402C175.925 218.942 174.574 220.412 173.223 221.91C171.872 223.408 170.479 224.85 169.086 226.306C167.693 227.762 166.286 229.211 164.83 230.618C163.374 232.025 161.911 233.418 160.378 234.818L160.609 234.573C160.281 234.951 159.899 235.279 159.475 235.546C159.129 235.755 158.763 235.931 158.383 236.071C157.773 236.291 157.138 236.434 156.493 236.498C155.429 236.602 154.358 236.602 153.294 236.498C151.378 236.314 149.477 235.987 147.61 235.518C145.79 235.07 144.012 234.545 142.248 233.978C140.484 233.411 138.748 232.781 137.047 232.053C136.688 231.901 136.404 231.614 136.257 231.253C136.11 230.892 136.112 230.487 136.263 230.128C136.393 229.812 136.63 229.553 136.932 229.394C137.234 229.236 137.582 229.188 137.915 229.26C139.644 229.624 141.415 229.995 143.165 230.31C144.915 230.625 146.665 230.933 148.408 231.15C150.092 231.39 151.789 231.523 153.49 231.549C154.238 231.564 154.986 231.505 155.723 231.374C155.977 231.327 156.226 231.254 156.465 231.157C156.51 231.141 156.551 231.114 156.584 231.08C156.584 231.08 156.535 231.08 156.472 231.164L156.703 230.919C158.103 229.519 159.433 228.119 160.777 226.684L164.795 222.309L172.775 213.482C173.292 212.892 174.022 212.532 174.805 212.481C175.587 212.43 176.358 212.692 176.947 213.209C177.537 213.726 177.896 214.456 177.948 215.238C177.999 216.021 177.737 216.791 177.22 217.381L177.241 217.402Z" fill="#FF8B7B"/>
<path d="M139.091 229.659L136.2 224.598L134.17 230.1C134.17 230.1 136.627 232.9 138.965 232.347L139.091 229.659Z" fill="#FF8B7B"/>
<path d="M132.532 224.745L131.832 227.104C131.752 227.368 131.752 227.649 131.832 227.913C131.912 228.177 132.068 228.412 132.28 228.588L134.177 230.128L136.179 224.598L134.401 223.898C134.223 223.823 134.032 223.786 133.84 223.789C133.647 223.792 133.457 223.834 133.282 223.914C133.106 223.993 132.949 224.108 132.82 224.251C132.691 224.394 132.593 224.562 132.532 224.745Z" fill="#FF8B7B"/>
<path d="M177.297 210.339C173.181 209.639 171.361 212.509 169.394 214.672C169.863 218.494 176.604 226.334 176.604 226.334C176.604 226.334 184.78 211.557 177.297 210.339Z" fill="#0C95EF"/>
<path d="M171.823 215.029C172.348 219.194 174.336 230.884 179.908 248.384L204.205 244.8C202.525 235.994 200.208 227.671 201.279 210.136C201.309 209.652 201.239 209.167 201.074 208.712C200.909 208.256 200.652 207.839 200.319 207.487C199.987 207.135 199.585 206.854 199.14 206.663C198.695 206.472 198.215 206.375 197.73 206.377C196.085 206.377 194.055 206.447 191.941 206.657C188.39 206.928 184.863 207.449 181.385 208.218C179.145 208.764 176.772 209.492 174.966 210.08C173.951 210.414 173.082 211.089 172.509 211.992C171.936 212.894 171.694 213.968 171.823 215.029Z" fill="#0C95EF"/>
<path d="M181.385 208.204L191.941 206.643C191.941 206.643 191.458 210.696 184.808 216.023C179.754 211.333 181.385 208.204 181.385 208.204Z" fill="white"/>
<path d="M189.141 194.911C188.973 198.411 189.232 204.711 191.941 206.643C190.236 209.406 187.902 211.728 185.13 213.419C184.084 212.982 183.179 212.264 182.518 211.343C181.856 210.422 181.464 209.335 181.385 208.204C185.039 206.741 184.528 203.948 183.485 201.407L189.141 194.911Z" fill="#FF8B7B"/>
<path opacity="0.2" d="M186.831 197.564L183.478 201.4C183.733 201.989 183.935 202.601 184.08 203.227C185.48 202.807 187.251 200.924 187.181 199.384C187.177 198.761 187.058 198.144 186.831 197.564Z" fill="#94D1F9"/>
<path d="M191.801 188.156C191.283 193.875 191.185 196.304 188.21 199.16C183.73 203.465 176.821 201.582 175.61 195.821C174.525 190.641 175.547 182.157 181.21 180.036C182.46 179.557 183.812 179.407 185.136 179.6C186.46 179.792 187.713 180.321 188.775 181.135C189.837 181.949 190.673 183.022 191.203 184.251C191.733 185.48 191.939 186.824 191.801 188.156Z" fill="#FF8B7B"/>
<path d="M187.412 183.704C186.908 187.127 188.931 191.32 190.681 191.362C192.431 191.404 193.747 184.796 193.747 184.796L187.412 183.704Z" fill="#475467"/>
<path d="M177.689 181.954C181.42 184.6 192.508 188.569 192.739 185.146C192.97 181.723 188.343 178.958 184.92 178.958C181.497 178.958 178.739 180.323 177.689 181.954Z" fill="#475467"/>
<path opacity="0.2" d="M190.17 300.275L201.37 295.872C201.314 293.205 201.223 290.377 201.09 287.472L188.7 291.966C189.211 294.934 189.722 297.748 190.17 300.275Z" fill="#94D1F9"/>
<path opacity="0.2" d="M216 282.005L203.05 286.723C204.072 289.257 205.059 291.721 205.983 294.045L217.883 289.348C217.309 286.975 216.7 284.511 216 282.005Z" fill="#94D1F9"/>
<path d="M183.415 189.661C183.415 190.13 183.149 190.501 182.841 190.487C182.533 190.473 182.302 190.095 182.316 189.633C182.33 189.171 182.582 188.793 182.89 188.8C183.198 188.807 183.429 189.192 183.415 189.661Z" fill="#475467"/>
<path d="M178.142 189.511C178.155 189.043 177.918 188.657 177.613 188.648C177.308 188.64 177.05 189.012 177.036 189.479C177.023 189.947 177.26 190.333 177.565 190.342C177.87 190.35 178.129 189.978 178.142 189.511Z" fill="#475467"/>
<path d="M177.752 188.681L176.639 188.324C176.639 188.324 177.192 189.22 177.752 188.681Z" fill="#475467"/>
<path d="M179.516 190.354C179.071 191.405 178.482 192.39 177.766 193.28C178 193.457 178.269 193.582 178.555 193.645C178.842 193.708 179.139 193.707 179.425 193.644L179.516 190.354Z" fill="#FF5652"/>
<path d="M181.077 195.38C180.818 195.418 180.555 195.434 180.293 195.429C180.258 195.425 180.225 195.409 180.2 195.384C180.176 195.358 180.162 195.324 180.16 195.289C180.16 195.271 180.164 195.253 180.171 195.236C180.178 195.22 180.188 195.205 180.202 195.192C180.215 195.18 180.23 195.17 180.247 195.164C180.264 195.157 180.282 195.155 180.3 195.156C180.88 195.185 181.458 195.077 181.988 194.841C182.519 194.605 182.986 194.248 183.352 193.798C183.362 193.783 183.375 193.77 183.39 193.761C183.405 193.751 183.422 193.744 183.439 193.741C183.457 193.738 183.475 193.738 183.492 193.742C183.51 193.745 183.526 193.753 183.541 193.763C183.556 193.773 183.568 193.786 183.578 193.801C183.588 193.816 183.595 193.832 183.598 193.85C183.601 193.867 183.601 193.885 183.597 193.903C183.593 193.92 183.586 193.937 183.576 193.952C182.962 194.736 182.065 195.249 181.077 195.38Z" fill="#475467"/>
<path d="M193.033 191.187C192.9 191.721 192.661 192.223 192.332 192.664C192.003 193.105 191.589 193.476 191.115 193.756C189.848 194.498 188.84 193.455 188.882 192.062C188.917 190.809 189.624 188.912 191.052 188.737C191.364 188.703 191.679 188.749 191.968 188.869C192.257 188.989 192.512 189.179 192.709 189.423C192.906 189.666 193.039 189.955 193.096 190.263C193.152 190.571 193.131 190.889 193.033 191.187Z" fill="#FF8B7B"/>
<path d="M185.375 187.253C185.338 187.257 185.301 187.253 185.266 187.241C185.23 187.229 185.198 187.209 185.172 187.183C184.927 186.94 184.628 186.759 184.3 186.654C183.971 186.549 183.622 186.524 183.282 186.581C183.215 186.586 183.149 186.567 183.095 186.528C183.041 186.488 183.003 186.43 182.988 186.365C182.973 186.3 182.981 186.232 183.012 186.172C183.043 186.113 183.094 186.067 183.156 186.042C183.584 185.968 184.024 185.997 184.439 186.126C184.854 186.255 185.232 186.48 185.543 186.784C185.569 186.809 185.59 186.838 185.604 186.872C185.618 186.905 185.626 186.94 185.626 186.976C185.626 187.012 185.618 187.048 185.604 187.081C185.59 187.114 185.569 187.144 185.543 187.169C185.522 187.193 185.496 187.213 185.468 187.227C185.439 187.242 185.407 187.25 185.375 187.253Z" fill="#475467"/>
<path d="M176.8 186.812C176.766 186.806 176.733 186.793 176.704 186.773C176.675 186.754 176.651 186.729 176.632 186.7C176.611 186.671 176.596 186.637 176.588 186.602C176.58 186.567 176.58 186.531 176.586 186.496C176.593 186.46 176.607 186.427 176.626 186.397C176.646 186.367 176.672 186.341 176.702 186.322C177.054 186.065 177.462 185.897 177.892 185.832C178.322 185.766 178.761 185.804 179.173 185.944C179.24 185.972 179.293 186.025 179.321 186.092C179.348 186.159 179.348 186.234 179.32 186.301C179.307 186.334 179.287 186.365 179.262 186.391C179.237 186.417 179.207 186.438 179.174 186.452C179.141 186.467 179.105 186.474 179.069 186.475C179.033 186.475 178.997 186.468 178.963 186.455C178.636 186.347 178.288 186.319 177.948 186.374C177.608 186.429 177.287 186.565 177.01 186.77C176.948 186.811 176.873 186.826 176.8 186.812Z" fill="#475467"/>
<path d="M183.023 188.8L181.91 188.45C181.91 188.45 182.463 189.367 183.023 188.8Z" fill="#475467"/>
<path d="M179.908 248.384L188.035 296.446L218.464 287.423C216 262.02 209.7 249.441 204.205 244.8L179.908 248.384Z" fill="#475467"/>
<path opacity="0.2" d="M192.235 275.39L198.318 265.394L197.275 258.359L192.235 275.39Z" fill="#94D1F9"/>
<path d="M200.971 208.778C201.489 209.24 202.126 209.772 202.714 210.262C203.302 210.752 203.939 211.256 204.569 211.732C205.822 212.677 207.082 213.608 208.391 214.448C210.881 216.133 213.605 217.442 216.476 218.333C216.644 218.389 216.819 218.417 216.987 218.459L217.239 218.522H217.141C216.861 218.522 216.756 218.648 216.833 218.62C217.235 218.348 217.58 218.001 217.848 217.598C218.702 216.372 219.438 215.069 220.046 213.706C220.746 212.306 221.362 210.801 221.943 209.289C222.524 207.777 223.119 206.244 223.665 204.732C223.786 204.386 224.031 204.098 224.352 203.924C224.674 203.749 225.049 203.701 225.405 203.789C225.76 203.876 226.07 204.093 226.274 204.397C226.477 204.701 226.561 205.07 226.507 205.432C226.03 208.814 225.262 212.149 224.211 215.4C223.656 217.138 222.914 218.811 221.999 220.391C221.415 221.412 220.629 222.303 219.689 223.009C218.918 223.553 218.001 223.851 217.057 223.863C216.92 223.873 216.782 223.873 216.644 223.863L216.315 223.821L215.958 223.758C215.727 223.716 215.482 223.688 215.258 223.632C213.453 223.25 211.693 222.677 210.008 221.924C208.381 221.21 206.807 220.382 205.297 219.446C203.802 218.542 202.356 217.561 200.964 216.506C200.269 215.983 199.59 215.444 198.927 214.889C198.227 214.322 197.625 213.783 196.925 213.118C196.391 212.577 196.085 211.85 196.071 211.09C196.058 210.329 196.337 209.593 196.852 209.033C197.367 208.473 198.078 208.132 198.837 208.082C199.596 208.032 200.345 208.276 200.929 208.764L200.971 208.778Z" fill="#FF8B7B"/>
<path d="M197.464 206.363C201.664 206.118 203.26 208.302 204.989 210.654C204.135 214.406 199.585 220.825 199.585 220.825C199.585 220.825 189.897 206.811 197.464 206.363Z" fill="#0C95EF"/>
<path d="M223.448 205.075L224.498 198.908L228.299 203.402C228.299 203.402 226.969 206.902 224.582 207.175L223.448 205.075Z" fill="#FF8B7B"/>
<path d="M227.97 197.235L230.252 199.237C230.453 199.414 230.582 199.659 230.614 199.924C230.646 200.19 230.58 200.459 230.427 200.679L227.9 204.256L224.505 198.908L226.605 197.214C226.8 197.059 227.043 196.977 227.291 196.981C227.54 196.984 227.78 197.074 227.97 197.235Z" fill="#FF8B7B"/>
<path d="M187.944 371.227C188.654 370.71 189.444 370.313 190.282 370.051C190.282 370.051 194.426 367.706 196.582 360.671L201.377 359.474C201.496 359.444 201.62 359.44 201.741 359.462C201.862 359.484 201.977 359.531 202.078 359.6C202.179 359.67 202.265 359.76 202.328 359.865C202.392 359.97 202.433 360.087 202.448 360.209C202.49 360.587 202.518 361.021 202.567 361.371C202.62 362.133 202.62 362.898 202.567 363.66C202.525 366.033 202.259 371.36 202.259 371.36H201.706C201.702 369.738 201.604 368.119 201.412 366.509C201.132 364.941 200.012 366.796 199.41 368.567C198.808 370.338 196.295 372.235 192.669 372.319C188.434 372.445 186.712 372.256 187.944 371.227Z" fill="#475467"/>
<path d="M241.396 354.7C241.532 353.832 241.809 352.993 242.215 352.215C242.215 352.215 243.482 347.623 240.024 341.127L242.558 336.892C242.62 336.785 242.704 336.694 242.804 336.623C242.904 336.552 243.019 336.503 243.139 336.48C243.26 336.456 243.384 336.459 243.504 336.488C243.623 336.517 243.735 336.571 243.832 336.647C244.133 336.885 244.462 337.172 244.742 337.347C245.318 337.85 245.86 338.39 246.366 338.964C248.018 340.672 251.616 344.634 251.616 344.634L251.224 345.033C250.074 343.887 248.856 342.812 247.577 341.813C246.275 340.903 246.807 342.996 247.626 344.683C248.445 346.37 248.018 349.478 245.526 352.103C242.6 355.225 241.256 356.31 241.396 354.7Z" fill="#475467"/>
<path opacity="0.9" d="M222.944 153.408L149.136 146.331C147.319 146.165 145.51 146.724 144.104 147.885C142.697 149.047 141.806 150.717 141.625 152.533L131.048 263C130.876 264.817 131.432 266.628 132.593 268.036C133.755 269.444 135.427 270.334 137.243 270.511L211.044 277.588C212.861 277.756 214.671 277.198 216.079 276.036C217.486 274.874 218.376 273.202 218.555 271.386L229.139 160.954C229.228 160.052 229.138 159.141 228.875 158.273C228.612 157.405 228.18 156.598 227.605 155.897C227.03 155.197 226.322 154.616 225.522 154.189C224.723 153.762 223.847 153.496 222.944 153.408ZM207.145 195.702C206.634 200.976 204.484 205.958 200.996 209.948C197.509 213.938 192.859 216.735 187.7 217.946C182.541 219.158 177.133 218.723 172.234 216.702C167.335 214.682 163.192 211.178 160.387 206.683C157.581 202.187 156.255 196.925 156.593 191.637C156.932 186.349 158.918 181.299 162.273 177.198C165.629 173.096 170.185 170.149 175.301 168.77C180.418 167.391 185.838 167.649 190.8 169.508C192.784 170.25 194.665 171.24 196.4 172.455C200.096 175.025 203.041 178.534 204.931 182.619C206.82 186.705 207.587 191.221 207.152 195.702H207.145Z" fill="white"/>
<path d="M185.641 126.367L193.635 127.9C194.616 128.107 195.487 128.668 196.081 129.477C196.675 130.285 196.951 131.284 196.855 132.282L195.308 146.366C195.288 146.551 195.253 146.733 195.203 146.912C194.989 147.748 194.462 148.469 193.731 148.927C193 149.386 192.122 149.547 191.276 149.376L183.282 147.871C182.387 147.681 181.581 147.196 180.994 146.494C180.407 145.793 180.071 144.915 180.041 144C180.024 143.814 180.024 143.626 180.041 143.44L181.588 129.356C181.633 128.883 181.778 128.425 182.012 128.011C182.246 127.598 182.565 127.238 182.947 126.956C183.329 126.674 183.767 126.476 184.231 126.374C184.695 126.273 185.176 126.27 185.641 126.367ZM188.98 133.087C188.61 133.013 188.228 133.017 187.86 133.1C187.492 133.183 187.145 133.343 186.843 133.569C186.54 133.795 186.289 134.082 186.105 134.411C185.921 134.74 185.808 135.105 185.774 135.481C185.692 136.278 185.908 137.078 186.381 137.724C186.855 138.371 187.551 138.819 188.336 138.981C188.706 139.056 189.088 139.053 189.457 138.97C189.826 138.888 190.173 138.728 190.475 138.502C190.778 138.276 191.03 137.989 191.213 137.659C191.397 137.329 191.509 136.963 191.542 136.587C191.623 135.79 191.406 134.992 190.933 134.345C190.46 133.699 189.764 133.251 188.98 133.087Z" fill="#475467"/>
<path d="M210.274 156.201C210.112 156.201 209.952 156.155 209.815 156.068C209.677 155.982 209.567 155.858 209.497 155.711L206.41 149.334C206.202 148.9 205.885 148.527 205.49 148.251C205.095 147.975 204.636 147.805 204.156 147.759L168.652 144.357C168.173 144.311 167.69 144.389 167.25 144.584C166.809 144.779 166.427 145.084 166.139 145.47L161.897 151.154C161.83 151.246 161.745 151.324 161.647 151.383C161.549 151.442 161.441 151.481 161.328 151.498C161.216 151.516 161.1 151.51 160.99 151.483C160.879 151.456 160.775 151.407 160.683 151.34C160.591 151.272 160.513 151.187 160.454 151.089C160.395 150.992 160.356 150.883 160.338 150.771C160.321 150.658 160.326 150.543 160.354 150.432C160.381 150.321 160.43 150.217 160.497 150.125L164.739 144.441C165.206 143.82 165.825 143.328 166.535 143.013C167.246 142.699 168.025 142.571 168.799 142.642L204.296 146.044C205.07 146.122 205.811 146.397 206.449 146.841C207.087 147.286 207.602 147.886 207.943 148.585L211.023 154.962C211.087 155.093 211.117 155.238 211.109 155.384C211.102 155.529 211.058 155.671 210.981 155.794C210.904 155.918 210.797 156.021 210.669 156.092C210.542 156.163 210.399 156.2 210.253 156.201H210.274Z" fill="#0C95EF"/>
<path d="M137.6 175.878L137.033 175.822L137.425 171.713L137.999 171.769L137.6 175.878ZM138.3 167.926L137.733 167.87L138.622 158.56L139.196 158.616L138.3 167.926Z" fill="#0C95EF"/>
<path d="M211.709 277.868C211.475 277.871 211.242 277.859 211.009 277.833L137.208 270.763C135.315 270.579 133.573 269.651 132.363 268.184C131.153 266.717 130.575 264.83 130.754 262.937L141.331 152.505C141.517 150.613 142.445 148.872 143.912 147.662C145.378 146.453 147.264 145.873 149.157 146.051L223 153.1C224.893 153.284 226.636 154.211 227.847 155.678C229.058 157.145 229.639 159.032 229.461 160.926L218.842 271.4C218.667 273.173 217.841 274.817 216.523 276.016C215.206 277.215 213.49 277.882 211.709 277.889V277.868ZM148.478 146.59C146.838 146.594 145.258 147.208 144.045 148.311C142.832 149.414 142.072 150.929 141.912 152.561L131.3 263C131.142 264.741 131.677 266.475 132.79 267.824C133.903 269.173 135.503 270.028 137.243 270.203L211.1 277.266C212.842 277.428 214.576 276.894 215.925 275.78C217.273 274.666 218.126 273.064 218.296 271.323L228.88 160.891C229.04 159.15 228.506 157.417 227.395 156.068C226.283 154.719 224.683 153.863 222.944 153.688L149.108 146.618C148.898 146.597 148.688 146.59 148.478 146.59ZM181.924 218.956C181.098 218.956 180.265 218.914 179.432 218.837C175.796 218.486 172.276 217.363 169.108 215.542C165.941 213.722 163.198 211.246 161.064 208.281C158.93 205.316 157.453 201.929 156.733 198.347C156.013 194.765 156.065 191.071 156.887 187.511C157.709 183.952 159.282 180.608 161.499 177.705C163.717 174.802 166.529 172.405 169.747 170.676C172.965 168.946 176.516 167.924 180.161 167.677C183.806 167.429 187.462 167.963 190.884 169.242C192.894 169.99 194.799 170.992 196.554 172.224C200.291 174.823 203.269 178.371 205.18 182.502C207.092 186.633 207.869 191.199 207.432 195.73C206.825 202.078 203.877 207.973 199.161 212.267C194.446 216.56 188.301 218.945 181.924 218.956ZM181.861 168.185C177.001 168.188 172.246 169.603 168.174 172.257C164.102 174.911 160.888 178.691 158.924 183.137C156.959 187.583 156.328 192.503 157.107 197.301C157.886 202.099 160.041 206.567 163.311 210.163C166.581 213.759 170.825 216.328 175.528 217.558C180.23 218.788 185.188 218.626 189.8 217.091C194.412 215.557 198.479 212.716 201.508 208.914C204.536 205.112 206.394 200.512 206.858 195.674C207.285 191.245 206.525 186.783 204.656 182.746C202.787 178.708 199.877 175.241 196.225 172.7C194.511 171.494 192.647 170.515 190.681 169.788C188.621 169.013 186.467 168.516 184.276 168.311C183.464 168.227 182.659 168.185 181.861 168.185Z" fill="#0C95EF"/>
<path opacity="0.8" d="M190.8 169.508C186.118 167.757 181.023 167.428 176.154 168.561C171.285 169.695 166.859 172.24 163.431 175.878C160.003 179.516 157.725 184.085 156.883 189.013C156.041 193.94 156.673 199.007 158.698 203.577L134.898 223.233L141.674 152.533C141.855 150.717 142.746 149.047 144.153 147.885C145.559 146.724 147.368 146.165 149.185 146.331L173.643 148.676L181.469 158.168L190.8 169.508Z" fill="#0C95EF"/>
<path opacity="0.5" d="M229.139 160.919L224.4 210.262L206.9 189.059C206.337 185.734 205.119 182.554 203.316 179.703C201.514 176.853 199.163 174.389 196.4 172.455L219.836 153.1L222.944 153.401C224.761 153.58 226.433 154.471 227.594 155.88C228.755 157.289 229.311 159.101 229.139 160.919Z" fill="#0C95EF"/>
<path d="M219.836 153.1L196.4 172.455C194.665 171.24 192.784 170.25 190.8 169.508L181.441 158.168L173.594 148.676L219.836 153.1Z" fill="#0C95EF"/>
<path opacity="0.5" d="M200.534 229.38L156.732 225.186C155.997 225.115 155.344 225.654 155.274 226.389L155.055 228.675C154.985 229.41 155.524 230.063 156.259 230.133L200.06 234.327C200.795 234.398 201.448 233.859 201.519 233.124L201.737 230.838C201.808 230.103 201.269 229.45 200.534 229.38Z" fill="#0C95EF"/>
<path opacity="0.5" d="M196.254 237.953L159.309 234.415C158.574 234.344 157.921 234.883 157.85 235.618L157.632 237.904C157.561 238.639 158.1 239.292 158.835 239.362L195.78 242.9C196.515 242.97 197.168 242.432 197.238 241.697L197.457 239.411C197.528 238.676 196.989 238.023 196.254 237.953Z" fill="#0C95EF"/>
<path opacity="0.5" d="M153.339 256.641L142.358 255.59L142.186 257.388L153.167 258.439L153.339 256.641Z" fill="#0C95EF"/>
<path opacity="0.5" d="M164.668 257.73L155.812 256.882L155.64 258.679L164.496 259.527L164.668 257.73Z" fill="#0C95EF"/>
<path opacity="0.5" d="M167.425 262.075L141.971 259.637L141.799 261.435L167.253 263.873L167.425 262.075Z" fill="#0C95EF"/>
<path opacity="0.5" d="M172.517 255.934L142.522 252.935L142.341 254.741L172.336 257.74L172.517 255.934Z" fill="#0C95EF"/>
<path d="M192.9 127.571L184.78 126.094C184.297 126.008 183.801 126.019 183.321 126.125C182.842 126.231 182.388 126.43 181.986 126.712C181.583 126.993 181.24 127.351 180.976 127.765C180.712 128.179 180.532 128.641 180.447 129.125L177.913 143.23C177.876 143.414 177.86 143.602 177.864 143.79C177.835 144.685 178.128 145.561 178.689 146.26C179.25 146.958 180.043 147.433 180.923 147.598L189.022 149.075C189.904 149.234 190.814 149.071 191.585 148.614C192.356 148.158 192.937 147.439 193.222 146.59C193.289 146.413 193.338 146.23 193.369 146.044L195.896 131.939C196.072 130.963 195.857 129.957 195.296 129.139C194.735 128.321 193.874 127.758 192.9 127.571ZM187.755 132.8C188.339 132.9 188.881 133.171 189.31 133.579C189.74 133.988 190.038 134.514 190.168 135.093C190.298 135.671 190.252 136.275 190.038 136.827C189.823 137.38 189.45 137.856 188.964 138.196C188.478 138.535 187.903 138.723 187.31 138.735C186.718 138.746 186.135 138.581 185.636 138.261C185.137 137.941 184.745 137.48 184.509 136.936C184.273 136.392 184.204 135.791 184.311 135.208C184.454 134.435 184.896 133.749 185.54 133.299C186.184 132.848 186.98 132.669 187.755 132.8Z" fill="#475467"/>
<path opacity="0.2" d="M192.9 127.571L184.78 126.094C184.297 126.008 183.801 126.019 183.321 126.125C182.842 126.231 182.388 126.43 181.986 126.712C181.583 126.993 181.24 127.351 180.976 127.765C180.712 128.179 180.532 128.641 180.447 129.125L177.913 143.23C177.876 143.414 177.86 143.602 177.864 143.79C177.835 144.685 178.128 145.561 178.689 146.26C179.25 146.958 180.043 147.433 180.923 147.598L189.022 149.075C189.904 149.234 190.814 149.071 191.585 148.614C192.356 148.158 192.937 147.439 193.222 146.59C193.289 146.413 193.338 146.23 193.369 146.044L195.896 131.939C196.072 130.963 195.857 129.957 195.296 129.139C194.735 128.321 193.874 127.758 192.9 127.571ZM187.755 132.8C188.339 132.9 188.881 133.171 189.31 133.579C189.74 133.988 190.038 134.514 190.168 135.093C190.298 135.671 190.252 136.275 190.038 136.827C189.823 137.38 189.45 137.856 188.964 138.196C188.478 138.535 187.903 138.723 187.31 138.735C186.718 138.746 186.135 138.581 185.636 138.261C185.137 137.941 184.745 137.48 184.509 136.936C184.273 136.392 184.204 135.791 184.311 135.208C184.454 134.435 184.896 133.749 185.54 133.299C186.184 132.848 186.98 132.669 187.755 132.8Z" fill="white"/>
<path opacity="0.2" d="M208 266.309C210.114 264.564 210.413 261.436 208.669 259.322C206.924 257.208 203.796 256.909 201.682 258.653C199.568 260.398 199.268 263.526 201.013 265.64C202.758 267.754 205.886 268.054 208 266.309Z" fill="#0C95EF"/>
<path opacity="0.8" d="M194.859 265.048C196.973 263.303 197.272 260.175 195.528 258.061C193.783 255.947 190.655 255.648 188.541 257.392C186.427 259.137 186.127 262.265 187.872 264.379C189.617 266.493 192.745 266.793 194.859 265.048Z" fill="#0C95EF"/>
</svg>
