<svg width="375" height="513" viewBox="0 0 375 513" fill="none" xmlns="http://www.w3.org/2000/svg">
<path d="M284.434 378.998C256.581 402.458 211.649 406.207 171.309 399.478C130.952 392.988 94.914 376.481 74.7643 349.346C54.8535 322.227 50.8142 284.718 56.1259 250.761C61.4205 217.041 76.3221 186.651 100.883 152.15C125.205 117.631 159.442 78.7796 192.035 79.6714C224.628 80.5631 256.056 121.232 279.515 159.17C302.974 197.108 318.685 232.571 320.898 272.11C323.367 311.427 312.304 355.299 284.434 378.998Z" fill="#D3ECFD"/>
<path d="M268.226 241.93H134.831V326.524H268.226V241.93Z" fill="#0C95EF"/>
<g opacity="0.1">
<path d="M268.226 241.93H134.831V326.524H268.226V241.93Z" fill="black"/>
</g>
<path d="M134.831 241.93H268.222V260.11L213.807 295.504C210.155 297.88 205.892 299.144 201.535 299.144C197.179 299.144 192.916 297.88 189.264 295.504L134.831 260.11V241.93Z" fill="#0C95EF"/>
<path opacity="0.2" d="M134.831 241.93H268.222V260.11L213.807 295.504C210.155 297.88 205.892 299.144 201.535 299.144C197.179 299.144 192.916 297.88 189.264 295.504L134.831 260.11V241.93Z" fill="black"/>
<g opacity="0.1">
<path d="M251.915 315.388C257.345 319.115 262.836 322.74 268.222 326.524C262.502 323.281 256.865 319.876 251.194 316.549C245.522 313.223 239.886 309.8 234.289 306.333C228.469 302.786 222.651 299.193 216.834 295.553L216.09 296.041C214.689 297.011 213.218 297.877 211.69 298.633C206.901 300.894 201.492 301.487 196.326 300.318C194.624 299.917 192.967 299.351 191.376 298.628C189.847 297.874 188.376 297.008 186.976 296.037L186.245 295.557C180.428 299.186 174.601 302.785 168.764 306.355C163.155 309.778 157.529 313.176 151.886 316.549C146.196 319.876 140.569 323.281 134.84 326.524C140.226 322.74 145.717 319.115 151.146 315.388C156.614 311.745 162.102 308.112 167.611 304.489C173.011 300.969 178.419 297.465 183.834 293.977L182.91 293.357L174.814 287.945L170.77 285.235L166.744 282.493C156 275.198 145.325 267.802 134.84 260.111C146.122 266.574 157.214 273.311 168.24 280.192L172.376 282.757L176.495 285.358L184.727 290.563C185.466 291.025 186.197 291.496 186.927 291.967L188.824 293.19C189.022 293.322 189.22 293.449 189.413 293.568C190.501 294.294 191.639 294.941 192.819 295.504C194.188 296.113 195.613 296.586 197.074 296.917C198.541 297.215 200.034 297.371 201.531 297.383C204.539 297.398 207.514 296.76 210.252 295.513C211.432 294.946 212.571 294.298 213.662 293.573C213.855 293.454 214.049 293.326 214.247 293.199L216.121 291.989C216.86 291.513 217.6 291.038 218.348 290.572C223.839 287.113 229.299 283.602 234.83 280.201C245.856 273.337 256.949 266.561 268.226 260.111C257.741 267.797 247.066 275.198 236.322 282.493C230.971 286.167 225.546 289.74 220.16 293.357C219.852 293.564 219.544 293.771 219.232 293.973C224.665 297.458 230.079 300.978 235.477 304.533C240.959 308.097 246.446 311.745 251.915 315.388Z" fill="black"/>
</g>
<path d="M244.541 326.524H111.15V213.686L177.837 171.336L244.541 213.686V326.524Z" fill="#0C95EF"/>
<path opacity="0.1" d="M237.615 326.317H118.076V217.347L177.837 179.397L237.615 217.347V326.317Z" fill="black"/>
<path d="M240.097 216.687H115.599V326.251H240.097V216.687Z" fill="#EBEBEB"/>
<path d="M134.624 246.105H197.844V242.559H134.624V246.105Z" fill="#DBDBDB"/>
<path d="M202.838 234.164H222.277V230.617H202.838V234.164Z" fill="#DBDBDB"/>
<path d="M134.629 255.059H194.451V251.513H134.629V255.059Z" fill="#DBDBDB"/>
<path d="M134.624 272.967H222.277V269.421H134.624V272.967Z" fill="#DBDBDB"/>
<path d="M134.624 281.917H222.277V278.371H134.624V281.917Z" fill="#DBDBDB"/>
<path d="M134.624 290.871H222.277V287.325H134.624V290.871Z" fill="#DBDBDB"/>
<path d="M134.624 299.821H222.277V296.274H134.624V299.821Z" fill="#DBDBDB"/>
<path d="M244.541 241.93V326.52H111.15V241.93C116.87 245.177 122.507 248.582 128.178 251.909C133.85 255.235 139.473 258.676 145.083 262.121C151.331 265.935 157.575 269.795 163.814 273.702C163.876 273.662 163.955 273.623 164.012 273.583C163.955 273.623 163.915 273.68 163.854 273.72C168.523 276.63 173.19 279.548 177.854 282.476C182.505 279.55 187.169 276.606 191.838 273.72C191.776 273.68 191.736 273.623 191.679 273.583C191.741 273.624 191.807 273.657 191.877 273.68C198.108 269.793 204.351 265.935 210.608 262.104C216.219 258.675 221.849 255.276 227.495 251.909C233.184 248.582 238.812 245.177 244.541 241.93Z" fill="#0C95EF"/>
<g opacity="0.1">
<path d="M244.541 241.93C239.155 245.718 233.664 249.344 228.234 253.07C222.765 256.714 217.278 260.361 211.77 263.965C206.017 267.731 200.255 271.464 194.482 275.163C194.302 275.286 194.143 275.405 193.963 275.524C188.853 278.788 183.731 282.053 178.598 285.318L177.846 285.78L177.102 285.318C171.977 282.053 166.863 278.783 161.759 275.506C161.579 275.405 161.398 275.286 161.218 275.163C155.428 271.458 149.658 267.72 143.908 263.947C138.422 260.361 132.935 256.714 127.466 253.07C122.036 249.344 116.545 245.718 111.159 241.93C116.879 245.177 122.516 248.582 128.187 251.909C133.859 255.235 139.482 258.676 145.092 262.121C151.34 265.935 157.584 269.795 163.823 273.702C163.823 273.702 163.823 273.702 163.862 273.702C168.532 276.612 173.199 279.531 177.863 282.458C182.514 279.532 187.178 276.588 191.846 273.702C191.868 273.662 191.868 273.662 191.886 273.662C198.116 269.776 204.36 265.917 210.617 262.086C216.228 258.657 221.857 255.259 227.504 251.891C233.184 248.582 238.812 245.177 244.541 241.93Z" fill="black"/>
<path d="M164.012 273.583C163.955 273.623 163.915 273.68 163.854 273.72C163.154 274.322 162.45 274.925 161.75 275.506C158.406 278.331 154.979 281.032 151.494 283.659C147.248 286.92 142.901 290 138.532 293.08C134.162 296.16 129.732 299.108 125.23 301.994C120.729 304.88 116.175 307.714 111.472 310.288C115.515 306.742 119.722 303.437 123.968 300.212C128.214 296.987 132.583 293.872 136.926 290.787C141.268 287.703 145.726 284.737 150.249 281.855C153.835 279.55 157.478 277.288 161.205 275.163C162.085 274.661 162.925 274.182 163.81 273.702C163.876 273.662 163.955 273.623 164.012 273.583Z" fill="black"/>
<path d="M244.22 310.301C239.516 307.714 234.949 304.889 230.461 302.007C225.973 299.125 221.546 296.116 217.138 293.08C212.729 290.044 208.426 286.92 204.18 283.659C200.712 281.019 197.285 278.348 193.963 275.524C193.241 274.925 192.537 274.322 191.838 273.72C191.776 273.68 191.736 273.623 191.679 273.583C191.741 273.624 191.807 273.657 191.877 273.68C192.757 274.182 193.637 274.661 194.482 275.163C198.209 277.288 201.834 279.563 205.438 281.855C209.966 284.72 214.366 287.742 218.739 290.787C223.113 293.832 227.456 296.978 231.702 300.225C235.948 303.472 240.176 306.755 244.22 310.301Z" fill="black"/>
</g>
<path d="M244.541 326.52H111.15V308.348L165.565 272.954C169.218 270.58 173.48 269.316 177.837 269.316C182.193 269.316 186.456 270.58 190.108 272.954L244.541 308.348V326.52Z" fill="#0C95EF"/>
<path d="M96.8828 326.551L120.163 326.445L143.439 326.405L190 326.331L236.561 326.405L259.841 326.445L283.117 326.551L259.841 326.661L236.561 326.696L190 326.771L143.439 326.696L120.163 326.656L96.8828 326.551Z" fill="#263238"/>
</svg>
