<svg width="20" height="20" viewBox="0 0 20 20" fill="none" xmlns="http://www.w3.org/2000/svg">
<path d="M8.95966 14.0508V15.7425C8.95966 17.1758 7.62632 18.3341 5.98465 18.3341C4.34299 18.3341 3.0013 17.1758 3.0013 15.7425V14.0508C3.0013 15.4841 4.33465 16.5008 5.98465 16.5008C7.62632 16.5008 8.95966 15.4758 8.95966 14.0508Z" stroke="#98A2B3" stroke-width="1.5" stroke-linecap="round" stroke-linejoin="round"/>
<path d="M8.95834 11.7581C8.95834 12.1748 8.84166 12.5581 8.64167 12.8914C8.15 13.6998 7.14165 14.2081 5.97499 14.2081C4.80832 14.2081 3.79998 13.6914 3.30831 12.8914C3.10831 12.5581 2.99169 12.1748 2.99169 11.7581C2.99169 11.0415 3.32501 10.3998 3.85834 9.93312C4.40001 9.45812 5.14165 9.1748 5.96665 9.1748C6.79165 9.1748 7.53334 9.46645 8.075 9.93312C8.625 10.3914 8.95834 11.0415 8.95834 11.7581Z" stroke="#98A2B3" stroke-width="1.5" stroke-linecap="round" stroke-linejoin="round"/>
<path d="M8.95966 11.7586V14.0503C8.95966 15.4836 7.62632 16.5003 5.98465 16.5003C4.34299 16.5003 3.0013 15.4753 3.0013 14.0503V11.7586C3.0013 10.3253 4.33465 9.16699 5.98465 9.16699C6.80965 9.16699 7.55134 9.45864 8.09301 9.9253C8.62634 10.392 8.95966 11.042 8.95966 11.7586Z" stroke="#98A2B3" stroke-width="1.5" stroke-linecap="round" stroke-linejoin="round"/>
<path d="M18.3334 9.14196V10.8587C18.3334 11.317 17.9667 11.692 17.5 11.7086H15.8667C14.9667 11.7086 14.1417 11.0503 14.0667 10.1503C14.0167 9.62531 14.2167 9.13364 14.5667 8.79197C14.875 8.47531 15.3 8.29199 15.7667 8.29199H17.5C17.9667 8.30866 18.3334 8.68362 18.3334 9.14196Z" stroke="#98A2B3" stroke-width="1.5" stroke-linecap="round" stroke-linejoin="round"/>
<path d="M1.66666 8.75033V7.08366C1.66666 4.81699 3.03333 3.23366 5.15833 2.96699C5.375 2.93366 5.6 2.91699 5.83333 2.91699H13.3333C13.55 2.91699 13.7583 2.92532 13.9583 2.95865C16.1083 3.20865 17.5 4.80033 17.5 7.08366V8.292H15.7666C15.3 8.292 14.875 8.47532 14.5666 8.79198C14.2166 9.13365 14.0167 9.62532 14.0667 10.1503C14.1417 11.0503 14.9666 11.7086 15.8666 11.7086H17.5V12.917C17.5 15.417 15.8333 17.0837 13.3333 17.0837H11.25" stroke="#98A2B3" stroke-width="1.5" stroke-linecap="round" stroke-linejoin="round"/>
</svg>
