<svg width="20" height="20" viewBox="0 0 20 20" fill="none" xmlns="http://www.w3.org/2000/svg">
<g id="vuesax/linear/archive-book">
<g id="archive-book">
<path id="Vector" d="M17.5 5.83268V14.166C17.5 16.666 16.25 18.3327 13.3333 18.3327H6.66667C3.75 18.3327 2.5 16.666 2.5 14.166V5.83268C2.5 3.33268 3.75 1.66602 6.66667 1.66602H13.3333C16.25 1.66602 17.5 3.33268 17.5 5.83268Z" stroke="#667085" stroke-width="1.5" stroke-miterlimit="10" stroke-linecap="round" stroke-linejoin="round"/>
<path id="Vector_2" d="M12.9167 1.66602V8.216C12.9167 8.58267 12.4833 8.766 12.2167 8.52433L10.2834 6.74104C10.125 6.59104 9.87499 6.59104 9.71665 6.74104L7.78337 8.52433C7.5167 8.766 7.08334 8.58267 7.08334 8.216V1.66602H12.9167Z" stroke="#667085" stroke-width="1.5" stroke-miterlimit="10" stroke-linecap="round" stroke-linejoin="round"/>
<path id="Vector_3" d="M11.0417 11.666H14.5833" stroke="#667085" stroke-width="1.5" stroke-miterlimit="10" stroke-linecap="round" stroke-linejoin="round"/>
<path id="Vector_4" d="M7.5 15H14.5833" stroke="#667085" stroke-width="1.5" stroke-miterlimit="10" stroke-linecap="round" stroke-linejoin="round"/>
</g>
</g>
</svg>
