<svg width="20" height="20" viewBox="0 0 20 20" fill="none" xmlns="http://www.w3.org/2000/svg">
<g id="vuesax/linear/chart-square">
<g id="Group">
<path id="Vector" d="M8.42499 9.29102H6.21666C5.69166 9.29102 5.26667 9.71598 5.26667 10.241V14.5076H8.42499V9.29102V9.29102Z" stroke="#94D1F9" stroke-width="1.2" stroke-miterlimit="10" stroke-linecap="round" stroke-linejoin="round"/>
<path id="Vector_2" d="M10.6344 5.5H9.3677C8.8427 5.5 8.41771 5.92501 8.41771 6.45001V14.5H11.5761V6.45001C11.5761 5.92501 11.1594 5.5 10.6344 5.5Z" stroke="#94D1F9" stroke-width="1.2" stroke-miterlimit="10" stroke-linecap="round" stroke-linejoin="round"/>
<path id="Vector_3" d="M13.7901 10.709H11.5818V14.5007H14.7401V11.659C14.7318 11.134 14.3068 10.709 13.7901 10.709Z" stroke="#94D1F9" stroke-width="1.2" stroke-miterlimit="10" stroke-linecap="round" stroke-linejoin="round"/>
</g>
<path id="Vector_4" d="M7.5 18.3327H12.5C16.6667 18.3327 18.3333 16.666 18.3333 12.4993V7.49935C18.3333 3.33268 16.6667 1.66602 12.5 1.66602H7.5C3.33333 1.66602 1.66667 3.33268 1.66667 7.49935V12.4993C1.66667 16.666 3.33333 18.3327 7.5 18.3327Z" stroke="#94D1F9" stroke-width="1.2" stroke-linecap="round" stroke-linejoin="round"/>
</g>
</svg>
