<svg width="16" height="16" viewBox="0 0 16 16" fill="none" xmlns="http://www.w3.org/2000/svg">
<path d="M2 14.667H14" stroke="#D0D5DD" stroke-linecap="round" stroke-linejoin="round"/>
<path d="M3.73332 5.58594H2.66667C2.3 5.58594 2 5.88594 2 6.2526V11.9993C2 12.3659 2.3 12.6659 2.66667 12.6659H3.73332C4.09998 12.6659 4.39998 12.3659 4.39998 11.9993V6.2526C4.39998 5.88594 4.09998 5.58594 3.73332 5.58594Z" stroke="#D0D5DD" stroke-linecap="round" stroke-linejoin="round"/>
<path d="M8.53334 3.45996H7.46668C7.10002 3.45996 6.80002 3.75996 6.80002 4.12663V12C6.80002 12.3666 7.10002 12.6666 7.46668 12.6666H8.53334C8.9 12.6666 9.2 12.3666 9.2 12V4.12663C9.2 3.75996 8.9 3.45996 8.53334 3.45996Z" stroke="#D0D5DD" stroke-linecap="round" stroke-linejoin="round"/>
<path d="M13.3333 1.33301H12.2667C11.9 1.33301 11.6 1.63301 11.6 1.99967V11.9997C11.6 12.3663 11.9 12.6663 12.2667 12.6663H13.3333C13.7 12.6663 14 12.3663 14 11.9997V1.99967C14 1.63301 13.7 1.33301 13.3333 1.33301Z" stroke="#D0D5DD" stroke-linecap="round" stroke-linejoin="round"/>
</svg>
