<svg width="20" height="20" viewBox="0 0 20 20" fill="none" xmlns="http://www.w3.org/2000/svg">
<g id="vuesax/linear/messages-2">
<g id="messages-2">
<path id="Vector" d="M15.3917 14.0244L15.7167 16.6577C15.8 17.3493 15.0583 17.8327 14.4667 17.4743L10.975 15.3993C10.5917 15.3993 10.2167 15.3744 9.85001 15.3244C10.4667 14.5994 10.8333 13.6827 10.8333 12.691C10.8333 10.3243 8.78333 8.4077 6.25 8.4077C5.28333 8.4077 4.39167 8.68268 3.65001 9.16601C3.62501 8.95768 3.61666 8.74934 3.61666 8.53267C3.61666 4.74101 6.90833 1.66602 10.975 1.66602C15.0417 1.66602 18.3333 4.74101 18.3333 8.53267C18.3333 10.7827 17.175 12.7744 15.3917 14.0244Z" stroke="#94D1F9" stroke-width="1.5" stroke-linecap="round" stroke-linejoin="round"/>
<path id="Vector_2" d="M10.8333 12.6915C10.8333 13.6832 10.4667 14.5999 9.85001 15.3249C9.02501 16.3249 7.71667 16.9665 6.25 16.9665L4.075 18.2582C3.70833 18.4832 3.24167 18.1748 3.29167 17.7498L3.5 16.1082C2.38333 15.3332 1.66667 14.0915 1.66667 12.6915C1.66667 11.2248 2.45001 9.93318 3.65001 9.16651C4.39167 8.68318 5.28333 8.4082 6.25 8.4082C8.78333 8.4082 10.8333 10.3248 10.8333 12.6915Z" stroke="#94D1F9" stroke-width="1.5" stroke-linecap="round" stroke-linejoin="round"/>
</g>
</g>
</svg>
