<svg width="16" height="17" viewBox="0 0 16 17" fill="none" xmlns="http://www.w3.org/2000/svg">
<path d="M9.33336 11.2733L6.69336 8.6333" stroke="#FCFCFD" stroke-miterlimit="10" stroke-linecap="round" stroke-linejoin="round"/>
<path d="M9.30699 8.66016L6.66699 11.3002" stroke="#FCFCFD" stroke-miterlimit="10" stroke-linecap="round" stroke-linejoin="round"/>
<path d="M6.66634 4.50016H9.33301C10.6663 4.50016 10.6663 3.8335 10.6663 3.16683C10.6663 1.8335 9.99967 1.8335 9.33301 1.8335H6.66634C5.99967 1.8335 5.33301 1.8335 5.33301 3.16683C5.33301 4.50016 5.99967 4.50016 6.66634 4.50016Z" stroke="#FCFCFD" stroke-miterlimit="10" stroke-linecap="round" stroke-linejoin="round"/>
<path d="M10.6667 3.18018C12.8867 3.30018 14 4.12018 14 7.16684V11.1668C14 13.8335 13.3333 15.1668 10 15.1668H6C2.66667 15.1668 2 13.8335 2 11.1668V7.16684C2 4.12684 3.11333 3.30018 5.33333 3.18018" stroke="#FCFCFD" stroke-miterlimit="10" stroke-linecap="round" stroke-linejoin="round"/>
</svg>
