<svg width="86" height="86" viewBox="0 0 86 86" fill="none" xmlns="http://www.w3.org/2000/svg">
<path d="M50.1666 57.9068L35.9766 43.7168" stroke="#94D1F9" stroke-width="1.5" stroke-miterlimit="10" stroke-linecap="round" stroke-linejoin="round"/>
<path d="M50.023 43.8599L35.833 58.0499" stroke="#94D1F9" stroke-width="1.5" stroke-miterlimit="10" stroke-linecap="round" stroke-linejoin="round"/>
<path d="M35.8337 21.4998H50.167C57.3337 21.4998 57.3337 17.9165 57.3337 14.3332C57.3337 7.1665 53.7503 7.1665 50.167 7.1665H35.8337C32.2503 7.1665 28.667 7.1665 28.667 14.3332C28.667 21.4998 32.2503 21.4998 35.8337 21.4998Z" stroke="#94D1F9" stroke-width="1.5" stroke-miterlimit="10" stroke-linecap="round" stroke-linejoin="round"/>
<path d="M57.3333 14.4048C69.2658 15.0498 75.25 19.4573 75.25 35.8331V57.3331C75.25 71.6664 71.6667 78.8331 53.75 78.8331H32.25C14.3333 78.8331 10.75 71.6664 10.75 57.3331V35.8331C10.75 19.4931 16.7342 15.0498 28.6667 14.4048" stroke="#94D1F9" stroke-width="1.5" stroke-miterlimit="10" stroke-linecap="round" stroke-linejoin="round"/>
</svg>
