<svg width="20" height="20" viewBox="0 0 20 20" fill="none" xmlns="http://www.w3.org/2000/svg">
<g id="vuesax/linear/convertshape-2">
<g id="convertshape-2">
<path id="Vector" d="M9.16667 13.459V15.709C9.16667 17.584 8.41667 18.334 6.54167 18.334H4.29167C2.41667 18.334 1.66667 17.584 1.66667 15.709V13.459C1.66667 11.584 2.41667 10.834 4.29167 10.834H6.54167C8.41667 10.834 9.16667 11.584 9.16667 13.459Z" stroke="#94D1F9" stroke-width="1.5" stroke-linecap="round" stroke-linejoin="round"/>
<path id="Vector_2" d="M18.3333 12.5C18.3333 15.725 15.725 18.3333 12.5 18.3333L13.375 16.875" stroke="#94D1F9" stroke-width="1.5" stroke-linecap="round" stroke-linejoin="round"/>
<path id="Vector_3" d="M1.66667 7.49935C1.66667 4.27435 4.275 1.66602 7.5 1.66602L6.625 3.12435" stroke="#94D1F9" stroke-width="1.5" stroke-linecap="round" stroke-linejoin="round"/>
<path id="Vector_4" d="M14.5833 9.16602C16.6544 9.16602 18.3333 7.48708 18.3333 5.41602C18.3333 3.34495 16.6544 1.66602 14.5833 1.66602C12.5123 1.66602 10.8333 3.34495 10.8333 5.41602C10.8333 7.48708 12.5123 9.16602 14.5833 9.16602Z" stroke="#94D1F9" stroke-width="1.5" stroke-linecap="round" stroke-linejoin="round"/>
</g>
</g>
</svg>
