<svg width="17" height="16" viewBox="0 0 17 16" fill="none" xmlns="http://www.w3.org/2000/svg">
<g id="vuesax/linear/copy">
<g id="copy">
<path id="Vector" d="M11.1667 8.60065V11.4007C11.1667 13.734 10.2333 14.6673 7.9 14.6673H5.1C2.76666 14.6673 1.83333 13.734 1.83333 11.4007V8.60065C1.83333 6.26732 2.76666 5.33398 5.1 5.33398H7.9C10.2333 5.33398 11.1667 6.26732 11.1667 8.60065Z" stroke="#98A2B3" stroke-width="1.5" stroke-linecap="round" stroke-linejoin="round"/>
<path id="Vector_2" d="M15.1667 4.60065V7.40065C15.1667 9.73398 14.2333 10.6673 11.9 10.6673H11.1667V8.60065C11.1667 6.26732 10.2333 5.33398 7.9 5.33398H5.83333V4.60065C5.83333 2.26732 6.76666 1.33398 9.09999 1.33398H11.9C14.2333 1.33398 15.1667 2.26732 15.1667 4.60065Z" stroke="#98A2B3" stroke-width="1.5" stroke-linecap="round" stroke-linejoin="round"/>
</g>
</g>
</svg>
