<svg width="16" height="17" viewBox="0 0 16 17" fill="none" xmlns="http://www.w3.org/2000/svg">
<rect x="0.2" y="0.7" width="15.6" height="15.6" rx="7.8" fill="#344054"/>
<path d="M9.66667 11.833H6.33333C6.19667 11.833 6.08333 11.7197 6.08333 11.583C6.08333 11.4463 6.19667 11.333 6.33333 11.333H9.66667C9.80333 11.333 9.91667 11.4463 9.91667 11.583C9.91667 11.7197 9.80333 11.833 9.66667 11.833Z" fill="#D0D5DD"/>
<path d="M10.7833 6.33969L9.45 7.29302C9.27333 7.41969 9.02 7.34302 8.94333 7.13969L8.31333 5.45969C8.20667 5.16969 7.79667 5.16969 7.69 5.45969L7.05667 7.13635C6.98 7.34302 6.73 7.41969 6.55333 7.28969L5.22 6.33635C4.95333 6.14969 4.6 6.41302 4.71 6.72302L6.09667 10.6064C6.14333 10.7397 6.27 10.8264 6.41 10.8264H9.58667C9.72667 10.8264 9.85333 10.7364 9.9 10.6064L11.2867 6.72302C11.4 6.41302 11.0467 6.14969 10.7833 6.33969ZM8.83333 9.41635H7.16667C7.03 9.41635 6.91667 9.30302 6.91667 9.16635C6.91667 9.02969 7.03 8.91635 7.16667 8.91635H8.83333C8.97 8.91635 9.08333 9.02969 9.08333 9.16635C9.08333 9.30302 8.97 9.41635 8.83333 9.41635Z" fill="#D0D5DD"/>
<rect x="0.2" y="0.7" width="15.6" height="15.6" rx="7.8" stroke="#D0D5DD" stroke-width="0.4"/>
</svg>
