<svg width="17" height="16" viewBox="0 0 17 16" fill="none" xmlns="http://www.w3.org/2000/svg">
<g id="vuesax/linear/cup">
<g id="cup">
<path id="Vector" d="M8.60001 11V12.4" stroke="#20A0F3" stroke-linecap="round" stroke-linejoin="round"/>
<path id="Vector_2" d="M5.26666 14.666H11.9333V13.9993C11.9333 13.266 11.3333 12.666 10.6 12.666H6.6C5.86666 12.666 5.26666 13.266 5.26666 13.9993V14.666V14.666Z" stroke="#20A0F3" stroke-miterlimit="10"/>
<path id="Vector_3" d="M4.60001 14.666H12.6" stroke="#20A0F3" stroke-linecap="round" stroke-linejoin="round"/>
<path id="Vector_4" d="M8.50001 10.6673C5.92001 10.6673 3.83334 8.58065 3.83334 6.00065V4.00065C3.83334 2.52732 5.02668 1.33398 6.50001 1.33398H10.5C11.9733 1.33398 13.1667 2.52732 13.1667 4.00065V6.00065C13.1667 8.58065 11.08 10.6673 8.50001 10.6673Z" stroke="#20A0F3" stroke-linecap="round" stroke-linejoin="round"/>
<path id="Vector_5" d="M4.14665 7.76706C3.64665 7.60706 3.20665 7.31372 2.85999 6.96706C2.25999 6.30039 1.85999 5.50039 1.85999 4.56706C1.85999 3.63372 2.59332 2.90039 3.52665 2.90039H3.95999C3.82665 3.20706 3.75999 3.54706 3.75999 3.90039V5.90039C3.75999 6.56706 3.89999 7.19372 4.14665 7.76706Z" stroke="#20A0F3" stroke-linecap="round" stroke-linejoin="round"/>
<path id="Vector_6" d="M12.8533 7.76706C13.3533 7.60706 13.7933 7.31372 14.14 6.96706C14.74 6.30039 15.14 5.50039 15.14 4.56706C15.14 3.63372 14.4067 2.90039 13.4733 2.90039H13.04C13.1733 3.20706 13.24 3.54706 13.24 3.90039V5.90039C13.24 6.56706 13.1 7.19372 12.8533 7.76706Z" stroke="#20A0F3" stroke-width="1.5" stroke-linecap="round" stroke-linejoin="round"/>
</g>
</g>
</svg>
