<svg width="52" height="52" viewBox="0 0 52 52" fill="none" xmlns="http://www.w3.org/2000/svg">
<path d="M36.833 29.0332V35.5332C36.833 44.1998 33.3663 47.6665 24.6997 47.6665H16.4663C7.79967 47.6665 4.33301 44.1998 4.33301 35.5332V27.2998C4.33301 18.6332 7.79967 15.1665 16.4663 15.1665H22.9663" stroke="#94D1F9" stroke-width="1.5" stroke-linecap="round" stroke-linejoin="round"/>
<path d="M36.8325 29.0332H29.8992C24.6992 29.0332 22.9658 27.2998 22.9658 22.0998V15.1665L36.8325 29.0332Z" stroke="#94D1F9" stroke-width="1.5" stroke-linecap="round" stroke-linejoin="round"/>
<path d="M25.1328 4.3335H33.7995" stroke="#94D1F9" stroke-width="1.5" stroke-linecap="round" stroke-linejoin="round"/>
<path d="M15.167 10.8335C15.167 7.23683 18.0703 4.3335 21.667 4.3335H27.3437" stroke="#94D1F9" stroke-width="1.5" stroke-linecap="round" stroke-linejoin="round"/>
<path d="M47.6674 17.3335V30.7452C47.6674 34.1035 44.9374 36.8335 41.5791 36.8335" stroke="#94D1F9" stroke-width="1.5" stroke-linecap="round" stroke-linejoin="round"/>
<path d="M47.667 17.3335H41.167C36.292 17.3335 34.667 15.7085 34.667 10.8335V4.3335L47.667 17.3335Z" stroke="#94D1F9" stroke-width="1.5" stroke-linecap="round" stroke-linejoin="round"/>
</svg>
