<svg width="40" height="40" viewBox="0 0 40 40" fill="none" xmlns="http://www.w3.org/2000/svg">
<path id="Vector 62" d="M40 6.67716L39.7531 7.11811L39.4444 4.91339L39.2593 6.48819L39.0123 4.34646L38.5802 7.37008L38.4568 6.92913L38.0247 9.44882L37.5309 7.74803L37.3457 9.00787L37.2222 7.55906L36.9753 9.82677L36.6667 7.74803L36.4198 6.23622L36.1111 6.92913V5.10236L35.9259 6.48819L35.8025 6.23622L35.8025 7.37008L35.4938 5.79527L35.3704 6.67716L35.1235 4.91339L34.7531 5.48031L34.5679 0L34.2593 5.79527L34.0123 4.91339L33.7654 7.74803L33.3333 6.23622L32.7778 10.8976L32.5309 9.00787L32.284 9.82677V8.12598L32.037 8.7559L31.8519 8.31496L31.6049 9.00787V7.74803L31.358 8.12598L31.1111 4.91339L30.5556 15.937L30.3704 13.6693L30.1235 14.4252V11.8425L29.8148 12.4094L29.4444 11.8425V17.3228L29.0741 14.4252L28.8272 19.7795L28.5185 17.3228L28.3333 19.0866L28.0864 18.7087V20.2205L27.9012 19.7795L27.716 24.126L27.4691 22.6142L27.1605 23.3071V20.4724L26.9136 21.7323L26.7284 21.0394L26.6049 21.8583L26.358 19.7795L25.9877 23.622L25.7407 21.8583L25.4321 22.0472V19.0866L25.1235 17.3228L24.7531 18.7087L24.3827 17.3228L24.3827 18.7087L23.9506 16.7559V19.0866L23.642 18.7087L23.4568 21.5433L23.0864 20.2205L22.9012 21.2283L22.6543 17.8898L22.284 20.4724L22.0988 20.2205L21.9136 22.0472L21.6667 20.2205L21.2963 21.2283L21.2346 19.7795L20.9259 20.7874L20.679 17.8898L20.2469 19.0866L20.0617 18.7087L19.6914 19.5276L19.321 13.6693L19.0123 14.9921V14.4252L18.8272 16.189L18.5185 15.685V16.378L18.2099 14.9921V17.6378L17.9012 17.3228L17.5309 18.7087V16.7559L17.284 17.6378V16.7559L16.7901 18.7087L16.5432 17.3228L16.358 17.8898L16.0494 16.189L15.8025 16.7559V12.6614L15.5556 13.2283V10.8346L15.1235 11.5906V10.6457L14.8765 12.9764V12.3465L14.1975 15.3701L13.9506 14.8031L13.4568 15.685L13.2099 13.2283L12.9012 18.1417L12.6543 10.8346L12.3457 12.0945L12.1605 9.63779L11.9136 10.0787V9.13386L11.5432 12.0945V11.8425L11.1728 13.2283L10.9259 12.3465L10.5556 12.6614V9.82677L10.1852 11.2126L9.81482 7.62204L9.38272 9.13386L9.01235 8.25197L8.70371 10.0787L8.39507 8.81889V10.6457L8.08642 9.82677V11.2126L7.71605 10.0787L7.71605 11.0866M7.71605 12.0945V11.0866M7.71605 11.0866L7.34568 12.0945L7.09877 11.8425V14.2362H6.60494V16.378L6.23457 15.685L5.92593 17.8898L5.67901 17.3228V19.9685L5.24691 18.7087V21.5433L4.69136 20.2205V27.5276L4.38272 26.5827L4.07407 27.5276V25.7638L3.64198 34.8976V33.7638L3.27161 36.0315L3.02469 32.7559V34.5827L2.59259 33.1969V35.4016L2.22223 35.1496V37.2913L1.79013 36.3465L1.54321 40L1.35803 35.8425H1.11111V33.0079L0.925926 34.0787L0.740742 31.4331L0.493828 33.4488L0 32.9449" stroke="#F04438" stroke-width="0.5" stroke-linejoin="round"/>
</svg>
