<svg width="20" height="21" viewBox="0 0 20 21" fill="none" xmlns="http://www.w3.org/2000/svg">
<g id="vuesax/linear/facebook">
<g id="facebook">
<path id="Vector" d="M11.6667 8.58789V11.0046H13.8333C14 11.0046 14.0833 11.1712 14.0833 11.3379L13.75 12.9212C13.75 13.0046 13.5833 13.0879 13.5 13.0879H11.6667V19.1712H9.16667V13.1712H7.75C7.58333 13.1712 7.5 13.0879 7.5 12.9212V11.3379C7.5 11.1712 7.58333 11.0879 7.75 11.0879H9.16667V8.33789C9.16667 6.92122 10.25 5.83789 11.6667 5.83789H13.9167C14.0833 5.83789 14.1667 5.92122 14.1667 6.08789V8.08789C14.1667 8.25456 14.0833 8.33789 13.9167 8.33789H11.9167C11.75 8.33789 11.6667 8.42122 11.6667 8.58789Z" stroke="#667085" stroke-miterlimit="10" stroke-linecap="round"/>
<path id="Vector_2" d="M12.5001 19.1706H7.50008C3.33341 19.1706 1.66675 17.5039 1.66675 13.3372V8.33724C1.66675 4.17057 3.33341 2.50391 7.50008 2.50391H12.5001C16.6667 2.50391 18.3334 4.17057 18.3334 8.33724V13.3372C18.3334 17.5039 16.6667 19.1706 12.5001 19.1706Z" stroke="#667085" stroke-linecap="round" stroke-linejoin="round"/>
</g>
</g>
</svg>
