<svg width="20" height="20" viewBox="0 0 20 20" fill="none" xmlns="http://www.w3.org/2000/svg">
<path fill-rule="evenodd" clip-rule="evenodd" d="M1.01562 5.48828V3.24219C1.01562 2.01445 2.01447 1.01562 3.24219 1.01562H5.48828C5.76873 1.01562 5.99609 0.788262 5.99609 0.507812C5.99609 0.227363 5.76873 0 5.48828 0H3.24219C1.45445 0 0 1.45443 0 3.24219V5.48828C0 5.76873 0.227363 5.99609 0.507812 5.99609C0.788262 5.99609 1.01562 5.76873 1.01562 5.48828ZM5.48828 18.9844C5.76873 18.9844 5.99609 19.2117 5.99609 19.4922C5.99609 19.7726 5.76873 20 5.48828 20H3.24219C1.45445 20 0 18.5455 0 16.7578V14.5117C0 14.2313 0.227363 14.0039 0.507812 14.0039C0.788262 14.0039 1.01562 14.2313 1.01562 14.5117V16.7578C1.01562 17.9855 2.01447 18.9844 3.24219 18.9844H5.48828ZM20 14.5117V16.7578C20 18.5455 18.5455 20 16.7578 20H14.5117C14.2313 20 14.0039 19.7726 14.0039 19.4922C14.0039 19.2117 14.2313 18.9844 14.5117 18.9844H16.7578C17.9855 18.9844 18.9844 17.9855 18.9844 16.7578V14.5117C18.9844 14.2313 19.2117 14.0039 19.4922 14.0039C19.7726 14.0039 20 14.2313 20 14.5117ZM20 3.24219V5.48828C20 5.76873 19.7726 5.99609 19.4922 5.99609C19.2117 5.99609 18.9844 5.76873 18.9844 5.48828V3.24219C18.9844 2.01445 17.9855 1.01562 16.7578 1.01562H14.5117C14.2313 1.01562 14.0039 0.788262 14.0039 0.507812C14.0039 0.227363 14.2313 0 14.5117 0H16.7578C18.5455 0 20 1.45443 20 3.24219ZM13.5044 14.7819C13.7184 14.5843 13.7316 14.2507 13.534 14.0367C13.3363 13.8228 13.0027 13.8096 12.7888 14.0071C12.0275 14.7104 11.0371 15.0976 9.99996 15.0976C8.96283 15.0976 7.9724 14.7104 7.21113 14.0071C6.99714 13.8096 6.66357 13.8228 6.46593 14.0367C6.26831 14.2507 6.28154 14.5843 6.49548 14.7819C7.45222 15.6656 8.69677 16.1523 9.99996 16.1523C11.3031 16.1523 12.5477 15.6656 13.5044 14.7819ZM11.0547 7.53906V11.2891C11.0547 12.0322 10.4501 12.6367 9.70703 12.6367H9.27734C8.98609 12.6367 8.75 12.4006 8.75 12.1094C8.75 11.8181 8.98609 11.582 9.27734 11.582H9.70703C9.86857 11.582 10 11.4506 10 11.2891V7.53906C10 7.24781 10.2361 7.01172 10.5273 7.01172C10.8186 7.01172 11.0547 7.24781 11.0547 7.53906ZM14.6875 9.01367V7.50977C14.6875 7.23471 14.4645 7.01172 14.1895 7.01172C13.9144 7.01172 13.6914 7.23471 13.6914 7.50977V9.01367C13.6914 9.28873 13.9144 9.51172 14.1895 9.51172C14.4645 9.51172 14.6875 9.28873 14.6875 9.01367ZM5.42969 9.01367C5.42969 9.28873 5.65268 9.51172 5.92773 9.51172C6.20279 9.51172 6.42578 9.28873 6.42578 9.01367V7.50977C6.42578 7.23471 6.20279 7.01172 5.92773 7.01172C5.65268 7.01172 5.42969 7.23471 5.42969 7.50977V9.01367Z" fill="#667085"/>
</svg>
