<svg width="375" height="513" viewBox="0 0 375 513" fill="none" xmlns="http://www.w3.org/2000/svg">
<path d="M284.433 378.997C256.581 402.457 211.649 406.205 171.309 399.476C130.952 392.986 94.9135 376.48 74.7638 349.344C54.8529 322.226 50.8137 284.717 56.1254 250.759C61.42 217.04 76.3215 186.65 100.882 152.148C125.204 117.63 159.441 78.7782 192.034 79.6699C224.628 80.5617 256.055 121.231 279.514 159.169C302.973 197.107 318.685 232.569 320.898 272.109C323.367 311.426 312.303 355.298 284.433 378.997Z" fill="#D3ECFD"/>
<path fill-rule="evenodd" clip-rule="evenodd" d="M145.078 234.441V223.211C145.078 217.072 150.072 212.078 156.211 212.078H167.441C168.844 212.078 169.98 210.941 169.98 209.539C169.98 208.137 168.844 207 167.441 207H156.211C147.272 207 140 214.272 140 223.211V234.441C140 235.844 141.137 236.98 142.539 236.98C143.941 236.98 145.078 235.844 145.078 234.441ZM167.441 301.922C168.844 301.922 169.98 303.059 169.98 304.461C169.98 305.863 168.844 307 167.441 307H156.211C147.272 307 140 299.728 140 290.789V279.559C140 278.156 141.137 277.02 142.539 277.02C143.941 277.02 145.078 278.156 145.078 279.559V290.789C145.078 296.928 150.072 301.922 156.211 301.922H167.441ZM240 279.559V290.789C240 299.728 232.728 307 223.789 307H212.559C211.156 307 210.02 305.863 210.02 304.461C210.02 303.059 211.156 301.922 212.559 301.922H223.789C229.928 301.922 234.922 296.928 234.922 290.789V279.559C234.922 278.156 236.059 277.02 237.461 277.02C238.863 277.02 240 278.156 240 279.559ZM240 223.211V234.441C240 235.844 238.863 236.98 237.461 236.98C236.059 236.98 234.922 235.844 234.922 234.441V223.211C234.922 217.072 229.928 212.078 223.789 212.078H212.559C211.156 212.078 210.02 210.941 210.02 209.539C210.02 208.137 211.156 207 212.559 207H223.789C232.728 207 240 214.272 240 223.211ZM207.522 280.91C208.592 279.921 208.658 278.253 207.67 277.184C206.682 276.114 205.014 276.048 203.944 277.036C200.138 280.552 195.185 282.488 190 282.488C184.814 282.488 179.862 280.552 176.056 277.036C174.986 276.048 173.318 276.114 172.33 277.184C171.342 278.253 171.408 279.921 172.477 280.91C177.261 285.328 183.484 287.762 190 287.762C196.516 287.762 202.738 285.328 207.522 280.91ZM195.273 244.695V263.445C195.273 267.161 192.251 270.184 188.535 270.184H186.387C184.93 270.184 183.75 269.003 183.75 267.547C183.75 266.091 184.93 264.91 186.387 264.91H188.535C189.343 264.91 190 264.253 190 263.445V244.695C190 243.239 191.18 242.059 192.637 242.059C194.093 242.059 195.273 243.239 195.273 244.695ZM213.438 252.068V244.549C213.438 243.174 212.323 242.059 210.947 242.059C209.572 242.059 208.457 243.174 208.457 244.549V252.068C208.457 253.444 209.572 254.559 210.947 254.559C212.323 254.559 213.438 253.444 213.438 252.068ZM167.148 252.068C167.148 253.444 168.263 254.559 169.639 254.559C171.014 254.559 172.129 253.444 172.129 252.068V244.549C172.129 243.174 171.014 242.059 169.639 242.059C168.263 242.059 167.148 243.174 167.148 244.549V252.068Z" fill="#20A0F3"/>
</svg>
