<svg width="20" height="20" viewBox="0 0 20 20" fill="none" xmlns="http://www.w3.org/2000/svg">
<g id="vuesax/linear/filter-search">
<g id="filter-search">
<g id="Group">
<path id="Vector" d="M11.9333 15.8924C11.9333 16.4008 11.5999 17.0674 11.1749 17.3258L9.99997 18.0841C8.9083 18.7591 7.39163 18.0008 7.39163 16.6508V12.1924C7.39163 11.6008 7.0583 10.8424 6.71663 10.4258L3.51661 7.05911C3.09161 6.63411 2.7583 5.88412 2.7583 5.37578V3.44244C2.7583 2.43411 3.51665 1.67578 4.44165 1.67578H15.5583C16.4833 1.67578 17.2416 2.43411 17.2416 3.35911V5.20911C17.2416 5.88411 16.8166 6.72578 16.4 7.14245" stroke="#667085" stroke-width="1.5" stroke-miterlimit="10" stroke-linecap="round" stroke-linejoin="round"/>
</g>
<g id="Group_2">
<path id="Vector_2" d="M13.3917 13.7669C14.8644 13.7669 16.0583 12.573 16.0583 11.1003C16.0583 9.62751 14.8644 8.43359 13.3917 8.43359C11.9189 8.43359 10.725 9.62751 10.725 11.1003C10.725 12.573 11.9189 13.7669 13.3917 13.7669Z" stroke="#667085" stroke-width="1.5" stroke-linecap="round" stroke-linejoin="round"/>
<path id="Vector_3" d="M16.5583 14.2669L15.725 13.4336" stroke="#667085" stroke-width="1.5" stroke-linecap="round" stroke-linejoin="round"/>
</g>
</g>
</g>
</svg>
