<svg width="20" height="20" viewBox="0 0 20 20" fill="none" xmlns="http://www.w3.org/2000/svg">
<g id="vuesax/linear/folder-open">
<g id="folder-open">
<path id="Vector" d="M18.0583 11.917L17.725 16.0837C17.6 17.3587 17.5 18.3337 15.2417 18.3337H4.75833C2.5 18.3337 2.4 17.3587 2.275 16.0837L1.94167 11.917C1.875 11.2253 2.09167 10.5837 2.48333 10.092C2.49167 10.0837 2.49167 10.0837 2.5 10.0753C2.95833 9.51699 3.65 9.16699 4.425 9.16699H15.575C16.35 9.16699 17.0333 9.51699 17.4833 10.0587C17.4917 10.067 17.5 10.0753 17.5 10.0837C17.9083 10.5753 18.1333 11.217 18.0583 11.917Z" stroke="#98A2B3" stroke-width="1.5" stroke-miterlimit="10"/>
<path id="Vector_2" d="M2.91666 9.52572V5.23405C2.91666 2.40072 3.62499 1.69238 6.45833 1.69238H7.51666C8.57499 1.69238 8.81666 2.00905 9.21666 2.54238L10.275 3.95905C10.5417 4.30905 10.7 4.52572 11.4083 4.52572H13.5333C16.3667 4.52572 17.075 5.23405 17.075 8.06738V9.55905" stroke="#98A2B3" stroke-width="1.5" stroke-miterlimit="10" stroke-linecap="round" stroke-linejoin="round"/>
<path id="Vector_3" d="M7.85833 14.167H12.1417" stroke="#292D32" stroke-width="1.5" stroke-miterlimit="10" stroke-linecap="round" stroke-linejoin="round"/>
</g>
</g>
</svg>
