<svg width="12" height="12" viewBox="0 0 12 12" fill="none" xmlns="http://www.w3.org/2000/svg">
<path d="M11 5.5V4.5C11 2 10 1 7.5 1H4.5C2 1 1 2 1 4.5V7.5C1 10 2 11 4.5 11H5" stroke="#D0D5DD" stroke-width="0.8" stroke-linecap="round" stroke-linejoin="round"/>
<path d="M1.01514 4.25H11.0001" stroke="#D0D5DD" stroke-width="0.8" stroke-linecap="round" stroke-linejoin="round"/>
<path d="M1.01514 7.75H6.00012" stroke="#D0D5DD" stroke-width="0.8" stroke-linecap="round" stroke-linejoin="round"/>
<path d="M4.25488 10.9949V1.00488" stroke="#D0D5DD" stroke-width="0.8" stroke-linecap="round" stroke-linejoin="round"/>
<path d="M7.75488 5.99487V1.00488" stroke="#D0D5DD" stroke-width="0.8" stroke-linecap="round" stroke-linejoin="round"/>
<path d="M9.3652 7.33553L7.29022 9.41048C7.21022 9.49048 7.1352 9.64551 7.1152 9.75551L7.00021 10.5505C6.96021 10.8355 7.16022 11.0405 7.44522 10.9955L8.2402 10.8805C8.3502 10.8655 8.5052 10.7855 8.5852 10.7055L10.6602 8.63051C11.0152 8.27551 11.1852 7.85552 10.6602 7.33052C10.1402 6.81052 9.7252 6.97553 9.3652 7.33553Z" stroke="#D0D5DD" stroke-width="0.8" stroke-miterlimit="10" stroke-linecap="round" stroke-linejoin="round"/>
<path d="M9.07022 7.63086C9.24522 8.26086 9.74021 8.75085 10.3702 8.93085" stroke="#D0D5DD" stroke-width="0.8" stroke-miterlimit="10" stroke-linecap="round" stroke-linejoin="round"/>
</svg>
