<svg width="20" height="20" viewBox="0 0 20 20" fill="none" xmlns="http://www.w3.org/2000/svg">
<path d="M10.0001 18.9577C5.05841 18.9577 1.04175 14.941 1.04175 9.99935C1.04175 5.05768 5.05841 1.04102 10.0001 1.04102C14.9417 1.04102 18.9584 5.05768 18.9584 9.99935C18.9584 14.941 14.9417 18.9577 10.0001 18.9577ZM10.0001 2.29102C5.75008 2.29102 2.29175 5.74935 2.29175 9.99935C2.29175 14.2493 5.75008 17.7077 10.0001 17.7077C14.2501 17.7077 17.7084 14.2493 17.7084 9.99935C17.7084 5.74935 14.2501 2.29102 10.0001 2.29102Z" fill="#98A2B3"/>
<path d="M10 11.4577C9.65833 11.4577 9.375 11.1743 9.375 10.8327V6.66602C9.375 6.32435 9.65833 6.04102 10 6.04102C10.3417 6.04102 10.625 6.32435 10.625 6.66602V10.8327C10.625 11.1743 10.3417 11.4577 10 11.4577Z" fill="#98A2B3"/>
<path d="M10.0001 14.1664C9.89175 14.1664 9.78341 14.1414 9.68341 14.0997C9.58341 14.0581 9.49175 13.9997 9.40841 13.9247C9.33341 13.8414 9.27508 13.7581 9.23341 13.6497C9.19175 13.5497 9.16675 13.4414 9.16675 13.3331C9.16675 13.2247 9.19175 13.1164 9.23341 13.0164C9.27508 12.9164 9.33341 12.8247 9.40841 12.7414C9.49175 12.6664 9.58341 12.6081 9.68341 12.5664C9.88341 12.4831 10.1167 12.4831 10.3167 12.5664C10.4167 12.6081 10.5084 12.6664 10.5917 12.7414C10.6667 12.8247 10.7251 12.9164 10.7667 13.0164C10.8084 13.1164 10.8334 13.2247 10.8334 13.3331C10.8334 13.4414 10.8084 13.5497 10.7667 13.6497C10.7251 13.7581 10.6667 13.8414 10.5917 13.9247C10.5084 13.9997 10.4167 14.0581 10.3167 14.0997C10.2167 14.1414 10.1084 14.1664 10.0001 14.1664Z" fill="#98A2B3"/>
</svg>
