<svg width="18" height="18" viewBox="0 0 18 18" fill="none" xmlns="http://www.w3.org/2000/svg">
<g id="vuesax/linear/recovery-convert">
<g id="recovery-convert">
<path id="Vector" d="M11.1667 9.48203V11.757C11.1667 13.657 10.4084 14.4154 8.50837 14.4154H6.24171C4.35004 14.4154 3.58337 13.657 3.58337 11.757V9.48203C3.58337 7.59036 4.34171 6.83203 6.24171 6.83203H8.51671C10.4084 6.83203 11.1667 7.59036 11.1667 9.48203Z" stroke="#3E1C96" stroke-linecap="round" stroke-linejoin="round"/>
<path id="Vector_2" d="M14.4167 6.23203V8.50703C14.4167 10.407 13.6584 11.1654 11.7584 11.1654H11.1667V9.48203C11.1667 7.59036 10.4084 6.83203 8.50837 6.83203H6.83337V6.23203C6.83337 4.33203 7.59171 3.58203 9.49171 3.58203H11.7667C13.6584 3.58203 14.4167 4.34036 14.4167 6.23203Z" stroke="#3E1C96" stroke-linecap="round" stroke-linejoin="round"/>
<path id="Vector_3" d="M17.3333 11.5C17.3333 14.725 14.725 17.3333 11.5 17.3333L12.375 15.875" stroke="#3E1C96" stroke-linecap="round" stroke-linejoin="round"/>
<path id="Vector_4" d="M0.666687 6.49935C0.666687 3.27435 3.27502 0.666016 6.50002 0.666016L5.62502 2.12435" stroke="#3E1C96" stroke-linecap="round" stroke-linejoin="round"/>
</g>
</g>
</svg>
