<svg width="20" height="20" viewBox="0 0 20 20" fill="none" xmlns="http://www.w3.org/2000/svg">
<g id="vuesax/linear/message-question">
<g id="message-question">
<path id="Vector" d="M14.1667 15.3588H10.8333L7.12498 17.8254C6.57498 18.1921 5.83332 17.8004 5.83332 17.1338V15.3588C3.33332 15.3588 1.66666 13.6921 1.66666 11.1921V6.19206C1.66666 3.69206 3.33332 2.02539 5.83332 2.02539H14.1667C16.6667 2.02539 18.3333 3.69206 18.3333 6.19206V11.1921C18.3333 13.6921 16.6667 15.3588 14.1667 15.3588Z" stroke="#667085" stroke-width="1.5" stroke-miterlimit="10" stroke-linecap="round" stroke-linejoin="round"/>
<path id="Vector_2" d="M10 9.4668V9.29183C10 8.72516 10.35 8.42515 10.7 8.18348C11.0417 7.95015 11.3833 7.65016 11.3833 7.10016C11.3833 6.33349 10.7667 5.7168 10 5.7168C9.23334 5.7168 8.6167 6.33349 8.6167 7.10016" stroke="#667085" stroke-width="1.5" stroke-linecap="round" stroke-linejoin="round"/>
<path id="Vector_3" d="M9.99626 11.4577H10.0038" stroke="#667085" stroke-width="1.5" stroke-linecap="round" stroke-linejoin="round"/>
</g>
</g>
</svg>
