<svg width="52" height="52" viewBox="0 0 52 52" fill="none" xmlns="http://www.w3.org/2000/svg">
<g id="vuesax/linear/message-text">
<g id="message-text">
<path id="Vector" d="M18.4167 41.1673H17.3334C8.66671 41.1673 4.33337 39.0007 4.33337 28.1673V17.334C4.33337 8.66732 8.66671 4.33398 17.3334 4.33398H34.6667C43.3334 4.33398 47.6667 8.66732 47.6667 17.334V28.1673C47.6667 36.834 43.3334 41.1673 34.6667 41.1673H33.5834C32.9117 41.1673 32.2617 41.4923 31.85 42.034L28.6 46.3673C27.17 48.274 24.83 48.274 23.4 46.3673L20.15 42.034C19.8034 41.5573 19.0017 41.1673 18.4167 41.1673Z" stroke="#94D1F9" stroke-width="1.5" stroke-miterlimit="10" stroke-linecap="round" stroke-linejoin="round"/>
<path id="Vector_2" d="M15.1666 17.334H36.8333" stroke="#94D1F9" stroke-width="1.5" stroke-linecap="round" stroke-linejoin="round"/>
<path id="Vector_3" d="M15.1666 28.166H28.1666" stroke="#94D1F9" stroke-width="1.5" stroke-linecap="round" stroke-linejoin="round"/>
</g>
</g>
</svg>
