<svg width="20" height="20" viewBox="0 0 20 20" fill="none" xmlns="http://www.w3.org/2000/svg">
<g id="vuesax/linear/message-tick">
<g id="message-tick">
<path id="Vector" d="M18.3334 6.19206V11.1921C18.3334 12.4421 17.9167 13.4837 17.1834 14.2171C16.4584 14.9421 15.4167 15.3587 14.1667 15.3587V17.1337C14.1667 17.8004 13.425 18.2004 12.875 17.8338L9.16669 15.3587H7.40002C7.46669 15.1087 7.50002 14.8504 7.50002 14.5837C7.50002 13.7337 7.17502 12.9504 6.64169 12.3587C6.04169 11.6754 5.15002 11.2504 4.16669 11.2504C3.23335 11.2504 2.38336 11.6337 1.77502 12.2587C1.70002 11.9254 1.66669 11.5671 1.66669 11.1921V6.19206C1.66669 3.69206 3.33335 2.02539 5.83335 2.02539H14.1667C16.6667 2.02539 18.3334 3.69206 18.3334 6.19206Z" stroke="#98A2B3" stroke-width="1.5" stroke-miterlimit="10" stroke-linecap="round" stroke-linejoin="round"/>
<g id="Group">
<path id="Vector_2" d="M7.49998 14.5833C7.49998 15.2083 7.32499 15.8 7.01666 16.3C6.84166 16.6 6.61665 16.8667 6.35832 17.0833C5.77498 17.6083 5.00831 17.9167 4.16665 17.9167C2.94998 17.9167 1.89164 17.2667 1.31664 16.3C1.0083 15.8 0.833313 15.2083 0.833313 14.5833C0.833313 13.5333 1.31665 12.5917 2.08331 11.9833C2.65831 11.525 3.38331 11.25 4.16665 11.25C6.00831 11.25 7.49998 12.7417 7.49998 14.5833Z" stroke="#98A2B3" stroke-width="1.5" stroke-miterlimit="10" stroke-linecap="round" stroke-linejoin="round"/>
<path id="Vector_3" d="M2.86664 14.5842L3.69163 15.4092L5.46663 13.7676" stroke="#98A2B3" stroke-width="1.5" stroke-linecap="round" stroke-linejoin="round"/>
</g>
<path id="Vector_4" d="M7.08331 8.75H12.9166" stroke="#98A2B3" stroke-width="1.5" stroke-miterlimit="10" stroke-linecap="round" stroke-linejoin="round"/>
</g>
</g>
</svg>
