<svg width="52" height="52" viewBox="0 0 52 52" fill="none" xmlns="http://www.w3.org/2000/svg">
<g id="vuesax/linear/messages">
<g id="messages">
<path id="Vector" d="M36.8333 19.5007C36.8333 27.8857 29.5533 34.6673 20.5833 34.6673L18.5683 37.094L17.3767 38.524C16.3583 39.7374 14.4083 39.4773 13.7366 38.0256L10.8333 31.6339C6.88998 28.8606 4.33331 24.4623 4.33331 19.5007C4.33331 11.1157 11.6133 4.33398 20.5833 4.33398C27.1266 4.33398 32.7817 7.95233 35.3167 13.1523C36.2917 15.0807 36.8333 17.2257 36.8333 19.5007Z" stroke="#94D1F9" stroke-width="1.5" stroke-linecap="round" stroke-linejoin="round"/>
<path id="Vector_2" d="M47.6667 27.864C47.6667 32.8256 45.11 37.224 41.1667 39.9974L38.2634 46.3889C37.5917 47.8406 35.6417 48.1224 34.6233 46.8874L31.4167 43.0306C26.1733 43.0306 21.4934 40.7123 18.5684 37.094L20.5833 34.6673C29.5533 34.6673 36.8333 27.8857 36.8333 19.5007C36.8333 17.2257 36.2917 15.0807 35.3167 13.1523C42.4017 14.7773 47.6667 20.7573 47.6667 27.864Z" stroke="#94D1F9" stroke-width="1.5" stroke-linecap="round" stroke-linejoin="round"/>
<path id="Vector_3" d="M15.1667 19.5H26" stroke="#94D1F9" stroke-width="1.5" stroke-linecap="round" stroke-linejoin="round"/>
</g>
</g>
</svg>
