<svg width="20" height="20" viewBox="0 0 20 20" fill="none" xmlns="http://www.w3.org/2000/svg">
<g id="vuesax/linear/microphone-2">
<g id="microphone-2">
<path id="Vector" d="M10 12.916C11.8417 12.916 13.3334 11.4243 13.3334 9.58268V4.99935C13.3334 3.15768 11.8417 1.66602 10 1.66602C8.15835 1.66602 6.66669 3.15768 6.66669 4.99935V9.58268C6.66669 11.4243 8.15835 12.916 10 12.916Z" stroke="#F2F4F7" stroke-width="1.5" stroke-linecap="round" stroke-linejoin="round"/>
<path id="Vector_2" d="M3.625 8.04102V9.45768C3.625 12.9743 6.48333 15.8327 10 15.8327C13.5167 15.8327 16.375 12.9743 16.375 9.45768V8.04102" stroke="#F2F4F7" stroke-width="1.5" stroke-linecap="round" stroke-linejoin="round"/>
<path id="Vector_3" d="M8.84167 5.35859C9.59167 5.08359 10.4083 5.08359 11.1583 5.35859" stroke="#F2F4F7" stroke-width="1.5" stroke-linecap="round" stroke-linejoin="round"/>
<path id="Vector_4" d="M9.33331 7.12461C9.77498 7.00794 10.2333 7.00794 10.675 7.12461" stroke="#F2F4F7" stroke-width="1.5" stroke-linecap="round" stroke-linejoin="round"/>
<path id="Vector_5" d="M10 15.834V18.334" stroke="#F2F4F7" stroke-width="1.5" stroke-linecap="round" stroke-linejoin="round"/>
</g>
</g>
</svg>
