<svg width="17" height="16" viewBox="0 0 17 16" fill="none" xmlns="http://www.w3.org/2000/svg">
<g id="vuesax/linear/notification">
<g id="notification">
<path id="Vector" d="M8.51309 1.93945C6.30642 1.93945 4.51309 3.73279 4.51309 5.93945V7.86612C4.51309 8.27279 4.33975 8.89279 4.13309 9.23945L3.36642 10.5128C2.89309 11.2995 3.21975 12.1728 4.08642 12.4661C6.95975 13.4261 10.0598 13.4261 12.9331 12.4661C13.7398 12.1995 14.0931 11.2461 13.6531 10.5128L12.8864 9.23945C12.6864 8.89279 12.5131 8.27279 12.5131 7.86612V5.93945C12.5131 3.73945 10.7131 1.93945 8.51309 1.93945Z" stroke="#20A0F3" stroke-miterlimit="10" stroke-linecap="round"/>
<path id="Vector_2" d="M9.7467 2.13297C9.54003 2.07297 9.3267 2.0263 9.1067 1.99964C8.4667 1.91964 7.85336 1.9663 7.28003 2.13297C7.47336 1.63964 7.95336 1.29297 8.51336 1.29297C9.07336 1.29297 9.55336 1.63964 9.7467 2.13297Z" stroke="#20A0F3" stroke-miterlimit="10" stroke-linecap="round" stroke-linejoin="round"/>
<path id="Vector_3" d="M10.513 12.707C10.513 13.807 9.613 14.707 8.513 14.707C7.96633 14.707 7.45967 14.4804 7.09967 14.1204C6.73967 13.7604 6.513 13.2537 6.513 12.707" stroke="#20A0F3" stroke-miterlimit="10"/>
</g>
</g>
</svg>
