<svg width="36" height="36" viewBox="0 0 36 36" fill="none" xmlns="http://www.w3.org/2000/svg">
<rect width="36" height="36" rx="18" fill="#D3ECFD"/>
<path d="M15.0834 23.8327H14.6667C11.3334 23.8327 9.66669 22.9993 9.66669 18.8327V14.666C9.66669 11.3327 11.3334 9.66602 14.6667 9.66602H21.3334C24.6667 9.66602 26.3334 11.3327 26.3334 14.666V18.8327C26.3334 22.166 24.6667 23.8327 21.3334 23.8327H20.9167C20.6584 23.8327 20.4084 23.9577 20.25 24.166L19 25.8327C18.45 26.566 17.55 26.566 17 25.8327L15.75 24.166C15.6167 23.9827 15.3084 23.8327 15.0834 23.8327Z" stroke="#20A0F3" stroke-width="1.5" stroke-miterlimit="10" stroke-linecap="round" stroke-linejoin="round"/>
<path d="M13.8333 14.666H22.1666" stroke="#20A0F3" stroke-width="1.5" stroke-linecap="round" stroke-linejoin="round"/>
<path d="M13.8333 18.834H18.8333" stroke="#20A0F3" stroke-width="1.5" stroke-linecap="round" stroke-linejoin="round"/>
</svg>
