<svg width="17" height="16" viewBox="0 0 17 16" fill="none" xmlns="http://www.w3.org/2000/svg">
<g id="vuesax/linear/people">
<g id="people">
<g id="Group">
<path id="Vector" d="M12.5 4.77399C12.46 4.76732 12.4133 4.76732 12.3733 4.77399C11.4533 4.74065 10.72 3.98732 10.72 3.05399C10.72 2.10065 11.4866 1.33398 12.44 1.33398C13.3933 1.33398 14.16 2.10732 14.16 3.05399C14.1533 3.98732 13.42 4.74065 12.5 4.77399Z" stroke="#20A0F3" stroke-linecap="round" stroke-linejoin="round"/>
<path id="Vector_2" d="M11.8135 9.62743C12.7269 9.78076 13.7335 9.62076 14.4402 9.14742C15.3802 8.52076 15.3802 7.49409 14.4402 6.86743C13.7269 6.39409 12.7069 6.23409 11.7935 6.39409" stroke="#20A0F3" stroke-linecap="round" stroke-linejoin="round"/>
</g>
<g id="Group_2">
<path id="Vector_3" d="M4.48025 4.77399C4.52025 4.76732 4.56692 4.76732 4.60692 4.77399C5.52692 4.74065 6.26025 3.98732 6.26025 3.05399C6.26025 2.10065 5.49359 1.33398 4.54025 1.33398C3.58692 1.33398 2.82025 2.10732 2.82025 3.05399C2.82692 3.98732 3.56025 4.74065 4.48025 4.77399Z" stroke="#20A0F3" stroke-linecap="round" stroke-linejoin="round"/>
<path id="Vector_4" d="M5.16693 9.62743C4.2536 9.78076 3.24693 9.62076 2.54027 9.14742C1.60027 8.52076 1.60027 7.49409 2.54027 6.86743C3.2536 6.39409 4.2736 6.23409 5.18693 6.39409" stroke="#20A0F3" stroke-linecap="round" stroke-linejoin="round"/>
</g>
<g id="Group_3">
<path id="Vector_5" d="M8.50003 9.7525C8.46003 9.74584 8.41336 9.74584 8.37336 9.7525C7.45336 9.71917 6.72003 8.96583 6.72003 8.0325C6.72003 7.07917 7.4867 6.3125 8.44003 6.3125C9.39336 6.3125 10.16 7.08583 10.16 8.0325C10.1534 8.96583 9.42003 9.72584 8.50003 9.7525Z" stroke="#20A0F3" stroke-linecap="round" stroke-linejoin="round"/>
<path id="Vector_6" d="M6.5598 11.8523C5.6198 12.4789 5.6198 13.5056 6.5598 14.1323C7.62646 14.8456 9.37313 14.8456 10.4398 14.1323C11.3798 13.5056 11.3798 12.4789 10.4398 11.8523C9.3798 11.1456 7.62646 11.1456 6.5598 11.8523Z" stroke="#20A0F3" stroke-linecap="round" stroke-linejoin="round"/>
</g>
</g>
</g>
</svg>
