<svg width="20" height="21" viewBox="0 0 20 21" fill="none" xmlns="http://www.w3.org/2000/svg">
<g id="vuesax/linear/refresh-circle">
<g id="refresh-circle">
<path id="Vector" d="M10.0001 19.1706C14.6025 19.1706 18.3334 15.4396 18.3334 10.8372C18.3334 6.23487 14.6025 2.50391 10.0001 2.50391C5.39771 2.50391 1.66675 6.23487 1.66675 10.8372C1.66675 15.4396 5.39771 19.1706 10.0001 19.1706Z" stroke="#667085" stroke-width="1.5" stroke-linecap="round" stroke-linejoin="round"/>
<g id="Group">
<path id="Vector_2" d="M6.67505 12.9298C6.82505 13.1798 7.00838 13.4132 7.21671 13.6215C8.75004 15.1549 11.2417 15.1549 12.7834 13.6215C13.4084 12.9965 13.7667 12.2048 13.8834 11.3965" stroke="#667085" stroke-width="1.5" stroke-linecap="round" stroke-linejoin="round"/>
<path id="Vector_3" d="M6.1167 10.2793C6.23337 9.46267 6.59171 8.6793 7.21671 8.0543C8.75004 6.52096 11.2417 6.52096 12.7834 8.0543C13 8.27096 13.175 8.50431 13.325 8.74598" stroke="#667085" stroke-width="1.5" stroke-linecap="round" stroke-linejoin="round"/>
<path id="Vector_4" d="M6.51709 15.1547V12.9297H8.74208" stroke="#667085" stroke-width="1.5" stroke-linecap="round" stroke-linejoin="round"/>
<path id="Vector_5" d="M13.4833 6.52148V8.74647H11.2583" stroke="#667085" stroke-width="1.5" stroke-linecap="round" stroke-linejoin="round"/>
</g>
</g>
</g>
</svg>
