<svg width="17" height="16" viewBox="0 0 17 16" fill="none" xmlns="http://www.w3.org/2000/svg">
<g id="vuesax/linear/security-card">
<g id="Group">
<g id="Group_2">
<path id="Vector" d="M8.32665 11.8336H12.2733C12.2133 11.8869 12.1533 11.9336 12.0933 11.9869L9.24664 14.1202C8.30664 14.8202 6.77332 14.8202 5.82665 14.1202L2.97332 11.9869C2.34665 11.5202 1.83331 10.4869 1.83331 9.7069V4.7669C1.83331 3.95356 2.45332 3.05356 3.21332 2.7669L6.53332 1.52023C7.07998 1.31357 7.98665 1.31357 8.53332 1.52023L11.8466 2.7669C12.48 3.0069 13.02 3.67357 13.1866 4.35357H8.31998C8.17331 4.35357 8.03998 4.36024 7.91331 4.36024C6.67998 4.43357 6.35998 4.88023 6.35998 6.2869V9.90689C6.36664 11.4402 6.75998 11.8336 8.32665 11.8336Z" stroke="#20A0F3" stroke-linecap="round" stroke-linejoin="round"/>
</g>
<path id="Vector_2" d="M6.36664 7.48047H15.1666" stroke="#20A0F3" stroke-miterlimit="10" stroke-linecap="round" stroke-linejoin="round"/>
<path id="Vector_3" d="M15.1666 6.27985V9.97984C15.1533 11.4598 14.7466 11.8265 13.2066 11.8265H8.32664C6.75997 11.8265 6.36664 11.4332 6.36664 9.89317V6.27317C6.36664 4.87317 6.68664 4.4265 7.91997 4.3465C8.04664 4.3465 8.17997 4.33984 8.32664 4.33984H13.2066C14.7733 4.34651 15.1666 4.73318 15.1666 6.27985Z" stroke="#20A0F3" stroke-linecap="round" stroke-linejoin="round"/>
<path id="Vector_4" d="M8.04663 10.1738H8.93329" stroke="#20A0F3" stroke-miterlimit="10" stroke-linecap="round" stroke-linejoin="round"/>
<path id="Vector_5" d="M10.3333 10.1738H12.5133" stroke="#20A0F3" stroke-miterlimit="10" stroke-linecap="round" stroke-linejoin="round"/>
</g>
</g>
</svg>
