<svg width="20" height="20" viewBox="0 0 20 20" fill="none" xmlns="http://www.w3.org/2000/svg">
<path d="M8.74154 1.85781L4.58322 3.41614C3.62488 3.77448 2.84155 4.9078 2.84155 5.9328V12.1245C2.84155 13.1078 3.49156 14.3995 4.28323 14.9911L7.86655 17.6661C9.04155 18.5495 10.9749 18.5495 12.1499 17.6661L15.7332 14.9911C16.5249 14.3995 17.1749 13.1078 17.1749 12.1245V5.9328C17.1749 4.9078 16.3915 3.77448 15.4332 3.41614L11.2749 1.85781C10.5665 1.59948 9.43321 1.59948 8.74154 1.85781Z" stroke="#667085" stroke-width="1.5" stroke-linecap="round" stroke-linejoin="round"/>
<path d="M9.99983 9.09936C9.96649 9.09936 9.92482 9.09936 9.89149 9.09936C9.10816 9.07436 8.48315 8.42436 8.48315 7.63269C8.48315 6.82436 9.1415 6.16602 9.94983 6.16602C10.7582 6.16602 11.4165 6.82436 11.4165 7.63269C11.4082 8.43269 10.7832 9.07436 9.99983 9.09936Z" stroke="#667085" stroke-width="1.5" stroke-linecap="round" stroke-linejoin="round"/>
<path d="M8.3417 11.4328C7.5417 11.9661 7.5417 12.8411 8.3417 13.3745C9.25003 13.9828 10.7417 13.9828 11.65 13.3745C12.45 12.8411 12.45 11.9661 11.65 11.4328C10.75 10.8245 9.25837 10.8245 8.3417 11.4328Z" stroke="#667085" stroke-width="1.5" stroke-linecap="round" stroke-linejoin="round"/>
</svg>
