<svg width="20" height="21" viewBox="0 0 20 21" fill="none" xmlns="http://www.w3.org/2000/svg">
<path d="M18.3335 5.91699H13.3335" stroke="#667085" stroke-width="1.5" stroke-miterlimit="10" stroke-linecap="round" stroke-linejoin="round"/>
<path d="M4.99984 5.91699H1.6665" stroke="#667085" stroke-width="1.5" stroke-miterlimit="10" stroke-linecap="round" stroke-linejoin="round"/>
<path d="M8.33317 8.83333C9.944 8.83333 11.2498 7.5275 11.2498 5.91667C11.2498 4.30584 9.944 3 8.33317 3C6.72234 3 5.4165 4.30584 5.4165 5.91667C5.4165 7.5275 6.72234 8.83333 8.33317 8.83333Z" stroke="#667085" stroke-width="1.5" stroke-miterlimit="10" stroke-linecap="round" stroke-linejoin="round"/>
<path d="M18.3333 15.083H15" stroke="#667085" stroke-width="1.5" stroke-miterlimit="10" stroke-linecap="round" stroke-linejoin="round"/>
<path d="M6.6665 15.083H1.6665" stroke="#667085" stroke-width="1.5" stroke-miterlimit="10" stroke-linecap="round" stroke-linejoin="round"/>
<path d="M11.6667 18.0003C13.2775 18.0003 14.5833 16.6945 14.5833 15.0837C14.5833 13.4728 13.2775 12.167 11.6667 12.167C10.0558 12.167 8.75 13.4728 8.75 15.0837C8.75 16.6945 10.0558 18.0003 11.6667 18.0003Z" stroke="#667085" stroke-width="1.5" stroke-miterlimit="10" stroke-linecap="round" stroke-linejoin="round"/>
</svg>
