<svg width="20" height="20" viewBox="0 0 20 20" fill="none" xmlns="http://www.w3.org/2000/svg">
<g id="vuesax/linear/star">
<g id="star">
<g id="Group">
<path id="Vector" d="M12.825 4.34102L14 6.69101C14.1583 7.01601 14.5833 7.32434 14.9417 7.39101L17.0667 7.741C18.425 7.966 18.7417 8.94934 17.7667 9.93268L16.1083 11.591C15.8333 11.866 15.675 12.4077 15.7667 12.7993L16.2417 14.8493C16.6167 16.466 15.75 17.0993 14.325 16.2493L12.3333 15.066C11.975 14.8493 11.375 14.8493 11.0167 15.066L9.02501 16.2493C7.60001 17.091 6.73335 16.466 7.10835 14.8493L7.58336 12.7993C7.67502 12.416 7.51669 11.8743 7.24169 11.591L5.58336 9.93268C4.60836 8.95768 4.92503 7.97434 6.28336 7.741L8.40835 7.39101C8.76668 7.33267 9.19169 7.01601 9.35002 6.69101L10.525 4.34102C11.15 3.06602 12.1834 3.06602 12.825 4.34102Z" stroke="#667085" stroke-width="1.5" stroke-linecap="round" stroke-linejoin="round"/>
</g>
<path id="Vector_2" d="M6.66666 4.16602H1.66666" stroke="#667085" stroke-width="1.5" stroke-linecap="round" stroke-linejoin="round"/>
<path id="Vector_3" d="M4.16666 15.834H1.66666" stroke="#667085" stroke-width="1.5" stroke-linecap="round" stroke-linejoin="round"/>
<path id="Vector_4" d="M2.49999 10H1.66666" stroke="#667085" stroke-width="1.5" stroke-linecap="round" stroke-linejoin="round"/>
</g>
</g>
</svg>
