<svg width="20" height="20" viewBox="0 0 20 20" fill="none" xmlns="http://www.w3.org/2000/svg">
<g id="vuesax/linear/money-recive">
<g id="Group">
<path id="Vector" d="M7.91666 11.4575C7.91666 12.2659 8.54167 12.9159 9.30833 12.9159H10.875C11.5416 12.9159 12.0833 12.3492 12.0833 11.6409C12.0833 10.8825 11.75 10.6076 11.2583 10.4326L8.74999 9.55755C8.25832 9.38255 7.925 9.11588 7.925 8.34922C7.925 7.64922 8.46665 7.07422 9.13332 7.07422H10.7C11.4667 7.07422 12.0917 7.72422 12.0917 8.53255" stroke="#20A0F3" stroke-width="1.5" stroke-linecap="round" stroke-linejoin="round"/>
<path id="Vector_2" d="M10 6.25V13.75" stroke="#20A0F3" stroke-width="1.5" stroke-linecap="round" stroke-linejoin="round"/>
</g>
<path id="Vector_3" d="M18.3333 9.99935C18.3333 14.5993 14.6 18.3327 9.99999 18.3327C5.39999 18.3327 1.66666 14.5993 1.66666 9.99935C1.66666 5.39935 5.39999 1.66602 9.99999 1.66602" stroke="#20A0F3" stroke-width="1.5" stroke-linecap="round" stroke-linejoin="round"/>
<path id="Vector_4" d="M14.1667 2.5V5.83333H17.5" stroke="#20A0F3" stroke-width="1.5" stroke-linecap="round" stroke-linejoin="round"/>
<path id="Vector_5" d="M18.3333 1.66602L14.1667 5.83268" stroke="#20A0F3" stroke-width="1.5" stroke-linecap="round" stroke-linejoin="round"/>
</g>
</svg>
