<svg width="40" height="40" viewBox="0 0 40 40" fill="none" xmlns="http://www.w3.org/2000/svg">
<path id="Vector 62" d="M0 33.3228L0.246914 32.8819L0.555556 35.0866L0.740741 33.5118L0.987654 35.6535L1.41975 32.6299L1.54321 33.0709L1.97531 30.5512L2.46914 32.252L2.65432 30.9921L2.77778 32.4409L3.02469 30.1732L3.33333 32.252L3.58025 33.7638L3.88889 33.0709V34.8976L4.07407 33.5118L4.19753 33.7638V32.6299L4.50617 34.2047L4.62963 33.3228L4.87654 35.0866L5.24691 34.5197L5.4321 40L5.74074 34.2047L5.98765 35.0866L6.23457 32.252L6.66667 33.7638L7.22222 29.1024L7.46914 30.9921L7.71605 30.1732V31.874L7.96296 31.2441L8.14815 31.685L8.39506 30.9921V32.252L8.64197 31.874L8.88889 35.0866L9.44444 24.063L9.62963 26.3307L9.87654 25.5748V28.1575L10.1852 27.5906L10.5556 28.1575V22.6772L10.9259 25.5748L11.1728 20.2205L11.4815 22.6772L11.6667 20.9134L11.9136 21.2913V19.7795L12.0988 20.2205L12.284 15.874L12.5309 17.3858L12.8395 16.6929V19.5276L13.0864 18.2677L13.2716 18.9606L13.3951 18.1417L13.642 20.2205L14.0123 16.378L14.2593 18.1417L14.5679 17.9528V20.9134L14.8765 22.6772L15.2469 21.2913L15.6173 22.6772V21.2913L16.0494 23.2441V20.9134L16.358 21.2913L16.5432 18.4567L16.9136 19.7795L17.0988 18.7717L17.3457 22.1102L17.716 19.5276L17.9012 19.7795L18.0864 17.9528L18.3333 19.7795L18.7037 18.7717L18.7654 20.2205L19.0741 19.2126L19.321 22.1102L19.7531 20.9134L19.9383 21.2913L20.3086 20.4724L20.679 26.3307L20.9877 25.0079V25.5748L21.1728 23.811L21.4815 24.315V23.622L21.7901 25.0079V22.3622L22.0988 22.6772L22.4691 21.2913V23.2441L22.716 22.3622V23.2441L23.2099 21.2913L23.4568 22.6772L23.642 22.1102L23.9506 23.811L24.1975 23.2441V27.3386L24.4444 26.7717V29.1654L24.8765 28.4094V29.3543L25.1235 27.0236V27.6535L25.8025 24.6299L26.0494 25.1969L26.5432 24.315L26.7901 26.7717L27.0988 21.8583L27.3457 29.1654L27.6543 27.9055L27.8395 30.3622L28.0864 29.9213V30.8661L28.4568 27.9055V28.1575L28.8272 26.7717L29.0741 27.6535L29.4444 27.3386V30.1732L29.8148 28.7874L30.1852 32.378L30.6173 30.8661L30.9877 31.748L31.2963 29.9213L31.6049 31.1811V29.3543L31.9136 30.1732V28.7874L32.2839 29.9213V28.9134M32.2839 27.9055V28.9134M32.2839 28.9134L32.6543 27.9055L32.9012 28.1575V25.7638H33.3951V23.622L33.7654 24.315L34.0741 22.1102L34.321 22.6772V20.0315L34.7531 21.2913V18.4567L35.3086 19.7795V12.4724L35.6173 13.4173L35.9259 12.4724V14.2362L36.358 5.10236V6.23622L36.7284 3.9685L36.9753 7.24409V5.41732L37.4074 6.80315V4.59843L37.7778 4.85039V2.70866L38.2099 3.65354L38.4568 0L38.642 4.15748H38.8889V6.99213L39.0741 5.92126L39.2593 8.56693L39.5062 6.55118L40 7.05512" stroke="#20A0F3" stroke-width="0.5" stroke-linejoin="round"/>
</svg>
