<svg width="20" height="20" viewBox="0 0 20 20" fill="none" xmlns="http://www.w3.org/2000/svg">
<g id="vuesax/linear/wallet-money">
<path id="Vector" d="M8.95967 14.0508V15.7425C8.95967 17.1758 7.62633 18.3341 5.98466 18.3341C4.34299 18.3341 3.00131 17.1758 3.00131 15.7425V14.0508C3.00131 15.4841 4.33466 16.5008 5.98466 16.5008C7.62633 16.5008 8.95967 15.4758 8.95967 14.0508Z" stroke="#667085" stroke-width="1.5" stroke-linecap="round" stroke-linejoin="round"/>
<path id="Vector_2" d="M8.95834 11.7591C8.95834 12.1758 8.84167 12.5591 8.64167 12.8924C8.15001 13.7007 7.14166 14.2091 5.975 14.2091C4.80833 14.2091 3.79999 13.6924 3.30832 12.8924C3.10832 12.5591 2.9917 12.1758 2.9917 11.7591C2.9917 11.0424 3.32501 10.4008 3.85835 9.93409C4.40001 9.45909 5.14165 9.17578 5.96665 9.17578C6.79165 9.17578 7.53335 9.46743 8.07501 9.93409C8.62501 10.3924 8.95834 11.0424 8.95834 11.7591Z" stroke="#667085" stroke-width="1.5" stroke-linecap="round" stroke-linejoin="round"/>
<path id="Vector_3" d="M8.95967 11.7577V14.0493C8.95967 15.4827 7.62633 16.4993 5.98466 16.4993C4.34299 16.4993 3.00131 15.4743 3.00131 14.0493V11.7577C3.00131 10.3243 4.33466 9.16602 5.98466 9.16602C6.80966 9.16602 7.55135 9.45766 8.09302 9.92433C8.62635 10.391 8.95967 11.041 8.95967 11.7577Z" stroke="#667085" stroke-width="1.5" stroke-linecap="round" stroke-linejoin="round"/>
<path id="Vector_4" d="M18.3333 9.14098V10.8577C18.3333 11.316 17.9667 11.691 17.5 11.7077H15.8667C14.9667 11.7077 14.1417 11.0493 14.0667 10.1493C14.0167 9.62433 14.2167 9.13266 14.5667 8.791C14.875 8.47433 15.3 8.29102 15.7667 8.29102H17.5C17.9667 8.30768 18.3333 8.68265 18.3333 9.14098Z" stroke="#667085" stroke-width="1.5" stroke-linecap="round" stroke-linejoin="round"/>
<path id="Vector_5" d="M1.66666 8.74935V7.08268C1.66666 4.81602 3.03333 3.23268 5.15833 2.96601C5.37499 2.93268 5.59999 2.91602 5.83332 2.91602H13.3333C13.55 2.91602 13.7583 2.92434 13.9583 2.95767C16.1083 3.20767 17.5 4.79935 17.5 7.08268V8.29103H15.7666C15.3 8.29103 14.875 8.47434 14.5666 8.79101C14.2166 9.13267 14.0167 9.62434 14.0667 10.1493C14.1417 11.0493 14.9666 11.7077 15.8666 11.7077H17.5V12.916C17.5 15.416 15.8333 17.0827 13.3333 17.0827H11.25" stroke="#667085" stroke-width="1.5" stroke-linecap="round" stroke-linejoin="round"/>
</g>
</svg>
